<svg xmlns="http://www.w3.org/2000/svg" width="31.58" height="32.846" viewBox="0 0 31.58 32.846"><g transform="translate(0)"><path d="M1.176,25.07a70.153,70.153,0,0,1,.563-7.521,58.929,58.929,0,0,0,.512-8.7V4.042a.568.568,0,0,1,.563-.563H7.162C7.623,2.456,9.158,0,13.813,0a.568.568,0,0,1,.563.563V3.479h.716a.568.568,0,0,1,.563.563V8.8A14.392,14.392,0,0,0,17.7,15.758h0a7.721,7.721,0,0,0,2.2,2.1h0c1.944,1.126,4.2,1.177,6.139,1.279a15.775,15.775,0,0,1,2.456.2A4.954,4.954,0,0,1,31.925,21.8c1.279,2.251,1.074,5.73-.563,10.642a.588.588,0,0,1-.512.409H29.418a.568.568,0,0,1-.563-.563v-.051l-.1.2a.563.563,0,0,1-.512.307H26.4a.568.568,0,0,1-.563-.563v-.2l-.409.512a.5.5,0,0,1-.46.2H23.074a.568.568,0,0,1-.563-.563v-.153l-.307.46a.537.537,0,0,1-.46.256H20.362a.568.568,0,0,1-.563-.563v-.307l-.563.665a.632.632,0,0,1-.409.2H16.985a.949.949,0,0,1-.358-.1,9.981,9.981,0,0,0-6.037-2.2l-.921,2a.563.563,0,0,1-.512.307H6.7a.568.568,0,0,1-.563-.563v-.512l-.767.87a.465.465,0,0,1-.409.2H2.4a.678.678,0,0,1-.512-.307C1.125,30.7,1.176,28.446,1.176,25.07ZM13.251,1.126C10.283,1.279,9,2.609,8.441,3.428h4.809v-2.3ZM31,22.256a3.987,3.987,0,0,0-2.712-1.893,9.469,9.469,0,0,0-2.251-.153,24.417,24.417,0,0,1-2.609-.153V22a.563.563,0,1,1-1.126,0V19.851a8.922,8.922,0,0,1-2.4-.819l-1.023,2a.563.563,0,0,1-.512.307.461.461,0,0,1-.256-.051.581.581,0,0,1-.256-.767l1.023-2.046a8.428,8.428,0,0,1-1.74-1.586L14.99,18.725a.553.553,0,0,1-.358.153.465.465,0,0,1-.409-.2.622.622,0,0,1,.051-.819l2.251-1.944a16.028,16.028,0,0,1-1.023-2.1L12.79,14.939a.308.308,0,0,1-.2.051.616.616,0,0,1-.512-.358.529.529,0,0,1,.307-.716l2.814-1.177A20.33,20.33,0,0,1,14.53,8.8V4.6H3.376V8.851a67.579,67.579,0,0,1-.563,8.8C2.558,20,2.3,22.46,2.251,25.018v.665a47.73,47.73,0,0,1,11.46.767,106.655,106.655,0,0,0,17.7,1.228C31.822,25.325,31.72,23.535,31,22.256ZM2.813,31.618H4.706l1.586-1.893a.488.488,0,0,1,.614-.153.616.616,0,0,1,.358.512v1.535H8.8l.921-1.944a.588.588,0,0,1,.46-.307,10.516,10.516,0,0,1,6.958,2.3H18.52L19.9,30.032a.488.488,0,0,1,.614-.153.616.616,0,0,1,.358.512v1.228h.512l1.228-1.688a.511.511,0,0,1,.614-.2.555.555,0,0,1,.409.563v1.381h1.074l1.228-1.637a.587.587,0,0,1,.614-.2.68.68,0,0,1,.409.512v1.33h.921l1.074-2a.517.517,0,0,1,.614-.256.555.555,0,0,1,.409.563v1.637h.512a24.634,24.634,0,0,0,.716-2.763,110.6,110.6,0,0,1-17.651-1.228A48.2,48.2,0,0,0,2.3,26.911,14.956,14.956,0,0,0,2.813,31.618Z" transform="translate(-1.176)"/></g></svg>