<svg width="28" height="28" viewBox="0 0 28 28" fill="none" xmlns="http://www.w3.org/2000/svg">
<g clip-path="url(#clip0)">
<path d="M24.8222 20.3662C24.7859 18.6417 24.6569 16.9204 24.4357 15.2097C24.1702 13.2333 24.0513 11.2399 24.0801 9.24592V5.9493C24.0795 5.847 24.0386 5.74906 23.9662 5.67673C23.8939 5.60439 23.796 5.56347 23.6937 5.56285H20.7171C20.4018 4.86228 19.3492 3.17781 16.1568 3.17781C16.0545 3.17843 15.9566 3.21935 15.8843 3.29168C15.8119 3.36402 15.771 3.46195 15.7704 3.56425V5.56285H15.2796C15.1773 5.56347 15.0794 5.60439 15.0071 5.67673C14.9347 5.74906 14.8938 5.847 14.8932 5.9493V9.21154C14.8407 10.8956 14.3579 12.5382 13.4909 13.9828V13.9828C13.0881 14.5574 12.5752 15.0461 11.9818 15.4207V15.4207C10.669 16.0453 9.22552 16.3461 7.77245 16.2979C7.20817 16.3005 6.64497 16.3473 6.08798 16.4378C5.59635 16.5283 5.13074 16.7261 4.7244 17.0173C4.31807 17.3085 3.98102 17.6858 3.73732 18.1223C2.86012 19.6633 3.00118 22.0519 4.12376 25.4196C4.14804 25.4967 4.19493 25.5647 4.25835 25.6148C4.32176 25.6649 4.39877 25.6948 4.47939 25.7006H5.46209C5.56439 25.7 5.66232 25.659 5.73466 25.5867C5.807 25.5144 5.84791 25.4164 5.84853 25.3141V25.2786L5.91847 25.4184C5.95168 25.4837 6.00273 25.5382 6.06569 25.5755C6.12864 25.6129 6.20092 25.6316 6.27409 25.6295H7.52707C7.62937 25.6288 7.7273 25.5879 7.79964 25.5156C7.87198 25.4432 7.91289 25.3453 7.91351 25.243V25.1079L8.19446 25.4635C8.22986 25.5127 8.27773 25.5516 8.33315 25.5762C8.38857 25.6008 8.44953 25.6102 8.50977 25.6034H9.81372C9.91602 25.6027 10.014 25.5618 10.0863 25.4895C10.1586 25.4172 10.1995 25.3192 10.2002 25.2169V25.1079L10.4112 25.4232C10.4443 25.477 10.4907 25.5214 10.5459 25.5521C10.6011 25.5828 10.6633 25.5989 10.7265 25.5986H11.6748C11.7771 25.598 11.875 25.5571 11.9474 25.4848C12.0197 25.4124 12.0606 25.3145 12.0613 25.2122V25.0012L12.443 25.4552C12.5158 25.5353 12.6161 25.5852 12.7239 25.5951H13.984C14.0696 25.5882 14.153 25.5644 14.2294 25.5251C15.4054 24.5793 16.8612 24.0488 18.37 24.0161L19.0018 25.3841C19.035 25.4493 19.0861 25.5038 19.149 25.5411C19.212 25.5785 19.2843 25.5972 19.3575 25.5951H21.0419C21.1442 25.5944 21.2421 25.5535 21.3145 25.4812C21.3868 25.4089 21.4277 25.3109 21.4284 25.2086V24.853L21.9547 25.4457C21.9855 25.4913 22.0275 25.5281 22.0768 25.5526C22.126 25.5771 22.1807 25.5885 22.2356 25.5856H23.99C24.0616 25.5803 24.1309 25.5584 24.1926 25.5218C24.2543 25.4852 24.3067 25.4348 24.3457 25.3746C24.8566 24.2271 24.8222 22.6837 24.8222 20.3662ZM16.5421 3.94951C17.1786 3.92573 17.8113 4.05702 18.3858 4.33208C18.9603 4.60714 19.4593 5.01773 19.8399 5.52848H16.5421V3.94951ZM4.36914 18.4388C4.56756 18.1008 4.83634 17.8094 5.15724 17.5845C5.47815 17.3595 5.84368 17.2061 6.22905 17.1348C6.7367 17.0384 7.25403 17.003 7.77008 17.0293C8.3685 17.0278 8.96641 16.9941 9.56123 16.9286V18.2621C9.55832 18.3146 9.56615 18.3671 9.58422 18.4165C9.6023 18.4658 9.63025 18.5109 9.66636 18.5491C9.70248 18.5873 9.746 18.6177 9.79427 18.6385C9.84253 18.6593 9.89453 18.67 9.94708 18.67C9.99963 18.67 10.0516 18.6593 10.0999 18.6385C10.1482 18.6177 10.1917 18.5873 10.2278 18.5491C10.2639 18.5109 10.2919 18.4658 10.3099 18.4165C10.328 18.3671 10.3358 18.3146 10.3329 18.2621V16.7899C10.9066 16.6822 11.4618 16.493 11.9818 16.228L12.68 17.5971C12.7132 17.6624 12.7643 17.7168 12.8273 17.7542C12.8902 17.7915 12.9625 17.8102 13.0357 17.8081C13.0963 17.8134 13.1573 17.8011 13.2111 17.7726C13.303 17.7249 13.3728 17.6432 13.4055 17.545C13.4383 17.4467 13.4315 17.3396 13.3865 17.2462L12.68 15.8427C13.1264 15.5379 13.5278 15.172 13.8726 14.7557L15.346 16.0182C15.4123 16.0819 15.4995 16.1194 15.5914 16.1237C15.648 16.1277 15.7047 16.1165 15.7555 16.0913C15.8064 16.066 15.8496 16.0277 15.8806 15.9802C15.9439 15.8982 15.9752 15.796 15.9687 15.6926C15.9621 15.5892 15.9182 15.4917 15.8451 15.4183L14.2969 14.0836C14.5655 13.622 14.8 13.1414 14.9987 12.6457L16.8586 13.4174C16.8996 13.4453 16.9491 13.4579 16.9985 13.4529C17.0744 13.4479 17.1475 13.4224 17.2101 13.3792C17.2727 13.336 17.3224 13.2767 17.3541 13.2076C17.3747 13.1617 17.3855 13.1121 17.3859 13.0619C17.3863 13.0117 17.3762 12.962 17.3564 12.9158C17.3365 12.8697 17.3073 12.8282 17.2706 12.7939C17.2339 12.7597 17.1905 12.7334 17.1431 12.7168L15.2133 11.9095C15.4537 11.0262 15.6066 10.1213 15.6696 9.20798V6.33574H23.3132V9.2471C23.3105 11.2646 23.4396 13.2801 23.6996 15.2808C23.875 16.8942 24.0552 18.5786 24.086 20.333V20.7894C21.4551 20.6479 18.8166 20.8246 16.228 21.3157C12.2122 21.933 8.15193 22.2145 4.08939 22.1574C3.76105 20.9217 3.85963 19.6114 4.36914 18.4388V18.4388ZM23.7043 24.8589H22.4004L21.3134 23.555C21.2672 23.4902 21.1995 23.444 21.1224 23.4247C21.0453 23.4054 20.9638 23.4141 20.8926 23.4495C20.8234 23.4811 20.7641 23.5309 20.7209 23.5935C20.6777 23.6561 20.6522 23.7292 20.6472 23.8051V24.8577H19.5945L18.9627 23.5254C18.9315 23.467 18.8864 23.4172 18.8314 23.3804C18.7764 23.3436 18.7132 23.3209 18.6474 23.3143C16.9191 23.2515 15.2257 23.8118 13.8761 24.8933H12.9278L11.9795 23.7707C11.9333 23.706 11.8656 23.6598 11.7885 23.6404C11.7114 23.6211 11.6299 23.6299 11.5586 23.6652C11.4895 23.6969 11.4302 23.7467 11.387 23.8093C11.3438 23.8719 11.3183 23.945 11.3133 24.0209V24.8625H10.9576L10.116 23.7043C10.0721 23.6368 10.0065 23.5862 9.93007 23.5608C9.85361 23.5354 9.7708 23.5367 9.69518 23.5645C9.61126 23.5871 9.53762 23.6378 9.4865 23.7081C9.43539 23.7784 9.40989 23.8641 9.41424 23.9509V24.8992H8.68403L7.84239 23.7767C7.79361 23.7147 7.72774 23.6685 7.65295 23.6436C7.57815 23.6188 7.49771 23.6164 7.42157 23.6368C7.34834 23.6672 7.2841 23.7159 7.23494 23.7781C7.18578 23.8404 7.15331 23.9141 7.14063 23.9924V24.904H6.5088L5.77267 23.536C5.73419 23.4621 5.67098 23.4041 5.59407 23.372C5.51716 23.3399 5.43143 23.3359 5.35185 23.3606C5.26792 23.3832 5.19428 23.4339 5.14316 23.5042C5.09205 23.5745 5.06655 23.6602 5.0709 23.747V24.8696H4.71528C4.51514 24.2474 4.35128 23.6141 4.22452 22.9729C8.27487 23.0161 12.3222 22.7346 16.3275 22.1313C18.8722 21.6663 21.4627 21.5016 24.0457 21.6405C24.103 22.7247 23.9878 23.811 23.7043 24.8589Z" fill="white" stroke="white" stroke-width="0.3"/>
</g>
<defs>
<clipPath id="clip0">
<rect width="22" height="22.8784" fill="white" transform="translate(3 3)"/>
</clipPath>
</defs>
</svg>
