<svg width="17" height="17" viewBox="0 0 17 17" fill="none" xmlns="http://www.w3.org/2000/svg">
<path fill-rule="evenodd" clip-rule="evenodd" d="M8.5 15.5217C12.378 15.5217 15.5217 12.378 15.5217 8.5C15.5217 4.622 12.378 1.47826 8.5 1.47826C4.622 1.47826 1.47826 4.622 1.47826 8.5C1.47826 12.378 4.622 15.5217 8.5 15.5217ZM8.5 17C13.1944 17 17 13.1944 17 8.5C17 3.80558 13.1944 0 8.5 0C3.80558 0 0 3.80558 0 8.5C0 13.1944 3.80558 17 8.5 17ZM7.77412 8.62879L4.30604 5.1607L5.35133 4.11542L8.81941 7.5835L12.0725 4.33045L13.1178 5.37574L9.8647 8.62879L13.1178 11.8818L12.0725 12.9271L8.81941 9.67408L5.35133 13.1422L4.30604 12.0969L7.77412 8.62879Z" fill="black"/>
</svg>
