<svg width="30" height="29" viewBox="0 0 30 29" fill="none" xmlns="http://www.w3.org/2000/svg">
<g clip-path="url(#clip0)">
<path d="M27.8889 10.6704C27.8283 10.5843 27.7477 10.514 27.654 10.4652C27.5603 10.4164 27.4561 10.3905 27.3502 10.3899H23.242V8.65601C23.2408 8.48209 23.1706 8.31564 23.0465 8.19266C22.9225 8.06968 22.7545 8.00005 22.579 7.99886H7.69486C7.51939 8.00005 7.35143 8.06968 7.22735 8.19266C7.10327 8.31564 7.03303 8.48209 7.03184 8.65601V19.2674C7.03303 19.4413 7.10327 19.6078 7.22735 19.7308C7.35143 19.8537 7.51939 19.9234 7.69486 19.9245H9.5675C9.73704 20.522 10.0989 21.0482 10.5981 21.423C11.0973 21.7978 11.7063 22.0006 12.3325 22.0006C12.9588 22.0006 13.5678 21.7978 14.067 21.423C14.5661 21.0482 14.928 20.522 15.0976 19.9245H22.4375C22.6071 20.522 22.969 21.0482 23.4681 21.423C23.9673 21.7978 24.5763 22.0006 25.2026 22.0006C25.8288 22.0006 26.4378 21.7978 26.937 21.423C27.4362 21.0482 27.7981 20.522 27.9676 19.9245H29.337C29.5125 19.9234 29.6804 19.8537 29.8045 19.7308C29.9286 19.6078 29.9988 19.4413 30 19.2674V13.8656C30.0012 13.7301 29.9579 13.5979 29.8768 13.4889L27.8889 10.6704ZM28.6877 14.0635H25.7206V11.7166H27.0193L28.6877 14.0635ZM8.3613 9.32672H21.9206V18.625H15.1626C15.038 17.9724 14.6873 17.3834 14.1713 16.9596C13.6552 16.5359 13.0061 16.304 12.336 16.304C11.6658 16.304 11.0167 16.5359 10.5006 16.9596C9.98457 17.3834 9.63396 17.9724 9.50931 18.625H8.3613V9.32672ZM12.336 20.6914C12.0286 20.6914 11.7281 20.601 11.4725 20.4318C11.2169 20.2625 11.0176 20.0219 10.9 19.7404C10.7824 19.4589 10.7516 19.1492 10.8116 18.8504C10.8715 18.5516 11.0196 18.2771 11.2369 18.0616C11.4543 17.8462 11.7312 17.6995 12.0327 17.64C12.3342 17.5806 12.6467 17.6111 12.9308 17.7277C13.2148 17.8443 13.4575 18.0417 13.6283 18.2951C13.7991 18.5484 13.8902 18.8462 13.8902 19.1509C13.8884 19.5591 13.7235 19.9499 13.4315 20.2378C13.1396 20.5257 12.7444 20.6872 12.3325 20.6869L12.336 20.6914ZM25.2151 20.6914C24.9077 20.6914 24.6072 20.601 24.3516 20.4318C24.096 20.2625 23.8968 20.0219 23.7792 19.7404C23.6615 19.4589 23.6307 19.1492 23.6907 18.8504C23.7507 18.5516 23.8987 18.2771 24.1161 18.0616C24.3334 17.8462 24.6104 17.6995 24.9119 17.64C25.2134 17.5806 25.5259 17.6111 25.8099 17.7277C26.0939 17.8443 26.3367 18.0417 26.5074 18.2951C26.6782 18.5484 26.7694 18.8462 26.7694 19.1509C26.7676 19.5591 26.6026 19.9499 26.3107 20.2378C26.0187 20.5257 25.6235 20.6872 25.2117 20.6869L25.2151 20.6914ZM28.0418 18.625C27.9458 18.1233 27.7154 17.6564 27.3748 17.2733C27.0342 16.8902 26.5959 16.6049 26.1058 16.4474C25.6157 16.2899 25.0919 16.2659 24.5893 16.378C24.0866 16.4901 23.6237 16.7341 23.2489 17.0845V11.7177H24.39V14.7206C24.3912 14.8946 24.4615 15.061 24.5856 15.184C24.7097 15.307 24.8776 15.3766 25.0531 15.3778H28.7048V18.6261L28.0418 18.625Z" fill="white"/>
<path d="M0.663015 9.32219H5.38856C5.47787 9.32586 5.56701 9.31161 5.65061 9.28027C5.73421 9.24893 5.81056 9.20115 5.87506 9.13982C5.93956 9.07849 5.99089 9.00487 6.02595 8.92338C6.06101 8.84189 6.07908 8.7542 6.07908 8.66561C6.07908 8.57702 6.06101 8.48935 6.02595 8.40786C5.99089 8.32637 5.93956 8.25274 5.87506 8.19141C5.81056 8.13008 5.73421 8.08232 5.65061 8.05098C5.56701 8.01964 5.47787 8.00538 5.38856 8.00906H0.663015C0.573708 8.00538 0.484574 8.01964 0.40097 8.05098C0.317367 8.08232 0.241021 8.13008 0.17652 8.19141C0.112019 8.25274 0.0606903 8.32637 0.02563 8.40786C-0.00943036 8.48935 -0.0274963 8.57702 -0.0274963 8.66561C-0.0274963 8.7542 -0.00943036 8.84189 0.02563 8.92338C0.0606903 9.00487 0.112019 9.07849 0.17652 9.13982C0.241021 9.20115 0.317367 9.24893 0.40097 9.28027C0.484574 9.31161 0.573708 9.32586 0.663015 9.32219V9.32219Z" fill="white"/>
<path d="M5.38856 10.3989H1.7494C1.6601 10.3953 1.57096 10.4095 1.48736 10.4409C1.40376 10.4722 1.3274 10.52 1.2629 10.5813C1.1984 10.6426 1.14708 10.7163 1.11202 10.7977C1.07696 10.8792 1.05888 10.9669 1.05888 11.0555C1.05888 11.1441 1.07696 11.2318 1.11202 11.3133C1.14708 11.3947 1.1984 11.4684 1.2629 11.5297C1.3274 11.591 1.40376 11.6388 1.48736 11.6701C1.57096 11.7015 1.6601 11.7157 1.7494 11.7121H5.38856C5.47787 11.7157 5.567 11.7015 5.65061 11.6701C5.73421 11.6388 5.81057 11.591 5.87507 11.5297C5.93957 11.4684 5.99089 11.3947 6.02595 11.3133C6.06101 11.2318 6.07908 11.1441 6.07908 11.0555C6.07908 10.9669 6.06101 10.8792 6.02595 10.7977C5.99089 10.7163 5.93957 10.6426 5.87507 10.5813C5.81057 10.52 5.73421 10.4722 5.65061 10.4409C5.567 10.4095 5.47787 10.3953 5.38856 10.3989V10.3989Z" fill="white"/>
<path d="M5.38857 12.7888H3.09141C2.92047 12.7959 2.7589 12.8681 2.64046 12.9905C2.52202 13.1128 2.45589 13.2758 2.45589 13.4454C2.45589 13.615 2.52202 13.778 2.64046 13.9003C2.7589 14.0227 2.92047 14.0949 3.09141 14.1019H5.38857C5.47787 14.1056 5.56701 14.0914 5.65061 14.06C5.73421 14.0287 5.81056 13.9809 5.87506 13.9196C5.93956 13.8583 5.99089 13.7846 6.02595 13.7031C6.06101 13.6217 6.07908 13.534 6.07908 13.4454C6.07908 13.3568 6.06101 13.2691 6.02595 13.1876C5.99089 13.1061 5.93956 13.0325 5.87506 12.9712C5.81056 12.9099 5.73421 12.8621 5.65061 12.8308C5.56701 12.7994 5.47787 12.7851 5.38857 12.7888V12.7888Z" fill="white"/>
<path d="M5.38857 15.1798H4.58976C4.50045 15.1762 4.41132 15.1904 4.32771 15.2218C4.24411 15.2531 4.16776 15.3009 4.10326 15.3622C4.03876 15.4235 3.98744 15.4972 3.95238 15.5787C3.91732 15.6601 3.89924 15.7478 3.89924 15.8364C3.89924 15.925 3.91732 16.0127 3.95238 16.0942C3.98744 16.1756 4.03876 16.2493 4.10326 16.3106C4.16776 16.3719 4.24411 16.4197 4.32771 16.4511C4.41132 16.4824 4.50045 16.4967 4.58976 16.493H5.38857C5.47787 16.4967 5.56701 16.4824 5.65061 16.4511C5.73422 16.4197 5.81056 16.3719 5.87506 16.3106C5.93956 16.2493 5.99088 16.1756 6.02594 16.0942C6.061 16.0127 6.07909 15.925 6.07909 15.8364C6.07909 15.7478 6.061 15.6601 6.02594 15.5787C5.99088 15.4972 5.93956 15.4235 5.87506 15.3622C5.81056 15.3009 5.73422 15.2531 5.65061 15.2218C5.56701 15.1904 5.47787 15.1762 5.38857 15.1798V15.1798Z" fill="white"/>
</g>
<defs>
<clipPath id="clip0">
<rect width="30" height="14" fill="white" transform="translate(0 8)"/>
</clipPath>
</defs>
</svg>
