<svg xmlns="http://www.w3.org/2000/svg" width="28.291" height="31.183" viewBox="0 0 28.291 31.183"><g transform="translate(0 0)"><path d="M129.273,94.36c0-.009,0-.018-.009-.018,0-.018-.009-.027-.009-.046s-.009-.027-.009-.036-.009-.018-.009-.027a.492.492,0,0,0-.064-.119h0l-5.93-8.713a.673.673,0,0,0-.566-.3H107.614a.673.673,0,0,0-.566.3l-5.93,8.713h0a.754.754,0,0,0-.064.119c0,.009-.009.018-.009.027a.055.055,0,0,0-.009.036c0,.018-.009.027-.009.046s0,.018-.009.018A.7.7,0,0,0,101,94.5h0v21.1a.689.689,0,0,0,.684.684h26.922a.689.689,0,0,0,.684-.684V94.5h0C129.282,94.451,129.282,94.406,129.273,94.36Zm-1.971-.547h-8.84l-.83-7.344H122.3Zm-14.2,1.368h4.06V100.2l-1.633-1.15a.666.666,0,0,0-.785,0l-1.633,1.15V95.181Zm3.147-8.713.83,7.344h-3.9l.83-7.344Zm-8.275,0h4.671l-.83,7.344h-8.84Zm19.934,28.446H102.368V95.181h9.379v6.331a.7.7,0,0,0,.365.611.689.689,0,0,0,.712-.046l2.317-1.633,2.317,1.633a.693.693,0,0,0,.392.128.778.778,0,0,0,.319-.073.685.685,0,0,0,.365-.611V95.19h9.379Z" transform="translate(-101 -85.1)"/><path d="M145.838,330.4h-4.854a.684.684,0,1,0,0,1.368h4.854a.684.684,0,0,0,0-1.368Z" transform="translate(-136.715 -308.021)"/><path d="M143.411,361.9h-2.427a.684.684,0,1,0,0,1.368h2.427a.684.684,0,1,0,0-1.368Z" transform="translate(-136.715 -336.647)"/></g></svg>