<svg xmlns="http://www.w3.org/2000/svg" width="43.059" height="43.059" viewBox="0 0 43.059 43.059"><defs><style>.a{fill:#fff;}</style></defs><path class="a" d="M.586,30.052,14.179,43.645,43.645,14.179,30.052.586Zm13.593,11.1-11.1-11.1,1.84-1.84,4.227,4.227,1.247-1.247L6.166,26.966,9.329,23.8l2.463,2.463,1.247-1.247-2.463-2.463,3.162-3.162,4.227,4.227,1.247-1.247-4.227-4.227,3.162-3.162,2.463,2.463L21.857,16.2l-2.463-2.463,3.162-3.162L26.783,14.8l1.247-1.247L23.8,9.329l3.162-3.162,2.463,2.463,1.247-1.247L28.213,4.919l1.84-1.84,11.1,11.1Z" transform="translate(-0.586 -0.586)"/></svg>