<svg xmlns="http://www.w3.org/2000/svg" width="46.055" height="21.685" viewBox="0 0 46.055 21.685"><g transform="translate(0 0)"><path d="M197.719,180.136a1.016,1.016,0,0,0-.827-.434h-6.306v-2.685A1.024,1.024,0,0,0,189.568,176H166.717a1.025,1.025,0,0,0-1.017,1.017v16.436a1.025,1.025,0,0,0,1.017,1.017h2.875a4.41,4.41,0,0,0,8.489,0h11.27a4.41,4.41,0,0,0,8.489,0h2.1a1.025,1.025,0,0,0,1.017-1.017v-8.367a.969.969,0,0,0-.19-.583Zm1.22,5.248h-4.557V181.75h1.994Zm-31.2-7.337h20.817v14.4H178.177a4.417,4.417,0,0,0-8.679,0h-1.763Zm6.1,17.6a2.387,2.387,0,1,1,2.387-2.387A2.39,2.39,0,0,1,173.837,195.65Zm19.773,0A2.387,2.387,0,1,1,196,193.264,2.39,2.39,0,0,1,193.609,195.65Zm4.34-3.2a4.409,4.409,0,0,0-7.364-2.387V181.75h1.749V186.4a1.025,1.025,0,0,0,1.017,1.017h5.6v5.031Z" transform="translate(-154.905 -176)"/><path d="M87.117,178.134h7.255a1.017,1.017,0,1,0,0-2.034H87.117a1.017,1.017,0,1,0,0,2.034Z" transform="translate(-86.1 -176.086)"/><path d="M105,203.4H99.417a1.017,1.017,0,0,0,0,2.034H105a1.017,1.017,0,0,0,0-2.034Z" transform="translate(-96.732 -199.684)"/><path d="M118.143,230.7h-3.526a1.017,1.017,0,1,0,0,2.034h3.526a1.017,1.017,0,1,0,0-2.034Z" transform="translate(-109.871 -223.282)"/><path d="M132.838,258h-1.221a1.017,1.017,0,0,0,0,2.034h1.221a1.017,1.017,0,0,0,0-2.034Z" transform="translate(-124.565 -246.88)"/></g></svg>