<?xml version="1.0" encoding="UTF-8"?>
<svg width="138px" height="140px" viewBox="0 0 138 140" version="1.1" xmlns="http://www.w3.org/2000/svg" xmlns:xlink="http://www.w3.org/1999/xlink">
    <title>WAT_Logo_Strawberry_RGB</title>
    <g id="WAT_Logo_Strawberry_RGB" stroke="none" stroke-width="1" fill="none" fill-rule="evenodd">
        <g fill-rule="nonzero">
            <path d="M65.5658986,137.364055 C62.1317972,137.364055 59.0792627,137.109677 56.281106,136.600922 L55.6451613,136.473733 L55.0728111,136.346544 C52.0202765,135.837788 48.840553,135.265438 45.8516129,134.43871 C40.0645161,132.848848 33.4506912,130.877419 27.8543779,127.125346 C27.7271889,127.061751 27.6,126.934562 27.4728111,126.870968 C27.3456221,126.807373 27.2184332,126.743779 27.0912442,126.61659 C26.3917051,126.171429 25.6921659,125.726267 25.1198157,125.217512 C21.3041475,121.529032 16.916129,117.077419 13.7364055,111.5447 C11.8921659,108.301382 10.556682,104.867281 9.3483871,101.814747 L8.96682028,100.860829 C8.20368664,98.9529954 7.440553,96.9815668 6.55023041,95.0737327 C4.4516129,90.6857143 2.98894009,85.5981567 1.78064516,78.5391705 C1.71705069,78.0304147 1.58986175,77.4580645 1.46267281,76.8857143 L1.46267281,76.6949309 C0.826728111,73.197235 0.19078341,69.2543779 2.48018433,66.6470046 C4.13364055,64.802765 6.93179724,64.802765 9.15760369,64.802765 C9.72995392,64.802765 10.3023041,64.802765 10.8746544,64.7391705 C12.0829493,64.675576 13.6728111,64.6119816 15.2626728,64.6119816 C17.1705069,64.6119816 19.078341,64.675576 20.9225806,64.7391705 C21.7493088,64.7391705 22.5124424,64.802765 23.3391705,64.802765 L24.8018433,64.802765 C25.9465438,64.802765 27.0912442,64.7391705 28.1723502,64.675576 C28.7447005,64.675576 29.2534562,64.6119816 29.8258065,64.6119816 C31.4792627,64.4847926 33.1963134,64.4211982 34.8497696,64.4211982 C35.3585253,64.4211982 35.8672811,64.4211982 36.3124424,64.4847926 C37.3299539,64.5483871 38.3474654,64.5483871 39.3013825,64.5483871 C41.0820276,64.5483871 42.9262673,64.4847926 44.643318,64.4211982 C46.1695853,64.3576037 47.5686636,64.2940092 48.9041475,64.2940092 L57.8709677,64.2940092 C60.1603687,64.3576037 62.640553,64.4211982 65.3115207,64.4211982 C68.1732719,64.4211982 71.035023,64.3576037 73.8331797,64.2940092 C75.1686636,64.2940092 76.5677419,64.2304147 77.9032258,64.2304147 C79.0479263,64.2304147 80.2562212,64.1668203 81.4009217,64.1668203 C83.8175115,64.1032258 86.2976959,64.0396313 88.7778802,64.0396313 C89.9861751,64.0396313 90.9400922,63.9760369 91.7032258,63.7852535 C94.8193548,63.2129032 98.1262673,63.2129032 101.305991,63.2129032 L103.976959,63.2129032 C106.775115,63.2129032 109.636866,63.2764977 112.117051,63.3400922 C115.042396,63.4036866 117.64977,63.4672811 120.320737,63.4672811 C123.309677,63.4672811 126.171429,63.3400922 129.160369,63.1493088 C129.541935,63.0857143 129.987097,63.0857143 130.432258,63.0857143 C131.958525,63.0857143 134.693088,63.3400922 136.028571,65.1207373 C136.8553,66.2654378 136.918894,68.0460829 136.918894,69.6995392 L136.918894,70.9714286 C137.236866,77.0129032 136.664516,82.8 135.265438,88.7142857 C133.611982,95.4552995 131.386175,102.259908 128.651613,108.937327 C127.443318,111.926267 126.107834,114.152074 124.517972,116.059908 C122.419355,118.476498 120.129954,121.083871 117.713364,123.564055 C114.024885,127.316129 109.191705,130.050691 102.959447,131.958525 C98.1262673,133.421198 93.356682,134.629493 88.8414747,135.519816 C85.4073733,136.15576 81.8460829,136.473733 78.5391705,136.728111 L77.2036866,136.8553 L75.8046083,136.982488 C72.4976959,137.109677 69.0635945,137.364055 65.5658986,137.364055 Z" id="Path" fill="#FFFFFF"></path>
            <g id="Group" fill="#F37F7E">
                <path d="M43.1806452,36.3760369 C43.0534562,36.3760369 42.9898618,36.3760369 42.8626728,36.3124424 C42.7354839,36.2488479 42.6082949,36.1852535 42.481106,36.121659 C42.3539171,35.99447 42.2267281,35.9308756 42.0995392,35.8672811 L40.6368664,34.7225806 C40.1281106,34.3410138 39.6829493,33.959447 39.237788,33.5778802 C38.9198157,33.3235023 38.6654378,33.0691244 38.4110599,32.7511521 C38.156682,32.4331797 37.8387097,32.1788018 37.5207373,31.924424 C37.075576,31.6064516 36.6304147,31.2884793 36.1852535,30.9705069 C35.7400922,30.716129 35.2949309,30.3981567 34.8497696,30.0801843 C34.7225806,30.0165899 34.5953917,29.8894009 34.4682028,29.762212 C34.3410138,29.635023 34.1502304,29.5714286 34.0230415,29.5078341 C33.8958525,29.3806452 33.7686636,29.2534562 33.5778802,29.1262673 C33.4506912,28.9990783 33.2599078,28.9354839 33.1327189,28.8082949 C32.878341,28.5539171 32.5603687,28.2995392 32.3695853,28.1087558 L31.6064516,27.3456221 C30.9705069,26.7096774 30.2709677,26.1373272 29.5714286,25.564977 C28.8718894,24.9926267 28.1723502,24.483871 27.4728111,23.9115207 C27.0912442,23.6571429 26.7096774,23.402765 26.3917051,23.1483871 C26.0737327,22.8940092 25.7557604,22.5760369 25.437788,22.2580645 L25.1834101,21.9400922 C25.1198157,21.8764977 25.0562212,21.7493088 25.0562212,21.6221198 C24.9926267,21.4313364 25.0562212,21.240553 25.0562212,21.0497696 C25.1198157,20.8589862 25.1834101,20.6682028 25.3105991,20.4774194 C25.6921659,19.8414747 26.0737327,19.2691244 26.518894,18.6967742 L27.9179724,17.043318 C28.0451613,16.916129 28.1723502,16.7889401 28.2995392,16.6617512 C28.4267281,16.5345622 28.5539171,16.4709677 28.681106,16.4709677 C28.7447005,16.4709677 28.8082949,16.4709677 28.8718894,16.4709677 C28.9990783,16.4709677 29.1262673,16.5345622 29.2534562,16.5981567 C29.4442396,16.7253456 29.635023,16.7889401 29.8258065,16.916129 C30.3981567,17.2976959 30.9069124,17.6792627 31.4156682,18.0608295 C31.924424,18.4423963 32.4331797,18.8239631 32.9419355,19.2691244 C33.959447,20.159447 35.040553,21.0497696 36.121659,21.8764977 C37.202765,22.7032258 38.283871,23.5935484 39.3013825,24.5474654 C40.3824885,25.564977 41.4635945,26.518894 42.5447005,27.4092166 C43.6258065,28.2995392 44.7705069,29.2534562 45.9152074,30.2073733 C46.1695853,30.3981567 46.4239631,30.6525346 46.678341,30.9705069 C46.8691244,31.2248848 46.9963134,31.4792627 46.9963134,31.797235 C46.9963134,32.0516129 46.9327189,32.3059908 46.80553,32.5603687 C46.678341,32.8147465 46.4875576,33.0691244 46.2967742,33.3235023 C46.1059908,33.5778802 45.8516129,33.7686636 45.6608295,34.0230415 C45.4064516,34.2774194 45.2156682,34.4682028 45.0248848,34.6589862 C44.8976959,34.8497696 44.7069124,35.040553 44.5797235,35.2949309 C44.4525346,35.5493088 44.2617512,35.7400922 44.0709677,35.9308756 C43.8801843,36.121659 43.6894009,36.2488479 43.4986175,36.3124424 C43.3714286,36.3760369 43.3078341,36.3760369 43.1806452,36.3760369 Z" id="Path"></path>
                <path d="M50.4304147,28.9990783 C50.2396313,28.9990783 50.0488479,28.9354839 49.8580645,28.7447005 C49.6672811,28.5539171 49.4764977,28.2995392 49.3493088,27.9815668 C48.9041475,27.2184332 48.4589862,26.4552995 48.0138249,25.6921659 C47.5686636,24.9290323 47.1235023,24.2294931 46.678341,23.402765 C46.2967742,22.6396313 45.9152074,21.9400922 45.5336406,21.240553 C45.1520737,20.5410138 44.7705069,19.7778802 44.3889401,19.0147465 L43.9437788,18.1880184 C43.562212,17.5520737 43.2442396,16.8525346 42.9262673,16.1529954 L41.9723502,13.9271889 L41.7815668,13.9907834 C41.3364055,14.2451613 40.8276498,14.4995392 40.3824885,14.7539171 C39.9373272,15.0082949 39.4285714,15.2626728 38.9834101,15.4534562 C38.7926267,15.5806452 38.6018433,15.6442396 38.3474654,15.7078341 C38.283871,15.7078341 38.2202765,15.7078341 38.156682,15.7078341 C38.0294931,15.7078341 37.8387097,15.6442396 37.6479263,15.5806452 C37.2663594,15.3262673 36.9483871,14.881106 36.6940092,14.3087558 C36.4396313,13.6728111 36.1852535,13.1004608 35.9308756,12.5917051 C35.7400922,12.2737327 35.5493088,12.0193548 35.3585253,11.764977 C35.1677419,11.5105991 35.040553,11.2562212 34.9769585,10.9382488 C34.8497696,10.556682 34.9133641,10.1751152 35.1041475,9.85714286 C35.1677419,9.79354839 35.2313364,9.66635945 35.2949309,9.60276498 C35.3585253,9.53917051 35.4857143,9.47557604 35.6129032,9.3483871 C36.3124424,8.77603687 37.1391705,8.26728111 38.0930876,7.88571429 C38.5382488,7.69493088 38.9198157,7.50414747 39.364977,7.31336406 C39.7465438,7.12258065 40.1917051,6.86820276 40.6368664,6.67741935 C41.5271889,6.23225806 42.3539171,5.78709677 43.2442396,5.34193548 L45.8516129,4.00645161 C46.2331797,3.8156682 46.678341,3.68847926 47.0599078,3.49769585 C47.4414747,3.30691244 47.8866359,3.1797235 48.2682028,3.05253456 C48.3953917,2.98894009 48.4589862,2.98894009 48.5861751,2.98894009 C48.7133641,2.98894009 48.840553,2.98894009 48.9677419,3.05253456 C49.1585253,3.1797235 49.3493088,3.30691244 49.5400922,3.49769585 C49.6036866,3.62488479 49.7308756,3.75207373 49.79447,3.94285714 C49.8580645,4.07004608 49.9852535,4.26082949 50.0488479,4.38801843 C50.3668203,4.89677419 50.6211982,5.34193548 50.875576,5.85069124 C51.1299539,6.29585253 51.3207373,6.80460829 51.5115207,7.31336406 C51.5751152,7.50414747 51.6387097,7.69493088 51.7023041,7.88571429 C51.7658986,8.01290323 51.7023041,8.20368664 51.7023041,8.33087558 C51.6387097,8.52165899 51.5115207,8.7124424 51.3207373,8.90322581 C51.1299539,9.09400922 50.875576,9.28479263 50.6211982,9.41198157 C50.3668203,9.53917051 50.0488479,9.72995392 49.79447,9.92073733 C49.5400922,10.0479263 49.3493088,10.1751152 49.0949309,10.3023041 C48.9041475,10.4294931 48.6497696,10.556682 48.4589862,10.683871 L48.2682028,10.8110599 L48.3317972,11.0018433 C48.840553,11.9557604 49.3493088,12.8460829 49.8580645,13.7364055 C50.3668203,14.6267281 50.8119816,15.5806452 51.2571429,16.5345622 C51.8294931,17.8700461 52.4654378,19.20553 53.1013825,20.4774194 L55.0728111,24.4202765 C55.2,24.7382488 55.3271889,25.0562212 55.4543779,25.3741935 C55.5815668,25.6921659 55.5179724,25.9465438 55.4543779,26.2645161 C55.3907834,26.518894 55.2,26.7096774 55.0092166,26.9004608 C54.8184332,27.0912442 54.5640553,27.2184332 54.2460829,27.4092166 C53.9917051,27.5364055 53.6737327,27.6635945 53.3557604,27.7907834 C53.037788,27.9179724 52.7834101,28.0451613 52.5290323,28.1723502 C52.3382488,28.2995392 52.083871,28.4267281 51.8294931,28.6175115 C51.5751152,28.7447005 51.3843318,28.8718894 51.1299539,28.9990783 C50.9391705,28.9990783 50.6847926,28.9990783 50.4304147,28.9990783 Z" id="Path"></path>
                <path d="M116.059908,55.5179724 C115.869124,55.5179724 115.741935,55.5179724 115.551152,55.5179724 C115.423963,55.5179724 115.23318,55.4543779 115.105991,55.3271889 C114.978802,55.2 114.788018,55.0728111 114.660829,54.8184332 C114.533641,54.5640553 114.406452,54.2460829 114.406452,53.9917051 C114.342857,53.6737327 114.279263,53.3557604 114.215668,53.037788 C114.152074,52.7834101 114.088479,52.5290323 114.024885,52.2746544 C113.96129,52.0202765 113.897696,51.7658986 113.897696,51.5115207 L113.897696,51.3207373 L113.706912,51.3843318 C112.689401,51.5751152 111.671889,51.7658986 110.590783,51.956682 C109.573272,52.1474654 108.55576,52.3382488 107.474654,52.4018433 C106.011982,52.5926267 104.612903,52.7834101 103.15023,52.9741935 L98.8258065,53.6737327 C98.5078341,53.7373272 98.1262673,53.7373272 97.8082949,53.7373272 C97.4903226,53.7373272 97.2359447,53.6101382 96.9815668,53.4193548 C96.7907834,53.2921659 96.6,53.037788 96.5364055,52.8470046 C96.4092166,52.5926267 96.3456221,52.2746544 96.2820276,52.0202765 C96.2184332,51.7023041 96.2184332,51.3843318 96.1548387,51.0663594 C96.1548387,50.7483871 96.0912442,50.4304147 96.0912442,50.1760369 C96.0276498,49.921659 95.9640553,49.6672811 95.9004608,49.4129032 C95.8368664,49.1585253 95.7732719,48.9041475 95.7732719,48.6497696 C95.7732719,48.3953917 95.7732719,48.1410138 95.8368664,47.9502304 C95.9004608,47.759447 96.0276498,47.6322581 96.2184332,47.5050691 C96.4728111,47.3778802 96.7907834,47.3142857 97.1087558,47.2506912 C97.9990783,47.0599078 98.8894009,46.8691244 99.716129,46.6147465 C100.542857,46.4239631 101.43318,46.2331797 102.259908,46.0423963 C103.086636,45.8516129 103.913364,45.724424 104.676498,45.597235 C105.503226,45.4700461 106.266359,45.3428571 107.093088,45.2156682 L108.047005,45.0884793 C108.810138,44.9612903 109.509677,44.8341014 110.272811,44.7069124 L112.689401,44.3889401 L112.689401,44.1981567 C112.625806,43.6894009 112.498618,43.1806452 112.435023,42.6082949 C112.307834,42.0995392 112.24424,41.5907834 112.180645,41.0184332 C112.117051,40.8276498 112.117051,40.5732719 112.180645,40.318894 C112.180645,40.1281106 112.307834,39.9373272 112.498618,39.7465438 C112.880184,39.4285714 113.325346,39.3013825 114.024885,39.237788 C114.724424,39.1741935 115.296774,39.1105991 115.869124,38.9834101 C116.187097,38.9198157 116.505069,38.7926267 116.823041,38.6654378 C117.077419,38.6018433 117.395392,38.5382488 117.64977,38.5382488 C118.094931,38.5382488 118.476498,38.7290323 118.730876,38.9834101 C118.79447,39.0470046 118.858065,39.1741935 118.858065,39.237788 C118.921659,39.364977 118.921659,39.4921659 118.985253,39.6193548 C119.303226,40.4460829 119.557604,41.4 119.621198,42.4175115 C119.684793,42.8626728 119.748387,43.3714286 119.811982,43.8165899 C119.875576,44.2617512 120.002765,44.7069124 120.066359,45.2156682 C120.257143,46.1695853 120.447926,47.1235023 120.575115,48.1410138 L121.020276,51.0663594 C121.083871,51.5115207 121.083871,51.956682 121.147465,52.4018433 C121.21106,52.8470046 121.21106,53.2921659 121.21106,53.7373272 C121.21106,53.9917051 121.147465,54.2460829 120.956682,54.3732719 C120.765899,54.5640553 120.575115,54.6912442 120.320737,54.7548387 C120.193548,54.8184332 120.002765,54.8820276 119.811982,54.8820276 C119.621198,54.9456221 119.494009,54.9456221 119.303226,55.0092166 C118.730876,55.1364055 118.22212,55.2635945 117.64977,55.3271889 C117.141014,55.3907834 116.568664,55.4543779 116.059908,55.5179724 L116.059908,55.5179724 Z" id="Path"></path>
                <path d="M96.8543779,42.481106 C96.2820276,42.481106 95.7732719,42.3539171 95.2645161,42.1631336 C94.437788,41.9087558 93.8018433,41.4 93.4202765,40.8276498 C92.9751152,40.1917051 92.5935484,39.4921659 92.1483871,38.7290323 C91.7032258,38.0294931 91.3852535,37.2663594 91.0036866,36.5668203 C90.6857143,35.8672811 90.4313364,35.040553 90.3677419,34.2138249 C90.3041475,33.6414747 90.3041475,33.0691244 90.4313364,32.4967742 C90.5585253,31.924424 90.7493088,31.4156682 91.0672811,30.9705069 C91.3852535,30.5253456 91.7668203,30.2073733 92.1483871,29.8894009 C93.2930876,28.8718894 94.564977,27.9815668 95.9004608,27.2184332 C96.4728111,26.8368664 97.1087558,26.518894 97.7447005,26.2645161 C98.3806452,25.9465438 99.0165899,25.6285714 99.5889401,25.2470046 C100.924424,24.483871 102.323502,23.7207373 103.722581,23.0847926 C105.121659,22.4488479 106.584332,21.7493088 107.919816,20.9861751 C108.237788,20.8589862 108.619355,20.7317972 109.128111,20.6046083 C109.2553,20.5410138 109.382488,20.5410138 109.509677,20.5410138 C109.764055,20.5410138 110.018433,20.6046083 110.209217,20.7953917 C110.336406,20.8589862 110.4,20.9225806 110.463594,20.9861751 C110.527189,21.0497696 110.590783,21.1769585 110.654378,21.3041475 C110.845161,21.6221198 111.035945,21.9400922 111.290323,22.321659 C111.5447,22.7032258 111.735484,23.0847926 111.989862,23.4663594 C112.180645,23.8479263 112.307834,24.2294931 112.435023,24.6110599 C112.625806,25.6285714 111.671889,26.2009217 110.654378,26.7096774 C109.573272,27.2184332 108.55576,27.7271889 107.538249,28.2359447 C106.520737,28.7447005 105.439631,29.1898618 104.42212,29.6986175 C103.913364,29.9529954 103.468203,30.2073733 103.023041,30.3981567 C102.514286,30.6525346 102.069124,30.9069124 101.623963,31.0976959 C101.115207,31.3520737 100.670046,31.6064516 100.16129,31.797235 C99.5889401,32.0516129 99.0801843,32.3695853 98.635023,32.8147465 C98.4442396,33.00553 98.2534562,33.1963134 98.0626728,33.4506912 C97.8082949,33.7686636 97.7447005,34.0866359 97.8082949,34.4682028 C97.8718894,34.9133641 98.0626728,35.2313364 98.3806452,35.3585253 C98.635023,35.4857143 98.8894009,35.5493088 99.1437788,35.5493088 C99.4617512,35.5493088 99.716129,35.4857143 100.034101,35.3585253 C100.288479,35.2949309 100.479263,35.1677419 100.670046,35.1041475 C102.641475,34.2138249 104.612903,33.1963134 106.457143,32.1152074 C108.301382,31.0341014 110.145622,29.9529954 112.053456,28.9354839 L112.307834,28.8082949 C112.562212,28.681106 112.81659,28.5539171 113.070968,28.4267281 C113.38894,28.2995392 113.706912,28.2359447 113.96129,28.2359447 C114.342857,28.2359447 114.660829,28.3631336 114.915207,28.681106 C115.169585,28.9990783 115.423963,29.3170507 115.614747,29.6986175 C115.80553,30.0801843 115.996313,30.5253456 116.187097,30.9069124 L116.632258,31.9880184 C116.695853,32.1152074 116.759447,32.2423963 116.823041,32.3695853 C116.886636,32.4331797 116.886636,32.5603687 116.886636,32.7511521 C116.886636,33.1327189 116.759447,33.4506912 116.441475,33.7050691 C116.059908,34.0230415 115.741935,34.2774194 115.423963,34.4682028 C114.088479,35.1677419 112.689401,35.8672811 111.353917,36.6304147 C110.018433,37.3299539 108.682949,38.0930876 107.347465,38.7926267 C106.520737,39.237788 105.630415,39.6829493 104.740092,40.0645161 C103.84977,40.4460829 102.959447,40.8276498 102.069124,41.1456221 C101.560369,41.3364055 101.051613,41.5271889 100.542857,41.7179724 C100.034101,41.9087558 99.5253456,42.0359447 99.0165899,42.1631336 C98.5078341,42.2903226 98.0626728,42.3539171 97.5539171,42.3539171 L96.8543779,42.481106 Z" id="Path"></path>
                <path d="M72.3705069,24.7382488 C72.0525346,24.7382488 71.7345622,24.7382488 71.4165899,24.6746544 C71.0986175,24.6746544 70.7806452,24.6110599 70.5262673,24.6110599 C70.081106,24.6110599 69.7631336,24.6746544 69.4451613,24.6746544 C69.1271889,24.6746544 68.8092166,24.6746544 68.4276498,24.6110599 C68.1096774,24.6110599 67.9824885,24.2930876 67.918894,23.6571429 L67.918894,23.4663594 C67.918894,22.8304147 67.8552995,22.19447 67.8552995,21.4949309 L67.8552995,19.4599078 C67.8552995,19.2691244 67.8552995,19.078341 67.918894,18.7603687 C67.9824885,18.3788018 67.9824885,17.997235 67.9824885,17.6792627 C67.9824885,17.2976959 67.918894,16.916129 67.8552995,16.5981567 C67.7281106,16.1529954 67.5373272,15.835023 67.1557604,15.7078341 C66.964977,15.6442396 66.837788,15.6442396 66.6470046,15.6442396 L65.883871,15.6442396 C65.6930876,15.6442396 65.5023041,15.6442396 65.3751152,15.7078341 C65.1843318,15.7714286 64.9935484,15.835023 64.802765,15.962212 C64.5483871,16.2165899 64.4211982,16.4073733 64.4211982,16.7253456 C64.4211982,16.916129 64.4211982,17.043318 64.4211982,17.2341014 C64.4211982,18.124424 64.3576037,19.0147465 64.3576037,19.9050691 L64.3576037,22.5124424 C64.3576037,22.7668203 64.4211982,23.0211982 64.3576037,23.275576 C64.3576037,23.7843318 64.1668203,24.5474654 63.7852535,24.6746544 C63.4672811,24.7382488 63.2129032,24.8018433 62.8949309,24.8018433 C62.8313364,24.8018433 62.7041475,24.8018433 62.640553,24.8018433 C62.3225806,24.7382488 62.0046083,24.7382488 61.6230415,24.7382488 C61.4958525,24.7382488 61.3050691,24.7382488 61.1778802,24.7382488 C60.9235023,24.7382488 60.7327189,24.7382488 60.478341,24.7382488 C60.2239631,24.7382488 59.9695853,24.7382488 59.7788018,24.7382488 C59.4608295,24.7382488 59.2064516,24.7382488 58.9520737,24.6746544 C58.6976959,24.6110599 58.5069124,24.5474654 58.316129,24.2930876 C58.1253456,24.1023041 58.0617512,23.8479263 58.0617512,23.5935484 C58.0617512,23.275576 58.1253456,23.0211982 58.1889401,22.7032258 C58.316129,21.9400922 58.316129,21.240553 58.2525346,20.5410138 C58.1889401,19.8414747 58.1889401,19.1419355 58.1889401,18.4423963 C58.1889401,17.6792627 58.1889401,16.916129 58.1253456,16.0894009 C58.0617512,15.3262673 57.9981567,14.4995392 57.9345622,13.8 C57.8709677,12.8460829 57.8709677,11.8285714 57.8709677,10.8746544 C57.8709677,9.92073733 57.9345622,8.90322581 57.9981567,7.94930876 C57.9981567,6.99539171 57.9981567,6.04147465 57.9345622,5.0875576 C57.8709677,4.19723502 57.8709677,3.24331797 57.9981567,2.28940092 C58.0617512,1.97142857 58.1253456,1.65345622 58.1889401,1.33548387 C58.2525346,1.08110599 58.443318,0.826728111 58.6976959,0.699539171 C58.8248848,0.57235023 59.0156682,0.50875576 59.2064516,0.50875576 L59.8423963,0.44516129 C60.2875576,0.44516129 60.7327189,0.38156682 61.2414747,0.31797235 C61.559447,0.25437788 61.8774194,0.25437788 62.2589862,0.25437788 C62.3861751,0.25437788 62.5133641,0.25437788 62.640553,0.25437788 C63.0857143,0.25437788 63.5308756,0.38156682 63.9124424,0.50875576 C64.675576,0.826728111 64.9935484,1.84423963 64.9935484,2.73456221 C64.9935484,3.24331797 64.9935484,3.8156682 64.9299539,4.32442396 C64.8663594,5.02396313 64.802765,5.7235023 64.802765,6.48663594 C64.802765,7.18617512 64.802765,7.88571429 64.802765,8.58525346 C64.802765,8.77603687 64.802765,8.96682028 64.8663594,9.15760369 C64.9299539,9.41198157 64.9935484,9.60276498 65.1843318,9.85714286 C65.5658986,10.1751152 65.883871,10.3658986 66.2654378,10.3658986 C66.7741935,10.3023041 67.0921659,10.1115207 67.3465438,9.85714286 C67.6009217,9.66635945 67.6645161,9.41198157 67.7281106,9.09400922 C67.7281106,8.96682028 67.7917051,8.77603687 67.7917051,8.64884793 C67.8552995,7.18617512 67.7917051,5.78709677 67.6645161,4.32442396 C67.6009217,3.8156682 67.6009217,3.24331797 67.6009217,2.73456221 C67.6645161,1.46267281 67.9824885,0.763133641 68.6820276,0.50875576 C69.1271889,0.38156682 69.5723502,0.25437788 70.0175115,0.19078341 C70.2718894,0.19078341 70.4626728,0.12718894 70.7170507,0.12718894 C70.9714286,0.12718894 71.2258065,0.12718894 71.4165899,0.19078341 C71.9253456,0.25437788 72.3705069,0.25437788 72.8156682,0.25437788 C73.0064516,0.25437788 73.197235,0.25437788 73.3880184,0.25437788 C73.5152074,0.25437788 73.6423963,0.31797235 73.7695853,0.44516129 C73.8967742,0.57235023 74.0239631,0.699539171 74.0875576,0.953917051 C74.1511521,1.20829493 74.2147465,1.39907834 74.2147465,1.65345622 C74.278341,2.28940092 74.3419355,2.98894009 74.3419355,3.62488479 C74.40553,4.26082949 74.40553,4.89677419 74.40553,5.59631336 C74.40553,6.99539171 74.40553,8.39447005 74.4691244,9.72995392 C74.5327189,11.0654378 74.5963134,12.4645161 74.5327189,13.8635945 C74.4691244,15.2626728 74.4691244,16.7253456 74.4691244,18.1880184 L74.4691244,22.5760369 C74.4691244,22.8940092 74.4691244,23.275576 74.40553,23.5935484 C74.3419355,23.9115207 74.2147465,24.1658986 74.0239631,24.356682 C73.8331797,24.5474654 73.5788018,24.6746544 73.324424,24.7382488 C73.0064516,24.7382488 72.6884793,24.7382488 72.3705069,24.7382488 Z" id="Path"></path>
                <path d="M16.4709677,56.9170507 C15.3262673,56.9170507 14.2451613,56.8534562 13.1640553,56.6626728 C12.9732719,56.5990783 12.9096774,56.5990783 12.8460829,56.5354839 C12.7824885,56.4718894 12.5917051,56.4082949 12.5281106,56.0903226 C12.4645161,55.8995392 12.4645161,55.6451613 12.5281106,55.4543779 C12.5917051,55.0728111 12.5917051,54.6276498 12.5917051,54.2460829 C12.5917051,53.8645161 12.6552995,53.4829493 12.7824885,53.1013825 C12.9096774,52.7834101 12.9732719,52.5290323 13.1004608,52.2110599 C13.2276498,51.956682 13.3548387,51.6387097 13.4820276,51.3207373 C13.6092166,51.1299539 13.7364055,50.9391705 13.8635945,50.7483871 C14.0543779,50.4304147 14.4359447,50.2396313 14.9447005,50.2396313 C15.1354839,50.2396313 15.2626728,50.2396313 15.3898618,50.2396313 L16.5981567,50.2396313 C17.2341014,50.2396313 17.8064516,50.2396313 18.4423963,50.2396313 C19.078341,50.2396313 19.7142857,50.3032258 20.2866359,50.3032258 C20.8589862,50.3668203 21.3677419,50.3668203 21.7493088,50.4304147 C21.7493088,50.4304147 23.275576,50.4940092 23.3391705,50.4940092 C23.6571429,50.4940092 23.9115207,50.4940092 24.2294931,50.4304147 L24.6110599,50.3032258 C24.8654378,50.2396313 25.0562212,50.0488479 25.1198157,49.79447 C25.1198157,49.4129032 25.0562212,49.2221198 24.8654378,49.0313364 C24.8018433,48.9677419 24.6746544,48.9041475 24.6110599,48.840553 C23.5299539,48.2682028 22.3852535,47.759447 21.240553,47.3778802 C20.159447,46.9963134 19.078341,46.5511521 18.0608295,45.9788018 C18.0608295,45.9152074 17.8700461,45.8516129 17.7428571,45.7880184 C17.5520737,45.5336406 17.5520737,45.4064516 17.4884793,45.2792627 C17.4248848,44.7069124 17.4884793,44.0709677 17.7428571,43.435023 C17.997235,42.7354839 18.2516129,42.0359447 18.4423963,41.4 L18.6331797,41.0184332 C18.6967742,40.9548387 18.7603687,40.8276498 18.8239631,40.7640553 C18.8875576,40.7004608 19.078341,40.6368664 19.20553,40.6368664 C19.3963134,40.5732719 19.5870968,40.5732719 19.7142857,40.5732719 C19.8414747,40.5732719 19.9686636,40.5732719 20.0958525,40.5732719 C20.2230415,40.5732719 20.4138249,40.5732719 20.6046083,40.5732719 C20.9861751,40.6368664 21.4313364,40.6368664 21.8764977,40.7004608 C22.321659,40.7640553 22.7032258,40.8276498 23.1483871,40.8276498 C23.5299539,40.8912442 23.7843318,40.8912442 24.0387097,40.8912442 C24.5474654,40.8912442 24.9290323,40.8912442 25.3105991,40.9548387 C25.437788,40.9548387 25.564977,40.9548387 25.6921659,40.9548387 C26.0101382,40.9548387 26.2645161,40.9548387 26.5824885,40.8912442 L26.9640553,40.7640553 C27.2184332,40.7004608 27.4092166,40.5096774 27.4092166,40.2552995 C27.4092166,39.8737327 27.3456221,39.6829493 27.1548387,39.4921659 C27.0912442,39.4285714 26.9640553,39.364977 26.9004608,39.3013825 C26.518894,39.1105991 26.0737327,38.9198157 25.564977,38.7290323 C25.0562212,38.5382488 24.483871,38.283871 23.9115207,38.0930876 C23.3391705,37.8387097 22.8304147,37.6479263 22.321659,37.4571429 C21.8129032,37.2663594 21.4313364,37.075576 21.1769585,36.8847926 C20.6682028,36.6940092 20.2866359,36.4396313 19.9050691,36.2488479 C19.5235023,36.0580645 19.1419355,35.8672811 18.7603687,35.6129032 L18.6331797,35.5493088 C18.1880184,35.2949309 17.7428571,34.9769585 17.7428571,34.5317972 C17.6792627,34.0866359 17.7428571,33.7050691 17.8064516,33.3870968 C17.8700461,33.00553 17.997235,32.6239631 18.124424,32.2423963 L18.3152074,31.3520737 C18.3788018,31.0976959 18.4423963,30.7797235 18.5695853,30.4617512 C18.6331797,30.2073733 18.6967742,30.0165899 18.8239631,29.762212 C18.8875576,29.5714286 19.0147465,29.3806452 19.20553,29.3170507 C19.3963134,29.1898618 19.5870968,29.1262673 19.7778802,29.1262673 C19.8414747,29.1262673 19.9686636,29.1262673 20.0322581,29.1262673 C20.3502304,29.1898618 20.6682028,29.3170507 20.9861751,29.4442396 C21.4313364,29.635023 21.8764977,29.8258065 22.321659,30.0165899 C22.7668203,30.2709677 23.2119816,30.4617512 23.6571429,30.716129 C24.9290323,31.4156682 26.2009217,32.1152074 27.4728111,32.6875576 C28.7447005,33.2599078 30.0165899,33.959447 31.2248848,34.7225806 C32.6239631,35.5493088 34.1502304,36.3760369 35.7400922,37.1391705 C37.2663594,37.9023041 38.7290323,38.7926267 39.9373272,39.9373272 C40.4460829,40.318894 40.7640553,40.8276498 40.8912442,41.4635945 C40.9548387,41.7815668 40.8912442,42.0359447 40.8276498,42.2903226 L40.5096774,43.2442396 C40.4460829,43.4986175 40.3824885,43.7529954 40.318894,44.0073733 C40.2552995,44.2617512 40.1917051,44.516129 40.1281106,44.7705069 C40.0645161,45.0248848 39.9373272,45.2156682 39.8101382,45.4064516 C39.6829493,45.597235 39.4921659,45.724424 39.237788,45.8516129 C39.0470046,45.9152074 38.7926267,45.9788018 38.6018433,45.9788018 C38.3474654,45.9788018 38.0930876,46.0423963 37.8387097,46.0423963 C37.5207373,46.0423963 37.1391705,46.1059908 36.8211982,46.1695853 C36.5032258,46.2331797 36.121659,46.2967742 35.8036866,46.2967742 C35.5493088,46.2967742 35.2949309,46.2967742 34.9769585,46.2967742 L34.9769585,46.2967742 C34.5317972,46.2967742 34.2138249,46.3603687 33.959447,46.4239631 C33.8322581,46.4875576 33.7050691,46.4875576 33.6414747,46.6147465 C33.5142857,46.8691244 33.5778802,47.0599078 33.6414747,47.1870968 C33.7050691,47.3142857 33.7686636,47.4414747 33.959447,47.5686636 C34.5317972,48.0138249 35.1041475,48.4589862 35.7400922,48.9041475 C36.3124424,49.2857143 36.9483871,49.7308756 37.5207373,50.2396313 C38.0294931,50.6847926 38.3474654,51.1935484 38.4110599,51.8294931 C38.4746544,52.1474654 38.4110599,52.4018433 38.3474654,52.6562212 L38.0294931,53.5465438 C37.9658986,53.8009217 37.9023041,54.0552995 37.8387097,54.3096774 C37.7751152,54.5640553 37.7115207,54.8184332 37.6479263,55.0728111 C37.5843318,55.3271889 37.4571429,55.5179724 37.3299539,55.7087558 C37.202765,55.8995392 37.0119816,56.0267281 36.7576037,56.1539171 C36.5668203,56.2175115 36.3124424,56.281106 36.121659,56.281106 C35.8672811,56.281106 35.6764977,56.281106 35.4221198,56.281106 C35.040553,56.3447005 34.7225806,56.3447005 34.3410138,56.4082949 C34.0230415,56.4718894 33.6414747,56.5354839 33.3235023,56.5354839 C33.00553,56.5990783 32.6875576,56.5990783 32.3059908,56.5990783 C32.3059908,56.5990783 31.6700461,56.5990783 31.5428571,56.5990783 C31.2884793,56.5990783 31.0341014,56.5990783 30.7797235,56.5990783 C29.9529954,56.5990783 29.1262673,56.6626728 28.2995392,56.6626728 L25.8193548,56.7898618 C24.8018433,56.8534562 23.7843318,56.9170507 22.8304147,56.9170507 C22.3852535,56.9170507 22.0036866,56.9170507 21.5585253,56.9170507 C21.0497696,56.9170507 20.4774194,56.9170507 19.9050691,56.9170507 C19.0147465,56.9170507 18.124424,56.9170507 17.2341014,56.9806452 C17.043318,56.9170507 16.7253456,56.9170507 16.4709677,56.9170507 Z" id="Path"></path>
                <g transform="translate(0.000000, 62.322581)">
                    <path d="M53.9917051,21.4313364 C52.1474654,20.159447 49.8580645,20.9225806 47.759447,20.7953917 C46.6147465,20.7317972 45.724424,20.6046083 44.643318,21.1133641 C43.3078341,21.6857143 43.7529954,23.7843318 43.8801843,25.0562212 C44.0073733,26.3281106 43.6258065,29.0626728 44.8341014,29.762212 C45.3428571,30.0801843 45.9788018,30.1437788 46.5511521,30.1437788 C48.9677419,30.2073733 51.6387097,30.0801843 53.6101382,28.4267281 C54.3096774,27.8543779 54.8820276,27.0912442 55.2635945,26.0737327 C55.8995392,24.356682 55.5815668,22.5124424 53.9917051,21.4313364 Z" id="Path"></path>
                    <path d="M73.4516129,33.7686636 C73.6423963,33.8958525 73.8967742,33.8958525 74.1511521,33.8958525 C74.7235023,33.8958525 75.2322581,33.8958525 75.8046083,33.8958525 C76.0589862,33.8958525 76.3769585,33.8958525 76.5677419,33.7686636 C76.8221198,33.6414747 76.9493088,33.3235023 77.0129032,33.0691244 C77.1400922,32.1152074 76.7585253,30.9705069 76.6313364,30.0165899 C76.5041475,28.9354839 76.3133641,27.8543779 76.1861751,26.7096774 C76.0589862,25.9465438 75.9317972,25.1834101 75.8046083,24.356682 C75.7410138,23.9115207 75.6138249,23.0211982 74.9778802,23.0211982 C74.278341,23.0211982 74.2147465,24.4202765 74.0875576,24.8654378 C73.7695853,26.2645161 73.6423963,27.6635945 73.4516129,29.1262673 C73.2608295,30.2073733 72.9428571,31.4792627 73.0064516,32.6239631 C73.0064516,32.7511521 73.0064516,32.9419355 73.0700461,33.0691244 C73.1336406,33.3870968 73.2608295,33.6414747 73.4516129,33.7686636 Z" id="Path"></path>
                    <path d="M137.745622,8.7124424 C137.682028,6.74101382 137.936406,4.19723502 136.728111,2.5437788 C135.074654,0.31797235 131.767742,0.12718894 129.351152,0.31797235 C120.575115,1.01751152 111.799078,0.31797235 103.086636,0.38156682 C99.3345622,0.38156682 95.5824885,0.31797235 91.8304147,0.953917051 C90.9400922,1.14470046 89.9861751,1.14470046 89.0322581,1.20829493 C78.7299539,1.2718894 68.3640553,1.9078341 58.0617512,1.52626728 C55.0728111,1.52626728 52.083871,1.52626728 49.0313364,1.52626728 C44.8976959,1.58986175 40.7640553,1.9078341 36.6304147,1.71705069 C32.3059908,1.52626728 27.9179724,2.28940092 23.6571429,2.09861751 C19.4599078,1.9078341 15.3262673,1.78064516 11.0654378,1.97142857 C8.0764977,2.09861751 4.4516129,1.65345622 2.28940092,4.07004608 C-0.763133641,7.440553 0.763133641,12.5281106 1.39907834,16.4709677 C2.35299539,22.19447 3.68847926,27.9179724 6.16866359,33.1327189 C8.7124424,38.6018433 10.3023041,44.3889401 13.3548387,49.7308756 C16.4073733,55.0092166 20.5410138,59.3336406 24.8654378,63.5308756 C25.6921659,64.2940092 26.7096774,64.8663594 27.6,65.5023041 C33.0691244,69.1907834 39.4921659,71.162212 45.7880184,72.9428571 C49.2221198,73.8967742 52.7198157,74.4691244 56.281106,75.1050691 C63.2129032,76.3133641 70.5262673,75.8046083 77.5852535,75.2322581 C81.5281106,74.9142857 85.4709677,74.6599078 89.3502304,73.9603687 C94.1198157,73.0700461 98.8894009,71.8617512 103.531797,70.3990783 C109.128111,68.6820276 114.342857,66.0746544 118.540092,61.8774194 C120.893088,59.4608295 123.118894,56.9170507 125.3447,54.3732719 C127.18894,52.2110599 128.524424,49.7308756 129.541935,47.1235023 C132.212903,40.5096774 134.43871,33.7686636 136.15576,26.7732719 C137.491244,20.6046083 138,14.6903226 137.745622,8.7124424 Z M65.2479263,37.3299539 L65.3751152,36.4396313 C66.1382488,30.5253456 66.837788,24.4202765 67.918894,18.4423963 C68.1096774,17.2341014 68.4276498,15.3898618 69.8267281,14.9447005 C70.3354839,14.7539171 71.035023,14.6903226 71.9253456,14.6903226 C72.3705069,14.6903226 72.8156682,14.6903226 73.2608295,14.7539171 C73.7059908,14.7539171 74.0875576,14.8175115 74.4691244,14.8175115 L74.6599078,14.8175115 C75.0414747,14.8175115 75.4230415,14.8175115 75.8046083,14.7539171 C76.3133641,14.7539171 76.7585253,14.6903226 77.2672811,14.6903226 C78.0940092,14.6903226 78.7299539,14.7539171 79.3023041,14.881106 C80.5741935,15.1990783 81.0829493,16.6617512 81.4009217,18.124424 C81.5281106,18.8875576 81.718894,19.6506912 81.9096774,20.3502304 C82.2276498,21.6857143 82.5456221,23.0211982 82.7364055,24.4202765 L85.2801843,40.9548387 C85.4073733,41.7815668 85.5345622,42.6082949 85.6617512,43.3714286 C85.7253456,43.7529954 85.8525346,44.1345622 85.9797235,44.4525346 C86.2341014,45.0884793 86.4248848,45.7880184 86.2976959,46.4239631 C86.1705069,46.8691244 85.7889401,47.4414747 85.0894009,48.1410138 C84.1990783,48.9677419 82.9271889,49.4129032 81.4645161,49.4129032 C81.2737327,49.4129032 81.1465438,49.4129032 80.9557604,49.4129032 C80.5105991,49.4129032 80.1926267,49.2857143 80.0654378,49.0949309 C79.9382488,48.9041475 79.9382488,48.6497696 79.9382488,48.3317972 C79.9382488,46.7419355 79.8110599,45.2792627 79.6202765,43.6894009 C79.556682,43.0534562 79.4930876,42.4175115 79.4294931,41.7815668 C79.4294931,41.7179724 79.4294931,41.5271889 79.3023041,41.4635945 C79.1751152,41.3364055 78.9843318,41.3364055 78.9207373,41.3364055 C78.2847926,41.3364055 77.6488479,41.3364055 77.0129032,41.3364055 C76.3133641,41.3364055 75.6774194,41.3364055 74.9778802,41.3364055 C74.4691244,41.3364055 73.9603687,41.3364055 73.4516129,41.3364055 C72.9428571,41.3364055 72.3705069,41.3364055 71.8617512,41.4 C71.5437788,41.4 71.3529954,41.8451613 71.4165899,43.8165899 C71.4165899,44.3889401 71.4165899,44.8341014 71.4801843,45.2792627 C71.5437788,46.3603687 71.6073733,47.5050691 71.3529954,48.4589862 C71.2258065,48.840553 71.035023,49.1585253 70.7170507,49.2857143 C70.5898618,49.3493088 70.3990783,49.4129032 70.2082949,49.4129032 C70.081106,49.4129032 69.8903226,49.4129032 69.7631336,49.3493088 C68.3640553,49.0949309 67.2193548,48.5225806 66.3926267,47.5686636 C64.2304147,45.2156682 64.8663594,40.5096774 65.2479263,37.3299539 Z M87.124424,56.0903226 C85.4709677,58.1889401 82.1640553,59.4608295 79.6202765,60.1603687 C77.6488479,60.6691244 75.4230415,60.9870968 72.8156682,60.9870968 L72.8156682,60.9870968 C72.0525346,60.9870968 71.2894009,60.9870968 70.5262673,60.9235023 C61.559447,60.478341 55.9631336,55.7723502 53.5465438,46.5511521 C53.3557604,45.8516129 53.2285714,45.2156682 53.1013825,44.5797235 C52.7834101,42.6718894 52.4654378,41.0820276 50.6847926,39.5557604 C49.6036866,38.6018433 48.0774194,38.6018433 46.7419355,38.5382488 L46.2967742,38.5382488 C45.597235,38.5382488 45.1520737,38.6654378 44.8341014,38.9834101 C44.3253456,39.4921659 44.2617512,40.3824885 44.3253456,41.5271889 L44.5797235,56.1539171 C44.5797235,57.1078341 44.3889401,57.7437788 44.0073733,58.1253456 C43.562212,58.5705069 42.8626728,58.7612903 41.7179724,58.7612903 C41.4,58.7612903 41.0820276,58.7612903 40.7640553,58.7612903 C40.4460829,58.7612903 40.1281106,58.7612903 39.8101382,58.7612903 C39.364977,58.7612903 39.0470046,58.7612903 38.6654378,58.6976959 C37.8387097,58.5705069 37.3299539,58.316129 37.1391705,57.9345622 C36.5668203,57.0442396 36.6304147,55.6451613 36.6940092,54.4368664 C36.6940092,54.118894 36.6940092,53.7373272 36.6940092,53.4829493 C36.6940092,51.6387097 36.6304147,49.79447 36.6304147,47.9502304 C36.5668203,44.3889401 36.5032258,40.8276498 36.4396313,37.2663594 C36.3760369,34.5953917 36.3124424,31.8608295 36.1852535,29.1262673 C36.1852535,28.4903226 36.121659,27.7907834 36.0580645,27.1548387 C35.99447,26.3281106 35.9308756,25.437788 35.9308756,24.6110599 C35.9308756,23.8479263 35.8036866,22.7032258 35.040553,21.9400922 C34.7861751,21.6857143 34.4682028,21.4949309 34.1502304,21.3677419 C33.6414747,21.1769585 33.0691244,21.1133641 32.3059908,21.1133641 C31.8608295,21.1133641 31.4156682,21.1769585 30.9705069,21.1769585 C30.5889401,21.1769585 30.1437788,21.240553 29.762212,21.240553 C29.1898618,21.240553 28.681106,21.4313364 28.3631336,21.8129032 C27.5364055,22.6396313 27.6,24.2930876 27.6635945,25.5013825 L27.6635945,25.8193548 C27.7271889,27.2184332 27.6635945,28.6175115 27.6635945,29.9529954 C27.6635945,31.6700461 27.6635945,33.4506912 27.7271889,35.2313364 C27.7907834,37.202765 27.8543779,38.9198157 27.9179724,40.7640553 C27.9179724,42.0359447 27.9179724,43.3078341 27.9179724,44.516129 C27.9179724,44.7069124 27.9179724,44.8976959 27.9179724,45.1520737 C27.9815668,45.9152074 27.9815668,46.9963134 27.6,47.3778802 C27.2820276,47.6322581 26.9640553,47.759447 26.5824885,47.759447 C25.5013825,47.759447 24.2294931,46.678341 23.7843318,46.1695853 C22.5760369,44.9612903 21.5585253,43.435023 20.9861751,41.8451613 C20.159447,39.6193548 20.2230415,37.5207373 20.3502304,35.2949309 C20.4138249,34.4682028 20.4138249,33.5778802 20.4138249,32.7511521 L20.3502304,27.3456221 C20.3502304,26.2645161 20.2230415,25.1834101 20.0958525,24.1658986 C20.0322581,23.7843318 20.0322581,23.402765 19.9686636,23.0211982 C19.9050691,22.6396313 19.9050691,22.1308756 19.5870968,21.8129032 C19.2691244,21.4949309 18.8239631,21.3677419 18.4423963,21.3041475 C17.8064516,21.240553 17.1705069,21.1769585 16.4709677,21.1769585 C15.4534562,21.1769585 14.4359447,21.240553 13.3548387,21.3677419 C12.6552995,21.4313364 11.9557604,21.4949309 11.1926267,21.4949309 C11.0654378,21.4949309 10.9382488,21.4949309 10.8110599,21.4949309 C10.4294931,21.4949309 10.1751152,21.4313364 9.92073733,21.3677419 C9.47557604,21.1769585 9.09400922,20.8589862 8.83963134,20.3502304 C8.01290323,18.6967742 7.75852535,16.9797235 8.20368664,15.5170507 C8.39447005,14.7539171 8.77603687,14.7539171 9.60276498,14.7539171 C9.79354839,14.7539171 9.92073733,14.7539171 10.1115207,14.7539171 C12.5281106,14.6267281 15.0718894,14.5631336 17.6792627,14.4995392 L19.1419355,14.4995392 C20.5410138,14.4995392 22.0036866,14.4995392 23.402765,14.5631336 C24.6110599,14.5631336 25.8193548,14.5631336 26.9640553,14.5631336 C28.7447005,14.5631336 30.5889401,14.5631336 32.3695853,14.6267281 C32.8147465,14.6267281 33.3235023,14.6267281 33.7686636,14.6267281 C35.5493088,14.6267281 37.3935484,14.4995392 39.1741935,14.4359447 C40.9548387,14.3087558 42.7354839,14.2451613 44.516129,14.2451613 C45.0248848,14.2451613 45.597235,14.2451613 46.1059908,14.2451613 L50.6847926,14.4359447 C51.002765,14.4359447 51.3207373,14.4359447 51.6387097,14.4359447 L52.7198157,14.4359447 C53.4193548,14.4359447 54.1824885,14.4359447 54.8820276,14.5631336 C57.5529954,14.9447005 59.9695853,16.4073733 61.3686636,18.5059908 C62.8313364,20.7953917 63.2129032,24.6746544 62.2589862,27.5364055 C61.1778802,30.6525346 58.5069124,32.8147465 55.2,33.2599078 C55.0728111,33.2599078 54.7548387,33.3235023 54.6912442,33.5778802 C54.6276498,33.8322581 54.8184332,34.0230415 55.1364055,34.1502304 C57.362212,34.9769585 58.9520737,36.5032258 59.7788018,38.5382488 C60.1603687,39.4921659 60.4147465,40.5096774 60.5419355,41.8451613 C60.8599078,45.2156682 61.559447,49.0949309 64.6119816,51.956682 C66.837788,54.0552995 69.9539171,55.1364055 73.8967742,55.2 C74.1511521,55.2 74.4691244,55.2 74.7235023,55.2 C77.4580645,55.2 81.0193548,54.9456221 84.1990783,53.164977 L84.4534562,53.037788 C85.0894009,52.6562212 85.6617512,52.3382488 86.3612903,52.2746544 C86.3612903,52.2746544 86.3612903,52.2746544 86.4248848,52.2746544 C86.8064516,52.2746544 87.0608295,52.3382488 87.1880184,52.4018433 C87.5059908,52.5290323 87.7603687,52.7834101 87.8239631,53.1013825 C88.3327189,54.1824885 87.6331797,55.4543779 87.124424,56.0903226 Z M107.029493,41.7179724 C106.775115,43.562212 106.011982,45.1520737 104.803687,46.4239631 C103.341014,48.0138249 101.051613,48.9041475 98.5078341,48.9041475 C98.3170507,48.9041475 98.1262673,48.9041475 97.9354839,48.9041475 C96.3456221,48.840553 94.8193548,48.7133641 93.4202765,48.0138249 C91.9576037,47.3142857 91.1308756,45.8516129 90.3041475,44.3253456 C89.4138249,42.6082949 89.0322581,40.7640553 88.8414747,39.3013825 C88.5235023,37.075576 88.2691244,34.7861751 88.20553,32.2423963 C88.20553,31.5428571 88.1419355,30.7797235 88.078341,30.0801843 C87.9511521,28.681106 87.8239631,27.2820276 88.0147465,25.8829493 C88.078341,25.3105991 88.078341,24.8018433 88.1419355,24.2294931 C88.20553,23.275576 88.2691244,22.2580645 88.3963134,21.3041475 C89.159447,16.9797235 92.6571429,14.0543779 97.1087558,14.0543779 C99.843318,14.0543779 101.751152,14.5631336 103.213825,15.5806452 C105.376037,17.1705069 105.821198,19.20553 105.821198,22.0036866 C105.821198,22.7668203 105.56682,23.2119816 104.930876,23.402765 C104.485714,23.5299539 103.84977,23.5935484 103.341014,23.5935484 L102.895853,23.5935484 C102.57788,23.5935484 102.323502,23.6571429 102.069124,23.6571429 C101.115207,23.6571429 100.606452,23.402765 100.224885,22.7668203 C100.097696,22.5760369 100.034101,22.321659 99.9069124,22.0672811 C99.6525346,21.4313364 99.4617512,20.8589862 98.6986175,20.5410138 C98.3170507,20.4138249 97.9354839,20.3502304 97.5539171,20.3502304 C96.9179724,20.3502304 96.3456221,20.5410138 95.9640553,20.9861751 C94.8829493,22.0672811 94.8193548,23.9751152 94.7557604,25.437788 C94.7557604,25.7557604 94.7557604,26.0101382 94.6921659,26.2645161 C94.437788,29.8258065 94.6921659,33.4506912 94.9465438,36.9483871 C95.0737327,38.3474654 95.3917051,40.3824885 96.9815668,41.1456221 C97.4267281,41.4 97.9354839,41.4635945 98.4442396,41.4635945 C99.2709677,41.4635945 100.097696,41.0820276 100.606452,40.4460829 C101.115207,39.8737327 101.051613,39.1105991 101.051613,38.4110599 C101.051613,37.7115207 100.988018,37.1391705 101.43318,36.8211982 C101.941935,36.4396313 102.57788,36.3760369 103.023041,36.3760369 C103.277419,36.3760369 103.468203,36.3760369 103.722581,36.3760369 C103.976959,36.3760369 104.167742,36.3760369 104.42212,36.3760369 L104.803687,36.3760369 C105.185253,36.3760369 105.503226,36.3760369 105.821198,36.5032258 C106.139171,36.5668203 106.393548,36.6940092 106.647926,36.8211982 C107.601843,37.9023041 107.220276,40.5732719 107.029493,41.7179724 Z M125.917051,16.4073733 C125.917051,16.6617512 125.853456,16.916129 125.853456,17.2341014 C125.789862,18.4423963 125.662673,20.0322581 124.899539,20.6046083 C124.708756,20.7317972 124.454378,20.7953917 124.2,20.8589862 C122.991705,21.1133641 121.719816,21.1769585 120.702304,21.1769585 C120.320737,21.1769585 118.158525,21.1769585 118.158525,21.1769585 C117.840553,21.1769585 117.458986,21.1769585 117.077419,21.3677419 C116.37788,21.7493088 116.314286,22.8304147 116.250691,23.4663594 C116.187097,24.7382488 116.250691,25.6285714 116.441475,26.2009217 C116.759447,26.9640553 117.586175,27.3456221 118.985253,27.3456221 C119.176037,27.3456221 119.36682,27.3456221 119.557604,27.3456221 C119.684793,27.3456221 119.811982,27.3456221 120.002765,27.3456221 C120.320737,27.3456221 120.702304,27.3456221 121.020276,27.4092166 C121.338249,27.4092166 121.719816,27.4728111 122.037788,27.4728111 C122.228571,27.4728111 122.419355,27.4728111 122.610138,27.4728111 C122.673733,27.4728111 122.800922,27.4728111 122.864516,27.4728111 C123.373272,27.4728111 123.754839,27.6 123.945622,27.8543779 C124.2,28.1087558 124.263594,28.4903226 124.2,28.9990783 C124.072811,30.2073733 124.009217,31.3520737 124.009217,32.3695853 L124.009217,32.6239631 C124.009217,33.1963134 124.009217,33.8958525 123.500461,34.2138249 C123.118894,34.4682028 122.610138,34.5317972 122.101382,34.5317972 L121.529032,34.5317972 C120.702304,34.5317972 119.811982,34.5317972 118.985253,34.4682028 C118.79447,34.4682028 118.603687,34.4682028 118.476498,34.4682028 C118.158525,34.4682028 117.840553,34.5317972 117.64977,34.5953917 C116.632258,35.040553 116.759447,36.6940092 116.886636,37.6479263 L116.886636,37.9023041 C116.886636,38.156682 116.886636,38.4746544 116.886636,38.7926267 C116.886636,39.364977 116.886636,40.0009217 117.077419,40.5732719 C117.395392,41.7179724 118.031336,41.9087558 118.921659,41.9087558 C119.048848,41.9087558 119.176037,41.9087558 119.36682,41.9087558 C120.257143,41.8451613 121.147465,41.8451613 122.037788,41.8451613 C122.35576,41.8451613 122.610138,41.8451613 122.928111,41.8451613 C123.309677,41.8451613 123.691244,41.8451613 124.009217,41.9723502 C124.327189,42.0995392 124.517972,42.2903226 124.581567,42.5447005 C124.645161,42.7354839 124.708756,42.9898618 124.708756,43.3078341 L124.708756,43.6258065 C124.708756,45.0248848 124.645161,46.6147465 123.246083,47.2506912 C121.020276,48.2682028 118.540092,48.7769585 115.932719,48.7769585 C115.296774,48.7769585 114.597235,48.7133641 113.96129,48.6497696 C113.452535,48.5861751 112.943779,48.5225806 112.435023,48.3317972 C110.908756,47.6322581 110.654378,45.6608295 110.463594,44.0709677 L110.463594,43.8801843 C110.336406,42.8626728 110.336406,41.7815668 110.336406,40.7640553 C110.336406,40.0645161 110.336406,39.364977 110.272811,38.6654378 C110.082028,35.4857143 109.954839,32.1788018 109.954839,28.9354839 C109.954839,27.3456221 109.82765,25.7557604 109.700461,24.2294931 C109.573272,22.4488479 109.446083,20.6046083 109.446083,18.8239631 L109.446083,18.3152074 C109.446083,17.3612903 109.382488,15.962212 109.954839,15.3262673 C110.336406,14.881106 111.035945,14.7539171 111.735484,14.6903226 C112.689401,14.5631336 113.579724,14.5631336 114.279263,14.5631336 C114.660829,14.5631336 116.314286,14.5631336 116.695853,14.5631336 C116.95023,14.5631336 117.204608,14.5631336 117.395392,14.5631336 C118.158525,14.5631336 118.921659,14.4995392 119.684793,14.4995392 C120.765899,14.4359447 121.847005,14.4359447 122.928111,14.4359447 C123.373272,14.4359447 123.818433,14.4359447 124.327189,14.4359447 C124.645161,14.4359447 125.026728,14.4995392 125.3447,14.6267281 C125.853456,14.8175115 125.980645,15.7078341 125.917051,16.4073733 Z" id="Shape"></path>
                </g>
                <g transform="translate(52.147465, 5.087558)" id="Shape">
                    <path d="M29.0626728,48.1410138 L28.7447005,47.4414747 C28.0451613,45.9152074 27.2820276,44.3253456 26.4552995,42.7990783 C25.3741935,40.7640553 24.4202765,38.6018433 23.5299539,36.5032258 C23.0211982,35.2949309 22.5124424,34.0866359 21.9400922,32.878341 C21.6221198,32.1788018 21.3041475,31.4792627 20.9861751,30.7797235 C20.5410138,29.8894009 20.2866359,28.9990783 19.9686636,28.1087558 L19.7778802,27.6 C19.5870968,26.9640553 19.1419355,25.7557604 18.3788018,25.3105991 C17.9336406,25.0562212 17.4248848,25.0562212 16.8525346,25.0562212 L16.5345622,25.0562212 C16.2801843,25.0562212 16.0258065,25.0562212 15.835023,24.9926267 C15.5170507,24.9290323 15.2626728,24.9290323 14.9447005,24.9290323 L13.9271889,24.9290323 C13.7364055,24.9290323 13.5456221,24.9290323 13.4184332,24.9290323 C13.1640553,24.9290323 12.8460829,24.9290323 12.5917051,24.9290323 C11.8921659,24.9290323 11.1290323,24.9926267 10.4294931,25.6285714 C9.28479263,26.5824885 8.7124424,28.0451613 8.14009217,29.3806452 L7.94930876,29.8258065 C7.56774194,30.716129 7.18617512,31.6064516 6.86820276,32.4967742 C6.29585253,33.959447 5.7235023,35.4221198 5.02396313,36.8211982 C3.62488479,39.5557604 2.60737327,42.4175115 1.65345622,45.2792627 C1.20829493,46.6147465 0.763133641,47.8866359 0.25437788,49.2221198 C0.12718894,49.4764977 0.19078341,49.8580645 0.31797235,50.1760369 C0.50875576,50.6211982 0.953917051,51.0663594 1.39907834,51.1935484 C1.84423963,51.3843318 2.35299539,51.4479263 2.92534562,51.4479263 C3.37050691,51.4479263 3.8156682,51.3843318 4.26082949,51.3843318 C4.51520737,51.3843318 4.83317972,51.3207373 5.0875576,51.3207373 C5.21474654,51.3207373 5.40552995,51.3207373 5.59631336,51.3207373 C5.59631336,51.3207373 6.42304147,51.3207373 6.55023041,51.3207373 C7.12258065,51.3207373 7.69493088,51.2571429 8.0764977,50.9391705 C8.39447005,50.6211982 8.52165899,50.1124424 8.64884793,49.6036866 C8.7124424,49.3493088 8.77603687,49.0949309 8.90322581,48.840553 C8.96682028,48.6497696 9.03041475,48.4589862 9.09400922,48.2682028 C9.3483871,47.5050691 9.66635945,46.678341 10.2387097,46.2331797 C10.7474654,45.9152074 11.3198157,45.9152074 11.8285714,45.9152074 C12.5281106,45.9152074 13.1640553,45.9152074 13.8635945,45.9152074 L15.0718894,45.9152074 L16.0894009,45.9152074 C16.4073733,45.9152074 16.7253456,45.9152074 17.1069124,45.8516129 C17.2341014,45.8516129 17.4248848,45.8516129 17.5520737,45.8516129 C17.997235,45.8516129 18.4423963,45.9152074 18.8239631,46.0423963 C19.4599078,46.2967742 19.6506912,46.678341 19.8414747,47.2506912 C20.0958525,48.0774194 20.4138249,48.840553 20.7953917,49.5400922 C21.1769585,50.3032258 21.5585253,50.8119816 21.8764977,51.002765 C22.0672811,51.1299539 22.3852535,51.1299539 22.7668203,51.1299539 C22.9576037,51.1299539 23.1483871,51.1299539 23.402765,51.1299539 C23.5935484,51.1299539 23.7843318,51.1299539 24.1023041,51.1299539 C24.1023041,51.1299539 24.1023041,51.1299539 24.1658986,51.1299539 C24.6746544,51.1299539 25.2470046,51.1935484 25.7557604,51.1935484 C26.4552995,51.2571429 27.1548387,51.2571429 27.7907834,51.2571429 L27.7907834,51.2571429 C28.0451613,51.2571429 28.2995392,51.2571429 28.5539171,51.2571429 C28.8082949,51.2571429 29.0626728,51.1935484 29.1898618,51.1299539 C29.635023,50.875576 29.762212,50.3032258 29.4442396,49.4129032 C29.4442396,48.9677419 29.2534562,48.4589862 29.0626728,48.1410138 Z M17.2976959,39.1741935 C17.2341014,39.237788 17.2341014,39.237788 17.2976959,39.1741935 C17.1705069,39.3013825 16.9797235,39.3013825 16.8525346,39.3013825 C15.8986175,39.364977 14.9447005,39.4285714 13.9907834,39.3013825 C13.4820276,39.237788 13.0368664,39.3013825 12.5281106,39.3013825 C12.4009217,39.3013825 12.2101382,39.3013825 12.0829493,39.237788 C11.8921659,39.237788 11.7013825,38.9834101 11.764977,38.7926267 C12.0193548,38.0930876 12.2737327,37.3299539 12.5917051,36.6304147 C12.8460829,35.9308756 13.1640553,35.2949309 13.4820276,34.6589862 C13.5456221,34.4682028 13.7364055,34.3410138 13.8635945,34.2138249 C14.0543779,34.0230415 14.4359447,34.0230415 14.6903226,34.0866359 C15.0718894,34.2138249 15.3898618,34.7225806 15.5170507,35.1041475 C15.835023,35.6764977 16.1529954,36.3124424 16.4709677,36.8847926 C16.6617512,37.202765 16.7889401,37.5207373 16.9797235,37.7751152 C17.1069124,38.0294931 17.1705069,38.283871 17.2976959,38.6018433 C17.3612903,38.8562212 17.3612903,39.0470046 17.2976959,39.1741935 Z"></path>
                    <path d="M45.8516129,6.99539171 C45.724424,6.16866359 45.5336406,5.40552995 45.1520737,4.76958525 C44.7705069,4.00645161 44.1981567,3.30691244 43.562212,2.86175115 C42.9262673,2.35299539 42.2267281,1.9078341 41.4635945,1.52626728 C40.7004608,1.14470046 39.9373272,0.890322581 39.1105991,0.699539171 C38.6018433,0.57235023 38.0930876,0.50875576 37.5843318,0.50875576 C37.2663594,0.50875576 36.9483871,0.50875576 36.6304147,0.57235023 C35.9308756,0.6359447 35.2949309,0.890322581 34.7225806,1.14470046 C34.1502304,1.46267281 33.5778802,1.78064516 33.00553,2.22580645 C32.4331797,2.67096774 31.924424,3.11612903 31.4792627,3.62488479 C30.9705069,4.13364055 30.5253456,4.64239631 30.0165899,5.15115207 C29.3806452,5.85069124 28.8082949,6.61382488 28.2995392,7.37695853 C27.7907834,8.20368664 27.3456221,9.03041475 26.9004608,9.85714286 C26.4552995,10.7474654 26.0737327,11.7013825 25.7557604,12.5917051 C25.437788,13.5456221 25.2470046,14.4995392 25.1834101,15.4534562 C25.1198157,16.1529954 25.1834101,16.8525346 25.2470046,17.4884793 C25.3105991,18.124424 25.564977,18.7603687 25.8193548,19.3963134 C26.2009217,20.159447 26.7732719,20.8589862 27.5364055,21.4949309 C28.0451613,22.0036866 28.6175115,22.4488479 29.3170507,22.8940092 C29.8258065,23.2119816 30.3345622,23.4663594 30.9069124,23.7207373 C31.4792627,23.9751152 32.0516129,24.1658986 32.6239631,24.2930876 C33.1327189,24.4202765 33.6414747,24.483871 34.0866359,24.483871 C34.4046083,24.483871 34.7861751,24.483871 35.1041475,24.4202765 C35.8672811,24.2930876 36.5668203,23.9751152 37.202765,23.5935484 C37.8387097,23.2119816 38.4746544,22.7032258 38.9834101,22.1308756 C39.5557604,21.5585253 40.0645161,20.8589862 40.5096774,20.159447 L42.0995392,17.7428571 C42.6082949,16.9797235 43.1170507,16.1529954 43.562212,15.2626728 C44.0073733,14.4359447 44.3889401,13.5456221 44.7705069,12.6552995 C45.0884793,11.764977 45.3428571,10.8746544 45.5336406,9.92073733 C45.5336406,9.85714286 45.597235,9.53917051 45.597235,9.47557604 C45.9788018,8.64884793 45.9788018,7.82211982 45.8516129,6.99539171 Z M39.0470046,9.9843318 L38.9198157,10.3658986 C38.283871,11.8285714 37.5207373,13.2912442 36.6304147,14.5631336 C36.3760369,14.881106 36.121659,15.2626728 35.8036866,15.5806452 C35.4857143,15.962212 35.1677419,16.2801843 34.7225806,16.4709677 C34.5953917,16.5345622 34.4682028,16.5981567 34.3410138,16.6617512 L34.2774194,16.6617512 L34.1502304,16.6617512 C33.959447,16.6617512 33.7686636,16.5981567 33.5142857,16.4709677 C33.2599078,16.3437788 33.0691244,16.2165899 32.9419355,16.0258065 C32.8147465,15.835023 32.6875576,15.6442396 32.6239631,15.3898618 C32.6239631,15.1990783 32.6239631,14.9447005 32.6239631,14.7539171 C32.6875576,14.4359447 32.878341,14.0543779 33.0691244,13.6728111 L34.5317972,11.1290323 C34.7225806,10.7474654 34.9769585,10.3023041 35.1677419,9.92073733 C35.4221198,9.53917051 35.6764977,9.15760369 35.9308756,8.77603687 C36.0580645,8.64884793 36.121659,8.52165899 36.2488479,8.45806452 C36.3124424,8.39447005 36.4396313,8.26728111 36.5668203,8.20368664 C36.8211982,8.0764977 37.075576,7.94930876 37.3935484,7.94930876 C37.4571429,7.94930876 37.5207373,7.94930876 37.5843318,7.94930876 C37.8387097,7.94930876 38.0294931,8.01290323 38.2202765,8.0764977 C38.4746544,8.20368664 38.6654378,8.33087558 38.8562212,8.58525346 C39.0470046,8.77603687 39.1105991,9.09400922 39.1105991,9.41198157 C39.1105991,9.66635945 39.1105991,9.79354839 39.0470046,9.9843318 Z"></path>
                </g>
            </g>
        </g>
    </g>
</svg>