<?xml version="1.0" encoding="UTF-8"?>
<svg width="138px" height="140px" viewBox="0 0 138 140" version="1.1" xmlns="http://www.w3.org/2000/svg" xmlns:xlink="http://www.w3.org/1999/xlink">
    <title>WAT_Logo_Royal_RGB</title>
    <g id="WAT_Logo_Royal_RGB" stroke="none" stroke-width="1" fill="none" fill-rule="evenodd">
        <g fill-rule="nonzero">
            <path d="M66.0158431,138 C62.5132589,138 59.4564582,137.745331 56.6543908,137.235993 L56.0175573,137.108659 C52.7697066,136.535654 49.3944891,135.962649 46.2103217,135.071307 C40.4151369,133.479626 33.7283853,131.442275 28.1242507,127.685908 C27.8695173,127.494907 27.6147839,127.367572 27.3600505,127.17657 C26.6595336,126.7309 25.9590168,126.285229 25.3858667,125.775891 C21.5011824,122.019525 17.1070313,117.562818 13.9228639,112.023769 C12.1397302,108.840407 10.8023798,105.466044 9.52871286,102.219015 C8.63714598,99.9906621 7.7455791,97.6986418 6.72664552,95.4702886 C4.56141167,90.9499151 3.09669465,85.6655348 1.95039438,78.8531409 C1.88671103,78.3438031 1.75934433,77.770798 1.63197764,77.1977929 C0.995144149,73.5687606 0.230943966,69.4940577 2.71459456,66.6926995 C4.43404497,64.7826825 7.10874562,64.7190153 9.65607956,64.7190153 C10.2292297,64.7190153 10.8023798,64.7190153 11.3118466,64.655348 C12.7128803,64.5916808 14.1775973,64.5280136 15.769681,64.5280136 C18.5717484,64.5280136 21.3101324,64.655348 23.8574663,64.7190153 C24.3669331,64.7190153 24.8127165,64.7190153 25.3221833,64.7190153 C26.9779504,64.7190153 28.6974008,64.5916808 30.3531679,64.5280136 C32.0089349,64.4006791 33.7283853,64.3370119 35.3841524,64.3370119 C35.8936192,64.3370119 36.403086,64.3370119 36.9125528,64.4006791 C37.9314863,64.4643463 38.8867366,64.4643463 39.8419868,64.4643463 C39.8419868,64.4643463 39.8419868,64.4643463 39.8419868,64.4643463 C41.6251206,64.4643463 43.4082543,64.4006791 45.1913881,64.3370119 C46.5924218,64.2733447 48.0571388,64.2096774 49.4581724,64.2096774 C50.6044727,64.2096774 51.750773,64.2096774 52.8970733,64.2096774 L58.4375246,64.2096774 C60.7301251,64.2733447 63.2137757,64.3370119 65.8884764,64.3370119 C70.0915774,64.3370119 74.3583617,64.2096774 78.4977794,64.1460102 C82.0640469,64.082343 85.7576811,63.9550085 89.387632,63.9550085 C90.4702489,63.9550085 91.4254992,63.8913413 92.2533827,63.7003396 C95.4375501,63.1273345 98.7490843,63.1273345 101.933252,63.1273345 L104.607952,63.1273345 C107.346336,63.1273345 110.08472,63.1910017 112.759421,63.2546689 C115.434122,63.3183362 118.236189,63.3820034 120.974573,63.3820034 C124.34979,63.3820034 127.151858,63.2546689 129.826558,63.0636672 C130.208658,63 130.654442,63 131.100225,63 C133.010726,63 135.621743,63.3820034 136.959093,65.1646859 C137.85066,66.4380306 137.914344,68.2843803 137.914344,69.9397284 C137.914344,70.385399 137.914344,70.8310696 137.914344,71.213073 C138.23276,77.3887946 137.65961,83.1825127 136.258577,89.0398981 C134.60281,95.852292 132.373892,102.664686 129.635508,109.349745 C128.425525,112.342105 127.088174,114.634126 125.432407,116.544143 C123.330857,118.963497 121.038256,121.573854 118.618289,124.056876 C114.924655,127.813243 110.021037,130.614601 103.716385,132.524618 C98.9401343,133.988964 94.1638832,135.198642 89.5149987,136.089983 C86.0760979,136.726655 82.5735137,137.044992 79.1346129,137.29966 L77.7972626,137.426995 C74.039945,137.681664 70.027894,138 66.0158431,138 Z" id="Path" fill="#FFFFFF"></path>
            <g id="Group" fill="#084D8A">
                <path d="M43.1806452,36.4715596 C43.0534562,36.4715596 42.9898618,36.4715596 42.8626728,36.4077982 C42.7354839,36.3440367 42.6082949,36.2802752 42.481106,36.2165138 C42.3539171,36.0889908 42.2267281,36.0252294 42.0995392,35.9614679 L40.6368664,34.8137615 C40.1281106,34.4311927 39.6829493,34.0486239 39.237788,33.666055 C38.9198157,33.4110092 38.6654378,33.1559633 38.4110599,32.837156 C38.156682,32.5183486 37.8387097,32.2633028 37.5207373,32.0082569 C37.075576,31.6894495 36.6304147,31.3706422 36.1852535,31.0518349 C35.7400922,30.796789 35.2949309,30.4779817 34.8497696,30.1591743 C34.7225806,30.0954128 34.5953917,29.9678899 34.4682028,29.840367 C34.3410138,29.712844 34.1502304,29.6490826 34.0230415,29.5853211 C33.8958525,29.4577982 33.7686636,29.3302752 33.5778802,29.2027523 C33.4506912,29.0752294 33.2599078,29.0114679 33.1327189,28.883945 C32.878341,28.6288991 32.5603687,28.3738532 32.3695853,28.1825688 L31.6064516,27.4174312 C30.9705069,26.7798165 30.2709677,26.2059633 29.5714286,25.6321101 C28.8718894,25.0582569 28.1723502,24.5481651 27.4728111,23.9743119 C27.0912442,23.7192661 26.7096774,23.4642202 26.3917051,23.2091743 C26.0737327,22.9541284 25.7557604,22.6353211 25.437788,22.3165138 L25.1834101,21.9977064 C25.1198157,21.933945 25.0562212,21.806422 25.0562212,21.6788991 C24.9926267,21.4876147 25.0562212,21.2963303 25.0562212,21.1050459 C25.1198157,20.9137615 25.1834101,20.7224771 25.3105991,20.5311927 C25.6921659,19.893578 26.0737327,19.3197248 26.518894,18.7458716 L27.9179724,17.0880734 C28.0451613,16.9605505 28.1723502,16.8330275 28.2995392,16.7055046 C28.4267281,16.5779817 28.5539171,16.5142202 28.681106,16.5142202 C28.7447005,16.5142202 28.8082949,16.5142202 28.8718894,16.5142202 C28.9990783,16.5142202 29.1262673,16.5779817 29.2534562,16.6417431 C29.4442396,16.7692661 29.635023,16.8330275 29.8258065,16.9605505 C30.3981567,17.3431193 30.9069124,17.7256881 31.4156682,18.1082569 C31.924424,18.4908257 32.4331797,18.8733945 32.9419355,19.3197248 C33.959447,20.2123853 35.040553,21.1050459 36.121659,21.933945 C37.202765,22.762844 38.283871,23.6555046 39.3013825,24.6119266 C40.3824885,25.6321101 41.4635945,26.5885321 42.5447005,27.4811927 C43.6258065,28.3738532 44.7705069,29.3302752 45.9152074,30.2866972 C46.1695853,30.4779817 46.4239631,30.7330275 46.678341,31.0518349 C46.8691244,31.3068807 46.9963134,31.5619266 46.9963134,31.8807339 C46.9963134,32.1357798 46.9327189,32.3908257 46.80553,32.6458716 C46.678341,32.9009174 46.4875576,33.1559633 46.2967742,33.4110092 C46.1059908,33.666055 45.8516129,33.8573394 45.6608295,34.1123853 C45.4064516,34.3674312 45.2156682,34.5587156 45.0248848,34.75 C44.8976959,34.9412844 44.7069124,35.1325688 44.5797235,35.3876147 C44.4525346,35.6426606 44.2617512,35.833945 44.0709677,36.0252294 C43.8801843,36.2165138 43.6894009,36.3440367 43.4986175,36.4077982 C43.3714286,36.4715596 43.3078341,36.4715596 43.1806452,36.4715596 Z" id="Path"></path>
                <path d="M50.4304147,29.0752294 C50.2396313,29.0752294 50.0488479,29.0114679 49.8580645,28.8201835 C49.6672811,28.6288991 49.4764977,28.3738532 49.3493088,28.0550459 C48.9041475,27.2899083 48.4589862,26.5247706 48.0138249,25.759633 C47.5686636,24.9944954 47.1235023,24.2931193 46.678341,23.4642202 C46.2967742,22.6990826 45.9152074,21.9977064 45.5336406,21.2963303 C45.1520737,20.5949541 44.7705069,19.8298165 44.3889401,19.0646789 L43.9437788,18.2357798 C43.562212,17.5981651 43.2442396,16.896789 42.9262673,16.1954128 L41.9723502,13.9637615 L41.7815668,14.0275229 C41.3364055,14.2825688 40.8276498,14.5376147 40.3824885,14.7926606 C39.9373272,15.0477064 39.4285714,15.3027523 38.9834101,15.4940367 C38.7926267,15.6215596 38.6018433,15.6853211 38.3474654,15.7490826 C38.283871,15.7490826 38.2202765,15.7490826 38.156682,15.7490826 C38.0294931,15.7490826 37.8387097,15.6853211 37.6479263,15.6215596 C37.2663594,15.3665138 36.9483871,14.9201835 36.6940092,14.3463303 C36.4396313,13.7087156 36.1852535,13.1348624 35.9308756,12.6247706 C35.7400922,12.3059633 35.5493088,12.0509174 35.3585253,11.7958716 C35.1677419,11.5408257 35.040553,11.2857798 34.9769585,10.9669725 C34.8497696,10.5844037 34.9133641,10.2018349 35.1041475,9.88302752 C35.1677419,9.81926606 35.2313364,9.69174312 35.2949309,9.62798165 C35.3585253,9.56422018 35.4857143,9.50045872 35.6129032,9.37293578 C36.3124424,8.79908257 37.1391705,8.28899083 38.0930876,7.90642202 C38.5382488,7.71513761 38.9198157,7.52385321 39.364977,7.33256881 C39.7465438,7.1412844 40.1917051,6.88623853 40.6368664,6.69495413 C41.5271889,6.24862385 42.3539171,5.80229358 43.2442396,5.3559633 L45.8516129,4.01697248 C46.2331797,3.82568807 46.678341,3.69816514 47.0599078,3.50688073 C47.4414747,3.31559633 47.8866359,3.18807339 48.2682028,3.06055046 C48.3953917,2.99678899 48.4589862,2.99678899 48.5861751,2.99678899 C48.7133641,2.99678899 48.840553,2.99678899 48.9677419,3.06055046 C49.1585253,3.18807339 49.3493088,3.31559633 49.5400922,3.50688073 C49.6036866,3.63440367 49.7308756,3.76192661 49.79447,3.95321101 C49.8580645,4.08073394 49.9852535,4.27201835 50.0488479,4.39954128 C50.3668203,4.90963303 50.6211982,5.3559633 50.875576,5.86605505 C51.1299539,6.31238532 51.3207373,6.82247706 51.5115207,7.33256881 C51.5751152,7.52385321 51.6387097,7.71513761 51.7023041,7.90642202 C51.7658986,8.03394495 51.7023041,8.22522936 51.7023041,8.35275229 C51.6387097,8.5440367 51.5115207,8.7353211 51.3207373,8.9266055 C51.1299539,9.11788991 50.875576,9.30917431 50.6211982,9.43669725 C50.3668203,9.56422018 50.0488479,9.75550459 49.79447,9.94678899 C49.5400922,10.0743119 49.3493088,10.2018349 49.0949309,10.3293578 C48.9041475,10.4568807 48.6497696,10.5844037 48.4589862,10.7119266 L48.2682028,10.8394495 L48.3317972,11.0307339 C48.840553,11.987156 49.3493088,12.8798165 49.8580645,13.7724771 C50.3668203,14.6651376 50.8119816,15.6215596 51.2571429,16.5779817 C51.8294931,17.9169725 52.4654378,19.2559633 53.1013825,20.5311927 L55.0728111,24.4844037 C55.2,24.803211 55.3271889,25.1220183 55.4543779,25.4408257 C55.5815668,25.759633 55.5179724,26.0146789 55.4543779,26.3334862 C55.3907834,26.5885321 55.2,26.7798165 55.0092166,26.9711009 C54.8184332,27.1623853 54.5640553,27.2899083 54.2460829,27.4811927 C53.9917051,27.6087156 53.6737327,27.7362385 53.3557604,27.8637615 C53.037788,27.9912844 52.7834101,28.1188073 52.5290323,28.2463303 C52.3382488,28.3738532 52.083871,28.5013761 51.8294931,28.6926606 C51.5751152,28.8201835 51.3843318,28.9477064 51.1299539,29.0752294 C50.9391705,29.0752294 50.6847926,29.0752294 50.4304147,29.0752294 Z" id="Path"></path>
                <path d="M116.059908,55.6637615 C115.869124,55.6637615 115.741935,55.6637615 115.551152,55.6637615 C115.423963,55.6637615 115.23318,55.6 115.105991,55.4724771 C114.978802,55.3449541 114.788018,55.2174312 114.660829,54.9623853 C114.533641,54.7073394 114.406452,54.3885321 114.406452,54.1334862 C114.342857,53.8146789 114.279263,53.4958716 114.215668,53.1770642 C114.152074,52.9220183 114.088479,52.6669725 114.024885,52.4119266 C113.96129,52.1568807 113.897696,51.9018349 113.897696,51.646789 L113.897696,51.4555046 L113.706912,51.5192661 C112.689401,51.7105505 111.671889,51.9018349 110.590783,52.0931193 C109.573272,52.2844037 108.55576,52.4756881 107.474654,52.5394495 C106.011982,52.7307339 104.612903,52.9220183 103.15023,53.1133028 L98.8258065,53.8146789 C98.5078341,53.8784404 98.1262673,53.8784404 97.8082949,53.8784404 C97.4903226,53.8784404 97.2359447,53.7509174 96.9815668,53.559633 C96.7907834,53.4321101 96.6,53.1770642 96.5364055,52.9857798 C96.4092166,52.7307339 96.3456221,52.4119266 96.2820276,52.1568807 C96.2184332,51.8380734 96.2184332,51.5192661 96.1548387,51.2004587 C96.1548387,50.8816514 96.0912442,50.562844 96.0912442,50.3077982 C96.0276498,50.0527523 95.9640553,49.7977064 95.9004608,49.5426606 C95.8368664,49.2876147 95.7732719,49.0325688 95.7732719,48.7775229 C95.7732719,48.5224771 95.7732719,48.2674312 95.8368664,48.0761468 C95.9004608,47.8848624 96.0276498,47.7573394 96.2184332,47.6298165 C96.4728111,47.5022936 96.7907834,47.4385321 97.1087558,47.3747706 C97.9990783,47.1834862 98.8894009,46.9922018 99.716129,46.737156 C100.542857,46.5458716 101.43318,46.3545872 102.259908,46.1633028 C103.086636,45.9720183 103.913364,45.8444954 104.676498,45.7169725 C105.503226,45.5894495 106.266359,45.4619266 107.093088,45.3344037 L108.047005,45.2068807 C108.810138,45.0793578 109.509677,44.9518349 110.272811,44.8243119 L112.689401,44.5055046 L112.689401,44.3142202 C112.625806,43.8041284 112.498618,43.2940367 112.435023,42.7201835 C112.307834,42.2100917 112.24424,41.7 112.180645,41.1261468 C112.117051,40.9348624 112.117051,40.6798165 112.180645,40.4247706 C112.180645,40.2334862 112.307834,40.0422018 112.498618,39.8509174 C112.880184,39.5321101 113.325346,39.4045872 114.024885,39.3408257 C114.724424,39.2770642 115.296774,39.2133028 115.869124,39.0857798 C116.187097,39.0220183 116.505069,38.8944954 116.823041,38.7669725 C117.077419,38.703211 117.395392,38.6394495 117.64977,38.6394495 C118.094931,38.6394495 118.476498,38.8307339 118.730876,39.0857798 C118.79447,39.1495413 118.858065,39.2770642 118.858065,39.3408257 C118.921659,39.4683486 118.921659,39.5958716 118.985253,39.7233945 C119.303226,40.5522936 119.557604,41.5087156 119.621198,42.5288991 C119.684793,42.9752294 119.748387,43.4853211 119.811982,43.9316514 C119.875576,44.3779817 120.002765,44.8243119 120.066359,45.3344037 C120.257143,46.2908257 120.447926,47.2472477 120.575115,48.2674312 L121.020276,51.2004587 C121.083871,51.646789 121.083871,52.0931193 121.147465,52.5394495 C121.21106,52.9857798 121.21106,53.4321101 121.21106,53.8784404 C121.21106,54.1334862 121.147465,54.3885321 120.956682,54.516055 C120.765899,54.7073394 120.575115,54.8348624 120.320737,54.8986239 C120.193548,54.9623853 120.002765,55.0261468 119.811982,55.0261468 C119.621198,55.0899083 119.494009,55.0899083 119.303226,55.1536697 C118.730876,55.2811927 118.22212,55.4087156 117.64977,55.4724771 C117.141014,55.5362385 116.568664,55.6 116.059908,55.6637615 L116.059908,55.6637615 Z" id="Path"></path>
                <path d="M96.8543779,42.5926606 C96.2820276,42.5926606 95.7732719,42.4651376 95.2645161,42.2738532 C94.437788,42.0188073 93.8018433,41.5087156 93.4202765,40.9348624 C92.9751152,40.2972477 92.5935484,39.5958716 92.1483871,38.8307339 C91.7032258,38.1293578 91.3852535,37.3642202 91.0036866,36.662844 C90.6857143,35.9614679 90.4313364,35.1325688 90.3677419,34.3036697 C90.3041475,33.7298165 90.3041475,33.1559633 90.4313364,32.5821101 C90.5585253,32.0082569 90.7493088,31.4981651 91.0672811,31.0518349 C91.3852535,30.6055046 91.7668203,30.2866972 92.1483871,29.9678899 C93.2930876,28.9477064 94.564977,28.0550459 95.9004608,27.2899083 C96.4728111,26.9073394 97.1087558,26.5885321 97.7447005,26.3334862 C98.3806452,26.0146789 99.0165899,25.6958716 99.5889401,25.3133028 C100.924424,24.5481651 102.323502,23.7830275 103.722581,23.1454128 C105.121659,22.5077982 106.584332,21.806422 107.919816,21.0412844 C108.237788,20.9137615 108.619355,20.7862385 109.128111,20.6587156 C109.2553,20.5949541 109.382488,20.5949541 109.509677,20.5949541 C109.764055,20.5949541 110.018433,20.6587156 110.209217,20.85 C110.336406,20.9137615 110.4,20.9775229 110.463594,21.0412844 C110.527189,21.1050459 110.590783,21.2325688 110.654378,21.3600917 C110.845161,21.6788991 111.035945,21.9977064 111.290323,22.3802752 C111.5447,22.762844 111.735484,23.1454128 111.989862,23.5279817 C112.180645,23.9105505 112.307834,24.2931193 112.435023,24.6756881 C112.625806,25.6958716 111.671889,26.2697248 110.654378,26.7798165 C109.573272,27.2899083 108.55576,27.8 107.538249,28.3100917 C106.520737,28.8201835 105.439631,29.2665138 104.42212,29.7766055 C103.913364,30.0316514 103.468203,30.2866972 103.023041,30.4779817 C102.514286,30.7330275 102.069124,30.9880734 101.623963,31.1793578 C101.115207,31.4344037 100.670046,31.6894495 100.16129,31.8807339 C99.5889401,32.1357798 99.0801843,32.4545872 98.635023,32.9009174 C98.4442396,33.0922018 98.2534562,33.2834862 98.0626728,33.5385321 C97.8082949,33.8573394 97.7447005,34.1761468 97.8082949,34.5587156 C97.8718894,35.0050459 98.0626728,35.3238532 98.3806452,35.4513761 C98.635023,35.5788991 98.8894009,35.6426606 99.1437788,35.6426606 C99.4617512,35.6426606 99.716129,35.5788991 100.034101,35.4513761 C100.288479,35.3876147 100.479263,35.2600917 100.670046,35.1963303 C102.641475,34.3036697 104.612903,33.2834862 106.457143,32.1995413 C108.301382,31.1155963 110.145622,30.0316514 112.053456,29.0114679 L112.307834,28.883945 C112.562212,28.756422 112.81659,28.6288991 113.070968,28.5013761 C113.38894,28.3738532 113.706912,28.3100917 113.96129,28.3100917 C114.342857,28.3100917 114.660829,28.4376147 114.915207,28.756422 C115.169585,29.0752294 115.423963,29.3940367 115.614747,29.7766055 C115.80553,30.1591743 115.996313,30.6055046 116.187097,30.9880734 L116.632258,32.0720183 C116.695853,32.1995413 116.759447,32.3270642 116.823041,32.4545872 C116.886636,32.5183486 116.886636,32.6458716 116.886636,32.837156 C116.886636,33.2197248 116.759447,33.5385321 116.441475,33.793578 C116.059908,34.1123853 115.741935,34.3674312 115.423963,34.5587156 C114.088479,35.2600917 112.689401,35.9614679 111.353917,36.7266055 C110.018433,37.4279817 108.682949,38.1931193 107.347465,38.8944954 C106.520737,39.3408257 105.630415,39.787156 104.740092,40.1697248 C103.84977,40.5522936 102.959447,40.9348624 102.069124,41.2536697 C101.560369,41.4449541 101.051613,41.6362385 100.542857,41.8275229 C100.034101,42.0188073 99.5253456,42.1463303 99.0165899,42.2738532 C98.5078341,42.4013761 98.0626728,42.4651376 97.5539171,42.4651376 L96.8543779,42.5926606 Z" id="Path"></path>
                <path d="M72.3705069,24.803211 C72.0525346,24.803211 71.7345622,24.803211 71.4165899,24.7394495 C71.0986175,24.7394495 70.7806452,24.6756881 70.5262673,24.6756881 C70.081106,24.6756881 69.7631336,24.7394495 69.4451613,24.7394495 C69.1271889,24.7394495 68.8092166,24.7394495 68.4276498,24.6756881 C68.1096774,24.6756881 67.9824885,24.3568807 67.918894,23.7192661 L67.918894,23.5279817 C67.918894,22.890367 67.8552995,22.2527523 67.8552995,21.5513761 L67.8552995,19.5110092 C67.8552995,19.3197248 67.8552995,19.1284404 67.918894,18.809633 C67.9824885,18.4270642 67.9824885,18.0444954 67.9824885,17.7256881 C67.9824885,17.3431193 67.918894,16.9605505 67.8552995,16.6417431 C67.7281106,16.1954128 67.5373272,15.8766055 67.1557604,15.7490826 C66.964977,15.6853211 66.837788,15.6853211 66.6470046,15.6853211 L65.883871,15.6853211 C65.6930876,15.6853211 65.5023041,15.6853211 65.3751152,15.7490826 C65.1843318,15.812844 64.9935484,15.8766055 64.802765,16.0041284 C64.5483871,16.2591743 64.4211982,16.4504587 64.4211982,16.7692661 C64.4211982,16.9605505 64.4211982,17.0880734 64.4211982,17.2793578 C64.4211982,18.1720183 64.3576037,19.0646789 64.3576037,19.9573394 L64.3576037,22.5715596 C64.3576037,22.8266055 64.4211982,23.0816514 64.3576037,23.3366972 C64.3576037,23.846789 64.1668203,24.6119266 63.7852535,24.7394495 C63.4672811,24.803211 63.2129032,24.8669725 62.8949309,24.8669725 C62.8313364,24.8669725 62.7041475,24.8669725 62.640553,24.8669725 C62.3225806,24.803211 62.0046083,24.803211 61.6230415,24.803211 C61.4958525,24.803211 61.3050691,24.803211 61.1778802,24.803211 C60.9235023,24.803211 60.7327189,24.803211 60.478341,24.803211 C60.2239631,24.803211 59.9695853,24.803211 59.7788018,24.803211 C59.4608295,24.803211 59.2064516,24.803211 58.9520737,24.7394495 C58.6976959,24.6756881 58.5069124,24.6119266 58.316129,24.3568807 C58.1253456,24.1655963 58.0617512,23.9105505 58.0617512,23.6555046 C58.0617512,23.3366972 58.1253456,23.0816514 58.1889401,22.762844 C58.316129,21.9977064 58.316129,21.2963303 58.2525346,20.5949541 C58.1889401,19.893578 58.1889401,19.1922018 58.1889401,18.4908257 C58.1889401,17.7256881 58.1889401,16.9605505 58.1253456,16.1316514 C58.0617512,15.3665138 57.9981567,14.5376147 57.9345622,13.8362385 C57.8709677,12.8798165 57.8709677,11.859633 57.8709677,10.903211 C57.8709677,9.94678899 57.9345622,8.9266055 57.9981567,7.97018349 C57.9981567,7.01376147 57.9981567,6.05733945 57.9345622,5.10091743 C57.8709677,4.20825688 57.8709677,3.25183486 57.9981567,2.29541284 C58.0617512,1.9766055 58.1253456,1.65779817 58.1889401,1.33899083 C58.2525346,1.08394495 58.443318,0.828899083 58.6976959,0.701376147 C58.8248848,0.573853211 59.0156682,0.510091743 59.2064516,0.510091743 L59.8423963,0.446330275 C60.2875576,0.446330275 60.7327189,0.382568807 61.2414747,0.318807339 C61.559447,0.255045872 61.8774194,0.255045872 62.2589862,0.255045872 C62.3861751,0.255045872 62.5133641,0.255045872 62.640553,0.255045872 C63.0857143,0.255045872 63.5308756,0.382568807 63.9124424,0.510091743 C64.675576,0.828899083 64.9935484,1.84908257 64.9935484,2.74174312 C64.9935484,3.25183486 64.9935484,3.82568807 64.9299539,4.33577982 C64.8663594,5.03715596 64.802765,5.73853211 64.802765,6.50366972 C64.802765,7.20504587 64.802765,7.90642202 64.802765,8.60779817 C64.802765,8.79908257 64.802765,8.99036697 64.8663594,9.18165138 C64.9299539,9.43669725 64.9935484,9.62798165 65.1843318,9.88302752 C65.5658986,10.2018349 65.883871,10.3931193 66.2654378,10.3931193 C66.7741935,10.3293578 67.0921659,10.1380734 67.3465438,9.88302752 C67.6009217,9.69174312 67.6645161,9.43669725 67.7281106,9.11788991 C67.7281106,8.99036697 67.7917051,8.79908257 67.7917051,8.67155963 C67.8552995,7.20504587 67.7917051,5.80229358 67.6645161,4.33577982 C67.6009217,3.82568807 67.6009217,3.25183486 67.6009217,2.74174312 C67.6645161,1.46651376 67.9824885,0.765137615 68.6820276,0.510091743 C69.1271889,0.382568807 69.5723502,0.255045872 70.0175115,0.191284404 C70.2718894,0.191284404 70.4626728,0.127522936 70.7170507,0.127522936 C70.9714286,0.127522936 71.2258065,0.127522936 71.4165899,0.191284404 C71.9253456,0.255045872 72.3705069,0.255045872 72.8156682,0.255045872 C73.0064516,0.255045872 73.197235,0.255045872 73.3880184,0.255045872 C73.5152074,0.255045872 73.6423963,0.318807339 73.7695853,0.446330275 C73.8967742,0.573853211 74.0239631,0.701376147 74.0875576,0.956422018 C74.1511521,1.21146789 74.2147465,1.40275229 74.2147465,1.65779817 C74.278341,2.29541284 74.3419355,2.99678899 74.3419355,3.63440367 C74.40553,4.27201835 74.40553,4.90963303 74.40553,5.61100917 C74.40553,7.01376147 74.40553,8.41651376 74.4691244,9.75550459 C74.5327189,11.0944954 74.5963134,12.4972477 74.5327189,13.9 C74.4691244,15.3027523 74.4691244,16.7692661 74.4691244,18.2357798 L74.4691244,22.6353211 C74.4691244,22.9541284 74.4691244,23.3366972 74.40553,23.6555046 C74.3419355,23.9743119 74.2147465,24.2293578 74.0239631,24.4206422 C73.8331797,24.6119266 73.5788018,24.7394495 73.324424,24.803211 C73.0064516,24.803211 72.6884793,24.803211 72.3705069,24.803211 Z" id="Path"></path>
                <path d="M16.4709677,57.0665138 C15.3262673,57.0665138 14.2451613,57.0027523 13.1640553,56.8114679 C12.9732719,56.7477064 12.9096774,56.7477064 12.8460829,56.683945 C12.7824885,56.6201835 12.5917051,56.556422 12.5281106,56.2376147 C12.4645161,56.0463303 12.4645161,55.7912844 12.5281106,55.6 C12.5917051,55.2174312 12.5917051,54.7711009 12.5917051,54.3885321 C12.5917051,54.0059633 12.6552995,53.6233945 12.7824885,53.2408257 C12.9096774,52.9220183 12.9732719,52.6669725 13.1004608,52.3481651 C13.2276498,52.0931193 13.3548387,51.7743119 13.4820276,51.4555046 C13.6092166,51.2642202 13.7364055,51.0729358 13.8635945,50.8816514 C14.0543779,50.562844 14.4359447,50.3715596 14.9447005,50.3715596 C15.1354839,50.3715596 15.2626728,50.3715596 15.3898618,50.3715596 L16.5981567,50.3715596 C17.2341014,50.3715596 17.8064516,50.3715596 18.4423963,50.3715596 C19.078341,50.3715596 19.7142857,50.4353211 20.2866359,50.4353211 C20.8589862,50.4990826 21.3677419,50.4990826 21.7493088,50.562844 C21.7493088,50.562844 23.275576,50.6266055 23.3391705,50.6266055 C23.6571429,50.6266055 23.9115207,50.6266055 24.2294931,50.562844 L24.6110599,50.4353211 C24.8654378,50.3715596 25.0562212,50.1802752 25.1198157,49.9252294 C25.1198157,49.5426606 25.0562212,49.3513761 24.8654378,49.1600917 C24.8018433,49.0963303 24.6746544,49.0325688 24.6110599,48.9688073 C23.5299539,48.3949541 22.3852535,47.8848624 21.240553,47.5022936 C20.159447,47.1197248 19.078341,46.6733945 18.0608295,46.0995413 C18.0608295,46.0357798 17.8700461,45.9720183 17.7428571,45.9082569 C17.5520737,45.653211 17.5520737,45.5256881 17.4884793,45.3981651 C17.4248848,44.8243119 17.4884793,44.1866972 17.7428571,43.5490826 C17.997235,42.8477064 18.2516129,42.1463303 18.4423963,41.5087156 L18.6331797,41.1261468 C18.6967742,41.0623853 18.7603687,40.9348624 18.8239631,40.8711009 C18.8875576,40.8073394 19.078341,40.743578 19.20553,40.743578 C19.3963134,40.6798165 19.5870968,40.6798165 19.7142857,40.6798165 C19.8414747,40.6798165 19.9686636,40.6798165 20.0958525,40.6798165 C20.2230415,40.6798165 20.4138249,40.6798165 20.6046083,40.6798165 C20.9861751,40.743578 21.4313364,40.743578 21.8764977,40.8073394 C22.321659,40.8711009 22.7032258,40.9348624 23.1483871,40.9348624 C23.5299539,40.9986239 23.7843318,40.9986239 24.0387097,40.9986239 C24.5474654,40.9986239 24.9290323,40.9986239 25.3105991,41.0623853 C25.437788,41.0623853 25.564977,41.0623853 25.6921659,41.0623853 C26.0101382,41.0623853 26.2645161,41.0623853 26.5824885,40.9986239 L26.9640553,40.8711009 C27.2184332,40.8073394 27.4092166,40.616055 27.4092166,40.3610092 C27.4092166,39.9784404 27.3456221,39.787156 27.1548387,39.5958716 C27.0912442,39.5321101 26.9640553,39.4683486 26.9004608,39.4045872 C26.518894,39.2133028 26.0737327,39.0220183 25.564977,38.8307339 C25.0562212,38.6394495 24.483871,38.3844037 23.9115207,38.1931193 C23.3391705,37.9380734 22.8304147,37.746789 22.321659,37.5555046 C21.8129032,37.3642202 21.4313364,37.1729358 21.1769585,36.9816514 C20.6682028,36.790367 20.2866359,36.5353211 19.9050691,36.3440367 C19.5235023,36.1527523 19.1419355,35.9614679 18.7603687,35.706422 L18.6331797,35.6426606 C18.1880184,35.3876147 17.7428571,35.0688073 17.7428571,34.6224771 C17.6792627,34.1761468 17.7428571,33.793578 17.8064516,33.4747706 C17.8700461,33.0922018 17.997235,32.709633 18.124424,32.3270642 L18.3152074,31.4344037 C18.3788018,31.1793578 18.4423963,30.8605505 18.5695853,30.5417431 C18.6331797,30.2866972 18.6967742,30.0954128 18.8239631,29.840367 C18.8875576,29.6490826 19.0147465,29.4577982 19.20553,29.3940367 C19.3963134,29.2665138 19.5870968,29.2027523 19.7778802,29.2027523 C19.8414747,29.2027523 19.9686636,29.2027523 20.0322581,29.2027523 C20.3502304,29.2665138 20.6682028,29.3940367 20.9861751,29.5215596 C21.4313364,29.712844 21.8764977,29.9041284 22.321659,30.0954128 C22.7668203,30.3504587 23.2119816,30.5417431 23.6571429,30.796789 C24.9290323,31.4981651 26.2009217,32.1995413 27.4728111,32.7733945 C28.7447005,33.3472477 30.0165899,34.0486239 31.2248848,34.8137615 C32.6239631,35.6426606 34.1502304,36.4715596 35.7400922,37.2366972 C37.2663594,38.0018349 38.7290323,38.8944954 39.9373272,40.0422018 C40.4460829,40.4247706 40.7640553,40.9348624 40.8912442,41.5724771 C40.9548387,41.8912844 40.8912442,42.1463303 40.8276498,42.4013761 L40.5096774,43.3577982 C40.4460829,43.612844 40.3824885,43.8678899 40.318894,44.1229358 C40.2552995,44.3779817 40.1917051,44.6330275 40.1281106,44.8880734 C40.0645161,45.1431193 39.9373272,45.3344037 39.8101382,45.5256881 C39.6829493,45.7169725 39.4921659,45.8444954 39.237788,45.9720183 C39.0470046,46.0357798 38.7926267,46.0995413 38.6018433,46.0995413 C38.3474654,46.0995413 38.0930876,46.1633028 37.8387097,46.1633028 C37.5207373,46.1633028 37.1391705,46.2270642 36.8211982,46.2908257 C36.5032258,46.3545872 36.121659,46.4183486 35.8036866,46.4183486 C35.5493088,46.4183486 35.2949309,46.4183486 34.9769585,46.4183486 C34.9769585,46.4183486 34.9769585,46.4183486 34.9769585,46.4183486 C34.5317972,46.4183486 34.2138249,46.4821101 33.959447,46.5458716 C33.8322581,46.609633 33.7050691,46.609633 33.6414747,46.737156 C33.5142857,46.9922018 33.5778802,47.1834862 33.6414747,47.3110092 C33.7050691,47.4385321 33.7686636,47.566055 33.959447,47.693578 C34.5317972,48.1399083 35.1041475,48.5862385 35.7400922,49.0325688 C36.3124424,49.4151376 36.9483871,49.8614679 37.5207373,50.3715596 C38.0294931,50.8178899 38.3474654,51.3279817 38.4110599,51.9655963 C38.4746544,52.2844037 38.4110599,52.5394495 38.3474654,52.7944954 L38.0294931,53.687156 C37.9658986,53.9422018 37.9023041,54.1972477 37.8387097,54.4522936 C37.7751152,54.7073394 37.7115207,54.9623853 37.6479263,55.2174312 C37.5843318,55.4724771 37.4571429,55.6637615 37.3299539,55.8550459 C37.202765,56.0463303 37.0119816,56.1738532 36.7576037,56.3013761 C36.5668203,56.3651376 36.3124424,56.4288991 36.121659,56.4288991 C35.8672811,56.4288991 35.6764977,56.4288991 35.4221198,56.4288991 C35.040553,56.4926606 34.7225806,56.4926606 34.3410138,56.556422 C34.0230415,56.6201835 33.6414747,56.683945 33.3235023,56.683945 C33.00553,56.7477064 32.6875576,56.7477064 32.3059908,56.7477064 C32.3059908,56.7477064 31.6700461,56.7477064 31.5428571,56.7477064 C31.2884793,56.7477064 31.0341014,56.7477064 30.7797235,56.7477064 C29.9529954,56.7477064 29.1262673,56.8114679 28.2995392,56.8114679 L25.8193548,56.9389908 C24.8018433,57.0027523 23.7843318,57.0665138 22.8304147,57.0665138 C22.3852535,57.0665138 22.0036866,57.0665138 21.5585253,57.0665138 C21.0497696,57.0665138 20.4774194,57.0665138 19.9050691,57.0665138 C19.0147465,57.0665138 18.124424,57.0665138 17.2341014,57.1302752 C17.043318,57.0665138 16.7253456,57.0665138 16.4709677,57.0665138 Z" id="Path"></path>
                <g transform="translate(0.000000, 62.486239)">
                    <path d="M53.9917051,21.4876147 C52.1474654,20.2123853 49.8580645,20.9775229 47.759447,20.85 C46.6147465,20.7862385 45.724424,20.6587156 44.643318,21.1688073 C43.3078341,21.7426606 43.7529954,23.846789 43.8801843,25.1220183 C44.0073733,26.3972477 43.6258065,29.1389908 44.8341014,29.840367 C45.3428571,30.1591743 45.9788018,30.2229358 46.5511521,30.2229358 C48.9677419,30.2866972 51.6387097,30.1591743 53.6101382,28.5013761 C54.3096774,27.9275229 54.8820276,27.1623853 55.2635945,26.1422018 C55.8995392,24.4206422 55.5815668,22.5715596 53.9917051,21.4876147 Z" id="Path"></path>
                    <path d="M73.4516129,33.8573394 C73.6423963,33.9848624 73.8967742,33.9848624 74.1511521,33.9848624 C74.7235023,33.9848624 75.2322581,33.9848624 75.8046083,33.9848624 C76.0589862,33.9848624 76.3769585,33.9848624 76.5677419,33.8573394 C76.8221198,33.7298165 76.9493088,33.4110092 77.0129032,33.1559633 C77.1400922,32.1995413 76.7585253,31.0518349 76.6313364,30.0954128 C76.5041475,29.0114679 76.3133641,27.9275229 76.1861751,26.7798165 C76.0589862,26.0146789 75.9317972,25.2495413 75.8046083,24.4206422 C75.7410138,23.9743119 75.6138249,23.0816514 74.9778802,23.0816514 C74.278341,23.0816514 74.2147465,24.4844037 74.0875576,24.9307339 C73.7695853,26.3334862 73.6423963,27.7362385 73.4516129,29.2027523 C73.2608295,30.2866972 72.9428571,31.5619266 73.0064516,32.709633 C73.0064516,32.837156 73.0064516,33.0284404 73.0700461,33.1559633 C73.1336406,33.4747706 73.2608295,33.7298165 73.4516129,33.8573394 Z" id="Path"></path>
                    <path d="M137.745622,8.7353211 C137.682028,6.7587156 137.936406,4.20825688 136.728111,2.55045872 C135.074654,0.318807339 131.767742,0.127522936 129.351152,0.318807339 C120.575115,1.02018349 111.799078,0.318807339 103.086636,0.382568807 C99.3345622,0.382568807 95.5824885,0.318807339 91.8304147,0.956422018 C90.9400922,1.14770642 89.9861751,1.14770642 89.0322581,1.21146789 C78.7299539,1.27522936 68.3640553,1.91284404 58.0617512,1.53027523 C55.0728111,1.53027523 52.083871,1.53027523 49.0313364,1.53027523 C44.8976959,1.5940367 40.7640553,1.91284404 36.6304147,1.72155963 C32.3059908,1.53027523 27.9179724,2.29541284 23.6571429,2.10412844 C19.4599078,1.91284404 15.3262673,1.7853211 11.0654378,1.9766055 C8.0764977,2.10412844 4.4516129,1.65779817 2.28940092,4.08073394 C-0.763133641,7.46009174 0.763133641,12.5610092 1.39907834,16.5142202 C2.35299539,22.2527523 3.68847926,27.9912844 6.16866359,33.2197248 C8.7124424,38.703211 10.3023041,44.5055046 13.3548387,49.8614679 C16.4073733,55.1536697 20.5410138,59.4894495 24.8654378,63.6977064 C25.6921659,64.462844 26.7096774,65.0366972 27.6,65.6743119 C33.0691244,69.3724771 39.4921659,71.3490826 45.7880184,73.1344037 C49.2221198,74.0908257 52.7198157,74.6646789 56.281106,75.3022936 C63.2129032,76.5137615 70.5262673,76.0036697 77.5852535,75.4298165 C81.5281106,75.1110092 85.4709677,74.8559633 89.3502304,74.1545872 C94.1198157,73.2619266 98.8894009,72.0504587 103.531797,70.583945 C109.128111,68.8623853 114.342857,66.2481651 118.540092,62.0399083 C120.893088,59.6169725 123.118894,57.0665138 125.3447,54.516055 C127.18894,52.3481651 128.524424,49.8614679 129.541935,47.2472477 C132.212903,40.616055 134.43871,33.8573394 136.15576,26.843578 C137.491244,20.6587156 138,14.7288991 137.745622,8.7353211 Z M65.2479263,37.4279817 L65.3751152,36.5353211 C66.1382488,30.6055046 66.837788,24.4844037 67.918894,18.4908257 C68.1096774,17.2793578 68.4276498,15.4302752 69.8267281,14.983945 C70.3354839,14.7926606 71.035023,14.7288991 71.9253456,14.7288991 C72.3705069,14.7288991 72.8156682,14.7288991 73.2608295,14.7926606 C73.7059908,14.7926606 74.0875576,14.856422 74.4691244,14.856422 L74.6599078,14.856422 C75.0414747,14.856422 75.4230415,14.856422 75.8046083,14.7926606 C76.3133641,14.7926606 76.7585253,14.7288991 77.2672811,14.7288991 C78.0940092,14.7288991 78.7299539,14.7926606 79.3023041,14.9201835 C80.5741935,15.2389908 81.0829493,16.7055046 81.4009217,18.1720183 C81.5281106,18.937156 81.718894,19.7022936 81.9096774,20.4036697 C82.2276498,21.7426606 82.5456221,23.0816514 82.7364055,24.4844037 L85.2801843,41.0623853 C85.4073733,41.8912844 85.5345622,42.7201835 85.6617512,43.4853211 C85.7253456,43.8678899 85.8525346,44.2504587 85.9797235,44.5692661 C86.2341014,45.2068807 86.4248848,45.9082569 86.2976959,46.5458716 C86.1705069,46.9922018 85.7889401,47.566055 85.0894009,48.2674312 C84.1990783,49.0963303 82.9271889,49.5426606 81.4645161,49.5426606 C81.2737327,49.5426606 81.1465438,49.5426606 80.9557604,49.5426606 C80.5105991,49.5426606 80.1926267,49.4151376 80.0654378,49.2238532 C79.9382488,49.0325688 79.9382488,48.7775229 79.9382488,48.4587156 C79.9382488,46.8646789 79.8110599,45.3981651 79.6202765,43.8041284 C79.556682,43.1665138 79.4930876,42.5288991 79.4294931,41.8912844 C79.4294931,41.8275229 79.4294931,41.6362385 79.3023041,41.5724771 C79.1751152,41.4449541 78.9843318,41.4449541 78.9207373,41.4449541 C78.2847926,41.4449541 77.6488479,41.4449541 77.0129032,41.4449541 C76.3133641,41.4449541 75.6774194,41.4449541 74.9778802,41.4449541 C74.4691244,41.4449541 73.9603687,41.4449541 73.4516129,41.4449541 C72.9428571,41.4449541 72.3705069,41.4449541 71.8617512,41.5087156 C71.5437788,41.5087156 71.3529954,41.9550459 71.4165899,43.9316514 C71.4165899,44.5055046 71.4165899,44.9518349 71.4801843,45.3981651 C71.5437788,46.4821101 71.6073733,47.6298165 71.3529954,48.5862385 C71.2258065,48.9688073 71.035023,49.2876147 70.7170507,49.4151376 C70.5898618,49.4788991 70.3990783,49.5426606 70.2082949,49.5426606 C70.081106,49.5426606 69.8903226,49.5426606 69.7631336,49.4788991 C68.3640553,49.2238532 67.2193548,48.65 66.3926267,47.693578 C64.2304147,45.3344037 64.8663594,40.616055 65.2479263,37.4279817 Z M87.124424,56.2376147 C85.4709677,58.3417431 82.1640553,59.6169725 79.6202765,60.3183486 C77.6488479,60.8284404 75.4230415,61.1472477 72.8156682,61.1472477 C72.8156682,61.1472477 72.8156682,61.1472477 72.8156682,61.1472477 C72.0525346,61.1472477 71.2894009,61.1472477 70.5262673,61.0834862 C61.559447,60.637156 55.9631336,55.9188073 53.5465438,46.6733945 C53.3557604,45.9720183 53.2285714,45.3344037 53.1013825,44.696789 C52.7834101,42.783945 52.4654378,41.1899083 50.6847926,39.659633 C49.6036866,38.703211 48.0774194,38.703211 46.7419355,38.6394495 C46.7419355,38.6394495 46.2967742,38.6394495 46.2967742,38.6394495 C45.597235,38.6394495 45.1520737,38.7669725 44.8341014,39.0857798 C44.3253456,39.5958716 44.2617512,40.4885321 44.3253456,41.6362385 L44.5797235,56.3013761 C44.5797235,57.2577982 44.3889401,57.8954128 44.0073733,58.2779817 C43.562212,58.7243119 42.8626728,58.9155963 41.7179724,58.9155963 C41.4,58.9155963 41.0820276,58.9155963 40.7640553,58.9155963 C40.4460829,58.9155963 40.1281106,58.9155963 39.8101382,58.9155963 C39.364977,58.9155963 39.0470046,58.9155963 38.6654378,58.8518349 C37.8387097,58.7243119 37.3299539,58.4692661 37.1391705,58.0866972 C36.5668203,57.1940367 36.6304147,55.7912844 36.6940092,54.5798165 C36.6940092,54.2610092 36.6940092,53.8784404 36.6940092,53.6233945 C36.6940092,51.7743119 36.6304147,49.9252294 36.6304147,48.0761468 C36.5668203,44.5055046 36.5032258,40.9348624 36.4396313,37.3642202 C36.3760369,34.6862385 36.3124424,31.9444954 36.1852535,29.2027523 C36.1852535,28.5651376 36.121659,27.8637615 36.0580645,27.2261468 C35.99447,26.3972477 35.9308756,25.5045872 35.9308756,24.6756881 C35.9308756,23.9105505 35.8036866,22.762844 35.040553,21.9977064 C34.7861751,21.7426606 34.4682028,21.5513761 34.1502304,21.4238532 C33.6414747,21.2325688 33.0691244,21.1688073 32.3059908,21.1688073 C31.8608295,21.1688073 31.4156682,21.2325688 30.9705069,21.2325688 C30.5889401,21.2325688 30.1437788,21.2963303 29.762212,21.2963303 C29.1898618,21.2963303 28.681106,21.4876147 28.3631336,21.8701835 C27.5364055,22.6990826 27.6,24.3568807 27.6635945,25.5683486 L27.6635945,25.887156 C27.7271889,27.2899083 27.6635945,28.6926606 27.6635945,30.0316514 C27.6635945,31.753211 27.6635945,33.5385321 27.7271889,35.3238532 C27.7907834,37.3004587 27.8543779,39.0220183 27.9179724,40.8711009 C27.9179724,42.1463303 27.9179724,43.4215596 27.9179724,44.6330275 C27.9179724,44.8243119 27.9179724,45.0155963 27.9179724,45.2706422 C27.9815668,46.0357798 27.9815668,47.1197248 27.6,47.5022936 C27.2820276,47.7573394 26.9640553,47.8848624 26.5824885,47.8848624 C25.5013825,47.8848624 24.2294931,46.8009174 23.7843318,46.2908257 C22.5760369,45.0793578 21.5585253,43.5490826 20.9861751,41.9550459 C20.159447,39.7233945 20.2230415,37.6192661 20.3502304,35.3876147 C20.4138249,34.5587156 20.4138249,33.666055 20.4138249,32.837156 L20.3502304,27.4174312 C20.3502304,26.3334862 20.2230415,25.2495413 20.0958525,24.2293578 C20.0322581,23.846789 20.0322581,23.4642202 19.9686636,23.0816514 C19.9050691,22.6990826 19.9050691,22.1889908 19.5870968,21.8701835 C19.2691244,21.5513761 18.8239631,21.4238532 18.4423963,21.3600917 C17.8064516,21.2963303 17.1705069,21.2325688 16.4709677,21.2325688 C15.4534562,21.2325688 14.4359447,21.2963303 13.3548387,21.4238532 C12.6552995,21.4876147 11.9557604,21.5513761 11.1926267,21.5513761 C11.0654378,21.5513761 10.9382488,21.5513761 10.8110599,21.5513761 C10.4294931,21.5513761 10.1751152,21.4876147 9.92073733,21.4238532 C9.47557604,21.2325688 9.09400922,20.9137615 8.83963134,20.4036697 C8.01290323,18.7458716 7.75852535,17.0243119 8.20368664,15.5577982 C8.39447005,14.7926606 8.77603687,14.7926606 9.60276498,14.7926606 C9.79354839,14.7926606 9.92073733,14.7926606 10.1115207,14.7926606 C12.5281106,14.6651376 15.0718894,14.6013761 17.6792627,14.5376147 L19.1419355,14.5376147 C20.5410138,14.5376147 22.0036866,14.5376147 23.402765,14.6013761 C24.6110599,14.6013761 25.8193548,14.6013761 26.9640553,14.6013761 C28.7447005,14.6013761 30.5889401,14.6013761 32.3695853,14.6651376 C32.8147465,14.6651376 33.3235023,14.6651376 33.7686636,14.6651376 C35.5493088,14.6651376 37.3935484,14.5376147 39.1741935,14.4738532 C40.9548387,14.3463303 42.7354839,14.2825688 44.516129,14.2825688 C45.0248848,14.2825688 45.597235,14.2825688 46.1059908,14.2825688 L50.6847926,14.4738532 C51.002765,14.4738532 51.3207373,14.4738532 51.6387097,14.4738532 L52.7198157,14.4738532 C53.4193548,14.4738532 54.1824885,14.4738532 54.8820276,14.6013761 C57.5529954,14.983945 59.9695853,16.4504587 61.3686636,18.5545872 C62.8313364,20.85 63.2129032,24.7394495 62.2589862,27.6087156 C61.1778802,30.7330275 58.5069124,32.9009174 55.2,33.3472477 C55.0728111,33.3472477 54.7548387,33.4110092 54.6912442,33.666055 C54.6276498,33.9211009 54.8184332,34.1123853 55.1364055,34.2399083 C57.362212,35.0688073 58.9520737,36.5990826 59.7788018,38.6394495 C60.1603687,39.5958716 60.4147465,40.616055 60.5419355,41.9550459 C60.8599078,45.3344037 61.559447,49.2238532 64.6119816,52.0931193 C66.837788,54.1972477 69.9539171,55.2811927 73.8967742,55.3449541 C74.1511521,55.3449541 74.4691244,55.3449541 74.7235023,55.3449541 C77.4580645,55.3449541 81.0193548,55.0899083 84.1990783,53.3045872 L84.4534562,53.1770642 C85.0894009,52.7944954 85.6617512,52.4756881 86.3612903,52.4119266 C86.3612903,52.4119266 86.3612903,52.4119266 86.4248848,52.4119266 C86.8064516,52.4119266 87.0608295,52.4756881 87.1880184,52.5394495 C87.5059908,52.6669725 87.7603687,52.9220183 87.8239631,53.2408257 C88.3327189,54.3247706 87.6331797,55.6 87.124424,56.2376147 Z M107.029493,41.8275229 C106.775115,43.6766055 106.011982,45.2706422 104.803687,46.5458716 C103.341014,48.1399083 101.051613,49.0325688 98.5078341,49.0325688 C98.3170507,49.0325688 98.1262673,49.0325688 97.9354839,49.0325688 C96.3456221,48.9688073 94.8193548,48.8412844 93.4202765,48.1399083 C91.9576037,47.4385321 91.1308756,45.9720183 90.3041475,44.4417431 C89.4138249,42.7201835 89.0322581,40.8711009 88.8414747,39.4045872 C88.5235023,37.1729358 88.2691244,34.8775229 88.20553,32.3270642 C88.20553,31.6256881 88.1419355,30.8605505 88.078341,30.1591743 C87.9511521,28.756422 87.8239631,27.3536697 88.0147465,25.9509174 C88.078341,25.3770642 88.078341,24.8669725 88.1419355,24.2931193 C88.20553,23.3366972 88.2691244,22.3165138 88.3963134,21.3600917 C89.159447,17.0243119 92.6571429,14.0912844 97.1087558,14.0912844 C99.843318,14.0912844 101.751152,14.6013761 103.213825,15.6215596 C105.376037,17.2155963 105.821198,19.2559633 105.821198,22.0614679 C105.821198,22.8266055 105.56682,23.2729358 104.930876,23.4642202 C104.485714,23.5917431 103.84977,23.6555046 103.341014,23.6555046 L102.895853,23.6555046 C102.57788,23.6555046 102.323502,23.7192661 102.069124,23.7192661 C101.115207,23.7192661 100.606452,23.4642202 100.224885,22.8266055 C100.097696,22.6353211 100.034101,22.3802752 99.9069124,22.1252294 C99.6525346,21.4876147 99.4617512,20.9137615 98.6986175,20.5949541 C98.3170507,20.4674312 97.9354839,20.4036697 97.5539171,20.4036697 C96.9179724,20.4036697 96.3456221,20.5949541 95.9640553,21.0412844 C94.8829493,22.1252294 94.8193548,24.0380734 94.7557604,25.5045872 C94.7557604,25.8233945 94.7557604,26.0784404 94.6921659,26.3334862 C94.437788,29.9041284 94.6921659,33.5385321 94.9465438,37.0454128 C95.0737327,38.4481651 95.3917051,40.4885321 96.9815668,41.2536697 C97.4267281,41.5087156 97.9354839,41.5724771 98.4442396,41.5724771 C99.2709677,41.5724771 100.097696,41.1899083 100.606452,40.5522936 C101.115207,39.9784404 101.051613,39.2133028 101.051613,38.5119266 C101.051613,37.8105505 100.988018,37.2366972 101.43318,36.9178899 C101.941935,36.5353211 102.57788,36.4715596 103.023041,36.4715596 C103.277419,36.4715596 103.468203,36.4715596 103.722581,36.4715596 C103.976959,36.4715596 104.167742,36.4715596 104.42212,36.4715596 L104.803687,36.4715596 C105.185253,36.4715596 105.503226,36.4715596 105.821198,36.5990826 C106.139171,36.662844 106.393548,36.790367 106.647926,36.9178899 C107.601843,38.0018349 107.220276,40.6798165 107.029493,41.8275229 Z M125.917051,16.4504587 C125.917051,16.7055046 125.853456,16.9605505 125.853456,17.2793578 C125.789862,18.4908257 125.662673,20.0848624 124.899539,20.6587156 C124.708756,20.7862385 124.454378,20.85 124.2,20.9137615 C122.991705,21.1688073 121.719816,21.2325688 120.702304,21.2325688 C120.320737,21.2325688 118.158525,21.2325688 118.158525,21.2325688 C117.840553,21.2325688 117.458986,21.2325688 117.077419,21.4238532 C116.37788,21.806422 116.314286,22.890367 116.250691,23.5279817 C116.187097,24.803211 116.250691,25.6958716 116.441475,26.2697248 C116.759447,27.0348624 117.586175,27.4174312 118.985253,27.4174312 C119.176037,27.4174312 119.36682,27.4174312 119.557604,27.4174312 C119.684793,27.4174312 119.811982,27.4174312 120.002765,27.4174312 C120.320737,27.4174312 120.702304,27.4174312 121.020276,27.4811927 C121.338249,27.4811927 121.719816,27.5449541 122.037788,27.5449541 C122.228571,27.5449541 122.419355,27.5449541 122.610138,27.5449541 C122.673733,27.5449541 122.800922,27.5449541 122.864516,27.5449541 C123.373272,27.5449541 123.754839,27.6724771 123.945622,27.9275229 C124.2,28.1825688 124.263594,28.5651376 124.2,29.0752294 C124.072811,30.2866972 124.009217,31.4344037 124.009217,32.4545872 L124.009217,32.709633 C124.009217,33.2834862 124.009217,33.9848624 123.500461,34.3036697 C123.118894,34.5587156 122.610138,34.6224771 122.101382,34.6224771 L121.529032,34.6224771 C120.702304,34.6224771 119.811982,34.6224771 118.985253,34.5587156 C118.79447,34.5587156 118.603687,34.5587156 118.476498,34.5587156 C118.158525,34.5587156 117.840553,34.6224771 117.64977,34.6862385 C116.632258,35.1325688 116.759447,36.790367 116.886636,37.746789 L116.886636,38.0018349 C116.886636,38.2568807 116.886636,38.5756881 116.886636,38.8944954 C116.886636,39.4683486 116.886636,40.1059633 117.077419,40.6798165 C117.395392,41.8275229 118.031336,42.0188073 118.921659,42.0188073 C119.048848,42.0188073 119.176037,42.0188073 119.36682,42.0188073 C120.257143,41.9550459 121.147465,41.9550459 122.037788,41.9550459 C122.35576,41.9550459 122.610138,41.9550459 122.928111,41.9550459 C123.309677,41.9550459 123.691244,41.9550459 124.009217,42.0825688 C124.327189,42.2100917 124.517972,42.4013761 124.581567,42.656422 C124.645161,42.8477064 124.708756,43.1027523 124.708756,43.4215596 L124.708756,43.740367 C124.708756,45.1431193 124.645161,46.737156 123.246083,47.3747706 C121.020276,48.3949541 118.540092,48.9050459 115.932719,48.9050459 C115.296774,48.9050459 114.597235,48.8412844 113.96129,48.7775229 C113.452535,48.7137615 112.943779,48.65 112.435023,48.4587156 C110.908756,47.7573394 110.654378,45.7807339 110.463594,44.1866972 L110.463594,43.9954128 C110.336406,42.9752294 110.336406,41.8912844 110.336406,40.8711009 C110.336406,40.1697248 110.336406,39.4683486 110.272811,38.7669725 C110.082028,35.5788991 109.954839,32.2633028 109.954839,29.0114679 C109.954839,27.4174312 109.82765,25.8233945 109.700461,24.2931193 C109.573272,22.5077982 109.446083,20.6587156 109.446083,18.8733945 L109.446083,18.3633028 C109.446083,17.4068807 109.382488,16.0041284 109.954839,15.3665138 C110.336406,14.9201835 111.035945,14.7926606 111.735484,14.7288991 C112.689401,14.6013761 113.579724,14.6013761 114.279263,14.6013761 C114.660829,14.6013761 116.314286,14.6013761 116.695853,14.6013761 C116.95023,14.6013761 117.204608,14.6013761 117.395392,14.6013761 C118.158525,14.6013761 118.921659,14.5376147 119.684793,14.5376147 C120.765899,14.4738532 121.847005,14.4738532 122.928111,14.4738532 C123.373272,14.4738532 123.818433,14.4738532 124.327189,14.4738532 C124.645161,14.4738532 125.026728,14.5376147 125.3447,14.6651376 C125.853456,14.856422 125.980645,15.7490826 125.917051,16.4504587 Z" id="Shape"></path>
                </g>
                <g transform="translate(52.147465, 5.100917)" id="Shape">
                    <path d="M29.0626728,48.2674312 L28.7447005,47.566055 C28.0451613,46.0357798 27.2820276,44.4417431 26.4552995,42.9114679 C25.3741935,40.8711009 24.4202765,38.703211 23.5299539,36.5990826 C23.0211982,35.3876147 22.5124424,34.1761468 21.9400922,32.9646789 C21.6221198,32.2633028 21.3041475,31.5619266 20.9861751,30.8605505 C20.5410138,29.9678899 20.2866359,29.0752294 19.9686636,28.1825688 L19.7778802,27.6724771 C19.5870968,27.0348624 19.1419355,25.8233945 18.3788018,25.3770642 C17.9336406,25.1220183 17.4248848,25.1220183 16.8525346,25.1220183 L16.5345622,25.1220183 C16.2801843,25.1220183 16.0258065,25.1220183 15.835023,25.0582569 C15.5170507,24.9944954 15.2626728,24.9944954 14.9447005,24.9944954 L13.9271889,24.9944954 C13.7364055,24.9944954 13.5456221,24.9944954 13.4184332,24.9944954 C13.1640553,24.9944954 12.8460829,24.9944954 12.5917051,24.9944954 C11.8921659,24.9944954 11.1290323,25.0582569 10.4294931,25.6958716 C9.28479263,26.6522936 8.7124424,28.1188073 8.14009217,29.4577982 L7.94930876,29.9041284 C7.56774194,30.796789 7.18617512,31.6894495 6.86820276,32.5821101 C6.29585253,34.0486239 5.7235023,35.5151376 5.02396313,36.9178899 C3.62488479,39.659633 2.60737327,42.5288991 1.65345622,45.3981651 C1.20829493,46.737156 0.763133641,48.0123853 0.25437788,49.3513761 C0.12718894,49.606422 0.19078341,49.9889908 0.31797235,50.3077982 C0.50875576,50.7541284 0.953917051,51.2004587 1.39907834,51.3279817 C1.84423963,51.5192661 2.35299539,51.5830275 2.92534562,51.5830275 C3.37050691,51.5830275 3.8156682,51.5192661 4.26082949,51.5192661 C4.51520737,51.5192661 4.83317972,51.4555046 5.0875576,51.4555046 C5.21474654,51.4555046 5.40552995,51.4555046 5.59631336,51.4555046 C5.59631336,51.4555046 6.42304147,51.4555046 6.55023041,51.4555046 C7.12258065,51.4555046 7.69493088,51.3917431 8.0764977,51.0729358 C8.39447005,50.7541284 8.52165899,50.2440367 8.64884793,49.733945 C8.7124424,49.4788991 8.77603687,49.2238532 8.90322581,48.9688073 C8.96682028,48.7775229 9.03041475,48.5862385 9.09400922,48.3949541 C9.3483871,47.6298165 9.66635945,46.8009174 10.2387097,46.3545872 C10.7474654,46.0357798 11.3198157,46.0357798 11.8285714,46.0357798 C12.5281106,46.0357798 13.1640553,46.0357798 13.8635945,46.0357798 L15.0718894,46.0357798 L16.0894009,46.0357798 C16.4073733,46.0357798 16.7253456,46.0357798 17.1069124,45.9720183 C17.2341014,45.9720183 17.4248848,45.9720183 17.5520737,45.9720183 C17.997235,45.9720183 18.4423963,46.0357798 18.8239631,46.1633028 C19.4599078,46.4183486 19.6506912,46.8009174 19.8414747,47.3747706 C20.0958525,48.2036697 20.4138249,48.9688073 20.7953917,49.6701835 C21.1769585,50.4353211 21.5585253,50.9454128 21.8764977,51.1366972 C22.0672811,51.2642202 22.3852535,51.2642202 22.7668203,51.2642202 C22.9576037,51.2642202 23.1483871,51.2642202 23.402765,51.2642202 C23.5935484,51.2642202 23.7843318,51.2642202 24.1023041,51.2642202 C24.1023041,51.2642202 24.1023041,51.2642202 24.1658986,51.2642202 C24.6746544,51.2642202 25.2470046,51.3279817 25.7557604,51.3279817 C26.4552995,51.3917431 27.1548387,51.3917431 27.7907834,51.3917431 L27.7907834,51.3917431 C28.0451613,51.3917431 28.2995392,51.3917431 28.5539171,51.3917431 C28.8082949,51.3917431 29.0626728,51.3279817 29.1898618,51.2642202 C29.635023,51.0091743 29.762212,50.4353211 29.4442396,49.5426606 C29.4442396,49.0963303 29.2534562,48.5862385 29.0626728,48.2674312 Z M17.2976959,39.2770642 C17.2341014,39.3408257 17.2341014,39.3408257 17.2976959,39.2770642 C17.1705069,39.4045872 16.9797235,39.4045872 16.8525346,39.4045872 C15.8986175,39.4683486 14.9447005,39.5321101 13.9907834,39.4045872 C13.4820276,39.3408257 13.0368664,39.4045872 12.5281106,39.4045872 C12.4009217,39.4045872 12.2101382,39.4045872 12.0829493,39.3408257 C11.8921659,39.3408257 11.7013825,39.0857798 11.764977,38.8944954 C12.0193548,38.1931193 12.2737327,37.4279817 12.5917051,36.7266055 C12.8460829,36.0252294 13.1640553,35.3876147 13.4820276,34.75 C13.5456221,34.5587156 13.7364055,34.4311927 13.8635945,34.3036697 C14.0543779,34.1123853 14.4359447,34.1123853 14.6903226,34.1761468 C15.0718894,34.3036697 15.3898618,34.8137615 15.5170507,35.1963303 C15.835023,35.7701835 16.1529954,36.4077982 16.4709677,36.9816514 C16.6617512,37.3004587 16.7889401,37.6192661 16.9797235,37.8743119 C17.1069124,38.1293578 17.1705069,38.3844037 17.2976959,38.703211 C17.3612903,38.9582569 17.3612903,39.1495413 17.2976959,39.2770642 Z"></path>
                    <path d="M45.8516129,7.01376147 C45.724424,6.18486239 45.5336406,5.41972477 45.1520737,4.78211009 C44.7705069,4.01697248 44.1981567,3.31559633 43.562212,2.86926606 C42.9262673,2.35917431 42.2267281,1.91284404 41.4635945,1.53027523 C40.7004608,1.14770642 39.9373272,0.89266055 39.1105991,0.701376147 C38.6018433,0.573853211 38.0930876,0.510091743 37.5843318,0.510091743 C37.2663594,0.510091743 36.9483871,0.510091743 36.6304147,0.573853211 C35.9308756,0.637614679 35.2949309,0.89266055 34.7225806,1.14770642 C34.1502304,1.46651376 33.5778802,1.7853211 33.00553,2.23165138 C32.4331797,2.67798165 31.924424,3.12431193 31.4792627,3.63440367 C30.9705069,4.14449541 30.5253456,4.65458716 30.0165899,5.1646789 C29.3806452,5.86605505 28.8082949,6.63119266 28.2995392,7.39633028 C27.7907834,8.22522936 27.3456221,9.05412844 26.9004608,9.88302752 C26.4552995,10.7756881 26.0737327,11.7321101 25.7557604,12.6247706 C25.437788,13.5811927 25.2470046,14.5376147 25.1834101,15.4940367 C25.1198157,16.1954128 25.1834101,16.896789 25.2470046,17.5344037 C25.3105991,18.1720183 25.564977,18.809633 25.8193548,19.4472477 C26.2009217,20.2123853 26.7732719,20.9137615 27.5364055,21.5513761 C28.0451613,22.0614679 28.6175115,22.5077982 29.3170507,22.9541284 C29.8258065,23.2729358 30.3345622,23.5279817 30.9069124,23.7830275 C31.4792627,24.0380734 32.0516129,24.2293578 32.6239631,24.3568807 C33.1327189,24.4844037 33.6414747,24.5481651 34.0866359,24.5481651 C34.4046083,24.5481651 34.7861751,24.5481651 35.1041475,24.4844037 C35.8672811,24.3568807 36.5668203,24.0380734 37.202765,23.6555046 C37.8387097,23.2729358 38.4746544,22.762844 38.9834101,22.1889908 C39.5557604,21.6151376 40.0645161,20.9137615 40.5096774,20.2123853 L42.0995392,17.7894495 C42.6082949,17.0243119 43.1170507,16.1954128 43.562212,15.3027523 C44.0073733,14.4738532 44.3889401,13.5811927 44.7705069,12.6885321 C45.0884793,11.7958716 45.3428571,10.903211 45.5336406,9.94678899 C45.5336406,9.88302752 45.597235,9.56422018 45.597235,9.50045872 C45.9788018,8.67155963 45.9788018,7.84266055 45.8516129,7.01376147 Z M39.0470046,10.0105505 L38.9198157,10.3931193 C38.283871,11.859633 37.5207373,13.3261468 36.6304147,14.6013761 C36.3760369,14.9201835 36.121659,15.3027523 35.8036866,15.6215596 C35.4857143,16.0041284 35.1677419,16.3229358 34.7225806,16.5142202 C34.5953917,16.5779817 34.4682028,16.6417431 34.3410138,16.7055046 L34.2774194,16.7055046 L34.1502304,16.7055046 C33.959447,16.7055046 33.7686636,16.6417431 33.5142857,16.5142202 C33.2599078,16.3866972 33.0691244,16.2591743 32.9419355,16.0678899 C32.8147465,15.8766055 32.6875576,15.6853211 32.6239631,15.4302752 C32.6239631,15.2389908 32.6239631,14.983945 32.6239631,14.7926606 C32.6875576,14.4738532 32.878341,14.0912844 33.0691244,13.7087156 L34.5317972,11.1582569 C34.7225806,10.7756881 34.9769585,10.3293578 35.1677419,9.94678899 C35.4221198,9.56422018 35.6764977,9.18165138 35.9308756,8.79908257 C36.0580645,8.67155963 36.121659,8.5440367 36.2488479,8.48027523 C36.3124424,8.41651376 36.4396313,8.28899083 36.5668203,8.22522936 C36.8211982,8.09770642 37.075576,7.97018349 37.3935484,7.97018349 C37.4571429,7.97018349 37.5207373,7.97018349 37.5843318,7.97018349 C37.8387097,7.97018349 38.0294931,8.03394495 38.2202765,8.09770642 C38.4746544,8.22522936 38.6654378,8.35275229 38.8562212,8.60779817 C39.0470046,8.79908257 39.1105991,9.11788991 39.1105991,9.43669725 C39.1105991,9.69174312 39.1105991,9.81926606 39.0470046,10.0105505 Z"></path>
                </g>
            </g>
        </g>
    </g>
</svg>