<?xml version="1.0" encoding="UTF-8"?>
<svg width="225px" height="53px" viewBox="0 0 225 53" version="1.1" xmlns="http://www.w3.org/2000/svg" xmlns:xlink="http://www.w3.org/1999/xlink">
    <title>Group 9</title>
    <defs>
        <polygon id="path-1" points="0 0.326835 13.4187459 0.326835 13.4187459 15.773805 0 15.773805"></polygon>
    </defs>
    <g id="Desktop" stroke="none" stroke-width="1" fill="none" fill-rule="evenodd">
        <g id="WAT_Product_StrawberryGranola" transform="translate(-1030.000000, -1363.000000)">
            <g id="QuickFacts" transform="translate(0.000000, 840.000000)">
                <g id="Icons" transform="translate(962.000000, 145.000000)">
                    <g id="Group-9" transform="translate(68.000000, 379.000000)">
                        <g id="Icon_GlutenFree_W" transform="translate(0.000000, 3.000000)">
                            <g id="Group-3">
                                <mask id="mask-2" fill="white">
                                    <use xlink:href="#path-1"></use>
                                </mask>
                                <g id="Clip-2"></g>
                                <path d="M13.4187459,6.727185 L13.4187459,12.560265 C13.4187459,12.714705 13.3615694,12.860235 13.2615106,12.976065 L12.9184518,13.353255 C11.53764,14.897655 9.60507529,15.773805 7.57816941,15.773805 L7.29800471,15.773805 C3.26706353,15.773805 -0.000571764706,12.376125 -0.000571764706,8.188425 L-0.000571764706,7.909245 C-0.000571764706,3.721545 3.26706353,0.326835 7.29800471,0.326835 L7.57816941,0.326835 C9.40209882,0.329805 11.1602753,1.039635 12.5067812,2.319705 C12.6297106,2.435535 12.7011812,2.595915 12.70404,2.771145 C12.70404,2.943405 12.6354282,3.106755 12.5124988,3.222585 L10.6199576,5.022405 C10.4084047,5.224365 10.0824988,5.233275 9.85665176,5.043195 C9.21627529,4.487805 8.41008706,4.187835 7.57816941,4.190805 L7.29800471,4.190805 C5.31969882,4.190805 3.71875765,5.856975 3.71875765,7.909245 L3.71875765,8.188425 C3.71875765,10.246635 5.32255765,11.909835 7.29800471,11.909835 L7.57816941,11.909835 C8.34147529,11.912805 9.08762824,11.660355 9.70227529,11.188125 L9.70227529,9.982305 L8.04987529,9.982305 C7.72396941,9.982305 7.46381647,9.709065 7.46381647,9.373455 L7.46381647,6.727185 C7.46381647,6.391575 7.72396941,6.118335 8.04987529,6.118335 L12.8326871,6.118335 C13.1557341,6.118335 13.4187459,6.391575 13.4187459,6.727185" id="Fill-1" fill="#FFFFFF" mask="url(#mask-2)"></path>
                            </g>
                            <path d="M24.3,12.0758508 L24.3,14.6969429 C24.3,15.0293597 24.0259928,15.3 23.6894404,15.3 L15.0105596,15.3 C14.6740072,15.3 14.4,15.0293597 14.4,14.6969429 L14.4,0.603057104 C14.4,0.26769852 14.6740072,0 15.0105596,0 L17.6642599,0 C18.0008123,0 18.2748195,0.26769852 18.2748195,0.603057104 L18.2748195,11.4727937 L23.6894404,11.4727937 C24.0259928,11.4727937 24.3,11.743434 24.3,12.0758508" id="Fill-4" fill="#FFFFFF"></path>
                            <path d="M36.7200923,0.176477572 C36.8370323,0.291187994 36.9,0.444135223 36.9,0.605906331 L36.9,9.55920182 C36.9,11.1122045 36.2583291,12.5975573 35.1219118,13.6770118 C33.9854946,14.7594076 32.4532804,15.3417836 30.8730907,15.2976642 C27.6917222,15.2035428 25.2,12.5622618 25.2,9.43860881 L25.2,0.605906331 C25.2,0.270598944 25.4758585,0 25.8146848,0 L28.4863147,0 C28.825141,0 29.098001,0.270598944 29.098001,0.605906331 L29.098001,9.49155208 C29.0860072,10.5180633 29.8776012,11.3769208 30.9150692,11.4681009 C31.4547924,11.5063377 31.9855202,11.318095 32.3813173,10.9592572 C32.7741158,10.5974782 32.9990005,10.0915758 32.9990005,9.55920182 L32.9990005,0.605906331 C32.9990005,0.270598944 33.274859,0 33.6136853,0 L36.2853152,0 C36.4502307,0 36.6031522,0.0647084431 36.7200923,0.176477572" id="Fill-6" fill="#FFFFFF"></path>
                            <path d="M50.4,0.602941176 L50.4,3.22647059 C50.4,3.55588235 50.1241415,3.82647059 49.7853152,3.82647059 L46.4990005,3.82647059 L46.4990005,14.6970588 C46.4990005,15.0294118 46.223142,15.3 45.8873142,15.3 L43.2156843,15.3 C42.8738596,15.3 42.598001,15.0294118 42.598001,14.6970588 L42.598001,3.82647059 L39.3146848,3.82647059 C38.9728601,3.82647059 38.7,3.55588235 38.7,3.22647059 L38.7,0.602941176 C38.7,0.270588235 38.9728601,0 39.3146848,0 L49.7853152,0 C50.1241415,0 50.4,0.270588235 50.4,0.602941176" id="Fill-8" fill="#FFFFFF"></path>
                            <path d="M54.3606089,3.82720631 L54.3606089,5.73639685 L57.6940959,5.73639685 C58.0380996,5.73639685 58.3181734,6.00703711 58.3181734,6.33945395 L58.3181734,8.96054605 C58.3181734,9.29296289 58.0380996,9.56360315 57.6940959,9.56360315 L54.3606089,9.56360315 L54.3606089,11.4757354 L59.6789668,11.4757354 C60.0199262,11.4757354 60.3,11.743434 60.3,12.0787925 L60.3,14.6969429 C60.3,15.0323015 60.0199262,15.3 59.6789668,15.3 L51.0240775,15.3 C50.6800738,15.3 50.4,15.0323015 50.4,14.6969429 L50.4,0.603057104 C50.4,0.270640261 50.6800738,0 51.0240775,0 L59.6789668,0 C60.0199262,0 60.3,0.270640261 60.3,0.603057104 L60.3,3.22709094 C60.3,3.55656604 60.0199262,3.82720631 59.6789668,3.82720631 L54.3606089,3.82720631 Z" id="Fill-10" fill="#FFFFFF"></path>
                            <path d="M73.6209184,0.193894009 C73.7373214,0.308467742 73.8,0.461232719 73.8,0.62281106 L73.8,14.6977535 C73.8,15.0326613 73.5283929,15.3 73.1881378,15.3 L70.0631633,15.3 C69.8303571,15.3 69.6214286,15.1736751 69.5169643,14.96803 L65.980102,8.06129032 L65.980102,14.6977535 C65.980102,15.0297235 65.7084949,15.3 65.3712245,15.3 L62.7118622,15.3 C62.3716071,15.3 62.1,15.0297235 62.1,14.6977535 L62.1,0.602246544 C62.1,0.26733871 62.3716071,0 62.7118622,0 L65.8278827,0 C66.0577041,0 66.2696173,0.126324885 66.3740816,0.329032258 L69.9169133,7.25633641 L69.9169133,0.62281106 C69.9169133,0.287903226 70.1915051,0.0176267281 70.5287755,0.0176267281 L73.1881378,0.0176267281 C73.3522959,0.0176267281 73.5075,0.0822580645 73.6209184,0.193894009" id="Fill-12" fill="#FFFFFF"></path>
                            <path d="M15.3,21.6207212 L15.3,26.2813376 C15.3,26.7887319 14.8771064,27.2020587 14.357968,27.2020587 L6.65547083,27.2020587 L6.65547083,29.1489706 L11.3627144,29.1489706 C11.8847693,29.1489706 12.307663,29.5594469 12.307663,30.0696918 L12.307663,34.7303082 C12.307663,35.234852 11.8847693,35.6510294 11.3627144,35.6510294 L6.65547083,35.6510294 L6.65547083,43.1764283 C6.65547083,43.6866732 6.2325772,44.1 5.7105223,44.1 L0.944948532,44.1 C0.422893633,44.1 0,43.6866732 0,43.1764283 L0,21.6207212 C0,21.1104763 0.422893633,20.7 0.944948532,20.7 L14.357968,20.7 C14.8771064,20.7 15.3,21.1104763 15.3,21.6207212" id="Fill-14" fill="#FFFFFF"></path>
                            <path d="M29.9439009,29.7561335 C29.9439009,28.3451212 28.7595526,27.2020587 27.3005301,27.2020587 L24.7369035,27.2020587 L24.7369035,32.3102083 L27.3005301,32.3102083 C28.7595526,32.3102083 29.9439009,31.1642953 29.9439009,29.7561335 M36.7989439,43.5926057 C36.6365021,43.9033134 36.3057116,44.1 35.9453862,44.1 L29.8995986,44.1 C29.5983429,44.1 29.3177617,43.9631746 29.137599,43.7322816 L25.2921591,38.8094165 L24.73395,38.8094165 L24.73395,43.1792788 C24.73395,43.6895237 24.3086479,44.1 23.7799738,44.1 L18.9539763,44.1 C18.4253021,44.1 18,43.6895237 18,43.1792788 L18,21.6207212 C18,21.1133268 18.4253021,20.7 18.9539763,20.7 L27.0790186,20.7 C32.2417136,20.7 36.6040137,24.6365818 36.6808044,29.6164575 C36.7280602,32.6807772 35.1656656,35.5626629 32.5282019,37.2701303 L36.7073858,42.626276 C36.9259438,42.9027774 36.9613857,43.2790474 36.7989439,43.5926057" id="Fill-16" fill="#FFFFFF"></path>
                            <path d="M46.2512864,27.2020587 L46.2512864,29.1489706 L50.9605489,29.1489706 C51.4825043,29.1489706 51.9024014,29.5594469 51.9024014,30.0696918 L51.9024014,34.7303082 C51.9024014,35.234852 51.4825043,35.6510294 50.9605489,35.6510294 L46.2512864,35.6510294 L46.2512864,37.5950908 L53.9581475,37.5950908 C54.477187,37.5950908 54.9,38.0084176 54.9,38.5186624 L54.9,43.1764283 C54.9,43.6866732 54.477187,44.1 53.9581475,44.1 L40.5418525,44.1 C40.022813,44.1 39.6,43.6866732 39.6,43.1764283 L39.6,21.6207212 C39.6,21.1104763 40.022813,20.7 40.5418525,20.7 L53.9581475,20.7 C54.477187,20.7 54.9,21.1104763 54.9,21.6207212 L54.9,26.2813376 C54.9,26.7887319 54.477187,27.2020587 53.9581475,27.2020587 L46.2512864,27.2020587 Z" id="Fill-18" fill="#FFFFFF"></path>
                            <path d="M64.2512864,27.2020587 L64.2512864,29.1489706 L68.9605489,29.1489706 C69.4795883,29.1489706 69.9024014,29.5594469 69.9024014,30.0696918 L69.9024014,34.7303082 C69.9024014,35.234852 69.4795883,35.6510294 68.9605489,35.6510294 L64.2512864,35.6510294 L64.2512864,37.5950908 L71.9581475,37.5950908 C72.477187,37.5950908 72.9,38.0084176 72.9,38.5186624 L72.9,43.1764283 C72.9,43.6866732 72.477187,44.1 71.9581475,44.1 L58.5418525,44.1 C58.022813,44.1 57.6,43.6866732 57.6,43.1764283 L57.6,21.6207212 C57.6,21.1104763 58.022813,20.7 58.5418525,20.7 L71.9581475,20.7 C72.477187,20.7 72.9,21.1104763 72.9,21.6207212 L72.9,26.2813376 C72.9,26.7887319 72.477187,27.2020587 71.9581475,27.2020587 L64.2512864,27.2020587 Z" id="Fill-20" fill="#FFFFFF"></path>
                        </g>
                        <g id="Icon_PlantBased_W" transform="translate(144.000000, 3.000000)" fill="#FFFFFF">
                            <path d="M10.5015567,7.46154071 C10.5015567,6.07516445 9.41289397,4.95217074 8.06890049,4.95217074 L5.70077837,4.95217074 L5.70077837,9.97091069 L8.06890049,9.97091069 C9.41289397,9.97091069 10.5015567,8.84791697 10.5015567,7.46154071 M13.2568837,12.6539395 C11.8960552,14.1039906 10.0245653,14.9201871 8.06890049,14.9230814 L5.70077837,14.9230814 L5.70077837,19.0185353 C5.70077837,19.4526824 5.36127271,19.8 4.94600959,19.8 L1.65757461,19.8 C1.23950566,19.8 0.9,19.4526824 0.9,19.0185353 L0.9,0.778570384 C0.9,0.350211957 1.23950566,0.0028943137 1.65757461,0 L7.91457973,0 C11.8511619,0 15.1816843,3.17795644 15.2967234,7.23578424 C15.3556459,9.25312089 14.6177121,11.2067826 13.2568837,12.6539395" id="Fill-22"></path>
                            <path d="M28.8,15.6286842 L28.8,19.0213158 C28.8,19.4497368 28.4512809,19.8 28.0218664,19.8 L16.9752516,19.8 C16.5487191,19.8 16.2,19.4497368 16.2,19.0213158 L16.2,0.778684211 C16.2,0.347368421 16.5487191,0 16.9752516,0 L20.3529277,0 C20.7823422,0 21.1281793,0.347368421 21.1281793,0.778684211 L21.1281793,14.8471053 L28.0218664,14.8471053 C28.4512809,14.8471053 28.8,15.2002632 28.8,15.6286842" id="Fill-24"></path>
                            <path d="M40.248481,12.3887299 L38.7135183,7.82461314 L37.166883,12.3887299 L40.248481,12.3887299 Z M47.5497671,19.4762628 C47.4038581,19.6785985 47.1674855,19.7971095 46.9136039,19.8 L43.3096517,19.8 C42.9711428,19.8 42.6705703,19.5861022 42.5625976,19.268146 L41.9118435,17.3343942 L35.4947659,17.3343942 L34.8381754,19.268146 C34.7302028,19.5861022 34.4296302,19.8 34.0940395,19.8 L30.484251,19.8 C30.2332875,19.8 29.9939968,19.6785985 29.8480878,19.4762628 C29.6992606,19.273927 29.6613243,19.0108905 29.7401151,18.7738686 L35.917902,0.528963504 C36.0229565,0.21389781 36.323529,0 36.6620379,0 L40.7766715,0 C41.1151804,0 41.4128348,0.21389781 41.5237256,0.531854015 L47.6606579,18.7738686 C47.7394488,19.0108905 47.6985943,19.273927 47.5497671,19.4762628 L47.5497671,19.4762628 Z" id="Fill-26"></path>
                            <path d="M63.6793638,0.257180385 C63.8217998,0.401663748 63.9,0.598161121 63.9,0.806217163 L63.9,19.0197898 C63.9,19.4503503 63.5620636,19.8 63.1487199,19.8 L59.3001552,19.8 C59.0152832,19.8 58.7555469,19.6323993 58.6270753,19.3694396 L54.2757952,10.4316988 L54.2757952,19.0169002 C54.2757952,19.4474606 53.9406517,19.7971103 53.5245151,19.7971103 L50.2512801,19.7971103 C49.8351435,19.7971103 49.5,19.4474606 49.5,19.0169002 L49.5,0.780210158 C49.5,0.349649737 49.8351435,0 50.2512801,0 L54.0858805,0 C54.3707525,0 54.6304888,0.167600701 54.7589604,0.43056042 L59.1214119,9.39430823 L59.1214119,0.806217163 C59.1214119,0.375656743 59.4593483,0.0288966725 59.872692,0.0288966725 L63.1487199,0.0288966725 C63.3470132,0.0288966725 63.5397207,0.109807356 63.6793638,0.257180385" id="Fill-28"></path>
                            <path d="M80.1,0.781350482 L80.1,4.17299035 C80.1,4.60418006 79.7604832,4.95144695 79.3424006,4.95144695 L75.2990647,4.95144695 L75.2990647,19.0215434 C75.2990647,19.4498392 74.9595479,19.8 74.5442712,19.8 L71.2557288,19.8 C70.8376461,19.8 70.4981294,19.4498392 70.4981294,19.0215434 L70.4981294,4.95144695 L66.4547935,4.95144695 C66.0367108,4.95144695 65.7,4.60418006 65.7,4.17299035 L65.7,0.781350482 C65.7,0.353054662 66.0367108,0 66.4547935,0 L79.3424006,0 C79.7604832,0 80.1,0.353054662 80.1,0.781350482" id="Fill-30"></path>
                            <path d="M10.2697538,38.8119573 C10.2697538,38.1288993 9.7081955,37.5760854 9.01433295,37.5760854 L5.03050348,37.5760854 L5.03050348,40.0478293 L9.01433295,40.0478293 C9.7081955,40.0478293 10.2697538,39.492121 10.2697538,38.8119573 L10.2697538,38.8119573 Z M5.03050348,32.6239146 L7.61778757,32.6239146 C8.30282983,32.6123374 8.8526277,32.0624178 8.8526277,31.3880427 C8.8526277,30.7136676 8.30282983,30.163748 7.61778757,30.1521707 L5.03050348,30.1521707 L5.03050348,32.6239146 Z M15.294377,39.0666569 C15.1591327,42.4066949 12.2660786,45 8.87026827,45 L0.790885703,45 C0.352811466,45 0,44.6526824 0,44.2185353 L0,25.9785704 C0,25.550212 0.352811466,25.2 0.790885703,25.2 L7.46784269,25.2 C10.893054,25.2 13.8008085,27.8367198 13.8978317,31.2085952 C13.9301727,32.2476539 13.6949651,33.2809238 13.2098493,34.2071042 C14.6093348,35.4400819 15.3737596,37.2229791 15.294377,39.0666569 L15.294377,39.0666569 Z" id="Fill-32"></path>
                            <path d="M25.848481,37.5887299 L24.3135183,33.0246131 L22.766883,37.5887299 L25.848481,37.5887299 Z M33.1497671,44.6762628 C33.0038581,44.8785985 32.7674855,44.9971095 32.5136039,45 L28.9096517,45 C28.5711428,45 28.2705703,44.7861022 28.1625976,44.468146 L27.5118435,42.5343942 L21.0947659,42.5343942 L20.4381754,44.468146 C20.3302028,44.7861022 20.0296302,45 19.6940395,45 L16.084251,45 C15.8332875,45 15.5939968,44.8785985 15.4480878,44.6762628 C15.2992606,44.473927 15.2613243,44.2108905 15.3401151,43.9738686 L21.517902,25.7289635 C21.6229565,25.4138978 21.923529,25.2 22.2620379,25.2 L26.3766715,25.2 C26.7151804,25.2 27.0128348,25.4138978 27.1237256,25.731854 L33.2606579,43.9738686 C33.3394488,44.2108905 33.2985943,44.473927 33.1497671,44.6762628 L33.1497671,44.6762628 Z" id="Fill-34"></path>
                            <path d="M47.7,38.9620869 L47.7,38.9939235 C47.6883988,40.4989257 47.0735347,41.9373604 45.9888218,42.9908619 C44.6227795,44.2990561 42.7984894,45.0226148 40.9016918,44.9994609 L40.8726888,44.9994609 L40.0664048,44.9965667 C36.641148,44.9820955 33.8046526,42.7130154 33.3609063,39.7927324 C33.3319033,39.5901359 33.3899094,39.3846452 33.5262236,39.234145 C33.6596375,39.0778563 33.8539577,38.9910293 34.0569789,38.9910293 L37.7867674,38.9910293 C38.0274924,38.9968178 38.2508157,39.1183756 38.3813293,39.3209721 C38.6249547,39.6798572 39.2398187,40.0416366 40.0867069,40.0445308 L40.8900906,40.047425 C41.4759517,40.0647904 42.0444109,39.8650882 42.4881571,39.480155 C42.6302719,39.3557029 42.7201813,39.1820488 42.7404834,38.9939235 L42.7404834,38.9620869 C42.7404834,38.6581923 42.3634441,38.224057 41.6702719,38.0156721 L37.9114804,36.8956032 C35.1532931,36.0765347 33.3,33.7900892 33.3,31.2055374 C33.3,27.8974269 36.3482175,25.2 40.0983082,25.2 L40.9016918,25.2 C44.3414502,25.2 47.1953474,27.4719744 47.6390937,30.4067286 C47.6680967,30.6064308 47.6100906,30.8119215 47.4737764,30.9653159 C47.3403625,31.1187104 47.1460423,31.2084316 46.9430211,31.2055374 L43.2161329,31.2055374 C42.9754079,31.2026432 42.7520846,31.0781911 42.621571,30.8784889 C42.3750453,30.5138153 41.757281,30.1520359 40.9016918,30.1520359 L40.0983082,30.1520359 C38.9758912,30.1520359 38.2624169,30.7771906 38.2624169,31.2055374 C38.2624169,31.5123263 38.6365559,31.9464615 39.3297281,32.1519522 L43.0885196,33.2720211 C45.8467069,34.0910896 47.7,36.3775352 47.7,38.9620869" id="Fill-36"></path>
                            <path d="M54.1789055,30.1521707 L54.1789055,32.6239146 L58.1217727,32.6239146 C58.5267306,32.6239146 58.857811,32.9741266 58.857811,33.4053793 L58.857811,36.797515 C58.857811,37.2258734 58.5267306,37.5760854 58.1217727,37.5760854 L54.1789055,37.5760854 L54.1789055,40.0478293 L60.4639616,40.0478293 C60.8716558,40.0478293 61.2,40.3980412 61.2,40.8263996 L61.2,44.2185353 C61.2,44.6526824 60.8716558,45 60.4639616,45 L50.2360384,45 C49.8283442,45 49.5,44.6526824 49.5,44.2185353 L49.5,25.9814647 C49.5,25.550212 49.8283442,25.2 50.2360384,25.2 L60.4639616,25.2 C60.8716558,25.2 61.2,25.550212 61.2,25.9814647 L61.2,29.370706 C61.2,29.8048531 60.8716558,30.1521707 60.4639616,30.1521707 L54.1789055,30.1521707 Z" id="Fill-38"></path>
                            <path d="M71.1297505,40.0478293 C73.8542553,40.0478293 76.0621431,37.830785 76.0621431,35.1014472 C76.0621431,32.369215 73.8542553,30.1521707 71.1297505,30.1521707 L68.8381649,30.1521707 L68.8381649,40.0478293 L71.1297505,40.0478293 Z M80.9974219,34.8612191 C81.0580306,37.526882 80.0478858,40.1057155 78.1892194,42.0130683 C76.3334392,43.920421 73.7878743,44.9971057 71.1297505,45 L64.6792545,45 C64.2492215,45 63.9,44.6526824 63.9,44.2185353 L63.9,25.9814647 C63.9,25.550212 64.2492215,25.2 64.6792545,25.2 L70.9450383,25.2 C76.3363253,25.2 80.8704323,29.4575354 80.9974219,34.8612191 L80.9974219,34.8612191 Z" id="Fill-40"></path>
                        </g>
                        <line x1="108.5" y1="0.447368421" x2="108.5" y2="50.5526316" id="Line" stroke="#FFFFFF" stroke-width="2.7" stroke-linecap="round"></line>
                    </g>
                </g>
            </g>
        </g>
    </g>
</svg>