<svg xmlns="http://www.w3.org/2000/svg" xmlns:xlink="http://www.w3.org/1999/xlink" width="60" height="60" viewBox="0 0 60 60">
  <defs>
    <polygon id="icon_nopeanuts_line_w-a" points="0 .297 59.934 .297 59.934 60 0 60"/>
  </defs>
  <g fill="none" fill-rule="evenodd">
    <mask id="icon_nopeanuts_line_w-b" fill="#fff">
      <use xlink:href="#icon_nopeanuts_line_w-a"/>
    </mask>
    <path fill="#FFF" d="M59.7499245,27.3512571 C58.9976604,21.0998286 57.4348302,14.7278286 53.4770943,9.72097143 C47.1097358,1.6644 36.417283,-0.861314286 26.6774717,0.763257143 C16.6801132,2.43125714 7.07841509,8.6604 2.7029434,18.0838286 C-3.32818868,31.0724 0.983320755,47.9078286 13.1486038,55.5958286 C25.1848302,63.2026857 41.6576604,60.6392571 51.3165283,50.3438286 C57.1155849,43.8712571 60.8208679,36.2461143 59.7499245,27.3512571" mask="url(#icon_nopeanuts_line_w-b)"/>
    <path fill="#084D8A" d="M56.6695472,36.3341143 C55.3976604,40.9666857 52.6444528,44.9706857 49.4859623,48.4964 C48.2616226,49.8004 46.9229434,50.9712571 45.4953962,52.0021143 C45.492566,51.9992571 45.491434,51.9958286 45.4886038,51.9924 C34.3218113,38.0969714 23.1538868,24.2021143 11.9870943,10.3066857 C21.9980377,1.83925714 37.9665283,-0.3476 48.311434,8.13811429 C52.6653962,11.7089714 54.9855849,16.6626857 56.1895472,22.0946857 C57.2355849,26.8141143 57.9736981,31.5838286 56.6695472,36.3341143 M18.5984151,55.4672571 C5.56030189,50.2575429 -0.498,34.6021143 4.10218868,21.4661143 C5.35030189,17.9021143 7.43954717,14.7358286 10.0823774,12.0626857 C21.162,25.8484 32.2410566,39.6335429 43.3201132,53.4186857 C35.9395472,57.7741143 26.7193585,58.7124 18.5984151,55.4672571 M59.7499245,27.3512571 C58.9976604,21.0998286 57.4348302,14.7278286 53.4770943,9.72097143 C47.1097358,1.6644 36.417283,-0.861314286 26.6774717,0.763257143 C16.6801132,2.43125714 7.07841509,8.6604 2.7029434,18.0838286 C-3.32818868,31.0724 0.983320755,47.9078286 13.1486038,55.5958286 C25.1848302,63.2026857 41.6576604,60.6392571 51.3165283,50.3438286 C57.1155849,43.8712571 60.8208679,36.2461143 59.7499245,27.3512571" mask="url(#icon_nopeanuts_line_w-b)"/>
    <path fill="#084D8A" d="M15.9170377 31.6001321C14.4464717 32.5188113 13.176283 33.6265472 12.0906226 34.9793774 11.3519434 35.8997547 12.6538302 37.2180566 13.400434 36.2886226 14.390434 35.0552264 15.5094906 34.0374906 16.851566 33.1991887 17.8608113 32.5691887 16.9319434 30.9661698 15.9170377 31.6001321M22.1456604 25.3170566C20.8330189 26.6155472 19.3041509 27.6955472 18.1177358 29.1196981 17.3598113 30.0293208 18.6633962 31.3459245 19.4269811 30.4295094 20.6139623 29.0053585 22.1422642 27.9247925 23.4549057 26.6263019 24.3039623 25.787434 22.994717 24.4776226 22.1456604 25.3170566M29.7567736 20.349566C30.7190377 19.6646604 29.7952642 18.0576792 28.8222453 18.7505094 27.5073396 19.6861698 26.4969623 20.9291887 25.3071509 22.0040943 24.4207358 22.8044717 25.7339434 24.1108868 26.6163962 23.3133396 27.6822453 22.3516415 28.5822453 21.1856038 29.7567736 20.349566M32.6466792 17.6520566C33.722717 16.8386604 34.8893208 16.2148868 36.1770566 15.8090377 37.3091321 15.4518679 36.8257358 13.6637547 35.6846038 14.0231887 34.2496981 14.4760189 32.912717 15.1450755 31.7121509 16.053 30.7730943 16.7628113 31.6951698 18.3714906 32.6466792 17.6520566M18.4890566 35.3589623C17.3473585 36.3189623 16.3681132 37.4317925 15.5303774 38.6646226 14.8596226 39.6529245 16.4632075 40.5806604 17.13 39.599717 17.8788679 38.4965094 18.779434 37.5257547 19.7983019 36.6682075 20.7118868 35.9000943 19.3964151 34.5959434 18.4890566 35.3589623M25.7663208 28.6643774C24.3580189 29.8423019 23.1495283 31.2472075 21.6970755 32.3736226 20.7563208 33.1032453 22.0751887 34.4051321 23.0063208 33.683434 24.4582075 32.5564528 25.6672642 31.1515472 27.075566 29.9736226 27.9908491 29.2083396 26.6748113 27.9047547 25.7663208 28.6643774M28.785566 26.2070377C29.0159434 26.601 29.6493396 26.840434 30.0523585 26.5393019 31.0146226 25.8187358 31.9780189 25.0981698 32.940283 24.3776038 33.3399057 24.0787358 33.5448113 23.5772264 33.2725472 23.1108113 33.0421698 22.7168491 32.4082075 22.4774151 32.0057547 22.7785472 31.0429245 23.4991132 30.0800943 24.2196792 29.1178302 24.9402453 28.7182075 25.2396792 28.5127358 25.7406226 28.785566 26.2070377M35.2513019 19.6992453C34.8460189 19.9907547 34.6501698 20.5058491 34.9190377 20.9660377 35.1533774 21.3667925 35.777717 21.5915094 36.1858302 21.2983019 37.2460189 20.5369811 38.2088491 19.6743396 39.0488491 18.674717 39.3697925 18.2920755 39.4241321 17.7401887 39.0488491 17.3649057 38.718283 17.0349057 38.0628113 16.980566 37.7396038 17.3649057 37.0048868 18.239434 36.1801698 19.0324528 35.2513019 19.6992453"/>
    <path fill="#084D8A" d="M46.6765472,39.5821132 C44.6863585,40.3853208 42.8857925,39.773434 40.8780566,39.5923019 C39.2252264,39.4428679 37.6057925,39.7932453 36.0112642,40.2070189 C32.3959811,41.1466415 28.5101321,42.159283 24.9457925,40.7436226 C27.1029623,37.8313585 28.5712642,34.4215472 31.2344717,31.8890943 C31.9969245,31.163434 32.829566,30.5277736 33.6939057,29.9356981 C37.2022075,30.4632453 40.3539057,30.5447547 43.9001321,30.2249434 C46.2503208,30.0126792 48.6559811,30.2368302 49.5565472,32.8417358 C50.4565472,35.4432453 49.2373019,38.5485283 46.6765472,39.5821132 M20.4123962,41.7919245 C16.1257925,45.1428679 11.8629623,42.4960755 9.84730189,38.1789057 C8.28786792,33.6556981 10.0697547,30.0290943 14.0688113,27.6783396 C16.8486226,26.0441887 20.1678679,25.3598491 22.3901321,22.899283 C25.2033396,19.7838113 27.099,16.2183396 30.5948491,13.6853208 C34.2848491,11.0113585 40.9454151,10.4249434 41.9116415,16.1894717 C42.6588113,20.6470189 39.3203208,23.2989057 35.918434,25.3807925 C32.8029623,27.2872075 29.7616415,29.2853208 27.4833396,32.1941887 C25.0369245,35.3158868 23.604283,39.2962642 20.4123962,41.7919245 M49.8401321,28.8924906 C48.1510755,27.533434 45.9740943,27.4423019 43.9001321,27.6364528 C41.5499434,27.8560755 39.399566,27.908717 37.1688113,27.7479623 C38.7888113,26.7466415 40.3703208,25.7000377 41.7061698,24.3398491 C45.8846604,20.0855094 45.6933396,11.8926792 39.5003208,9.60362264 C35.6235283,8.17041509 31.6776792,9.57928302 28.5605094,12.009283 C27.0186226,13.2115472 25.5797547,14.5790943 24.3078679,16.0649434 C22.868434,17.7466415 21.8252264,19.8149434 20.2652264,21.3766415 C17.349566,24.2951321 12.6723962,24.7615472 9.64918868,27.7672075 C6.57220755,30.8260755 5.96032075,34.9428679 7.37767925,38.9543774 C7.40428302,39.0285283 7.43881132,39.0941887 7.47390566,39.158717 C7.48635849,39.1932453 7.49258491,39.2283396 7.50843396,39.263434 C10.5463585,46.1170189 17.8193774,48.0398491 23.1888113,42.7926792 C27.5161698,44.8649434 32.2103208,43.8698491 36.699566,42.7032453 C41.4740943,41.4630566 47.3603208,44.3832453 50.8703208,39.5515472 C53.1503208,36.414 52.9674906,31.4096604 49.8401321,28.8924906"/>
    <path fill="#084D8A" d="M32.5996981 37.0507358C31.278 37.1645094 29.9512075 37.0903585 28.6278113 37.1650755 27.4436604 37.232434 27.4357358 39.0845094 28.6278113 39.0171509 29.9512075 38.9418679 31.278 39.0165849 32.5996981 38.9022453 33.7776226 38.8009245 33.7889434 36.948283 32.5996981 37.0507358M40.1046226 36.009283C38.9431132 36.0449434 37.8014151 36.2911698 36.6382075 36.294 35.4466981 36.2973962 35.445 38.1489057 36.6382075 38.1460787 37.8014151 38.1432453 38.9431132 37.8964528 40.1046226 37.8607925 41.2938679 37.824566 41.2983962 35.9724906 40.1046226 36.009283M46.5262075 35.3818868C45.8299811 35.5845283 45.1241321 35.4633962 44.4103585 35.4549057 43.217717 35.4407547 43.2171509 37.2928302 44.4103585 37.3069811 45.2996038 37.3171698 46.1469623 37.4213208 47.0180943 37.1671698 48.1603585 36.8349057 47.6741321 35.0473585 46.5262075 35.3818868M43.2366792 32.2971509C42.2636604 32.3560189 41.3047925 32.2275283 40.3459245 32.4686604 39.1912075 32.7590377 39.6802642 34.5454528 40.8383774 34.2545094 41.6178113 34.0586604 42.4413962 34.1967736 43.2366792 34.1486604 44.4213962 34.0773396 44.4287547 32.2252642 43.2366792 32.2971509M35.9312264 32.4179434C35.0600943 32.3686981 34.1912264 32.3228491 33.3183962 32.3681321 32.1331132 32.4303962 32.1251887 34.2824717 33.3183962 34.2202075 34.1912264 34.1743585 35.0600943 34.2202075 35.9312264 34.2694528 37.1221698 34.3373774 37.1182075 32.4853019 35.9312264 32.4179434"/>
  </g>
</svg>
