<svg xmlns="http://www.w3.org/2000/svg" xmlns:xlink="http://www.w3.org/1999/xlink" width="60" height="60" viewBox="0 0 60 60">
  <defs>
    <polygon id="icon_no_shellfish_line_w-a" points="0 .495 59.656 .495 59.656 60 0 60"/>
  </defs>
  <g fill="none" fill-rule="evenodd">
    <mask id="icon_no_shellfish_line_w-b" fill="#fff">
      <use xlink:href="#icon_no_shellfish_line_w-a"/>
    </mask>
    <path fill="#FFF" d="M55.1788868,13.9186857 C49.062283,3.79697143 37.5932264,-1.10017143 26.1066226,0.956971429 C12.6394528,3.36954286 1.33001887,14.0706857 0.118132075,28.1112571 C-1.00658491,41.1484 5.97662264,52.7729714 17.9602075,57.5489714 C29.2328491,62.0421143 43.7686981,60.6186857 52.1302075,51.1072571 C60.7243585,40.6901143 62.2577547,25.6324 55.1788868,13.9186857" mask="url(#icon_no_shellfish_line_w-b)"/>
    <path fill="#084D8A" d="M46.3028491,52.8209714 C34.9147358,38.6638286 23.4258679,24.5895429 12.0405849,10.4306857 C14.7954906,8.02668571 18.0519057,6.10954286 21.6762453,4.83411429 C31.9407736,1.22382857 43.332283,3.3524 50.5458679,11.8798286 C59.5339811,22.5038286 59.0086981,38.7026857 50.2996415,49.2598286 C49.0951132,50.6301143 47.7502075,51.8118286 46.3028491,52.8209714 M23.7671887,56.6055429 C12.972283,54.2032571 4.78228302,46.5912571 2.95907547,35.3546857 C1.5224717,26.5049714 4.4624717,18.1986857 10.167,12.2249714 C21.4351132,26.2386857 32.8039811,40.1689714 44.0771887,54.1786857 C37.9945472,57.4764 30.5500189,58.1152571 23.7671887,56.6055429 M55.1788868,13.9186857 C49.062283,3.79697143 37.5932264,-1.10017143 26.1066226,0.956971429 C12.6394528,3.36954286 1.33001887,14.0706857 0.118132075,28.1112571 C-1.00658491,41.1484 5.97662264,52.7729714 17.9602075,57.5489714 C29.2328491,62.0421143 43.7686981,60.6186857 52.1302075,51.1072571 C60.7243585,40.6901143 62.2577547,25.6324 55.1788868,13.9186857" mask="url(#icon_no_shellfish_line_w-b)"/>
    <path fill="#084D8A" d="M43.1272075,42.8474151 C42.8600377,42.9006226 42.5979623,42.9345849 42.3370189,42.9668491 C44.5258868,41.3242075 45.8730566,39.0430755 45.3930566,35.9411887 C44.7166415,31.5736415 41.4483396,30.7172264 37.7538113,29.4651509 C34.4900377,28.3591132 33.3432453,26.4096792 33.3641887,24.1811887 C35.5915472,25.8328868 40.5828679,25.1491132 42.774566,25.0353396 C47.6606038,24.7817547 51.503434,27.4738302 51.5153498,32.6785472 C51.5272075,37.5645849 47.8938113,41.9043962 43.1272075,42.8474151 M50.8949434,24.875717 C49.3660755,23.4968491 47.4121132,22.7174151 45.3828679,22.4813774 C43.8958868,22.3087358 42.4564528,22.5176038 40.9689057,22.5685472 C40.088717,22.5991132 36.9443774,22.7966604 35.4675849,22.3274151 C38.2326792,19.6681698 43.4538113,18.5349623 46.8070189,17.5019434 C48.3947547,17.0128868 47.7172075,14.5138302 46.119283,15.005717 C42.5164528,16.115717 37.8019245,17.3230755 34.5523019,19.8045849 C35.6124906,17.5789245 37.194,15.4172264 38.5123019,13.791 C39.5526792,12.5083585 37.7317358,10.6659057 36.6817358,11.960434 C32.6883396,16.8860943 26.9153208,25.4225094 34.0038113,30.5468491 C35.5966415,31.6981698 37.4583396,31.9591132 39.2696604,32.5976038 C42.1349434,33.6068491 44.2519245,36.6538302 42.203434,39.6028868 C41.2649434,40.9540189 39.5368302,41.8879811 37.8709811,42.4942075 C34.9638113,41.4232642 32.7958868,38.8794906 31.8755094,35.4645849 C31.4419245,33.8581698 28.944566,34.5396792 29.379283,36.1528868 C30.1672075,39.0753396 31.7294717,41.5959057 33.9307925,43.3042075 C31.9496604,43.2894906 30.3007925,42.4885472 28.4215472,41.1781698 C27.0523019,40.2232642 25.7566415,42.4659057 27.1151321,43.4134528 C30.6726792,45.8938302 33.9517358,46.4683585 37.8070189,45.2298679 C38.4975849,45.4172264 39.2198491,45.5485472 39.9783396,45.6068491 C45.2928679,46.011566 50.3781509,43.1553396 52.7509811,38.3717547 C54.8798491,34.0806226 54.6194717,28.2351509 50.8949434,24.875717"/>
    <path fill="#084D8A" d="M38.8957358,26.8878113 C38.8340377,26.6687547 38.7230943,26.478 38.5629057,26.3166792 C38.5102642,26.2640377 38.4581887,26.2119623 38.4061132,26.1587547 C38.2889434,26.0330943 38.1502642,25.9436604 37.9889434,25.8915849 C37.8355472,25.8106415 37.6691321,25.773283 37.4908302,25.7800755 C37.3125283,25.773283 37.1461132,25.8106415 36.9921509,25.8915849 C36.8319623,25.9436604 36.692717,26.0330943 36.5755472,26.1587547 C36.5076226,26.2464906 36.4402642,26.3336604 36.3729057,26.4208302 C36.2563019,26.6229057 36.1968679,26.8408302 36.1963019,27.0746038 C36.2121509,27.1889434 36.227434,27.3038491 36.242717,27.4181887 C36.3044151,27.6378113 36.4147925,27.828 36.5755472,27.9893208 C36.6276226,28.0419623 36.6802642,28.0946038 36.7323396,28.1472453 C36.8495094,28.2734717 36.9887547,28.3623396 37.1489434,28.4144151 C37.3034717,28.4959245 37.4693208,28.532717 37.6476226,28.5264906 C37.8253585,28.532717 37.9917736,28.4959245 38.1463019,28.4144151 C38.3064906,28.3623396 38.4457358,28.2734717 38.5629057,28.1472453 L38.7655472,27.8851698 C38.882717,27.6830943 38.9410189,27.4657358 38.9415849,27.2319623 C38.9268679,27.1170566 38.9110189,27.002717 38.8957358,26.8878113"/>
    <path fill="#084D8A" d="M33.0236604 19.911283C27.3938491 14.9352453 19.0629057 15.5618491 13.2847925 19.9633585 10.578566 22.0248679 8.18196226 25.0582642 7.29101887 28.3916604 6.32139623 32.016566 8.10950943 34.3927925 10.6470566 36.7344906 13.6430943 39.501283 16.6787547 42.4758113 20.3291321 44.3810943 23.132717 45.8443019 25.0651698 45.4095849 27.2738491 43.221283 30.7883774 39.7378868 34.4947925 35.8192075 37.1778113 31.6469434 38.0817736 30.2420377 35.8419623 28.9424151 34.9430943 30.3405283 33.0763019 33.2426038 30.5563019 35.8248679 28.2513962 38.3776981 27.3259245 39.4027925 26.3483774 40.7946792 25.2219623 41.6114717 22.1930943 43.8088302 18.3134717 40.1114717 16.0306415 38.1337358 14.1644151 36.516 11.3896981 34.6610943 10.1568679 32.4982642 8.37781132 29.3793962 11.3540377 25.1975094 13.5870566 23.0901509 18.2676226 18.6733585 26.058 17.2027925 31.1936604 21.7418491 32.4378113 22.8410943 34.2751698 21.0173208 33.0236604 19.911283M44.6091509 34.3273019C45.2465094 31.4439057 47.8966981 28.3023962 50.9000943 27.8874906 52.0751887 27.7250377 51.5753774 25.9408868 50.4076415 26.1016415 46.7974528 26.6008868 43.5851887 30.3888113 42.8238679 33.8348491 42.5668868 34.9963585 44.3516038 35.4922075 44.6091509 34.3273019"/>
    <path fill="#084D8A" d="M44.7070189 37.176283C46.3383396 35.4334528 49.3026792 35.4872264 51.2266415 36.711566 52.2347547 37.3528868 53.1641887 35.751 52.1611698 35.1125094 49.5579623 33.455717 45.578717 33.5366604 43.3977736 35.8670377 42.5838113 36.7364717 43.8907925 38.0485472 44.7070189 37.176283M43.8319811 40.0913208C45.3014151 40.0907547 47.1665094 40.3313208 47.9238679 41.7662264 48.4814151 42.8207547 50.0799057 41.8856604 49.5234906 40.8322642 48.4468868 38.7950943 45.959717 38.2386792 43.8319811 38.2398096 42.6410377 38.2398096 42.6387736 40.0918868 43.8319811 40.0913208M31.8821321 27.7769434C30.3300566 30.5929811 28.5900566 33.2884528 26.8245849 35.9697736 28.2894906 30.7797736 29.7651509 25.5926038 31.1106226 20.3697736 31.4077925 19.2150566 29.6225094 18.7220377 29.3242075 19.8773208 27.8100566 25.7578868 26.1323208 31.5937358 24.4885472 37.4392075 25.0908113 31.0701509 25.821566 24.7135472 26.6111887 18.366 26.7577925 17.1863774 24.9051509 17.1971321 24.7596792 18.366 24.0742075 23.8769434 23.4328868 29.3941132 22.881 34.9203396 22.2176038 29.4320377 21.561 23.9443019 20.8772264 18.4588302 20.7317547 17.2916604 18.8779811 17.2769434 19.0251509 18.4588302 19.806283 24.725434 20.5523208 30.996566 21.3142075 37.265434 19.536283 31.8235472 17.570434 26.4410943 15.5723208 21.0795849 15.1596792 19.9729811 13.3693019 20.4518491 13.7864717 21.5720377 16.0194906 27.5624151 18.2106226 33.5805283 20.1447736 39.6767547 17.060434 34.9435472 14.3117547 29.796566 11.9264717 24.7605283 11.4164717 23.6844906 9.81911321 24.6229811 10.3274151 25.6950566 13.146283 31.6458113 16.4672264 37.7584528 20.2551509 43.1516604 20.5308113 43.5439245 20.9581698 43.6220377 21.3238302 43.5144906 21.3685472 43.6656226 21.4160943 43.8156226 21.4602453 43.9667547 21.7619434 44.9958113 23.2398679 44.6997736 23.2817547 43.7901509 23.5749623 43.7205283 23.8126981 43.5178868 23.8551509 43.1788302 24.3006226 43.2999623 24.8242075 43.1346792 24.9821321 42.5618491 25.0777925 42.2148679 25.175717 41.8690189 25.2719434 41.5226038 25.3913774 41.4529811 25.5023208 41.3544906 25.5928868 41.2146792 28.2725094 37.0752453 31.0981698 33.0348679 33.4806226 28.7114717 34.056283 27.6671321 32.4577925 26.7320377 31.8821321 27.7769434"/>
    <path fill="#084D8A" d="M14.8275283,40.3964717 C14.7114906,42.605717 13.6360189,46.1677925 16.4899811,46.9840189 C19.0869623,47.7272264 22.3048868,47.4034528 24.9652642,47.3293019 C26.4737547,47.2868491 29.7448868,47.6660943 30.9505472,46.4638302 C32.5388491,44.8811887 31.6331887,40.5000566 31.3558302,38.5551509 C31.188283,37.3800566 29.403566,37.8798679 29.5705472,39.0476038 C29.7341321,40.1966604 30.4439434,44.4136415 29.5563962,45.1381698 C28.6801698,45.8542075 25.4141321,45.470434 24.3584717,45.4919434 C22.4180943,45.5321321 20.4573396,45.546283 18.5220566,45.3860943 C17.5807358,45.3079811 16.8669623,45.4177925 16.4860189,44.6072264 C15.9748868,43.521566 16.6190377,41.5426981 16.6790377,40.3964717 C16.742434,39.2055283 14.8897925,39.2089245 14.8275283,40.3964717"/>
  </g>
</svg>
