<svg xmlns="http://www.w3.org/2000/svg" xmlns:xlink="http://www.w3.org/1999/xlink" width="60" height="60" viewBox="0 0 60 60">
  <defs>
    <polygon id="icon_no-fish_solid-a" points="0 0 60 0 60 60 0 60"/>
    <path id="icon_no-fish_solid-c" d="M31.4658,0 C29.7348,0 27.984,0.1596 26.262,0.4674 L26.262,0.4674 C12.0378,3.024 1.2876,14.2866 0.12,27.852 L0.12,27.852 C-1.017,41.0664 6.0186,52.7178 18.045,57.5244 L18.045,57.5244 C22.095,59.1438 26.5764,60 31.0044,60 L31.0044,60 C39.7452,60 47.3448,56.82 52.3938,51.0576 L52.3938,51.0576 C57.3972,44.9748 59.97,37.524 60,30.0876 L60,30.0876 L60,29.826 C59.9772,24.1698 58.4826,18.5322 55.4652,13.5228 L55.4652,13.5228 C50.3634,5.055 41.3916,0 31.4658,0 Z"/>
  </defs>
  <g fill="none" fill-rule="evenodd">
    <mask id="icon_no-fish_solid-b" fill="#fff">
      <use xlink:href="#icon_no-fish_solid-a"/>
    </mask>
    <path fill="#084D8A" d="M31.00392,60 C26.57592,60 22.09512,59.1438 18.04512,57.5238 C6.01812,52.7172 -1.01688,41.0664 0.11952,27.852 C1.28772,14.2866 12.03792,3.024 26.26212,0.468 C27.98412,0.1596 29.73492,0 31.46592,0 C41.39112,0 50.36412,5.055 55.46532,13.5228 C62.49492,25.1934 61.26132,40.2762 52.39392,51.0576 C47.34432,56.82 39.74472,60 31.00392,60" mask="url(#icon_no-fish_solid-b)"/>
    <mask id="icon_no-fish_solid-d" fill="#fff">
      <use xlink:href="#icon_no-fish_solid-c"/>
    </mask>
    <polygon fill="#FEFEFE" points="47.669 56.28 9.145 7.339 10.739 6.084 49.262 55.025" mask="url(#icon_no-fish_solid-d)"/>
    <g fill="#FEFEFE" transform="translate(6.6 18)">
      <path d="M3.19242,6.3141 C3.91542,8.0139 4.66842,10.0353 4.76382,12.1227 C4.82982,13.5765 4.60362,14.9805 4.11042,16.1823 C4.03062,16.3749 3.93522,16.5639 3.83562,16.7499 L3.17922,17.9811 L4.35522,17.2311 C6.23502,16.0329 7.66302,14.3169 9.08082,12.5115 L9.22842,12.3255 L9.11562,12.1131 C8.43222,10.8249 7.80402,9.6699 7.02942,8.5941 C6.20982,7.4595 5.20542,6.2115 3.65442,5.8227 L2.93742,5.6403 L3.19242,6.3141 Z M30.21822,2.1447 C25.87122,2.1447 21.50802,3.6585 17.60022,6.5235 C15.11862,8.3421 13.11822,10.5891 11.65062,12.3453 L11.48982,12.5379 L11.61222,12.7599 C11.86902,13.2183 12.12882,13.6767 12.40002,14.1111 C15.56322,18.6783 21.50622,21.3969 28.30842,21.3969 C30.93102,21.3969 33.53862,20.9787 35.85222,20.1855 C38.35842,19.3257 42.74622,17.3109 43.97262,13.4703 C45.26802,9.4077 42.33102,6.1347 39.14802,4.4253 C36.32982,2.9121 33.32562,2.1447 30.21822,2.1447 L30.21822,2.1447 Z M28.50402,23.2095 C20.25882,23.0667 14.45502,20.4045 10.76022,15.0669 L10.26522,14.2269 L9.86862,14.5359 L9.27102,15.2865 C6.91302,18.2571 4.56222,19.8471 1.64682,20.4477 L1.54242,20.4477 C1.07142,20.4477 0.79662,20.3085 0.62142,20.0793 C0.44262,19.8471 0.38742,19.5513 0.46902,19.2429 C0.70242,18.3465 1.12422,17.5833 1.57062,16.7763 C2.17662,15.6777 2.80482,14.5425 2.89422,13.0785 C3.04842,10.5261 1.92522,8.0367 0.93342,5.8395 L0.66042,5.2317 C0.47202,4.8105 0.46902,4.1001 0.95202,3.8709 C1.32762,3.6915 1.78902,3.5991 2.32062,3.5991 C3.76122,3.5991 5.30682,4.2561 6.13242,4.8639 C8.00862,6.2475 9.24282,8.3553 10.25442,10.2243 L10.51002,10.6989 L10.85502,10.2837 C11.19522,9.8787 11.53962,9.4773 11.89902,9.0957 C14.93442,5.8461 18.30462,3.3999 21.91182,1.8195 C24.45642,0.7077 27.17202,0.1431 29.98302,0.1431 C33.48582,0.1431 36.98982,1.0431 40.11882,2.7459 C42.95622,4.2927 45.09282,6.8319 45.83382,9.5403 C46.42122,11.6949 46.10802,13.8789 44.92902,15.8607 C41.70402,21.2841 34.55322,23.2161 28.93722,23.2161 C28.93542,23.2161 28.50402,23.2095 28.50402,23.2095 L28.50402,23.2095 Z"/>
      <path d="M35.61822 7.36614C34.84062 7.36614 34.05522 7.97034 33.86442 8.71374 33.64482 9.58674 34.26162 10.25754 34.93062 10.51314 35.01642 10.55274 35.07102 10.57254 35.13162 10.58574 35.32242 10.62594 35.52282 10.64574 35.72262 10.64574 36.28842 10.64574 36.77502 10.47954 37.05522 10.19394 37.26822 9.97554 37.37262 9.67674 37.36542 9.30474 37.34742 8.41554 36.78042 7.63854 35.98542 7.41294 35.87022 7.38294 35.74602 7.36614 35.61822 7.36614M27.6102 8.95608C26.7816 9.42108 25.8504 10.03548 25.8936 11.62488 25.9104 12.25668 26.097 12.94608 26.5122 13.44828 27.0108 14.05068 27.7818 14.20548 28.4988 14.39328L28.416 13.41768C28.3002 12.01968 28.3596 10.54968 28.5948 9.04548L28.7208 8.23248 27.6102 8.95608zM20.403 8.40528C19.2612 9.18528 18.6492 10.38048 18.7206 11.68128 18.7914 12.96288 19.524 14.09748 20.6808 14.71548L21.111 14.94408 21.2106 14.46648C21.45 13.33428 22.0428 12.33888 22.9278 11.58528L23.292 11.27628 22.8996 11.00448C22.0182 10.39008 21.3432 9.54708 20.949 8.57088L20.7786 8.14608 20.403 8.40528zM24.0048 12.27228C23.0286 12.98928 22.4082 14.00808 22.2576 15.14028 22.3836 15.52848 22.3782 15.78708 22.2828 15.99648 22.4448 17.61288 23.3454 18.76128 24.726 19.35888L25.1898 19.55808 25.2342 19.05348C25.332 17.94168 25.8366 16.65408 26.6538 15.42228L26.9154 15.03048 26.4708 14.87448C25.4046 14.49948 24.7362 13.66308 24.5844 12.52128L24.5028 11.90688 24.0048 12.27228zM27.6072 22.68168C26.6274 22.30008 25.9392 21.73188 25.5636 20.99868 23.4294 20.40108 21.9996 19.15308 21.3894 17.38068L21.1872 16.79328 20.7726 17.25468C20.1204 17.97468 19.7328 18.91428 19.6236 20.04948 19.6602 20.35128 19.6158 20.53068 19.4916 20.67648 19.3626 20.82948 19.1538 20.92908 18.9618 20.92908 18.732 20.92908 18.5934 20.79948 18.5496 20.54088 18.282 18.91788 18.7602 17.63268 20.1036 16.36848L20.4822 16.00968 20.0214 15.77388C19.0152 15.25308 18.264 14.41668 17.8482 13.35768L17.7096 13.00248 17.364 13.15188C16.4172 13.56708 15.7212 14.97408 15.5568 16.11588 15.4146 17.11188 15.6432 17.90808 16.1976 18.36288 16.371 18.50268 16.4238 18.66168 16.3596 18.84408 16.2684 19.09668 15.987 19.29588 15.7176 19.29588 15.5832 19.29588 15.456 19.24968 15.3402 19.15308 13.7088 17.81868 14.1708 14.99388 15.6264 13.19508L15.8844 12.87288 15.537 12.65388C14.1024 11.74128 13.1892 9.75288 14.1504 8.00688 14.253 7.82088 14.3958 7.72488 14.574 7.72488 14.7858 7.72488 15.0144 7.86048 15.1284 8.05668 15.1992 8.17608 15.2574 8.37528 15.12 8.62428 14.7978 9.21168 14.8158 9.93528 15.1716 10.60248 15.5814 11.37288 16.3644 11.93328 17.1156 11.99688L17.5176 12.03288 17.5128 11.62848C17.4978 10.41348 17.931 9.23808 18.7302 8.32188L19.0362 7.97028 18.6228 7.75488C17.9592 7.40928 17.4012 6.90168 16.8642 6.15468 16.7448 5.98848 16.722 5.83608 16.7964 5.69028 16.8972 5.49408 17.1474 5.35488 17.3934 5.35488 17.5308 5.35488 17.7276 5.39808 17.883 5.61348L20.5566 7.23348 20.5536 6.58248C20.544 4.79688 21.4056 3.07788 22.92 1.87248 23.0142 1.84608 23.097 1.83648 23.1696 1.83648 23.4258 1.83648 23.547 1.97928 23.6112 2.16468 23.6508 2.28108 23.757 2.67948 23.406 2.95788 22.1124 3.99048 21.4938 5.47428 21.7086 7.03128 21.9234 8.58768 22.9464 9.89208 24.444 10.51968L24.768 10.65588 24.9168 10.33368C25.314 9.47388 26.019 8.69388 27.1392 7.88388L27.5178 7.60848 27.1584 7.30308C25.7238 6.09468 25.0854 4.19988 25.4064 2.10168 25.4448 1.84608 25.5804 1.71708 25.8066 1.71708 25.9986 1.71708 26.2074 1.81668 26.34 1.96908 26.4252 2.07168 26.5218 2.24448 26.4816 2.50008 26.2002 4.35228 26.9472 5.89548 28.5816 6.84828L28.992 7.08408 29.118 6.62928C29.6586 4.67088 30.4728 2.79528 31.4724 1.20228 31.5864 1.02288 31.74.93048 31.9302.93048 32.1606.93048 32.3958 1.06608 32.5026 1.26228 32.5926 1.42488 32.5788 1.60068 32.4648 1.78308 29.2728 6.86508 27.4332 16.16568 33.3336 20.92248 33.507 21.06168 33.5604 21.21468 33.4974 21.39348 33.42 21.61908 33.1548 21.85188 32.8482 21.85188 32.7168 21.85188 32.589 21.80568 32.4744 21.71208 30.594 20.19888 29.3376 18.11748 28.7406 15.52488L28.578 14.81508 28.1064 15.36888C27.045 16.62048 25.8546 18.41928 26.2236 19.88328 26.4072 20.61348 26.9514 21.16128 27.8388 21.50628 28.2006 21.64908 28.2726 22.00428 28.2228 22.27008 28.1826 22.47948 28.05 22.72128 27.804 22.72128L27.6072 22.68168z"/>
    </g>
  </g>
</svg>
