<?xml version="1.0" encoding="UTF-8"?>
<svg width="40px" height="40px" viewBox="0 0 40 40" version="1.1" xmlns="http://www.w3.org/2000/svg" xmlns:xlink="http://www.w3.org/1999/xlink">
    <title>Icon_Pinterest</title>
    <g id="Desktop" stroke="none" stroke-width="1" fill="none" fill-rule="evenodd">
        <g id="WAT_Home_Final_MegaShop" transform="translate(-732.000000, -4447.000000)" fill="#084D8A" fill-rule="nonzero">
            <g id="Newsletter-Subscription" transform="translate(0.000000, 4128.000000)">
                <g id="Social-Icons" transform="translate(608.000000, 319.000000)">
                    <g id="Icon_Pinterest" transform="translate(124.000000, 0.000000)">
                        <path d="M20,0 C8.95705521,0 0,9.01234568 0,20.1234568 C0,28.6419753 5.27607362,35.9259259 12.6380368,38.8888889 C12.5153374,37.2839506 12.2699387,34.8148148 12.7607362,33.0864198 C13.1288344,31.4814815 15.0920245,23.0864198 15.0920245,23.0864198 C15.0920245,23.0864198 14.4785276,21.8518519 14.4785276,20.1234568 C14.4785276,17.2839506 16.0736196,15.1851852 18.1595092,15.1851852 C19.8773006,15.1851852 20.7361963,16.4197531 20.7361963,18.0246914 C20.7361963,19.7530864 19.6319018,22.345679 19.0184049,24.691358 C18.5276074,26.6666667 20,28.2716049 21.9631902,28.2716049 C25.5214724,28.2716049 28.2208589,24.4444444 28.2208589,19.0123457 C28.2208589,14.1975309 24.7852761,10.8641975 19.8773006,10.8641975 C14.2331288,10.8641975 10.797546,15.1851852 10.797546,19.6296296 C10.797546,21.3580247 11.4110429,23.2098765 12.2699387,24.1975309 C12.392638,24.4444444 12.5153374,24.5679012 12.392638,24.8148148 C12.2699387,25.4320988 11.9018405,26.7901235 11.7791411,27.037037 C11.6564417,27.4074074 11.5337423,27.5308642 11.1656442,27.2839506 C8.71165644,26.1728395 7.11656442,22.4691358 7.11656442,19.5061728 C7.11656442,13.2098765 11.6564417,7.28395062 20.3680982,7.28395062 C27.3619632,7.28395062 32.7607362,12.2222222 32.7607362,18.8888889 C32.7607362,25.8024691 28.4662577,31.3580247 22.3312883,31.3580247 C20.2453988,31.3580247 18.404908,30.2469136 17.791411,29.0123457 C17.791411,29.0123457 16.809816,32.8395062 16.5644172,33.8271605 C16.0736196,35.5555556 14.8466258,37.7777778 14.1104294,39.1358025 C15.9509202,39.7530864 17.9141104,40 20,40 C31.0429448,40 40,30.9876543 40,19.8765432 C40,9.01234568 31.0429448,0 20,0 Z" id="Path"></path>
                    </g>
                </g>
            </g>
        </g>
    </g>
</svg>