<?xml version="1.0" encoding="UTF-8"?>
<svg width="90px" height="50px" viewBox="0 0 90 50" version="1.1" xmlns="http://www.w3.org/2000/svg" xmlns:xlink="http://www.w3.org/1999/xlink">
    <title>Icon_PlantBased</title>
    <g id="Desktop" stroke="none" stroke-width="1" fill="none" fill-rule="evenodd">
        <g id="WAT_Shop_v3_Hover" transform="translate(-755.000000, -549.000000)" fill="#084D8A">
            <g id="Hero" transform="translate(0.000000, 1.000000)">
                <g id="Icon_PlantBased" transform="translate(755.000000, 548.000000)">
                    <path d="M11.6683964,8.29060079 C11.6683964,6.75018272 10.4587711,5.50241193 8.96544499,5.50241193 L6.33419819,5.50241193 L6.33419819,11.0787897 L8.96544499,11.0787897 C10.4587711,11.0787897 11.6683964,9.83101886 11.6683964,8.29060079 M14.7298707,14.0599328 C13.2178391,15.6711007 11.1384059,16.5779857 8.96544499,16.5812016 L6.33419819,16.5812016 L6.33419819,21.1317059 C6.33419819,21.6140915 5.95696968,22 5.49556621,22 L1.84174957,22 C1.37722851,22 1,21.6140915 1,21.1317059 L1,0.865078205 C1,0.389124397 1.37722851,0.00321590411 1.84174957,0 L8.79397748,0 C13.1679576,0 16.8685382,3.53106271 16.9963594,8.03976027 C17.0618288,10.2812454 16.2419024,12.4519807 14.7298707,14.0599328" id="Fill-22"></path>
                    <path d="M32,17.3652047 L32,21.1347953 C32,21.6108187 31.6125343,22 31.1354071,22 L18.8613907,22 C18.3874657,22 18,21.6108187 18,21.1347953 L18,0.865204678 C18,0.385964912 18.3874657,0 18.8613907,0 L22.6143641,0 C23.0914913,0 23.4757548,0.385964912 23.4757548,0.865204678 L23.4757548,16.4967836 L31.1354071,16.4967836 C31.6125343,16.4967836 32,16.8891813 32,17.3652047" id="Fill-24"></path>
                    <path d="M44.7205344,13.7652555 L43.0150204,8.6940146 L41.2965367,13.7652555 L44.7205344,13.7652555 Z M52.8330745,21.640292 C52.6709534,21.8651095 52.4083173,21.9967883 52.1262265,22 L48.1218352,22 C47.7457142,22 47.4117448,21.7623358 47.2917752,21.4090511 L46.568715,19.260438 L39.4386288,19.260438 L38.7090838,21.4090511 C38.5891142,21.7623358 38.2551447,22 37.8822662,22 L33.87139,22 C33.5925417,22 33.3266631,21.8651095 33.164542,21.640292 C32.9991785,21.4154745 32.957027,21.1232117 33.0445724,20.859854 L39.90878,0.587737226 C40.0255072,0.237664234 40.3594767,0 40.7355976,0 L45.3074128,0 C45.6835338,0 46.0142608,0.237664234 46.1374729,0.590948905 L52.9562866,20.859854 C53.043832,21.1232117 52.9984381,21.4154745 52.8330745,21.640292 L52.8330745,21.640292 Z" id="Fill-26"></path>
                    <path d="M70.7548487,0.285755984 C70.9131109,0.446293053 71,0.664623468 71,0.895796848 L71,21.1330998 C71,21.6115003 70.6245151,22 70.1652444,22 L65.8890613,22 C65.5725369,22 65.283941,21.813777 65.1411947,21.5215995 L60.3064391,11.5907764 L60.3064391,21.1298891 C60.3064391,21.6082896 59.9340574,21.9967893 59.4716835,21.9967893 L55.8347556,21.9967893 C55.3723817,21.9967893 55,21.6082896 55,21.1298891 L55,0.866900175 C55,0.388499708 55.3723817,0 55.8347556,0 L60.0954228,0 C60.4119472,0 60.7005431,0.186223001 60.8432894,0.478400467 L65.6904577,10.4381203 L65.6904577,0.895796848 C65.6904577,0.417396381 66.0659426,0.0321074139 66.5252133,0.0321074139 L70.1652444,0.0321074139 C70.3855702,0.0321074139 70.5996897,0.122008173 70.7548487,0.285755984" id="Fill-28"></path>
                    <path d="M89,0.868167203 L89,4.63665595 C89,5.11575563 88.6227592,5.50160772 88.1582229,5.50160772 L83.6656274,5.50160772 L83.6656274,21.1350482 C83.6656274,21.6109325 83.2883866,22 82.826968,22 L79.173032,22 C78.7084957,22 78.3312549,21.6109325 78.3312549,21.1350482 L78.3312549,5.50160772 L73.8386594,5.50160772 C73.3741231,5.50160772 73,5.11575563 73,4.63665595 L73,0.868167203 C73,0.392282958 73.3741231,0 73.8386594,0 L88.1582229,0 C88.6227592,0 89,0.392282958 89,0.868167203" id="Fill-30"></path>
                    <path d="M11.4108375,43.124397 C11.4108375,42.3654436 10.7868839,41.751206 10.0159255,41.751206 L5.58944832,41.751206 L5.58944832,44.4975881 L10.0159255,44.4975881 C10.7868839,44.4975881 11.4108375,43.8801345 11.4108375,43.124397 L11.4108375,43.124397 Z M5.58944832,36.248794 L8.46420841,36.248794 C9.22536648,36.2359304 9.836253,35.6249086 9.836253,34.875603 C9.836253,34.1262973 9.22536648,33.5152755 8.46420841,33.5024119 L5.58944832,33.5024119 L5.58944832,36.248794 Z M16.9937523,43.4073966 C16.8434807,47.1185499 13.6289763,50 9.85585364,50 L0.878761892,50 C0.39201274,50 0,49.6140915 0,49.1317059 L0,28.8650782 C0,28.3891244 0.39201274,28 0.878761892,28 L8.29760299,28 C12.1033933,28 15.3342317,30.9296886 15.4420352,34.6762169 C15.4779697,35.8307265 15.2166279,36.9788043 14.6776103,38.0078936 C16.2325942,39.3778687 17.0819551,41.3588657 16.9937523,43.4073966 L16.9937523,43.4073966 Z" id="Fill-32"></path>
                    <path d="M28.7205344,41.7652555 L27.0150204,36.6940146 L25.2965367,41.7652555 L28.7205344,41.7652555 Z M36.8330745,49.640292 C36.6709534,49.8651095 36.4083173,49.9967883 36.1262265,50 L32.1218352,50 C31.7457142,50 31.4117448,49.7623358 31.2917752,49.4090511 L30.568715,47.260438 L23.4386288,47.260438 L22.7090838,49.4090511 C22.5891142,49.7623358 22.2551447,50 21.8822662,50 L17.87139,50 C17.5925417,50 17.3266631,49.8651095 17.164542,49.640292 C16.9991785,49.4154745 16.957027,49.1232117 17.0445724,48.859854 L23.90878,28.5877372 C24.0255072,28.2376642 24.3594767,28 24.7355976,28 L29.3074128,28 C29.6835338,28 30.0142608,28.2376642 30.1374729,28.5909489 L36.9562866,48.859854 C37.043832,49.1232117 36.9984381,49.4154745 36.8330745,49.640292 L36.8330745,49.640292 Z" id="Fill-34"></path>
                    <path d="M53,43.2912077 L53,43.3265817 C52.9871098,44.9988063 52.3039275,46.5970671 51.0986908,47.7676243 C49.5808661,49.2211734 47.5538771,50.0251276 45.4463243,49.999401 L45.4140987,49.999401 L44.5182276,49.9961852 C40.7123867,49.9801061 37.5607251,47.458906 37.0676737,44.2141471 C37.0354481,43.9890399 37.0998993,43.7607169 37.2513595,43.5934945 C37.3995972,43.4198404 37.6155086,43.3233659 37.8410876,43.3233659 L41.9852971,43.3233659 C42.2527694,43.3297975 42.5009063,43.4648618 42.6459215,43.689969 C42.9166163,44.0887302 43.5997986,44.4907073 44.5407855,44.4939231 L45.433434,44.4971389 C46.0843907,44.5164338 46.7160121,44.2945425 47.2090634,43.8668389 C47.3669688,43.7285588 47.4668681,43.5356098 47.489426,43.3265817 L47.489426,43.2912077 C47.489426,42.953547 47.0704935,42.4711745 46.3003021,42.2396357 L42.1238671,40.9951147 C39.0592145,40.0850386 37,37.5445435 37,34.6728193 C37,30.997141 40.3869084,28 44.5536757,28 L45.4463243,28 C49.2682779,28 52.4392749,30.524416 52.9323263,33.785254 C52.9645519,34.0071453 52.9001007,34.2354683 52.7486405,34.4059066 C52.6004028,34.5763448 52.3844914,34.6760352 52.1589124,34.6728193 L48.0179255,34.6728193 C47.7504532,34.6696035 47.5023162,34.5313234 47.3573011,34.3094321 C47.0833837,33.9042392 46.3969789,33.5022621 45.4463243,33.5022621 L44.5536757,33.5022621 C43.3065458,33.5022621 42.5137966,34.1968785 42.5137966,34.6728193 C42.5137966,35.0136959 42.9295065,35.4960684 43.6996979,35.7243914 L47.8761329,36.9689124 C50.9407855,37.8789884 53,40.4194835 53,43.2912077" id="Fill-36"></path>
                    <path d="M60.1987839,33.5024119 L60.1987839,36.248794 L64.5797474,36.248794 C65.0297007,36.248794 65.3975678,36.6379184 65.3975678,37.1170881 L65.3975678,40.8861278 C65.3975678,41.3620816 65.0297007,41.751206 64.5797474,41.751206 L60.1987839,41.751206 L60.1987839,44.4975881 L67.1821796,44.4975881 C67.6351731,44.4975881 68,44.8867125 68,45.3626663 L68,49.1317059 C68,49.6140915 67.6351731,50 67.1821796,50 L55.8178204,50 C55.3648269,50 55,49.6140915 55,49.1317059 L55,28.8682941 C55,28.3891244 55.3648269,28 55.8178204,28 L67.1821796,28 C67.6351731,28 68,28.3891244 68,28.8682941 L68,32.6341178 C68,33.1165034 67.6351731,33.5024119 67.1821796,33.5024119 L60.1987839,33.5024119 Z" id="Fill-38"></path>
                    <path d="M79.0330561,44.4975881 C82.0602836,44.4975881 84.5134924,42.0342055 84.5134924,39.001608 C84.5134924,35.9657945 82.0602836,33.5024119 79.0330561,33.5024119 L76.4868499,33.5024119 L76.4868499,44.4975881 L79.0330561,44.4975881 Z M89.9971355,38.7346879 C90.0644785,41.6965356 88.9420954,44.5619062 86.8769105,46.681187 C84.8149324,48.8004678 81.986527,49.9967841 79.0330561,50 L71.8658384,50 C71.3880239,50 71,49.6140915 71,49.1317059 L71,28.8682941 C71,28.3891244 71.3880239,28 71.8658384,28 L78.8278203,28 C84.8181392,28 89.8560359,32.7305949 89.9971355,38.7346879 L89.9971355,38.7346879 Z" id="Fill-40"></path>
                </g>
            </g>
        </g>
    </g>
</svg>