<svg xmlns="http://www.w3.org/2000/svg" xmlns:xlink="http://www.w3.org/1999/xlink" width="60" height="60" viewBox="0 0 60 60">
  <defs>
    <polygon id="icon_no-milk_solid-a" points="0 0 60 0 60 60 0 60"/>
    <path id="icon_no-milk_solid-c" d="M31.2822,0 C29.1624,0 27.0414,0.2574 24.9774,0.7698 L24.9774,0.7698 C13.7412,3.5454 4.1892,12.1614 1.2078,22.2084 L1.2078,22.2084 C-2.5734,34.9536 2.7618,49.041 13.893,55.7052 L13.893,55.7052 C18.5838,58.5132 24.0378,60 29.6658,60 L29.6658,60 L29.6682,60 C38.4804,60 46.9098,56.4222 52.7856,50.1948 L52.7856,50.1948 C57.5292,44.8212 59.9784,37.7652 60,30.5658 L60,30.5658 L60,30.3798 C59.985,25.0152 58.6224,19.578 55.857,14.7054 L55.857,14.7054 C50.7084,5.6328 41.292,0 31.2822,0 Z"/>
  </defs>
  <g fill="none" fill-rule="evenodd">
    <mask id="icon_no-milk_solid-b" fill="#fff">
      <use xlink:href="#icon_no-milk_solid-a"/>
    </mask>
    <path fill="#084D8A" d="M29.66622,60.00012 C24.03762,60.00012 18.58362,58.51332 13.89342,55.70532 C2.76162,49.04112 -2.57358,34.95372 1.20762,22.20792 C4.18902,12.16152 13.74162,3.54492 24.97722,0.76992 C27.04182,0.25752 29.16222,0.00012 31.28202,0.00012 C41.29242,0.00012 50.70822,5.63292 55.85682,14.70492 C62.36682,26.17572 61.10322,40.77192 52.78542,50.19432 C46.90962,56.42232 38.48022,60.00012 29.66802,60.00012 L29.66622,60.00012 Z" mask="url(#icon_no-milk_solid-b)"/>
    <mask id="icon_no-milk_solid-d" fill="#fff">
      <use xlink:href="#icon_no-milk_solid-c"/>
    </mask>
    <polygon fill="#FEFEFE" points="45.891 56.148 8.63 7.435 10.242 6.202 47.502 54.915" mask="url(#icon_no-milk_solid-d)"/>
    <g fill="#FEFEFE" transform="translate(19.8 8.4)">
      <path d="M8.02758,2.41974 C6.56178,2.41974 5.64618,2.71074 5.23038,3.30834 C4.95798,3.69834 4.91358,4.18734 5.10018,4.76214 C5.21838,5.12574 5.47338,5.43954 5.71938,5.74014 C5.89698,5.95794 6.06438,6.16314 6.16158,6.36474 C7.51218,9.13314 6.12438,10.99614 4.51578,13.15734 L3.86178,14.04894 C1.94598,17.36274 2.07918,21.77694 2.19738,25.67154 C2.23458,26.88114 2.26938,28.05414 2.24538,29.15094 C2.23278,29.76894 2.17518,30.48894 2.11458,31.26534 C1.81638,35.03154 1.41198,40.18554 5.26638,41.46414 C6.45438,41.85714 8.07678,42.08514 9.71718,42.08514 C11.66358,42.08514 16.30398,41.73834 17.39718,38.53314 C17.81478,37.30434 17.74578,35.88354 17.68218,34.50954 C17.65818,34.01754 17.63598,33.53814 17.63778,33.08874 C17.64498,31.45374 17.55558,29.83434 17.46558,28.20894 L17.38278,26.65674 C17.32218,25.45374 17.30778,24.24474 17.29158,23.03874 C17.27238,21.60834 17.25498,20.17794 17.16378,18.75354 L17.13018,18.14934 C17.07738,17.11854 17.01798,15.95214 16.63998,14.96454 C16.20018,13.81134 15.65478,13.36554 15.07818,12.89634 C14.78898,12.65814 14.47998,12.40734 14.15658,12.03054 C13.28598,11.00634 12.81858,9.58914 12.90858,8.23794 C12.93738,7.79514 13.47498,6.89994 13.94838,6.11334 C14.72778,4.81854 15.15678,4.06194 14.93958,3.54354 C14.59518,2.71734 13.40118,2.33094 11.18358,2.33094 C10.50978,2.33094 9.85158,2.36394 9.32358,2.39334 C8.98158,2.41014 8.69478,2.42634 8.49918,2.42634 L8.02758,2.41974 Z M10.14918,43.83594 C9.08898,43.83594 8.04018,43.76334 7.05618,43.67394 C3.68598,43.37034 1.64058,42.05214 0.80358,39.63714 C-0.26862,36.54474 -0.03042,32.94054 0.19998,29.45814 C0.28038,28.23234 0.36078,27.03294 0.37938,25.88634 C0.39198,25.15674 0.38958,24.41994 0.38598,23.67954 C0.37278,20.17074 0.35898,16.54014 2.02938,13.42794 L2.18658,13.13094 C2.57538,12.64494 2.77158,12.42054 2.96838,12.19554 C3.35778,11.74974 3.74658,11.30034 4.05198,10.80474 C5.28798,8.80614 4.66038,7.77174 3.93258,6.57294 C3.78678,6.33174 3.63138,6.07734 3.48258,5.79594 C2.83938,4.59714 2.83278,3.13314 3.46638,2.07294 C4.29678,0.68514 5.93958,0.50034 7.43358,0.50034 L10.48398,0.46734 C11.59758,0.46734 13.04118,0.50394 14.33598,0.76794 C15.41898,0.99294 16.23738,1.64034 16.63998,2.59194 C17.08698,3.64254 16.96218,4.93074 16.30758,6.03774 C15.21738,7.88094 14.34198,9.35754 16.21518,11.32374 C16.40658,11.52174 16.60038,11.70354 16.79058,11.88234 C17.18118,12.24834 17.54898,12.59214 17.84358,13.06794 C18.79578,14.60754 18.92718,16.53714 19.04058,18.23814 C19.41678,23.78214 19.58478,28.94934 19.54158,33.59094 L19.53738,34.48014 C19.53378,37.53894 19.52898,40.42974 16.72338,42.26994 C15.12138,43.32414 12.97038,43.83594 10.14918,43.83594 L10.14918,43.83594 Z"/>
      <path d="M14.4465,6.06078 C12.6171,5.95818 10.7913,5.89878 8.9631,5.89878 C7.8069,5.89878 6.6477,5.92218 5.4891,5.97138 L5.4873,5.97138 C4.9881,5.97438 4.9569,5.54178 4.9551,5.45598 C4.9503,5.22798 5.0637,4.84518 5.5179,4.82178 C6.6687,4.77258 7.8159,4.74918 8.9631,4.74918 C10.7787,4.74918 12.5913,4.80858 14.4081,4.90758 C14.8689,4.93398 14.9829,5.32698 14.9763,5.55498 C14.9727,5.67378 14.9283,6.06078 14.4879,6.06078 L14.4465,6.06078 Z M10.2135,16.64298 C8.9955,16.62918 8.0193,16.08078 6.9867,15.49938 C6.0447,14.96778 5.0697,14.42238 3.8967,14.30718 C3.4809,14.26698 3.3069,13.91718 3.3207,13.60998 C3.3273,13.47138 3.3819,13.15038 3.7593,13.15038 C4.9071,13.25958 5.8173,13.75518 6.7827,14.28078 C7.8207,14.84838 8.8947,15.43338 10.1943,15.49278 L10.2213,15.49278 C11.6475,15.49278 12.7131,15.07338 13.7439,14.66718 C14.7315,14.27358 15.6621,13.90698 16.6611,13.90698 C17.2623,13.92378 17.3781,14.30718 17.3751561,14.52798 C17.3733,14.61738 17.3409,15.06018 16.8627,15.06018 L16.8567,15.06018 C15.9633,15.06018 15.1119,15.42318 14.2893,15.78018 C13.7883,15.99498 13.3005,16.20678 12.8649,16.30938 C11.9403,16.53018 11.0775,16.64598 10.2999,16.64598 L10.2135,16.64298 Z"/>
    </g>
  </g>
</svg>
