<?xml version="1.0" encoding="UTF-8"?>
<svg width="60px" height="60px" viewBox="0 0 60 60" version="1.1" xmlns="http://www.w3.org/2000/svg" xmlns:xlink="http://www.w3.org/1999/xlink">
    <title>icon_No_Sesame_Solid</title>
    <defs>
        <polygon id="path-1" points="0 0 59.9998353 0 59.9998353 60 0 60"></polygon>
        <path d="M32.3502,0 C30.4794,0 28.5852,0.159 26.7198,0.4698 L26.7198,0.4698 C16.041,2.2596 6.8334,8.9328 2.6922,17.8848 L2.6922,17.8848 C0.8748,21.8112 0.009,26.0604 0,30.2928 L0,30.2928 L0,30.4212 C0.0198,40.416 4.8144,50.2962 13.1436,55.5798 L13.1436,55.5798 C17.7042,58.4718 23.0826,60 28.698,60 L28.698,60 L28.6992,60 C37.338,60 45.6,56.4636 51.3624,50.2998 L51.3624,50.2998 C57.0924,43.8822 59.9886,37.1502 60,30.2436 L60,30.2436 L60,30.1584 C59.9982,29.1744 59.9382,28.188 59.8188,27.1974 L59.8188,27.1974 C58.878,19.3338 56.8812,13.6926 53.538,9.4482 L53.538,9.4482 C48.8088,3.4434 41.0868,0 32.3502,0 Z" id="path-3"></path>
    </defs>
    <g id="Desktop" stroke="none" stroke-width="1" fill="none" fill-rule="evenodd">
        <g id="WAT_Product_Crisps_NoSesame" transform="translate(-971.000000, -1223.000000)">
            <g id="QuickFacts" transform="translate(0.000000, 840.000000)">
                <g id="Icons" transform="translate(947.000000, 142.000000)">
                    <g id="Peanuts_Solid" transform="translate(24.000000, 241.000000)">
                        <g id="Group-10">
                            <g id="Group-3">
                                <mask id="mask-2" fill="white">
                                    <use xlink:href="#path-1"></use>
                                </mask>
                                <g id="Clip-2"></g>
                                <path d="M28.698,60 C23.0826,60 17.7048,58.4718 13.1436,55.5798 C1.2522,48.0372 -3.4356,31.125 2.6922,17.8848 C6.8334,8.9328 16.041,2.2596 26.7198,0.4698 C28.5858,0.159 30.4794,0 32.3502,0 C41.0868,0 48.8094,3.444 53.5374,9.4488 C56.8818,13.6932 58.878,19.3338 59.8188,27.198 C60.7764,35.1708 57.9318,42.942 51.3618,50.2998 C45.6,56.463 37.3374,60 28.6992,60 L28.698,60 Z" id="Fill-1" fill="#084D8A" mask="url(#mask-2)"></path>
                            </g>
                            <g id="Group-24" transform="translate(7.558925, 10.381519)" fill="#FFFFFF">
                                <path d="M37.9681162,28.112541 C36.6815286,28.5998458 35.074481,28.3612263 33.8680084,27.7815526 C33.6887882,27.695697 32.7903133,27.3131953 32.7487722,27.0739837 C32.6199948,26.3267435 34.0294253,25.9548997 34.4774759,25.8068728 C35.4661544,25.4806213 36.5088363,25.226607 37.5521116,25.2437782 C39.1389821,25.5848323 39.7069085,27.4535249 37.9681162,28.112541 M37.8624831,23.4964677 C37.8553617,23.4952835 37.8488339,23.4964677 37.8417125,23.4958756 C37.7746533,23.4781124 37.70344,23.4668623 37.6256987,23.4644939 C35.6744534,23.4088358 32.5849815,24.0281806 31.3274727,25.6742406 C29.7328875,27.7620131 32.5903225,29.3512307 34.3077508,29.8420881 C36.3337702,30.4205776 39.5075111,30.3080771 40.5389176,28.1190541 C41.5400584,25.9939789 40.069503,23.8079165 37.8624831,23.4964677" id="Fill-4"></path>
                                <path d="M28.9872245,7.05007859 C28.5320526,5.75158595 28.7991026,4.16592099 29.409757,2.9680867 C29.4999605,2.79223065 29.9017224,1.90051614 30.1438478,1.86795021 C30.8832796,1.76729187 31.2357856,3.20019299 31.3728712,3.64427392 C31.6779017,4.63487045 31.9075647,5.66691452 31.8737384,6.70428757 C31.50877,8.31126842 29.5990658,8.7967969 28.9872245,7.05007859 M31.546157,0.479457174 C29.4768162,-1.13166843 27.8478112,1.69446259 27.3237997,3.39854914 C26.7042437,5.4105318 26.7713029,8.58067752 28.9516179,9.63759013 C31.0755556,10.6672658 33.2695197,9.22903567 33.6238061,7.03231535 C33.6255864,7.01988108 33.6243995,7.00863103 33.6261798,6.99678888 C33.6422028,6.93402544 33.6522914,6.86770935 33.6558521,6.7966564 C33.7490228,4.85395037 33.1787227,1.75012074 31.546157,0.479457174" id="Fill-6"></path>
                                <path d="M16.2113742,30.4307618 C16.0369016,30.6610918 15.353847,31.622675 15.0470362,31.5960302 C14.3473652,31.5368194 14.2998896,30.2874717 14.2607223,29.844575 C14.1622105,28.7237147 14.1639909,27.5270647 14.4767361,26.4440993 C15.0998528,24.9046187 17.1424886,25.0810669 17.3507876,26.7585086 C17.5098307,28.0410143 16.9745438,29.4241784 16.2113742,30.4307618 M17.7632315,24.1567865 C15.8541207,22.8636228 13.7616355,23.8589562 12.8696885,25.7323856 C12.8257736,25.8028464 12.7866063,25.8798205 12.7599013,25.9715972 C12.7290422,26.0479791 12.7124257,26.1202163 12.7023372,26.1906771 C12.1996897,28.1256857 12.0163154,31.5551747 13.6221761,32.9584705 C15.4838113,34.585583 17.6522574,31.7920179 18.3875351,30.2839191 C19.2955051,28.4229239 19.7411819,25.4973188 17.7632315,24.1567865" id="Fill-8"></path>
                                <path d="M17.4780814,7.48812001 C17.0401194,6.28910151 17.0792868,4.94975343 17.4970716,3.75428757 C17.5890555,3.49139166 17.8667875,2.53809794 18.1741918,2.43388694 C18.6904884,2.258623 19.165244,3.30310135 19.3343757,3.6293528 C19.8714429,4.6631732 20.3408575,5.90541559 20.4239397,7.07186816 C20.3414509,9.06904812 18.1207818,9.24668049 17.4780814,7.48812001 M22.2042731,7.07186816 C22.2072403,6.9854204 22.1977452,6.90785427 22.1823156,6.83443289 C21.9858855,4.83014763 21.0245055,1.66710721 19.0934372,0.788419079 C16.927365,-0.197440582 15.7891385,2.73526987 15.5042852,4.35527709 C15.147625,6.38679931 15.5529476,9.4645762 17.7647151,10.3077379 C20.0168368,11.1662943 21.9390034,9.51431326 22.1775681,7.35311941 C22.1989321,7.26785587 22.2113944,7.17607915 22.2042731,7.07186816" id="Fill-10"></path>
                                <path d="M29.7611948,17.3296047 C28.7351293,17.8838177 27.5013583,18.3800041 26.3322727,18.4830309 C24.3460141,18.4356623 24.0706559,16.2383498 25.8343728,15.5556494 C27.0266027,15.0943974 28.3719413,15.1097922 29.5766336,15.5029518 C29.8430901,15.5893996 30.8015029,15.8445981 30.9154442,16.1489415 C31.1118744,16.6741412 30.0923368,17.1507881 29.7611948,17.3296047 M28.9695399,13.5330088 C26.9286844,13.2055731 23.8516749,13.6573515 23.0345019,15.8724271 C22.2036796,18.1230293 23.8795668,20.0349457 26.05098,20.2380387 C26.1358426,20.2575783 26.2278265,20.2682362 26.3322727,20.2593546 C26.4189156,20.2611309 26.4972503,20.2498809 26.5702439,20.2333019 C28.583801,20.0029719 31.7201549,18.9987569 32.5836166,17.0613798 C33.5544917,14.8830148 30.5997318,13.7941284 28.9695399,13.5330088" id="Fill-12"></path>
                                <path d="M25.5962236,38.3667841 C24.624755,38.9861289 23.5019581,39.5030391 22.3678857,39.7244875 C20.1430624,39.7860667 20.110423,37.4519773 21.9969829,36.7017766 C23.1625078,36.2387483 24.4722398,36.2132876 25.6680303,36.5638155 C25.917277,36.6366448 26.7208008,36.7870402 26.8139716,37.0564493 C26.9884442,37.5632936 25.9143098,38.1642832 25.5962236,38.3667841 M24.8876509,34.5997936 C22.8165297,34.3694636 19.6611855,34.9982822 18.930062,37.2660555 C18.1627383,39.6445529 20.1300067,41.6435092 22.471145,41.5014033 C22.5293026,41.4978507 22.5827126,41.4871927 22.6355292,41.4747584 C22.6598604,41.47239 22.6830047,41.4735742 22.7079294,41.4694295 C24.6223812,41.1366648 27.9664407,39.7647508 28.5486097,37.6704652 C29.1325591,35.5708505 26.4602787,34.7744654 24.8876509,34.5997936" id="Fill-14"></path>
                                <path d="M3.71106021,28.4215029 C2.77045075,27.620973 2.13724551,26.4598494 1.90283495,25.2555019 C1.8393364,24.9262899 1.68148017,24.2530632 1.79364117,23.9155617 C2.03101895,23.2002954 2.75620808,23.6929291 3.25944898,23.9937199 C4.30213089,24.6166175 5.40059658,25.6048456 6.05931992,26.6232712 C6.93405705,28.3765027 5.10980879,29.6116397 3.71106021,28.4215029 M7.71146929,25.9903078 C7.68832496,25.90386 7.65449862,25.8162281 7.59693451,25.7268198 C7.55776717,25.6492536 7.51207195,25.5858981 7.46281606,25.5296479 C6.31094037,23.8539825 3.79948343,21.4044321 1.65002761,21.7626574 C-0.510110206,22.1220669 -0.102413865,25.0204351 0.3990467,26.5202444 C1.0518356,28.4706478 2.84759853,30.9563168 5.17330735,30.7295395 C7.63788218,30.4885516 8.55534731,28.0318959 7.71146929,25.9903078" id="Fill-16"></path>
                                <path d="M38.2492308,17.1294722 C37.8593378,15.997954 38.2533849,14.4478155 38.7934194,13.4370873 C38.979761,13.0871516 39.3251456,12.397938 39.684773,12.1830028 C40.7695894,11.5340525 40.8663209,12.7816239 40.9927246,13.4489295 C41.1986498,14.5342633 41.3125911,15.7492687 41.0995446,16.8357867 C40.6823531,18.2005954 38.7922325,18.7050714 38.2492308,17.1294722 M41.5606509,10.5416797 C39.5797333,8.72509264 37.5442188,11.7057638 36.8819348,13.3624817 C36.0920602,15.3389379 35.9063121,18.3871094 38.1008697,19.5357988 C40.0473675,20.5548165 42.0253179,19.4232982 42.729143,17.5528294 C42.7659366,17.4805922 42.7979826,17.4018419 42.8163794,17.3082888 C42.8407106,17.2295385 42.8513926,17.1549329 42.8555467,17.0832878 C43.1902494,15.1151211 43.0917376,11.9461596 41.5606509,10.5416797" id="Fill-18"></path>
                                <path d="M7.42382676,16.8534315 C6.21320007,16.8226419 4.77469071,16.5082326 3.70114969,15.9492828 C2.12258743,14.9095413 2.99139012,12.8697295 4.84887127,13.2267706 C5.99718629,13.4476269 7.06479287,14.0805902 7.84991988,14.9373703 C8.10925511,15.2198058 8.53060067,15.6407945 8.65047645,16.0209278 C8.92049368,16.8788922 8.131806,16.8717869 7.42382676,16.8534315 M8.50983012,13.113678 C6.93126786,11.7796589 4.05959014,10.534456 2.23118777,12.0934761 C0.438985512,13.6217066 0.875167188,16.0321779 2.58725444,17.3253415 C2.64719233,17.3833681 2.71543845,17.437842 2.80267478,17.4834343 C2.87210778,17.5290266 2.94094734,17.5604084 3.00860001,17.5846848 C4.84768438,18.480544 8.26948511,19.3864691 9.96258214,17.9837655 C11.690099,16.5520486 9.72520436,14.1409852 8.50983012,13.113678" id="Fill-20"></path>
                            </g>
                        </g>
                        <g id="Group-13">
                            <mask id="mask-4" fill="white">
                                <use xlink:href="#path-3"></use>
                            </mask>
                            <g id="Clip-12"></g>
                            <polygon id="Fill-11" fill="#FEFEFE" mask="url(#mask-4)" points="45.50094 56.19552 7.12554 7.41552 8.72034 6.16092 47.09574 54.94092"></polygon>
                        </g>
                    </g>
                </g>
            </g>
        </g>
    </g>
</svg>
