<?xml version="1.0" encoding="UTF-8"?>
<svg width="90px" height="90px" viewBox="0 0 90 90" version="1.1" xmlns="http://www.w3.org/2000/svg" xmlns:xlink="http://www.w3.org/1999/xlink">
    <title>icon_Tips</title>
    <defs>
        <rect id="path-1" x="0" y="0" width="90" height="90"></rect>
        <polygon id="path-3" points="2.67629044e-05 0.3729375 66.9364068 0.3729375 66.9364068 63 2.67629044e-05 63"></polygon>
    </defs>
    <g id="Desktop" stroke="none" stroke-width="1" fill="none" fill-rule="evenodd">
        <g id="WAT_TraceTribeRecipes" transform="translate(-682.000000, -362.000000)">
            <g id="icon_Tips" transform="translate(682.000000, 362.000000)">
                <mask id="mask-2" fill="white">
                    <use xlink:href="#path-1"></use>
                </mask>
                <g id="Mask"></g>
                <g mask="url(#mask-2)">
                    <g transform="translate(12.000000, 12.000000)">
                        <path d="M48.7428791,26.8261547 C47.7254666,29.6994967 45.4750008,31.141032 43.7166093,33.4421091 C42.5311574,34.9940914 41.9765702,37.0565341 41.5802725,39.1556016 C37.4647417,40.6732481 33.3107855,41.1144643 29.2394151,39.1544571 C29.0243477,37.745541 28.7496348,36.3612322 28.1904595,35.0919487 C27.2711178,33.00776 25.2167934,31.9547926 23.7967747,30.2746229 C21.0393232,27.0121408 21.1064242,22.1084031 23.4108003,18.6462005 C28.1164763,11.5741511 38.5957097,10.9023121 45.051748,15.7980382 C48.6390732,18.5180132 50.2810415,22.4832365 48.7428791,26.8261547 M39.1353857,47.4671768 C37.718808,48.6872455 34.8822117,48.5830933 33.2167293,48.0056781 C32.6971263,47.8259869 32.075438,47.5816298 31.6957722,47.1695991 C31.4336767,46.8857557 31.361414,46.5155003 31.0459818,46.255692 C32.5331015,46.7123594 34.0810137,46.8720213 35.6329405,46.7890429 C36.4243887,46.7466953 37.2129694,46.6436876 37.9940944,46.5086331 C38.2550429,46.4634242 40.0145814,46.283733 40.0914322,46.0765731 C39.8757912,46.6568497 39.5448741,47.1146616 39.1353857,47.4671768 M40.9092621,43.0012217 C37.2542623,44.4507686 33.5803367,44.8982797 29.9666299,42.9989326 C29.9224694,42.976042 29.8794559,42.9640244 29.8358689,42.945712 C29.7819586,42.6847592 29.73321,42.4215173 29.687329,42.157131 C33.4392524,43.4756292 37.261718,43.285065 41.0773014,42.0884592 C41.0233912,42.3980545 40.9671869,42.7013549 40.9092621,43.0012217 M29.8330013,10.8736989 C21.7441709,13.5845176 15.6591957,22.9719508 21.0358821,30.9584795 C22.0813967,32.5104618 23.5891629,33.4936129 24.8451569,34.8327127 C26.3764372,36.4648122 26.3982307,38.9055219 26.8656439,41.0034449 C27.3525567,43.1929304 27.561889,46.648838 28.9882163,48.4777966 C29.7102695,49.4042934 30.5183496,49.3670962 31.4577643,49.8306308 C32.6856561,50.4366593 32.6242901,50.7508327 32.9030176,52.0092432 C32.9529132,52.2341433 33.0452488,52.4115454 33.1633926,52.5523225 C33.7116712,53.5120108 34.6602621,54.1397853 35.8262144,53.9732562 C37.8329372,53.6865515 37.6138551,52.1563152 38.324438,50.7777291 C39.0791814,49.3138756 41.1765192,49.7676816 42.1715646,48.2128379 C43.4028975,46.2883111 43.6013331,43.1935027 44.0893928,41.0034449 C44.5132191,39.1012365 44.5711439,36.7681126 45.700965,35.1280014 C46.6461148,33.7562825 48.1274994,32.7674088 49.1586762,31.4477659 C51.7589851,28.1211902 52.860704,23.462954 51.2411027,19.4759846 C48.0179584,11.5380984 37.5582243,8.28420028 29.8330013,10.8736989" id="Fill-1" fill="#084D8A"></path>
                        <path d="M39.7558842,18.434148 C37.4854334,21.0578842 34.6872465,23.3107111 31.7390403,25.222793 C30.8318087,25.810997 30.8561201,27.2840207 32.0627974,27.5571753 C33.4924284,27.8811623 34.9256172,28.186157 36.3617707,28.4794211 C35.0845309,30.1295204 33.5428302,31.6399702 31.666106,32.621986 C30.1410082,33.4213401 31.5071922,35.628362 33.0352549,34.8278906 C35.8731702,33.3414606 38.0754304,30.8445262 39.7760449,28.2721811 C40.2148367,27.6074491 39.8169593,26.5572844 38.9660591,26.3958495 C37.8412105,26.1819063 36.7199197,25.9517638 35.6004077,25.7126837 C37.8198639,24.0910729 39.9059036,22.2834489 41.6729298,20.2406549 C42.7663515,18.976547 40.8587932,17.1588682 39.7558842,18.434148" id="Fill-3" fill="#084D8A"></path>
                        <g id="Group-7" stroke-width="1" fill="none">
                            <mask id="mask-4" fill="white">
                                <use xlink:href="#path-3"></use>
                            </mask>
                            <g id="Clip-6"></g>
                            <path d="M64.32335,32.064075 C64.0456975,46.383075 53.1184517,59.1321375 38.1695025,59.932575 C34.7235449,60.117075 31.3604856,59.4297 28.1916127,58.1095125 C26.3144771,57.327075 24.5526042,56.1587625 22.6181212,55.5220125 C19.9432314,54.6422625 17.786172,56.735325 15.3611127,57.6792 C12.7021212,58.713075 9.95512119,59.3942625 7.16156186,59.83245 C9.6683839,57.7292625 11.5818585,54.9268875 12.5794771,51.796575 C12.8037568,51.4911375 12.8656466,51.0973875 12.6379602,50.6867625 C12.5868585,50.5697625 12.5164517,50.4657 12.4307144,50.3740125 C8.13930763,44.5527 5.1793839,38.926575 5.6143161,31.5651375 C5.88458729,26.9785125 6.71357034,22.6393875 8.77523983,18.4915125 C14.5934517,6.7858875 27.0372822,1.239075 39.9143415,3.3895125 C46.6767992,4.5190125 53.1246975,7.6982625 57.729528,12.7900125 C62.5711297,18.14445 64.4607568,24.9805125 64.32335,32.064075 M61.8449178,13.8148875 C57.6721805,7.9047 51.356011,3.761325 44.3976636,1.7683875 C31.0669347,-2.0493 16.3842822,1.9821375 8.57594322,13.6618875 C5.55412966,18.1821375 3.79850254,23.309325 3.25966356,28.6840125 C2.89627373,32.3082 2.71060424,35.970075 3.63497712,39.531825 C4.77227373,43.9120125 7.32168051,47.7741375 9.98237542,51.3927 C8.54017203,55.5602625 5.11635847,59.0922 0.907282203,60.47145 C-0.420794068,60.9073875 -0.278277119,63.0718875 1.25250254,62.9982 C5.62169746,62.787825 9.97669746,62.2056375 14.1437568,60.84045 C16.3916636,60.1041375 18.4891042,58.6855125 20.7097568,58.0122 C21.3979263,57.8035125 21.6591127,57.8777625 22.6834178,58.335075 C28.0292229,60.7240125 32.8793415,62.98245 38.9541975,62.4492 C54.0854093,61.1200125 65.6695958,48.927825 66.8188161,34.174575 C67.37185,27.0651375 66.0210619,19.7301375 61.8449178,13.8148875" id="Fill-5" fill="#084D8A" mask="url(#mask-4)"></path>
                        </g>
                    </g>
                </g>
            </g>
        </g>
    </g>
</svg>