<svg xmlns="http://www.w3.org/2000/svg" xmlns:xlink="http://www.w3.org/1999/xlink" width="60" height="60" viewBox="0 0 60 60">
  <defs>
    <polygon id="icon_nosoybean_line_w-a" points="0 .395 59.613 .395 59.613 60 0 60"/>
  </defs>
  <g fill="none" fill-rule="evenodd">
    <mask id="icon_nosoybean_line_w-b" fill="#fff">
      <use xlink:href="#icon_nosoybean_line_w-a"/>
    </mask>
    <path fill="#FFF" d="M54.8053019,11.6809143 C49.3883208,3.39977143 39.5562453,-0.240228571 29.9902075,0.485485714 C20.1111509,1.23462857 10.4013396,6.19577143 4.76926415,14.5626286 C-3.00583019,26.1117714 -1.10564151,43.3169143 9.23983019,52.6723429 C21.1656792,63.4569143 40.4647358,61.9597714 51.5137925,50.6603429 C60.7685094,40.5632 62.4015283,23.2929143 54.8053019,11.6809143" mask="url(#icon_nosoybean_line_w-b)"/>
    <path fill="#084D8A" d="M13.7698302,52.9329143 C2.55435849,45.3912 -0.68054717,28.8889143 6.11586792,17.2934857 C7.20435849,15.4357714 8.54756604,13.7272 10.0803962,12.1820571 C21.1826604,25.9946286 32.2837925,39.8083429 43.3849245,53.6214857 C34.3181321,58.7209143 22.6062453,58.8740571 13.7698302,52.9329143 M50.247566,10.0689143 C59.9086981,20.2289143 58.8456792,38.8169143 49.6832264,48.8123429 C48.4254906,50.0986286 47.0466226,51.2437714 45.5805849,52.2529143 C45.5528491,52.2089143 45.5296415,52.1643429 45.4956792,52.1220571 C34.3260566,38.2249143 23.157566,24.3277714 11.9890755,10.4306286 C22.6560566,1.46262857 40.2507736,-0.4448 50.247566,10.0689143 M54.8053019,11.6809143 C49.3883208,3.39977143 39.5562453,-0.240228571 29.9902075,0.485485714 C20.1111509,1.23462857 10.4013396,6.19577143 4.76926415,14.5626286 C-3.00583019,26.1117714 -1.10564151,43.3169143 9.23983019,52.6723429 C21.1656792,63.4569143 40.4647358,61.9597714 51.5137925,50.6603429 C60.7685094,40.5632 62.4015283,23.2929143 54.8053019,11.6809143" mask="url(#icon_nosoybean_line_w-b)"/>
    <path fill="#084D8A" d="M35.9956415,31.989283 C35.4097925,32.0770189 35.0860189,32.7166415 35.0452642,33.2373962 C34.7362075,37.194566 32.1833774,39.8260755 28.1401698,39.8006038 C27.6896038,39.7977736 27.2458302,40.0485283 27.0228113,40.4419245 C25.2494151,43.568717 19.6445094,46.2206038 16.083566,44.7319245 C13.3716792,43.598717 14.9780943,40.1758868 16.1526226,38.529283 C17.5026226,36.6364528 19.487717,35.5977736 21.6714906,34.9638113 C22.0943208,34.8409811 22.4713019,34.4985283 22.5754528,34.0598491 C23.3118679,30.9528679 25.7571509,28.8896604 28.9988491,29.0679623 C29.7126226,29.1075849 30.2718679,28.4424906 30.2928113,27.774 C30.4637547,22.2953208 35.448283,22.8098491 38.4284717,19.6326792 C38.5365849,19.5172075 38.6299811,19.3915472 38.733,19.2721132 C40.4752642,23.7806038 42.1394151,31.0711698 35.9956415,31.989283 M40.4560189,16.6921132 C41.3514906,14.8875849 41.8303585,12.8775849 41.9169623,10.8636226 C41.9888491,9.19777358 39.4003585,9.20173585 39.3284717,10.8636226 C39.228283,13.1872075 38.4839434,15.4281509 37.0184717,17.2547547 C35.6141321,19.0055094 33.8005472,19.4079623 31.9394151,20.408717 C29.4562075,21.743434 28.1797925,23.888717 27.813,26.5026792 C24.2362075,26.7890943 21.3465849,29.2615472 20.2671509,32.7019245 C17.5122453,33.6313585 15.0873396,35.2241887 13.5562075,37.7838113 C12.137717,40.1572075 10.8975283,43.8273962 13.1497925,46.0609811 C15.2062075,48.1009811 19.113,47.738717 21.6731887,47.0843774 C24.5158302,46.3575849 27.2033774,44.8077736 28.8562075,42.3619245 C33.5967736,42.0936226 36.7614906,38.8728679 37.5046981,34.2981509 C40.3467736,33.4649434 42.1433774,30.6981509 42.7858302,27.8583396 C43.6626226,23.9821132 42.0658302,20.1721132 40.4560189,16.6921132"/>
    <path fill="#084D8A" d="M40.9269057 17.2263962C40.3665283 16.3790377 40.0574717 15.1365849 38.7844528 15.5758302 37.8674717 15.8922453 37.0631321 16.4011132 36.1133208 16.5471509 36.1999245 16.4543208 36.2740755 16.3043208 36.4421887 16.1248868 36.6952075 15.8543208 36.9906792 15.6239434 37.2980377 15.4207358 37.9144528 15.0131887 38.7221887 14.6203585 39.4778491 14.823566 40.4140755 15.0760189 41.0604906 16.0790377 41.3004906 16.9552642 41.3531321 17.1488491 41.4499245 17.418283 41.4250189 17.6243208 41.3723774 18.0652642 41.1708679 17.5948868 40.9269057 17.2263962M41.6242642 14.012434C39.836717 12.3737547 37.5691698 12.8305472 35.7912453 14.2343208 34.6404906 15.1422453 32.7533208 17.8218679 35.2252075 18.4094151 35.2982264 18.4269623 35.3689811 18.4354528 35.4363396 18.437717 35.4482264 18.438283 35.4589811 18.4416792 35.4708679 18.4422453 36.7495472 18.4943208 37.8935094 18.0063962 39.0210566 17.4918679 39.2101132 17.8258302 39.4286038 18.3171509 39.5548302 18.4869623 39.8389811 18.8690377 40.1791698 19.2069623 40.6048302 19.4237547 41.3242642 19.7916792 42.2344528 19.8471509 42.8236981 19.2120566 44.1170943 17.8196038 42.7342642 15.0301698 41.6242642 14.012434M33.7027358 28.8545094C33.2136792 28.2873396 33.5957547 27.1269623 33.9116038 26.5745094 34.3038679 25.8896038 35.1110377 25.4084717 35.8774528 25.2488491 37.0910377 24.9958302 37.0457547 26.7409245 36.6489623 27.4931887 36.1831132 28.172434 34.5466981 29.8337547 33.7027358 28.8545094M36.9982075 23.4499811C35.3329245 22.9252642 33.1276415 24.2005472 32.3131132 25.6399811 31.5104717 27.0584717 31.2461321 29.2162075 32.6142453 30.3856415 34.4578302 31.9603585 36.8980189 30.2299811 38.0889623 28.6445094 38.1472642 28.5833774 38.2021698 28.5148868 38.2474528 28.428283 38.310283 28.3371509 38.3470755 28.247717 38.3731132 28.1594151 39.0393396 26.5886604 38.8672642 24.0380943 36.9982075 23.4499811M26.9384717 35.3009434C26.6322453 34.3250943 27.0901698 33.6509434 27.9641321 33.1330189 28.6722453 32.7135849 30.5973396 31.8367925 31.0965849 32.9298113 31.9326226 34.7603774 28.1062075 37.0907547 26.9384717 35.3009434M27.5243208 31.2809434C25.7028113 32.1424528 24.4043208 33.8932075 25.1979057 35.9445283 25.2199811 36.0220755 25.2499811 36.1007547 25.2963962 36.18 27.572434 40.0579245 34.4163962 36.1726415 32.8094151 32.2058491 31.9207358 30.0124528 29.237717 30.4709434 27.5243208 31.2809434M21.6567736 40.3662453C21.2588491 40.5620943 20.028283 40.9079434 19.7837547 40.4205849 19.4565849 39.7662453 20.4216792 38.7519057 20.8909245 38.4745472 21.4705472 38.1320943 22.7713019 37.9594528 23.0384717 38.742283 22.9490377 39.4294528 22.2414906 40.0781321 21.6567736 40.3662453M20.6531887 36.5534151C19.023 37.1347358 17.6780943 38.9041698 17.9350755 40.6888868 18.1971509 42.5098302 20.2733774 42.6960566 21.7218679 42.3111509 23.3271509 41.8843585 24.8554528 40.3441698 24.9069623 38.6330377 24.9109245 38.4926604 24.8871509 38.3698302 24.8452642 38.2628491 24.4716792 36.4911509 22.1526226 36.0185094 20.6531887 36.5534151"/>
  </g>
</svg>
