<svg xmlns="http://www.w3.org/2000/svg" xmlns:xlink="http://www.w3.org/1999/xlink" width="60" height="60" viewBox="0 0 60 60">
  <defs>
    <polygon id="icon_no-soybean_solid-a" points="0 0 60 0 60 60 0 60"/>
    <path id="icon_no-soybean_solid-c" d="M32.6028,0 C31.8036,0 31.0062,0.03 30.2094,0.0894 L30.2094,0.0894 C19.7466,0.888 10.2576,6.1902 4.824,14.2758 L4.824,14.2758 C-3.0756,26.0268 -1.0608,43.2318 9.3138,52.6302 L9.3138,52.6302 C14.5614,57.3822 21.57,60 29.0478,60 L29.0478,60 C37.68,60 45.9786,56.574 51.8088,50.6016 L51.8088,50.6016 C61.2852,40.2462 62.7396,22.9974 55.1208,11.3364 L55.1208,11.3364 C50.4852,4.2384 42.0678,0 32.6028,0 Z"/>
  </defs>
  <g fill="none" fill-rule="evenodd">
    <mask id="icon_no-soybean_solid-b" fill="#fff">
      <use xlink:href="#icon_no-soybean_solid-a"/>
    </mask>
    <path fill="#084D8A" d="M29.04762,60 C21.56982,60 14.56122,57.3822 9.31362,52.6302 C-1.06098,43.2318 -3.07578,26.0268 4.82382,14.2758 C10.25742,6.1902 19.74642,0.888 30.20922,0.0894 C31.00662,0.03 31.80402,0 32.60322,0 C42.06762,0 50.48502,4.2384 55.12122,11.3364 C62.73942,22.998 61.28502,40.2462 51.80922,50.6016 C45.97902,56.5734 37.68042,60 29.04762,60" mask="url(#icon_no-soybean_solid-b)"/>
    <mask id="icon_no-soybean_solid-d" fill="#fff">
      <use xlink:href="#icon_no-soybean_solid-c"/>
    </mask>
    <polygon fill="#FEFEFE" points="46.222 56.239 7.702 7.378 9.296 6.122 47.816 54.982" mask="url(#icon_no-soybean_solid-d)"/>
    <g fill="#FEFEFE" transform="translate(12 9)">
      <path d="M16.77636,19.47216 C13.60356,19.47216 11.05416,21.58356 10.28136,24.85416 C10.21176,25.14576 9.94356,25.41036 9.61416,25.50696 C6.96276,26.27916 5.06196,27.51156 3.80436,29.27796 C3.44676,29.77836 1.69116,32.38596 2.27076,34.41756 C2.49576,35.20956 3.04116,35.79276 3.89196,36.14736 C4.62336,36.45576 5.45736,36.61116 6.36816,36.61116 C9.83316,36.61116 13.92096,34.37136 15.47976,31.62096 C15.63876,31.33896 15.96276,31.15356 16.28976,31.15356 C20.54196,31.15356 23.34936,28.45956 23.68896,24.12816 C23.71476,23.77356 23.93676,23.24976 24.34536,23.18676 C26.15556,22.91856 27.46716,22.10376 28.24476,20.76456 C30.03696,17.68296 28.49436,12.53316 27.41556,9.73596 L27.19416,9.16296 L26.49936,9.98496 C25.45716,11.09796 24.14316,11.75796 22.87476,12.39396 C20.59656,13.53696 18.24036,14.72016 18.12336,18.52116 C18.10836,18.97536 17.73876,19.48536 17.23296,19.48536 L16.77636,19.47216 Z M5.80476,38.36436 C3.79416,38.36436 2.28036,37.87356 1.30476,36.90276 C-1.19724,34.42116 1.03176,30.16236 1.77396,28.92036 C3.15396,26.61036 5.38596,24.92016 8.40516,23.89956 C9.70536,20.25096 12.59196,17.87196 15.99516,17.60016 L16.28676,17.57676 L16.32816,17.28516 C16.70736,14.57436 18.05556,12.57636 20.33676,11.34696 C20.84436,11.07516 21.34896,10.84656 21.84396,10.62456 C23.22036,9.99816 24.52236,9.40836 25.61556,8.04276 C27.09816,6.19416 27.93756,3.86736 28.04616,1.31616 C28.07256,0.67956 28.57236,0.39456 29.05416,0.39456 C29.33016,0.39456 29.58156,0.49056 29.74176,0.65976 C29.89056,0.81576 29.96076,1.02396 29.94876,1.28256 C29.86116,3.33696 29.36016,5.34216 28.50096,7.07856 C30.21636,11.12136 31.68876,14.77656 30.84036,18.53796 C30.28176,21.01656 28.64136,23.96916 25.72356,24.82716 L25.50156,24.89016 L25.46496,25.11936 C24.71376,29.74536 21.47316,32.77716 17.00676,33.02916 C15.22656,35.40876 12.70656,37.06176 9.62796,37.85076 C8.71416,38.08596 7.31016,38.36436 5.80476,38.36436 L5.80476,38.36436 Z"/>
      <path d="M27.6279,6.3762 C28.0629,6.3762 28.3113,6.7668 28.6665,7.4136 C28.7739,7.6092 28.8837,7.8078 29.0007,7.9866 C29.3181,8.5068 29.4591,8.739 29.7321,8.739 L30.0579,8.739 L30.1773,8.232 C30.2073,7.9896 30.1323,7.7316 30.0729,7.5228 C29.7867,6.4854 29.0805,5.2956 27.9291,4.9812 C27.7587,4.9344 27.5799,4.9146 27.3957,4.9146 C26.7969,4.9146 26.1483,5.1504 25.4127,5.6406 C25.0407,5.8824 24.7341,6.1374 24.4779,6.4092 C24.3621,6.5352 24.2841,6.6444 24.2175,6.7374 L23.5179,7.506 L24.4659,7.4532 C25.1331,7.3506 25.7265,7.0884 26.3025,6.8334 C26.6121,6.6978 26.9229,6.5616 27.2487,6.4458 C27.3879,6.3996 27.5157,6.3762 27.6279,6.3762 L27.6279,6.3762 Z M30.0633,9.9354 C29.7663,9.9354 29.4489,9.852 29.1465,9.6966 C28.8075,9.5244 28.4997,9.2496 28.2051,8.8482 C28.1373,8.7588 28.0425,8.5632 27.9405,8.358 L27.5217,7.5792 L27.2157,7.7184 C26.0937,8.235 25.0749,8.6628 23.9481,8.6628 L23.5905,8.6328 C22.7751,8.4408 22.6893,8.043 22.6599,7.914 C22.4757,7.0752 23.4963,5.664 24.3093,5.0244 C25.2945,4.242 26.3871,3.8112 27.3831,3.8112 C28.2663,3.8112 29.0703,4.1394 29.7681,4.779 C30.5151,5.4648 31.3503,6.966 31.3995,8.1954 C31.4229,8.7654 31.2789,9.2226 30.9693,9.5574 C30.7383,9.8094 30.4323,9.9354 30.0633,9.9354 L30.0633,9.9354 Z M24.0951,15.6018 C23.1363,15.801 22.2771,16.3836 21.8523,17.1264 C21.4467,17.8386 21.0663,19.1574 21.6819,19.8702 C21.9249,20.1552 22.2477,20.304 22.6137,20.304 C23.6505,20.304 24.8415,19.0584 25.2555,18.4548 C25.6059,17.7924 25.7073,16.7118 25.3365,16.0956 C25.1313,15.7542 24.7983,15.5688 24.3999,15.5688 L24.3639,15.5688 L24.0951,15.6018 Z M22.5189,21.4572 C21.9909,21.4572 21.5097,21.2754 21.0879,20.9136 C19.8933,19.89 20.0703,17.9382 20.8611,16.5396 C21.5379,15.3396 23.1609,14.3688 24.4809,14.3688 C24.7359,14.3688 24.9771,14.4018 25.2009,14.475 C25.7433,14.6442 26.1483,15.015 26.4087,15.5754 C26.8137,16.4532 26.7987,17.7726 26.3721,18.7794 L26.1273,19.2006 C25.2837,20.3238 23.8407,21.4572 22.5189,21.4572 L22.5189,21.4572 Z M18.3387,22.8786 C17.3271,22.8786 16.1577,23.5452 15.9327,23.6772 C14.7957,24.3504 14.3907,25.2354 14.7267,26.3088 C15.1143,26.9286 15.6849,27.2202 16.3779,27.2202 C17.4813,27.2202 18.7899,26.481 19.4199,25.5 C19.8237,24.8706 19.9017,24.2076 19.6389,23.631 C19.4829,23.2896 19.1289,22.8786 18.3387,22.8786 L18.3387,22.8786 Z M16.2903,28.3632 C15.5061,28.3632 14.4237,28.1118 13.7205,26.9118 C12.8607,24.6918 14.3313,23.1438 15.8283,22.4352 C16.6983,22.0242 17.6463,21.7854 18.4293,21.7854 C19.5669,21.7854 20.3337,22.2558 20.7093,23.184 C21.2073,24.4164 20.7699,25.4766 20.3169,26.1528 C19.4415,27.4518 17.7861,28.3632 16.2915,28.3632 L16.2903,28.3632 Z M10.0779,28.7742 C9.6117,28.7742 9.0963,28.9068 8.7381,29.1186 C8.1885,29.4402 7.0041,30.6498 7.4685,31.5774 C7.5729,31.7868 7.8195,32.0352 8.4051,32.0352 C8.9559,32.0352 9.5913,31.8264 9.8631,31.6902 C10.5627,31.3458 11.3637,30.5898 11.4705,29.7516 C11.2773,29.0694 10.7757,28.7742 10.0779,28.7742 L10.0779,28.7742 Z M8.4879,33.1452 C7.7433,33.1452 6.4659,32.9496 6.2775,31.6374 C6.0309,29.9274 7.3977,28.3236 8.8041,27.8196 C9.1527,27.6972 9.5553,27.6312 9.9681,27.6312 C11.0157,27.6312 12.3297,28.065 12.5895086,29.2944 C12.5937,31.2132 11.0643,32.6214 9.6741,32.9892 C9.2889,33.0918 8.8785,33.1452 8.4879,33.1452 L8.4879,33.1452 Z"/>
    </g>
  </g>
</svg>
