<?xml version="1.0" encoding="UTF-8"?>
<svg width="115px" height="105px" viewBox="0 0 115 105" version="1.1" xmlns="http://www.w3.org/2000/svg" xmlns:xlink="http://www.w3.org/1999/xlink">
    <title>Icon_Top9</title>
    <defs>
        <rect id="path-1" x="0" y="0" width="115" height="105"></rect>
    </defs>
    <g id="Desktop" stroke="none" stroke-width="1" fill="none" fill-rule="evenodd">
        <g id="WAT_CrispsHero_Mega_v2" transform="translate(-1158.000000, 0.000000)">
            <g id="Icon_Top9" transform="translate(1158.000000, 0.000000)">
                <mask id="mask-2" fill="white">
                    <use xlink:href="#path-1"></use>
                </mask>
                <g id="Mask"></g>
                <g id="background" mask="url(#mask-2)" fill="#FFFFFF" stroke="#084D8A">
                    <g transform="translate(1.000000, -44.381000)" id="Fill-1">
                        <path d="M0.1375,4.239 C0.2355,22.625 1.0725,41.177 0.3715,59.535 C-0.8705,92.082 -1.0235,131.25 34.2855,144.706 C57.3155,153.482 91.1245,147.141 103.2135,124.54 C110.5185,110.881 112.2575,95.114 112.7635,79.571 C113.6195,53.188 111.8955,27.247 111.6595,0.881 L0.1845,0.881 C0.1365,2.003 0.1315,3.129 0.1375,4.239"></path>
                    </g>
                </g>
                <g id="Top9" mask="url(#mask-2)" fill="#084D8A">
                    <g transform="translate(25.100000, 22.500000)">
                        <path d="M5.21675236,59.2869264 L5.97656137,57.4088966 L4.24424068,58.4497987 L5.21675236,59.2869264 Z M5.58733742,63.5375523 C5.48537171,63.5617849 5.37682756,63.5353493 5.29788637,63.4681588 L4.15981746,62.4889397 C4.05346612,62.3975166 4.01728474,62.2477148 4.0699122,62.1155367 L4.39225542,61.3213669 L2.36719446,59.5788196 L1.63260277,60.0205146 C1.51199817,60.092111 1.3585014,60.0799947 1.25324647,59.9885716 L0.115177561,59.0093525 C0.0340435536,58.9410605 -0.00761985548,58.837521 0.00115138853,58.7317786 C0.011019038,58.6260361 0.0702249351,58.5313085 0.160130186,58.4784373 L7.08393093,54.3170316 C7.20343913,54.2443337 7.3569359,54.2575515 7.46438364,54.3500761 L8.76143134,55.4658792 C8.86887908,55.5573023 8.90506046,55.7082056 8.8513366,55.8381807 L5.81319695,63.3425896 C5.77372635,63.4395202 5.68930313,63.5122181 5.58733742,63.5375523 L5.58733742,63.5375523 Z" id="Fill-4"></path>
                        <path d="M13.0083581,65.8808489 L12.3340687,67.1376418 C12.248549,67.2962555 12.0500996,67.3557356 11.8911208,67.2698199 L7.80372114,65.0525331 C7.64474234,64.9666173 7.58663285,64.7661473 7.67215248,64.6075336 L11.3001583,57.8565396 C11.3867743,57.6968244 11.5841273,57.6384458 11.7431061,57.7243615 L12.991912,58.401774 C13.1508908,58.4887912 13.2111931,58.6870583 13.124577,58.845672 L10.3254538,64.0534873 L12.8767894,65.4380524 C13.0346718,65.5239681 13.0938777,65.7211337 13.0083581,65.8808489" id="Fill-6"></path>
                        <path d="M19.6670479,68.2494796 L19.2219073,69.6032031 C19.1659906,69.7750346 18.9806981,69.8686607 18.8096588,69.8113835 L14.4010123,68.3486131 C14.2299731,68.2913359 14.137875,68.1051852 14.1948881,67.9333537 L16.5883413,60.6536475 C16.6453544,60.4807145 16.8295505,60.3881899 17.0005898,60.4443655 L18.3491685,60.891568 C18.5191114,60.9499466 18.6123059,61.1349959 18.5552928,61.3068273 L16.7089459,66.9221916 L19.4598273,67.8353217 C19.6308666,67.8925988 19.724061,68.0776481 19.6670479,68.2494796" id="Fill-8"></path>
                        <path d="M24.1276641,64.5599495 L23.959914,65.5843294 L25.6823671,65.8674107 C25.8599848,65.8982523 25.979493,66.0656778 25.9509864,66.2441182 L25.7218377,67.6518145 C25.6933311,67.8302548 25.5244847,67.951418 25.346867,67.9227795 L23.6255104,67.6385967 L23.4577603,68.6651795 L26.2031597,69.1167879 C26.3807774,69.1454265 26.501382,69.3139535 26.4728755,69.4934953 L26.2426303,70.9000901 C26.2130273,71.0785305 26.0452773,71.1996937 25.8676596,71.1710551 L21.4009036,70.435264 C21.2221895,70.4055239 21.1015849,70.2369969 21.1311879,70.0585565 L22.3657404,62.4924645 C22.394247,62.3140241 22.561997,62.1928609 22.7396147,62.2214995 L27.2085635,62.9572906 C27.3861812,62.9859292 27.5056894,63.1555577 27.4771829,63.3339981 L27.2480341,64.7405928 C27.2173348,64.9190332 27.0506812,65.0412979 26.8730635,65.0115579 L24.1276641,64.5599495 Z" id="Fill-10"></path>
                        <path d="M32.3668225,66.3121899 C32.378883,65.729505 31.9172963,65.2481566 31.3372977,65.2360403 L30.3143514,65.2162135 L30.2737844,67.3277579 L31.2956343,67.3475846 C31.8767292,67.3585995 32.3558585,66.8948748 32.3668225,66.3121899 M34.3600877,71.3613915 C34.3030746,71.4726414 34.187952,71.5398319 34.0651546,71.5376815 L32.2867849,71.5034829 C32.1837228,71.50128 32.0883355,71.4506117 32.0280332,71.3668989 L30.6246342,69.4172727 L30.2343138,69.4106638 L30.2003252,71.1344859 C30.197036,71.3151292 30.0490213,71.4594236 29.8681144,71.4561191 L28.4482692,71.428582 C28.2673623,71.4252776 28.1237332,71.2743743 28.1281188,71.093731 L28.2761336,63.4218965 C28.2783264,63.2401517 28.4274375,63.0958573 28.607248,63.0991061 L31.305502,63.152033 C32.9895808,63.1850775 34.3995583,64.5222788 34.4412217,66.2141578 C34.4686319,67.359701 33.8721873,68.4303432 32.8865187,69.0053177 L34.3359668,71.0166271 C34.4072331,71.1179636 34.4171008,71.2501417 34.3600877,71.3613915" id="Fill-12"></path>
                        <path d="M42.7933099,65.6700249 L43.2132332,68.785021 C43.2241973,68.8665308 43.2033656,68.951345 43.1551237,69.017434 L42.9950485,69.2476442 C42.3426872,70.1750935 41.3372834,70.7875185 40.216757,70.9395232 L40.0643566,70.9604514 C37.8386534,71.2633595 35.7894716,69.6948466 35.4890565,67.4588345 L35.4682247,67.3090327 C35.1678096,65.0741221 36.7279947,63.015449 38.9536978,62.7125409 L39.1071946,62.6927142 C40.1147913,62.5572317 41.1366412,62.8039641 41.9721022,63.3855475 C42.0488506,63.4384187 42.0992852,63.5199285 42.1124421,63.6113517 C42.1266954,63.7038763 42.0992852,63.796401 42.0400793,63.8679974 L41.1256771,64.9694812 C41.022615,65.0961518 40.8439009,65.1236889 40.7057538,65.0388747 C40.3121443,64.7899393 39.8450755,64.6908058 39.3845852,64.7557933 L39.2321848,64.77562 C38.140165,64.9243203 37.3748739,65.934381 37.5217923,67.0314588 L37.542624,67.1801591 C37.6906387,68.2772369 38.6949461,69.0449711 39.786966,68.8973723 L39.9393664,68.8775456 C40.3625789,68.8213699 40.7561885,68.6308132 41.0609892,68.3312097 L40.9743732,67.6879431 L40.0621638,67.8113093 C39.8834497,67.8366434 39.7189889,67.7110743 39.694868,67.530431 L39.5040934,66.1172273 C39.4810689,65.9387869 39.6060591,65.7735643 39.7847732,65.7493317 L42.4260141,65.390248 C42.6047282,65.3660153 42.769189,65.4915845 42.7933099,65.6700249" id="Fill-14"></path>
                        <path d="M45.5643652,63.3605438 L45.8823228,64.3496763 L47.5444735,63.8088477 C47.7166092,63.7526721 47.9008053,63.8473997 47.9556256,64.0214341 L48.3930914,65.3784621 C48.449008,65.5513951 48.3547172,65.7364443 48.1836779,65.79262 L46.5215272,66.3323471 L46.8405812,67.322581 L49.4894969,66.4590177 C49.6605361,66.405045 49.8447322,66.4986711 49.9006489,66.6716041 L50.3381147,68.0297335 C50.392935,68.2026665 50.2997405,68.3866143 50.1276049,68.44279 L45.8165384,69.8449788 C45.6444028,69.900053 45.4602066,69.8064269 45.4053864,69.6323924 L43.0535966,62.331758 C42.9976799,62.158825 43.0919708,61.9737758 43.26301,61.9176001 L47.5740765,60.5176142 C47.7462121,60.4614385 47.9304082,60.5561661 47.9852285,60.7279976 L48.4226943,62.0861271 C48.478611,62.2579586 48.3843201,62.4430078 48.2132809,62.4991835 L45.5643652,63.3605438 Z" id="Fill-16"></path>
                        <path d="M53.9330091,57.3658285 C54.0163359,57.3900612 54.0865058,57.4473383 54.1281693,57.5244422 L57.7671391,64.2655229 C57.8526587,64.4241366 57.7934528,64.6235051 57.6355705,64.7094209 L56.1685799,65.5090981 C56.0600357,65.5685782 55.9273707,65.5597663 55.8275978,65.4903729 L52.3826917,63.0858338 L54.0985663,66.2636145 C54.1840859,66.4233296 54.1259764,66.6215967 53.9669976,66.7075124 L52.7203846,67.3882294 C52.5614058,67.4752466 52.3629564,67.414665 52.2774368,67.2560513 L48.6329849,60.5061588 C48.5463688,60.3475451 48.6055747,60.1470751 48.7634571,60.0611593 L50.2249657,59.265888 C50.3346062,59.2053064 50.4661749,59.2141183 50.5681406,59.2835118 L54.0218179,61.6957613 L52.3059433,58.5168791 C52.2204237,58.3571639 52.2785332,58.1588969 52.437512,58.0729811 L53.684125,57.3911627 C53.7608734,57.3504078 53.8507787,57.3426974 53.9330091,57.3658285" id="Fill-18"></path>
                        <path d="M62.7373645,57.4454658 L62.7461358,57.4553792 C63.1474202,57.942235 63.3392912,58.5722837 63.2746032,59.2034339 C63.1912764,59.9942993 62.8020525,60.7201771 62.1902582,61.2257581 L62.1803905,61.2334685 L61.9227352,61.4504608 C60.8241369,62.3701998 59.3045189,62.4065487 58.374767,61.5870448 C58.3122719,61.5297676 58.2760905,61.4471564 58.2782834,61.3623421 C58.2793798,61.2764264 58.317754,61.1949166 58.3824419,61.1398424 L59.5742347,60.1319847 C59.6531759,60.0703016 59.7573344,60.048272 59.8538181,60.0791135 C60.0292429,60.1286803 60.3230796,60.0791135 60.5938918,59.8511064 L60.8526435,59.6341141 C61.043418,59.4821093 61.1716975,59.262914 61.2089753,59.0205876 C61.2221321,58.9412808 61.2045896,58.8608725 61.159637,58.7958849 L61.1508658,58.7859716 C61.0686354,58.686838 60.8318118,58.6493876 60.5544212,58.7694493 L59.0501528,59.4248322 C57.9471689,59.9061806 56.7378336,59.6715645 56.0427125,58.8399443 C55.1502385,57.773708 55.3991225,56.0829304 56.5963973,55.0706668 L56.855149,54.852573 C57.9548437,53.9229207 59.477751,53.8832673 60.4118885,54.7071772 C60.47548,54.7633528 60.5116614,54.8470656 60.5094686,54.9329813 C60.5083721,55.0177956 60.469998,55.0982039 60.4042136,55.1543796 L59.2124208,56.1611357 C59.1345761,56.2250218 59.0304175,56.2448485 58.9339338,56.2151084 C58.7574126,56.1655417 58.4624795,56.2151084 58.1894745,56.44642 L57.9318192,56.6634123 C57.5732946,56.9652189 57.5129923,57.3606516 57.6292113,57.4994385 C57.7103453,57.5963691 57.9482653,57.634921 58.2256559,57.5137578 L59.7288278,56.8594764 C60.8318118,56.378128 62.0400506,56.6127441 62.7373645,57.4454658" id="Fill-20"></path>
                        <path d="M4.85384214,7.17297535 L5.54896323,8.4187535 C5.63667567,8.57626568 5.58075898,8.77563424 5.423973,8.86485443 L2.99433841,10.2317958 L3.50087775,11.1405199 L5.02378499,10.2813626 C5.18166738,10.1932439 5.38011678,10.2494195 5.47002203,10.4091347 L6.16295031,11.6527099 C6.25175915,11.8113235 6.19584247,12.0117936 6.03796008,12.0999123 L4.51395643,12.9579681 L5.87459566,15.3977547 C5.9623081,15.5552669 5.90639142,15.7557369 5.74850903,15.8449571 L4.50957081,16.5421963 C4.35168842,16.630315 4.15214262,16.5741394 4.06443018,16.4166272 L0.330073039,9.71850435 C0.242360599,9.56099217 0.298277279,9.36052213 0.455063266,9.27130194 L4.40979791,7.04630472 C4.5665839,6.95818602 4.7661297,7.01436169 4.85384214,7.17297535" id="Fill-22"></path>
                        <path d="M11.4868761,7.33114842 C11.267595,6.79252286 10.653608,6.53257269 10.1174657,6.75397092 L9.17126772,7.1427947 L9.96616171,9.09682691 L10.9123597,8.70690166 C11.4495984,8.48770638 11.7061572,7.86977399 11.4868761,7.33114842 M15.3067529,11.1720223 C15.2990781,11.29649 15.2201369,11.4033339 15.1061107,11.4506977 L13.460406,12.1270088 C13.3650188,12.1666622 13.257571,12.1578503 13.1698586,12.1060806 L11.1119055,10.8757232 L10.751188,11.0244235 L11.4002601,12.6182705 C11.4682372,12.7856961 11.3881996,12.9773542 11.221546,13.0456462 L9.90805222,13.5864748 C9.74030218,13.6547668 9.54952762,13.5754599 9.48155048,13.4080344 L6.59142558,6.30566703 C6.52344843,6.13934298 6.60348604,5.9476848 6.77013967,5.87939281 L9.266655,4.85391142 C10.8246472,4.21284786 12.6479696,4.87924554 13.3507655,6.41581541 C13.8287983,7.45671757 13.7027117,8.67495863 13.0251331,9.59690054 L15.1488705,10.8658099 C15.2552218,10.9296959 15.3166206,11.0475547 15.3067529,11.1720223" id="Fill-24"></path>
                        <path d="M16.6840575,4.46024111 L16.9614481,5.46259135 L18.6455269,4.99115629 C18.818759,4.94269101 18.9985695,5.045129 19.0468114,5.21916343 L19.4283605,6.59601815 C19.4766023,6.77115407 19.3746366,6.95179741 19.2003081,7.00136418 L17.5173257,7.46949478 L17.7947163,8.4729465 L20.4787169,7.72393754 C20.651949,7.67437077 20.8317595,7.77791024 20.8800014,7.95194468 L21.2615505,9.32769791 C21.3097923,9.50283383 21.2078266,9.68347717 21.0345945,9.73084097 L16.6654186,10.951285 C16.4921865,10.9997503 16.312376,10.8973123 16.2641342,10.7232779 L14.2171451,3.32681431 C14.1689033,3.15167839 14.270869,2.96993357 14.4451975,2.92256977 L18.8121806,1.70212575 C18.986509,1.65366046 19.1663196,1.75609845 19.2156578,1.93013289 L19.5950141,3.30588612 C19.6432559,3.48102204 19.5412902,3.66166538 19.3680582,3.71013066 L16.6840575,4.46024111 Z" id="Fill-26"></path>
                        <path d="M23.3738853,2.92950911 L23.5372497,3.95719348 L25.262992,3.6774166 C25.4406097,3.64877802 25.6072633,3.77104272 25.6357699,3.95058457 L25.8627258,5.35938232 C25.8912323,5.53782269 25.7706277,5.70634971 25.5908172,5.73498829 L23.8672678,6.01366368 L24.0317286,7.03914507 L26.7804172,6.5963486 C26.9591313,6.56771002 27.1268813,6.68887323 27.1542915,6.86731361 L27.380151,8.27721284 C27.409754,8.45675469 27.2880529,8.62528171 27.1093388,8.6528188 L22.6360044,9.37649364 C22.4583867,9.40513222 22.2906367,9.283969 22.2610337,9.10442715 L21.0484092,1.52842175 C21.0209991,1.34777842 21.1416037,1.1792514 21.3192214,1.1517143 L25.7936522,0.428039465 C25.9712699,0.399400887 26.1379236,0.520564102 26.1675265,0.700105957 L26.3933861,2.1089037 C26.4218926,2.28844556 26.3001916,2.45697258 26.1225739,2.48561115 L23.3738853,2.92950911 Z" id="Fill-28"></path>
                        <path d="M37.2406739,0.516819057 L37.1858536,1.94213906 C37.1781788,2.1227824 37.0279712,2.26377232 36.8481607,2.25716342 L34.0676764,2.14811653 L34.0282058,3.18681572 L35.7714905,3.25510772 C35.951301,3.26171662 36.0916409,3.41482287 36.0850625,3.5954662 L36.0302422,5.01968472 C36.0236638,5.20032806 35.8723598,5.34241947 35.6914529,5.33470908 L33.9481682,5.26641709 L33.839624,8.05867845 C33.834142,8.23932179 33.6817416,8.38031172 33.5019311,8.37370281 L32.0831824,8.31752714 C31.9033719,8.31091824 31.763032,8.15781199 31.7707068,7.97716866 L32.0645435,0.315247526 C32.0722183,0.134604188 32.2246187,-0.00638573545 32.4044292,0.000223167189 L36.9281983,0.176460571 C37.1080088,0.183069474 37.2483487,0.336175718 37.2406739,0.516819057" id="Fill-30"></path>
                        <path d="M42.8586557,4.1826672 C42.9584286,3.60879416 42.5746866,3.06135672 42.0045558,2.96332467 L40.9969591,2.78598578 L40.6373381,4.86558714 L41.6449348,5.04072306 C42.2150656,5.14205957 42.7588828,4.75654025 42.8586557,4.1826672 M44.0625089,9.47529674 C43.9890497,9.57553176 43.8662523,9.62509853 43.7445513,9.60417034 L41.9924953,9.29905933 C41.891626,9.28033411 41.80501,9.21534657 41.7578645,9.12392341 L40.6669411,6.98374044 L40.2821027,6.91654993 L39.9882661,8.61393642 C39.9575667,8.79347828 39.7887203,8.91243853 39.6111026,8.88159698 L38.2120892,8.63706758 C38.0344715,8.60622604 37.9149633,8.43549605 37.946759,8.25705568 L39.2547708,0.701978479 C39.2854701,0.523538108 39.455413,0.403476377 39.6319343,0.435419406 L42.2885248,0.900245559 C43.9473863,1.18883431 45.1380827,2.72650566 44.9209944,4.40296396 C44.7751725,5.53859373 44.0241347,6.50349351 42.9639106,6.92205735 L44.089919,9.13053231 C44.1469321,9.24178218 44.1359681,9.37506171 44.0625089,9.47529674" id="Fill-32"></path>
                        <path d="M52.1877508,7.80985327 C52.545179,6.71718137 51.9520236,5.53859373 50.8643894,5.17951002 C49.7767551,4.82152779 48.6036012,5.41522755 48.2472694,6.50900093 C47.8898412,7.60277432 48.4819002,8.78026047 49.5695345,9.13934418 C50.6571687,9.49622493 51.8292262,8.90252517 52.1877508,7.80985327 M54.1579915,8.4597287 C53.4431351,10.646174 51.0990201,11.8368779 48.9226552,11.1187105 C46.7462903,10.4005431 45.5621724,8.0455708 46.2759323,5.85912551 C46.9918851,3.67268022 49.3349037,2.48307774 51.512365,3.20014368 C53.6854407,3.92051407 54.8695587,6.27328341 54.1579915,8.4597287" id="Fill-34"></path>
                        <path d="M64.7771173,9.25984651 C64.8023347,9.34355928 64.7957562,9.43388095 64.7540928,9.51098481 L61.2159923,16.3247634 C61.1326654,16.4855801 60.934216,16.5472632 60.7752372,16.4635504 L59.5154673,15.8037616 C59.3553921,15.7200488 59.2939934,15.5217818 59.3773202,15.3609651 L60.44193,13.3100023 L58.5111599,15.0382304 C58.4091942,15.1285521 58.2633722,15.1472773 58.1427676,15.0833912 L56.6319209,14.2914244 C56.5113163,14.2297413 56.4422427,14.0986647 56.4586888,13.9631822 L56.7645859,11.3824057 L55.7010726,13.432267 C55.6177458,13.5930837 55.4203928,13.6547668 55.2592212,13.571054 L54.0005477,12.9101637 C53.8404725,12.826451 53.7790737,12.6292854 53.8624006,12.4684687 L57.4005011,5.65469012 C57.4849243,5.49497497 57.6811809,5.4321904 57.8412561,5.51700465 L59.2512336,6.25389729 C59.3707418,6.31778335 59.4409118,6.44885992 59.4244657,6.58434242 L58.7797792,12.006947 L62.8386724,8.37425356 C62.9406381,8.2828304 63.0875565,8.26630815 63.2070647,8.32799124 L64.6170421,9.06708685 C64.6937905,9.10674027 64.7519,9.17833671 64.7771173,9.25984651" id="Fill-36"></path>
                        <path d="M12.0222509,24.6009821 C12.0968065,24.675883 12.1384699,24.778321 12.1384699,24.8851649 L12.1384699,26.0637525 C12.1384699,26.2862522 11.9597558,26.4657941 11.7382819,26.4657941 L10.3633894,26.4657941 C10.3096656,26.4657941 10.2603273,26.4878238 10.2219531,26.5241727 C10.1846753,26.5627247 10.1638436,26.6144944 10.1638436,26.6673656 L10.1638436,34.2786185 C10.1638436,34.5000167 9.98512952,34.6795586 9.76365561,34.6795586 L8.58830892,34.6795586 C8.36793141,34.6795586 8.18921731,34.5000167 8.18921731,34.2786185 L8.18921731,26.6662641 C8.18921731,26.5561158 8.09931206,26.4657941 7.98857511,26.4657941 L6.61368261,26.4657941 C6.3933051,26.4657941 6.21459101,26.2862522 6.21459101,26.064854 L6.21459101,24.8851649 C6.21459101,24.6626652 6.3933051,24.4831233 6.61368261,24.4831233 L11.7382819,24.4831233 C11.8457297,24.4831233 11.946599,24.5260812 12.0222509,24.6009821" id="Fill-38"></path>
                        <path d="M19.6553164,24.8849446 L19.6553164,34.2794997 C19.6553164,34.5008979 19.4766023,34.6815413 19.2562248,34.6815413 L18.0797817,34.6815413 C17.8594042,34.6815413 17.6806901,34.5008979 17.6806901,34.2794997 L17.6806901,30.7712739 C17.6806901,30.660024 17.5907848,30.5708038 17.4811443,30.5708038 L16.0119609,30.5708038 C15.901224,30.5708038 15.8124151,30.660024 15.8124151,30.7712739 L15.8124151,34.2728908 C15.8124151,34.4953905 15.633701,34.6749324 15.4122271,34.6749324 L14.2379768,34.6749324 C14.0165029,34.6749324 13.8377888,34.4953905 13.8377888,34.2728908 L13.8377888,24.8849446 C13.8377888,24.6624449 14.0165029,24.482903 14.2379768,24.482903 L15.4122271,24.482903 C15.633701,24.482903 15.8124151,24.6624449 15.8124151,24.8849446 L15.8124151,28.38546 C15.8124151,28.4967099 15.9023204,28.5859301 16.0119609,28.5859301 L17.4822407,28.5859301 C17.5918813,28.5859301 17.6806901,28.4967099 17.6806901,28.38546 L17.6806901,24.8849446 C17.6806901,24.6624449 17.8594042,24.482903 18.0808781,24.482903 L19.2562248,24.482903 C19.4766023,24.482903 19.6553164,24.6624449 19.6553164,24.8849446" id="Fill-40"></path>
                        <path d="M23.5729925,26.5242829 C23.5357148,26.5628348 23.5137866,26.6146045 23.5137866,26.6674758 L23.5137866,28.3901964 C23.5137866,28.5014463 23.6036919,28.5917679 23.7144289,28.5917679 L25.4072789,28.5917679 C25.5136303,28.5917679 25.6144996,28.6336243 25.6901516,28.7085252 C25.7647071,28.7845276 25.807467,28.8869656 25.807467,28.992708 L25.807467,30.1734986 C25.807467,30.3948969 25.6287529,30.5755402 25.4072789,30.5755402 L23.7144289,30.5755402 C23.6618014,30.5755402 23.6102703,30.5964684 23.5729925,30.6328174 C23.5357148,30.6724708 23.5148831,30.723139 23.5148831,30.7760102 L23.5148831,32.4998324 C23.5148831,32.6099807 23.6036919,32.7003024 23.7144289,32.7003024 L25.9719278,32.7003024 C26.1923053,32.7003024 26.3710194,32.8798443 26.3710194,33.102344 L26.3710194,34.2820331 C26.3710194,34.5034313 26.1923053,34.6840747 25.9719278,34.6840747 L21.9404448,34.6840747 C21.8340934,34.6840747 21.7321277,34.6411168 21.6575721,34.5662159 C21.5830166,34.4902135 21.5402567,34.388877 21.5402567,34.2820331 L21.5402567,24.885275 C21.5402567,24.6627753 21.7200672,24.482132 21.9404448,24.482132 L25.9719278,24.482132 C26.0771827,24.482132 26.1791484,24.5261913 26.253704,24.6010922 C26.329356,24.6759931 26.3721158,24.7773296 26.3721158,24.885275 L26.3721158,26.0638627 C26.3721158,26.2863624 26.1923053,26.4659042 25.9719278,26.4659042 L23.7144289,26.4659042 C23.6618014,26.4659042 23.6102703,26.4879339 23.5729925,26.5242829" id="Fill-42"></path>
                        <path d="M12.2020614,36.4204537 C12.276617,36.4953546 12.3182804,36.5988941 12.3182804,36.7046365 L12.3182804,37.8843256 C12.3182804,38.1068254 12.1395663,38.2852657 11.9180924,38.2852657 L10.5431999,38.2852657 C10.4894761,38.2852657 10.4401378,38.3072954 10.4017636,38.3447458 C10.3644858,38.3821963 10.3436541,38.433966 10.3436541,38.4879387 L10.3436541,46.0991916 C10.3436541,46.3205899 10.16494,46.4990302 9.94346612,46.5001317 L8.76811942,46.5001317 C8.54774191,46.4990302 8.36902782,46.3205899 8.36902782,46.0991916 L8.36902782,38.4868373 C8.36902782,38.3755874 8.27912256,38.2852657 8.16838561,38.2852657 L6.79349311,38.2852657 C6.5731156,38.2852657 6.39440151,38.1068254 6.39440151,37.8854271 L6.39440151,36.7046365 C6.39440151,36.4832383 6.5731156,36.3025949 6.79349311,36.3025949 L11.9180924,36.3025949 C12.0255402,36.3025949 12.1264095,36.3455528 12.2020614,36.4204537" id="Fill-44"></path>
                        <path d="M17.2751297,41.4008126 C17.2751297,40.6804422 17.2521052,39.9512599 17.2071526,39.2308895 C17.1709712,38.6988729 16.7291198,38.284715 16.1984595,38.2858143 L16.0811441,38.2858143 C15.5417126,38.2858143 15.096572,38.7120907 15.0702582,39.2540207 C15.0351733,39.9655792 15.0176308,40.6892541 15.0176308,41.4008126 C15.0176308,42.1123711 15.0351733,42.8360459 15.0702582,43.5476045 C15.096572,44.0895345 15.5417126,44.5158174 16.0811441,44.5158174 L16.1984595,44.5158174 C16.7291198,44.5180117 17.1709712,44.1038538 17.2071526,43.5718371 C17.2521052,42.8525682 17.2751297,42.121183 17.2751297,41.4008126 M19.2486596,41.4008126 C19.2486596,42.1630393 19.2245387,42.9351795 19.1773932,43.6952033 C19.0765239,45.2736295 17.7718014,46.499581 16.1984595,46.5006832 L16.0811441,46.5006832 C14.4880669,46.5017839 13.1745731,45.2449909 13.0978247,43.6456365 C13.0616434,42.902135 13.0441009,42.1476186 13.0441009,41.4008126 C13.0441009,40.6562095 13.0616434,39.9016932 13.0978247,39.1570901 C13.1745731,37.5588372 14.4880669,36.3020442 16.0811441,36.3020442 L16.1984595,36.3020442 C17.7718014,36.3020442 19.0765239,37.5301986 19.1773932,39.1075234 C19.2245387,39.8686486 19.2486596,40.6396873 19.2486596,41.4008126" id="Fill-46"></path>
                        <path d="M24.787152,39.8743764 C24.8025017,39.4381888 24.7641275,39.0031027 24.6731258,38.575727 C24.6259804,38.4038955 24.468098,38.2860368 24.2893839,38.2860368 L22.9408051,38.2860368 C22.8881777,38.2860368 22.8366466,38.306965 22.7993688,38.3455169 C22.7609946,38.3829673 22.7401629,38.4336356 22.7412593,38.4876083 L22.7412593,41.4858471 C22.7412593,41.5959955 22.8300682,41.6874187 22.9397087,41.6874187 L24.2784198,41.6874187 C24.4615196,41.6874187 24.6215948,41.5618495 24.6665474,41.3834091 C24.7290425,41.1366768 24.7860556,40.6883729 24.787152,39.8743764 M26.7606819,39.8600571 C26.7650675,40.4636702 26.7387538,41.0738922 26.6828371,41.6742009 C26.5830642,42.8065262 25.6357699,43.6733939 24.5042794,43.6700894 L22.9397087,43.6700894 C22.8300682,43.6700894 22.7412593,43.7604111 22.7412593,43.8705595 L22.7412593,46.0933537 C22.7412593,46.314752 22.5625452,46.4953953 22.3410713,46.4953953 L21.1657246,46.4953953 C20.9453471,46.4953953 20.766633,46.314752 20.766633,46.0933537 L20.766633,36.7043061 C20.766633,36.4829078 20.9453471,36.3022603 21.1657246,36.3022603 L24.5042794,36.3022603 C25.6368663,36.3000615 26.5841606,37.1691322 26.6828371,38.302559 C26.7299825,38.8180534 26.7573927,39.3434612 26.7606819,39.8600571" id="Fill-48"></path>
                        <path d="M45.6082214,23.5920229 C42.6117452,22.1446732 39.0111495,23.3596099 37.4948207,26.3325146 C35.9773955,29.3054193 37.0957291,32.9502291 40.0154569,34.5495835 C42.9351848,36.1478365 46.5916971,35.1168476 48.2560407,32.2243513 L48.5389133,31.6725079 C49.9050345,28.6258038 48.6036012,25.0404741 45.6082214,23.5920229 M54.8607874,35.8405225 L45.8757443,53.4444362 C45.6158962,53.9533217 45.0918144,54.2738534 44.5216835,54.2738534 L39.4935679,54.2738534 C38.9618112,54.2738534 38.4706216,53.997381 38.1943274,53.5424682 C37.9169368,53.0875554 37.8972015,52.5213928 38.1395071,52.0477547 L42.8200622,42.8745979 C35.448928,42.8096103 29.4581684,36.8825261 29.2794543,29.4805552 C29.1018366,22.0763813 34.8031452,15.8662157 42.1611225,15.4454489 C49.5201962,15.0235807 55.8848302,20.5431158 56.5459627,27.9208542 C56.7937503,30.6701577 56.206077,33.432679 54.8607874,35.8405225" id="Fill-50"></path>
                    </g>
                </g>
            </g>
        </g>
    </g>
</svg>
