<svg xmlns="http://www.w3.org/2000/svg" xmlns:xlink="http://www.w3.org/1999/xlink" width="60" height="60" viewBox="0 0 60 60">
  <defs>
    <polygon id="icon_no_shellfish_solid-a" points="0 0 60 0 60 60 0 60"/>
    <path id="icon_no_shellfish_solid-c" d="M31.467,0 C29.736,0 27.9858,0.1596 26.2632,0.4674 L26.2632,0.4674 C12.0396,3.024 1.2888,14.283 0.1194,27.849 L0.1194,27.849 C0.0396,28.776 0.0006,29.694 0,30.6036 L0,30.6036 L0,30.6222 C0.0018,42.6774 6.8682,53.0568 18.045,57.5244 L18.045,57.5244 C22.0956,59.1438 26.577,60 31.0038,60 L31.0038,60 L31.005,60 C39.7446,60 47.3442,56.82 52.3938,51.0576 L52.3938,51.0576 C57.4038,44.9664 59.9772,37.5012 60,30.0552 L60,30.0552 L60,29.8494 C59.982,24.1848 58.4874,18.5388 55.4664,13.5228 L55.4664,13.5228 C50.3652,5.055 41.3928,0 31.467,0 Z"/>
  </defs>
  <g fill="none" fill-rule="evenodd">
    <mask id="icon_no_shellfish_solid-b" fill="#fff">
      <use xlink:href="#icon_no_shellfish_solid-a"/>
    </mask>
    <path fill="#084D8A" d="M31.00356,60 C26.57736,60 22.09536,59.1438 18.04476,57.5238 C6.01956,52.7172 -1.01544,41.0664 0.11916,27.849 C1.28916,14.283 12.03936,3.024 26.26356,0.468 C27.98556,0.1596 29.73636,0 31.46676,0 C41.39256,0 50.36556,5.055 55.46616,13.5228 C62.49456,25.1934 61.26096,40.2762 52.39356,51.0576 C47.34396,56.82 39.74436,60 31.00536,60 L31.00356,60 Z" mask="url(#icon_no_shellfish_solid-b)"/>
    <mask id="icon_no_shellfish_solid-d" fill="#fff">
      <use xlink:href="#icon_no_shellfish_solid-c"/>
    </mask>
    <polygon fill="#FEFEFE" points="47.669 56.28 9.145 7.339 10.738 6.084 49.262 55.025" mask="url(#icon_no_shellfish_solid-d)"/>
    <g fill="#FEFEFE" transform="translate(6.6 10.8)">
      <path d="M26.6172,13.00608 C26.5908,15.74448 28.1778,17.68008 31.3326,18.75168 L31.947,18.95748 C35.4642,20.13948 38.244,21.07548 38.859,25.06848 C39.2808,27.79368 38.2836,30.09048 35.8926,31.88988 L34.7928,32.71608 L36.1572,32.54688 C36.4338,32.51028 36.7098,32.47728 36.9912,32.41788 C42.0342,31.41828 45.8298,26.80128 45.8166343,21.68268 C45.807,16.71048 42.4236,13.49748 37.1964,13.49748 C36.9798,13.49748 36.7596,13.50408 36.5394,13.51728 L35.406,13.59348 C34.4454,13.66668 33.2634,13.75608 32.064,13.75608 C29.7342,13.75608 28.143,13.41468 27.2016,12.71388 L26.6238,12.28608 L26.6172,13.00608 Z M27.6876,34.76748 C25.3842,34.76748 23.2068,33.99408 20.8344,32.33448 C20.277,31.94628 20.406,31.36548 20.457,31.19568 C20.5896,30.77808 20.9208,30.48588 21.2646,30.48588 C21.4218,30.48588 21.582,30.54228 21.7446,30.65808 C23.3892,31.80648 25.2306,32.87568 27.5568,32.89548 L28.641,32.90208 L27.7854,32.23848 C25.6392,30.56868 24.0822,28.11228 23.283,25.13148 C23.2026,24.83268 23.2452,24.57408 23.409,24.35808 C23.5962,24.11268 23.9316,23.95668 24.2646,23.95668 C24.4662,23.95668 24.9546,24.01968 25.1148,24.62028 C26.0796,28.20528 28.386,30.91368 31.4418,32.04588 C33.189,31.49808 35.1978,30.51888 36.2784,28.95888 C37.1616,27.68088 37.3986,26.29368 36.9618,24.93888 C36.4404,23.31888 34.9662,21.90828 33.1128,21.25488 C32.574,21.06228 32.0298,20.90268 31.488,20.74668 C30.1824,20.36508 28.9488,20.00628 27.8502,19.20648 C25.995,17.86548 24.9234,16.18248 24.6612,14.21088 C24.1986,10.71888 26.1552,6.32088 30.6426,0.76788 C30.8112,0.55848 31.0038,0.45228 31.2138,0.45228 C31.5396,0.45228 31.8888,0.71148 32.064,1.07628 C32.1684,1.29888 32.2908,1.73388 31.9368,2.17188 C30.1284,4.40928 28.7562,6.50028 27.8616,8.38248 L28.4142,8.83368 C31.2684,6.64608 35.2128,5.46108 38.694,4.41228 L40.0692,3.99768 C40.11,3.99408 40.152,3.99408 40.1916,3.99408 C40.8876,3.99408 41.1462,4.39548 41.2026,4.77408 C41.262,5.17608 41.1228,5.66388 40.554,5.83968 C39.996,6.01248 39.387,6.18828 38.7468,6.37428 C35.4228,7.33008 31.2864,8.52168 28.8708,10.85208 L28.4274,11.28048 L29.013,11.46588 C29.7126,11.68848 30.7866,11.79768 32.2944,11.79768 C33.105,11.79768 33.8628,11.76468 34.3638,11.74488 C34.3638,11.74488 35.625,11.68488 36.0666,11.65548 C36.69,11.61528 37.3122,11.57208 37.938,11.57208 C38.3466,11.57208 38.7552,11.58888 39.1704,11.63868 C41.28,11.88408 43.1502,12.69768 44.5764,13.98888 C48.3864,17.43768 48.3684,23.30928 46.3806,27.32928 C44.2116,31.71408 39.6384,34.54848 34.728,34.54848 L34.7268,34.54848 C34.4004,34.54848 34.071,34.53528 33.7416,34.51188 C32.9922,34.45248 32.2794,34.31928 31.5978,34.13688 C30.0834,34.56528 28.8726,34.76748 27.6876,34.76748 L27.6876,34.76748 Z"/>
      <path d="M44.47368 15.3264C44.44008 15.3264 44.40768 15.3264 44.37408 15.333 40.83828 15.8244 37.68768 19.6644 36.96468 22.941 36.92388 23.1264 36.95688 23.289 37.06428 23.4222 37.18668 23.5782 37.39848 23.6748 37.60188 23.6748 37.77588 23.6748 37.99548 23.6082 38.06688 23.286 38.71548 20.3454 41.46348 16.8864 44.77608 16.425 45.03588 16.392 45.15888 16.2456 45.14028 15.9936 45.11868 15.6714 44.85768 15.3264 44.47368 15.3264M42.00162 23.3757C40.16202 23.3757 38.54862 24.0195 37.45962 25.1883 37.24782 25.4139 37.28142 25.6395 37.34562 25.7919 37.44822 26.0277 37.68162 26.2005 37.90002 26.2005 38.02722 26.2005 38.14782 26.1405 38.25582 26.0211 39.15762 25.0587 40.48122 24.5271 41.98362 24.5271 43.18782 24.5271 44.38422 24.8691 45.35562 25.4901 45.45282 25.5501 45.54882 25.5831 45.64122 25.5831 45.88962 25.5831 46.08882 25.3509 46.15482 25.1253 46.19922 24.9687 46.22742 24.6765 45.91122 24.4743 44.79942 23.7675 43.41162 23.3757 42.00162 23.3757M37.65162 27.72744C37.10562 27.72744 37.09062 28.24524 37.09062 28.30464 37.09062 28.36164 37.10562 28.87884 37.63362 28.87884 39.97782 28.87884 41.44542 29.50284 42.12222 30.78444 42.21822 30.97044 42.35742 31.06344 42.53622 31.06344 42.74922 31.06344 42.98082 30.92724 43.09842 30.73104 43.20282 30.55884 43.20462 30.36924 43.10202 30.17724 41.97822 28.04244 39.20562 27.72744 37.65162 27.72744M31.12776 15.00762C31.02996 15.00762 30.93756 15.03102 30.84456 15.08082 30.68256 15.14022 30.59496 15.19662 30.51996 15.27642L30.43596 15.38622 30.33336 15.52182C30.27396 15.63162 30.23076 15.79122 30.23076 15.96342L30.27396 16.26582C30.31056 16.37862 30.38976 16.51482 30.51096 16.63722L30.66756 16.79682C30.75516 16.88982 30.84456 16.94922 30.94716 16.98282 31.09596 17.05602 31.19196 17.07882 31.29936 17.07882L31.38276 17.07882C31.49016 17.07882 31.58796 17.05602 31.67856 17.00622 31.83756 16.94922 31.92696 16.88982 32.00316 16.80702L32.19156 16.56462C32.24916 16.45482 32.29236 16.29882 32.29236 16.12302L32.27256 15.99702 32.24916 15.81762C32.21316 15.70782 32.13216 15.56562 32.01456 15.45222L31.85556 15.28662C31.76916 15.19662 31.68216 15.14022 31.57596 15.10422 31.42716 15.03102 31.33476 15.00762 31.23696 15.00762L31.12776 15.00762zM9.11352 29.01534C8.89212 29.01534 8.51112 29.13474 8.48832 29.57934 8.46672 29.99454 8.41212 30.45894 8.35392 30.94374 8.05092 33.51294 7.98672 35.37534 9.91452 35.92914 11.04132 36.25134 12.38952 36.40374 14.15472 36.40374 15.08832 36.40374 16.02492 36.36414 16.92612 36.32454 17.43972 36.30114 17.94252 36.28134 18.42672 36.26454L18.72192 36.26154C18.96852 36.26154 19.24812 36.26754 19.54752 36.27474 19.88832 36.28434 20.25552 36.29094 20.63412 36.29094 21.85092 36.29094 23.55132 36.20814 24.26952 35.49114 25.58112 34.18014 24.99912 30.45594 24.68652 28.45434 24.64512 28.18854 24.60672 27.94614 24.57672 27.73374 24.54252 27.48174 24.41172 27.36234 24.18192 27.36234 23.98332 27.36234 23.76672 27.46494 23.63052 27.62094 23.50632 27.76374 23.45712 27.93654 23.48532 28.12854L23.53152 28.44414C23.94852 31.25934 24.21492 33.96474 23.34132 34.68474 22.89492 35.04954 22.05072 35.21274 20.60592 35.21274 20.00112 35.21274 19.38372 35.18274 18.85752 35.15934 18.47832 35.13954 18.14772 35.12274 17.90592 35.12274 17.08212 35.13954 16.33392 35.15274 15.58632 35.15274 14.17812 35.15274 12.95712 35.10954 11.85192 35.01654 11.70432 35.00634 11.56212 34.99674 11.42652 34.99014 10.67592 34.95054 9.89832 34.90674 9.47892 34.01094 9.06912 33.14094 9.28392 31.87314 9.47472 30.75774 9.55092 30.30654 9.62352 29.87514 9.64152 29.53974 9.64992 29.38374 9.61152 29.26074 9.52872 29.17434 9.43452 29.07534 9.28212 29.01534 9.11352 29.01534"/>
      <path d="M16.7313,34.13028 C15.8859,34.13028 14.9559,33.85788 13.8891,33.30048 C10.5795,31.56768 7.7469,28.92888 5.0085,26.38008 L4.1169,25.55328 C1.4019,23.03688 -0.0993,20.80008 0.8079,17.40408 C1.6251,14.33388 3.7989,11.27028 6.7737,8.99628 C9.7677,6.70908 13.4121,5.45148 17.0391,5.45148 C20.5959,5.45148 23.8311,6.65328 26.3955,8.92668 C26.7531,9.24528 26.7279,9.57708 26.6439,9.79968 C26.4933,10.19808 26.0649,10.49988 25.6473,10.49988 C25.4193,10.49988 25.2075,10.41408 25.0161,10.24428 C22.8651,8.33568 20.1381,7.33008 17.1303,7.33008 C13.3857,7.33008 9.4527,8.93688 6.6087,11.62848 C4.3695,13.74648 1.1019,18.24708 3.0531,21.67968 C4.0407,23.41548 5.9439,24.94908 7.6227,26.30328 C8.1489,26.72508 8.6535,27.13308 9.1071,27.52848 L9.5373,27.90348 C11.4387,29.56968 14.0427,31.85628 16.5969,31.85328 C17.4411,31.85328 18.2199,31.59768 18.9141,31.09608 C19.7679,30.47568 20.5137,29.57628 21.2349,28.70628 C21.5133,28.36788 21.7845,28.04268 22.0521,27.74388 L23.2407,26.43588 C25.2357,24.24888 27.2991,21.98808 28.8969,19.49508 C29.1321,19.12728 29.4483,19.05048 29.6715,19.05048 C30.0555,19.05048 30.4443,19.27308 30.6195,19.59468 C30.7605,19.85388 30.7389,20.14308 30.5553,20.42808 C27.7785,24.76008 23.9283,28.79928 20.5287,32.17848 C19.1715,33.52968 18.0003,34.13028 16.7313,34.13028"/>
      <path d="M15.9303,32.7627 C14.3025,32.7627 13.5399,31.6077 12.6579,30.2697 C11.4993,28.5171 10.4487,26.8077 9.4413,25.0683 C7.5351,21.7887 5.7153,18.2973 3.8751,14.3973 C3.7545,14.1411 3.8241,13.9389 3.9033,13.8129 C4.0257,13.6167 4.2543,13.4805 4.4595,13.4805 C4.6281,13.4805 4.7523,13.5705 4.8399,13.7565 C7.5501,19.4955 10.3707,24.6303 13.2267,29.0217 L14.6997,31.3179 L13.8819,28.7133 C11.8815,22.3929 9.5871,16.0899 7.4061,10.2177 C7.3449,10.0551 7.3533,9.9159 7.4295,9.8061 C7.5285,9.6633 7.7319,9.5709 7.9503,9.5709 C8.0811,9.5709 8.4021,9.6105 8.5383,9.9723 C10.4823,15.2037 12.5355,20.8263 14.3751,26.4759 L15.5481,30.5349 L15.0867,26.3199 L14.3421,20.1561 C13.8189,15.8109 13.2963,11.4657 12.7551,7.1211 C12.7389,6.9753 12.7641,6.8589 12.8349,6.7791 C12.9141,6.6891 13.0551,6.6363 13.2183,6.6363 C13.5195,6.6363 13.8657,6.8157 13.9137,7.2141 C14.5143,12.0267 15.0921,16.8435 15.6705,21.6627 L15.9519,24.0129 L16.3023,30.2565 L16.6797,24.0063 C17.2431,18.3699 17.8941,12.7407 18.5913,7.1211 C18.6411,6.7227 18.9849,6.5403 19.2843,6.5403 C19.4493,6.5403 19.5903,6.5931 19.6695,6.6861 C19.7409,6.7659 19.7679,6.8823 19.7493,7.0281 C18.8193,14.5263 18.1329,20.7171 17.5887,26.5059 L17.0961,30.4953 L18.3045,26.6385 L19.1715,23.5551 C20.5617,18.6159 21.9513,13.6797 23.2269,8.7111 C23.3115,8.3787 23.5443,8.3127 23.7249,8.3127 C23.9301,8.3127 24.1389,8.4087 24.2565,8.5581 C24.3555,8.6877 24.3819,8.8473 24.3357,9.0261 C23.0901,13.8789 21.7347,18.6987 20.3781,23.5185 L19.9773,24.9423 L18.4857,28.9023 L20.6361,25.2447 C22.3551,22.6221 24.1701,19.8141 25.7967,16.8567 C25.8975,16.6743 26.0403,16.5813 26.2215,16.5813 C26.4405,16.5813 26.6733,16.7169 26.7879,16.9131 C26.8887,17.0823 26.8857,17.2647 26.7813,17.4573 C25.2771,20.1927 23.5695,22.8615 21.9477,25.3377 L21.2565,26.3997 C20.6457,27.3423 20.0337,28.2849 19.4049,29.2143 C19.1835,29.5395 18.9783,29.9049 18.7677,30.2763 C18.0483,31.5513 17.3667,32.7525 15.9471,32.7627 L15.9303,32.7627 Z"/>
    </g>
  </g>
</svg>
