<?xml version="1.0" encoding="UTF-8"?>
<svg width="29px" height="26px" viewBox="0 0 29 26" version="1.1" xmlns="http://www.w3.org/2000/svg" xmlns:xlink="http://www.w3.org/1999/xlink">
    <title>Icon_Cart</title>
    <defs>
        <polygon id="path-1" points="0.0846638889 0.34125 4.57966389 0.34125 4.57966389 4.81481481 0.0846638889 4.81481481"></polygon>
        <polygon id="path-3" points="0.0685527778 0.34125 4.56355278 0.34125 4.56355278 4.81481481 0.0685527778 4.81481481"></polygon>
    </defs>
    <g id="Desktop" stroke="none" stroke-width="1" fill="none" fill-rule="evenodd">
        <g id="WAT_Home_Final" transform="translate(-1368.000000, -69.000000)">
            <g id="Nav" transform="translate(57.000000, 68.000000)">
                <g id="Icon_Cart" transform="translate(1311.000000, 1.000000)">
                    <g id="Group-9">
                        <g id="Group-3" transform="translate(21.447917, 21.185185)">
                            <mask id="mask-2" fill="white">
                                <use xlink:href="#path-1"></use>
                            </mask>
                            <g id="Clip-2"></g>
                            <path d="M2.33216389,3.21007716 C1.98174722,3.21007716 1.695775,2.92479938 1.695775,2.57612654 C1.695775,2.22705247 1.98174722,1.94217593 2.33216389,1.94217593 C2.68258056,1.94217593 2.96855278,2.22705247 2.96855278,2.57612654 C2.96855278,2.92479938 2.68258056,3.21007716 2.33216389,3.21007716 M2.33216389,0.34125 C1.09160833,0.34125 0.0846638889,1.34433642 0.0846638889,2.58013889 C0.0846638889,3.81594136 1.09160833,4.81501543 2.33216389,4.81501543 C3.57271944,4.81501543 4.57966389,3.81192901 4.57966389,2.57612654 C4.57966389,1.34032407 3.56828889,0.34125 2.33216389,0.34125" id="Fill-1" fill="#FFFFFF" mask="url(#mask-2)"></path>
                        </g>
                        <g id="Group-6" transform="translate(10.814583, 21.185185)">
                            <mask id="mask-4" fill="white">
                                <use xlink:href="#path-3"></use>
                            </mask>
                            <g id="Clip-5"></g>
                            <path d="M2.31605278,3.21007716 C1.96563611,3.21007716 1.67966389,2.92479938 1.67966389,2.57612654 C1.67966389,2.22705247 1.96563611,1.94217593 2.31605278,1.94217593 C2.66646944,1.94217593 2.95244167,2.22705247 2.95244167,2.57612654 C2.95244167,2.92479938 2.66646944,3.21007716 2.31605278,3.21007716 M2.31605278,0.34125 C1.07549722,0.34125 0.0685527778,1.34433642 0.0685527778,2.58013889 C0.0685527778,3.81594136 1.07549722,4.81501543 2.31605278,4.81501543 C3.55660833,4.81501543 4.56355278,3.81192901 4.56355278,2.57612654 C4.56355278,1.34032407 3.55258056,0.34125 2.31605278,0.34125" id="Fill-4" fill="#FFFFFF" mask="url(#mask-4)"></path>
                        </g>
                        <path d="M27.1725948,5.25777778 L12.2797417,5.25777778 C11.8500502,5.25777778 11.4991939,5.62137333 11.4991939,6.06666667 C11.4991939,6.51155556 11.8500502,6.87555556 12.2797417,6.87555556 L26.5321553,6.87555556 L24.920324,14.56 L11.0851133,14.56 L7.57264791,0.606666667 C7.48327518,0.246306667 7.17105604,0 6.81590677,0 L0.961797855,0 C0.532106261,0 0.18125,0.363595556 0.18125,0.808888889 C0.18125,1.25377778 0.532106261,1.61777778 0.961797855,1.61777778 L6.21488492,1.61777778 L10.7459652,19.6155556 C10.8318255,19.9755111 11.1440446,20.2222222 11.4991939,20.2222222 L25.1587814,20.2222222 C25.5876924,20.2222222 25.9393292,19.8582222 25.9393292,19.4133333 C25.9393292,18.96804 25.5876924,18.6044444 25.1587814,18.6044444 L12.1002157,18.6044444 L11.4874857,16.1777778 L25.5490553,16.1777778 C25.9155225,16.1777778 26.2320347,15.9108444 26.3100894,15.5387556 L28.1908195,6.57222222 C28.2571661,6.24826222 28.1834043,5.91702222 27.9843646,5.66222222 C27.7849346,5.40297333 27.4887167,5.25777778 27.1725948,5.25777778" id="Fill-7" fill="#FFFFFF"></path>
                    </g>
                </g>
            </g>
        </g>
    </g>
</svg>