<?xml version="1.0" encoding="UTF-8"?>
<svg width="115px" height="105px" viewBox="0 0 115 105" version="1.1" xmlns="http://www.w3.org/2000/svg" xmlns:xlink="http://www.w3.org/1999/xlink">
    <title>Icon_Big 8</title>
    <defs>
        <rect id="path-1" x="0" y="0" width="115" height="105"></rect>
        <polygon id="path-3" points="0 0.3813 113 0.3813 113 147.9999 0 147.9999"></polygon>
    </defs>
    <g id="Desktop" stroke="none" stroke-width="1" fill="none" fill-rule="evenodd">
        <g id="WAT_Home_Final_MegaShop" transform="translate(-1158.000000, 0.000000)">
            <g id="Icon_Big-8" transform="translate(1158.000000, 0.000000)">
                <mask id="mask-2" fill="white">
                    <use xlink:href="#path-1"></use>
                </mask>
                <g id="Mask"></g>
                <g id="Big-8" mask="url(#mask-2)">
                    <g transform="translate(1.000000, -44.000000)">
                        <g id="Group-3" stroke-width="1" fill="none" transform="translate(0.000000, 0.619000)">
                            <mask id="mask-4" fill="white">
                                <use xlink:href="#path-3"></use>
                            </mask>
                            <g id="Clip-2"></g>
                            <path d="M0.1375,3.7393 C0.2355,22.1253 1.0725,40.6773 0.3715,59.0353 C-0.8705,91.5823 -1.0235,130.7503 34.2855,144.2063 C57.3155,152.9823 91.1245,146.6413 103.2135,124.0403 C110.5185,110.3813 112.2575,94.6143 112.7635,79.0713 C113.6195,52.6883 111.8955,26.7473 111.6595,0.3813 L0.1845,0.3813 C0.1365,1.5033 0.1315,2.6293 0.1375,3.7393" id="Fill-1" fill="#FFFFFF" mask="url(#mask-4)"></path>
                        </g>
                        <path d="M29.4168,125.7684 L30.1678,123.8964 L28.4408,124.9404 L29.4168,125.7684 Z M29.8078,129.9944 C29.7058,130.0194 29.5988,129.9964 29.5178,129.9264 L28.3748,128.9584 C28.2698,128.8674 28.2318,128.7194 28.2848,128.5884 L28.6028,127.7954 L26.5698,126.0714 L25.8388,126.5154 C25.7198,126.5864 25.5648,126.5754 25.4598,126.4854 L24.3168,125.5154 C24.2358,125.4484 24.1948,125.3444 24.2018,125.2414 C24.2108,125.1354 24.2688,125.0414 24.3578,124.9884 L31.2608,120.8154 C31.3798,120.7444 31.5308,120.7554 31.6398,120.8454 L32.9408,121.9514 C33.0488,122.0404 33.0858,122.1904 33.0328,122.3214 L30.0298,129.8004 C29.9908,129.8974 29.9078,129.9704 29.8078,129.9944 L29.8078,129.9944 Z" id="Fill-4" fill="#084D8A"></path>
                        <path d="M37.2029,132.2948 L36.5339,133.5458 C36.4489,133.7038 36.2519,133.7648 36.0929,133.6798 L32.0009,131.4878 C31.8419,131.4028 31.7819,131.2048 31.8669,131.0468 L35.4699,124.3188 C35.5549,124.1608 35.7529,124.1018 35.9109,124.1868 L37.1619,124.8558 C37.3209,124.9408 37.3809,125.1378 37.2959,125.2968 L34.5179,130.4858 L37.0699,131.8538 C37.2279,131.9388 37.2889,132.1368 37.2029,132.2948" id="Fill-6" fill="#084D8A"></path>
                        <path d="M43.8406,134.6307 L43.3996,135.9787 C43.3416,136.1487 43.1576,136.2427 42.9876,136.1857 L38.5776,134.7387 C38.4056,134.6837 38.3146,134.4997 38.3686,134.3277 L40.7486,127.0777 C40.8036,126.9077 40.9876,126.8147 41.1596,126.8717 L42.5076,127.3137 C42.6796,127.3697 42.7726,127.5547 42.7166,127.7247 L40.8816,133.3167 L43.6316,134.2197 C43.8046,134.2747 43.8966,134.4587 43.8406,134.6307" id="Fill-8" fill="#084D8A"></path>
                        <path d="M48.2898,130.9413 L48.1238,131.9633 L49.8488,132.2423 C50.0248,132.2723 50.1468,132.4403 50.1168,132.6173 L49.8898,134.0193 C49.8618,134.1993 49.6938,134.3203 49.5158,134.2913 L47.7908,134.0103 L47.6248,135.0333 L50.3748,135.4793 C50.5518,135.5063 50.6738,135.6743 50.6438,135.8543 L50.4188,137.2563 C50.3888,137.4353 50.2208,137.5553 50.0438,137.5283 L45.5668,136.8013 C45.3908,136.7713 45.2688,136.6063 45.2988,136.4263 L46.5208,128.8833 C46.5518,128.7063 46.7168,128.5853 46.8958,128.6143 L51.3708,129.3383 C51.5478,129.3683 51.6698,129.5363 51.6418,129.7123 L51.4138,131.1183 C51.3848,131.2953 51.2168,131.4173 51.0398,131.3863 L48.2898,130.9413 Z" id="Fill-10" fill="#084D8A"></path>
                        <path d="M56.4422,132.6786 C56.4512,132.0996 55.9892,131.6216 55.4102,131.6106 L54.3892,131.5916 L54.3502,133.6936 L55.3732,133.7116 C55.9532,133.7206 56.4302,133.2586 56.4422,132.6786 M58.4422,137.6996 C58.3842,137.8086 58.2702,137.8776 58.1462,137.8746 L56.3692,137.8426 C56.2672,137.8406 56.1712,137.7916 56.1112,137.7096 L54.7042,135.7716 L54.3132,135.7646 L54.2832,137.4796 C54.2812,137.6586 54.1312,137.8036 53.9522,137.7986 L52.5312,137.7746 C52.3522,137.7716 52.2072,137.6216 52.2122,137.4436 L52.3472,129.8096 C52.3492,129.6276 52.4992,129.4856 52.6782,129.488553 L55.3762,129.5356 C57.0602,129.5666 58.4702,130.8956 58.5132,132.5776 C58.5442,133.7186 57.9502,134.7826 56.9632,135.3576 L58.4172,137.3576 C58.4882,137.4566 58.4982,137.5896 58.4422,137.6996" id="Fill-12" fill="#084D8A"></path>
                        <path d="M66.908,132.0516 L67.324,135.1506 C67.336,135.2336 67.314,135.3166 67.268,135.3826 L67.105,135.6136 C66.455,136.5346 65.448,137.1436 64.328,137.2956 L64.175,137.3166 C61.949,137.6146 59.9,136.0546 59.601,133.8256 L59.581,133.6796 C59.279,131.4506 60.843,129.4036 63.068,129.1046 L63.222,129.0826 C64.229,128.9476 65.253,129.1966 66.087,129.7756 C66.163,129.8276 66.216,129.9086 66.227,130.0006 C66.241,130.0926 66.216,130.1846 66.156,130.2556 L65.241,131.3526 C65.137,131.4766 64.958,131.5036 64.82,131.4186 C64.427,131.1726 63.958,131.0726 63.498,131.1366 L63.346,131.1566 C62.255,131.3046 61.486,132.3086 61.634,133.4016 L61.654,133.5506 C61.802,134.6426 62.806,135.4076 63.898,135.2606 L64.053,135.2396 C64.475,135.1856 64.869,134.9966 65.175,134.6976 L65.087,134.0586 L64.175,134.1806 C63.995,134.2056 63.832,134.0786 63.806,133.9006 L63.618,132.4926 C63.595,132.3166 63.719,132.1506 63.898,132.1266 L66.54,131.7716 C66.72,131.7456 66.883,131.8716 66.908,132.0516" id="Fill-14" fill="#084D8A"></path>
                        <path d="M69.6365,129.7548 L69.9565,130.7408 L71.6185,130.2028 C71.7905,130.1458 71.9755,130.2398 72.0305,130.4118 L72.4695,131.7638 C72.5245,131.9368 72.4305,132.1198 72.2575,132.1758 L70.5955,132.7138 L70.9145,133.6998 L73.5665,132.8428 C73.7365,132.7848 73.9225,132.8788 73.9775,133.0518 L74.4135,134.4028 C74.4715,134.5758 74.3775,134.7598 74.2045,134.8158 L69.8925,136.2128 C69.7195,136.2688 69.5355,136.1738 69.4805,136.0038 L67.1235,128.7318 C67.0695,128.5598 67.1625,128.3748 67.3355,128.3198 L71.6485,126.9218 C71.8185,126.8668 72.0045,126.9608 72.0605,127.1338 L72.4965,128.4848 C72.5545,128.6578 72.4595,128.8418 72.2875,128.8978 L69.6365,129.7548 Z" id="Fill-16" fill="#084D8A"></path>
                        <path d="M77.9754,123.8202 C78.0584,123.8452 78.1294,123.9032 78.1684,123.9792 L81.7944,130.7072 C81.8794,130.8652 81.8204,131.0652 81.6614,131.1502 L80.1894,131.9432 C80.0814,132.0012 79.9514,131.9942 79.8494,131.9232 L76.4084,129.5152 L78.1164,132.6882 C78.2014,132.8462 78.1414,133.0452 77.9824,133.1302 L76.7324,133.8052 C76.5734,133.8902 76.3754,133.8312 76.2904,133.6732 L72.6604,126.9332 C72.5754,126.7752 72.6344,126.5772 72.7934,126.4922 L74.2574,125.7012 C74.3684,125.6432 74.4994,125.6502 74.6004,125.7212 L78.0514,128.1352 L76.3434,124.9642 C76.2584,124.8042 76.3184,124.6072 76.4764,124.5192 L77.7274,123.8452 C77.8034,123.8042 77.8924,123.7962 77.9754,123.8202" id="Fill-18" fill="#084D8A"></path>
                        <path d="M86.7557,123.9559 L86.7657,123.9659 C87.1647,124.4529 87.3537,125.0829 87.2867,125.7109 C87.2017,126.4969 86.8087,127.2189 86.1947,127.7179 L86.1857,127.7269 L85.9257,127.9399 C84.8217,128.8529 83.3027,128.8839 82.3757,128.0619 C82.3147,128.0049 82.2767,127.9219 82.2787,127.8369 C82.2817,127.7519 82.3207,127.6719 82.3857,127.6159 L83.5807,126.6189 C83.6607,126.5569 83.7647,126.5359 83.8607,126.5649 C84.0357,126.6159 84.3297,126.5679 84.6047,126.3429 L84.8637,126.1289 C85.0547,125.9769 85.1837,125.7589 85.2227,125.5179 C85.2357,125.4389 85.2177,125.3609 85.1717,125.2949 L85.1647,125.2849 C85.0817,125.1859 84.8457,125.1469 84.5677,125.2669 L83.0617,125.9129 C81.9557,126.3869 80.7457,126.1469 80.0547,125.3169 C79.1667,124.2509 79.4217,122.5699 80.6237,121.5649 L80.8837,121.3499 C81.9867,120.4299 83.5117,120.3949 84.4427,121.2209 C84.5047,121.2779 84.5417,121.3579 84.5397,121.4449 C84.5367,121.5309 84.4977,121.6109 84.4337,121.6639 L83.2377,122.6619 C83.1577,122.7269 83.0547,122.7449 82.9577,122.7149 C82.7807,122.6639 82.4857,122.7149 82.2127,122.9419 L81.9527,123.1579 C81.5947,123.4569 81.5317,123.8509 81.6477,123.9879 C81.7277,124.0849 81.9647,124.1269 82.2427,124.0069 L83.7507,123.3609 C84.8547,122.8879 86.0647,123.1259 86.7557,123.9559" id="Fill-20" fill="#084D8A"></path>
                        <path d="M28.8689,73.8495 L29.5659,75.0865 C29.6529,75.2455 29.5979,75.4435 29.4389,75.5335 L27.0139,76.8935 L27.5189,77.7965 L29.0419,76.9425 C29.1999,76.8545 29.3979,76.9105 29.4879,77.0665 L30.1809,78.3055 C30.2689,78.4615 30.2139,78.6615 30.0569,78.7485 L28.5329,79.6045 L29.8969,82.0305 C29.9839,82.1865 29.9299,82.3865 29.7699,82.4735 L28.5329,83.1695 C28.3749,83.2575 28.1779,83.2025 28.0879,83.0435 L24.3509,76.3855 C24.2619,76.2295 24.3189,76.0295 24.4749,75.9425 L28.4259,73.7235 C28.5819,73.6355 28.7819,73.6915 28.8689,73.8495" id="Fill-22" fill="#084D8A"></path>
                        <path d="M35.5525,73.9579 C35.3315,73.4219 34.7175,73.1649 34.1805,73.3859 L33.2355,73.7739 L34.0325,75.7169 L34.9785,75.3299 C35.5155,75.1089 35.7715,74.4959 35.5525,73.9579 M39.3785,77.7789 C39.3685,77.8999 39.2905,78.0089 39.1755,78.0579 L37.5305,78.7299 C37.4355,78.7699 37.3275,78.7629 37.2395,78.7099 L35.1805,77.4869 L34.8195,77.6369 L35.4695,79.2229 C35.5385,79.3909 35.4585,79.5809 35.2925,79.6499 L33.9775,80.1879 C33.8125,80.2579 33.6205,80.1769 33.5525,80.0119 L30.6535,72.9439 C30.5835,72.7759 30.6645,72.5849 30.8295,72.5189 L33.3265,71.4929 C34.8855,70.8539 36.7085,71.5169 37.4145,73.0449 C37.8935,74.0799 37.7715,75.2939 37.0925,76.2109 L39.2195,77.4739 C39.3245,77.5369 39.3875,77.6549 39.3785,77.7789" id="Fill-24" fill="#084D8A"></path>
                        <path d="M40.7898,71.0975 L41.0658,72.0955 L42.7508,71.6285 C42.9238,71.5805 43.1028,71.6815 43.1508,71.8565 L43.5298,73.2245 C43.5788,73.3995 43.4778,73.5775 43.3028,73.6265 L41.6198,74.0935 L41.8958,75.0915 L44.5788,74.3465 C44.7538,74.3005 44.9338,74.4015 44.9808,74.5745 L45.3598,75.9445 C45.4088,76.1185 45.3078,76.2985 45.1328,76.3465 L40.7678,77.5555 C40.5928,77.6045 40.4128,77.5005 40.3648,77.3275 L38.3248,69.9665 C38.2768,69.7915 38.3808,69.6125 38.5528,69.5645 L42.9218,68.3545 C43.0938,68.3065 43.2748,68.4095 43.3208,68.5825 L43.7008,69.9525 C43.7488,70.1245 43.6478,70.3065 43.4738,70.3525 L40.7898,71.0975 Z" id="Fill-26" fill="#084D8A"></path>
                        <path d="M47.4686,69.5643 L47.6346,70.5853 L49.3596,70.3063 C49.5356,70.2773 49.7036,70.3983 49.7336,70.5763 L49.9606,71.9783 C49.9896,72.1573 49.8686,72.3253 49.6906,72.3533 L47.9656,72.6333 L48.1306,73.6563 L50.8806,73.2103 C51.0606,73.1803 51.2286,73.3023 51.2556,73.4793 L51.4836,74.8843 C51.5126,75.0613 51.3916,75.2293 51.2136,75.2583 L46.7386,75.9833 C46.5606,76.0133 46.3936,75.8913 46.3636,75.7143 L45.1396,68.1703 C45.1126,67.9923 45.2326,67.8263 45.4106,67.7953 L49.8856,67.0693 C50.0646,67.0423 50.2306,67.1623 50.2596,67.3403 L50.4876,68.7433 C50.5176,68.9203 50.3956,69.0873 50.2166,69.1183 L47.4686,69.5643 Z" id="Fill-28" fill="#084D8A"></path>
                        <path d="M61.3504,67.1571 L61.2954,68.5781 C61.2884,68.7571 61.1374,68.8971 60.9574,68.8901 L58.1754,68.7821 L58.1344,69.8171 L59.8814,69.8861 C60.0614,69.8921 60.2014,70.0451 60.1944,70.2241 L60.1394,71.6421 C60.1324,71.8241 59.9804,71.9651 59.8014,71.9581 L58.0564,71.8901 L57.9484,74.6711 C57.9414,74.8491 57.7894,74.9921 57.6104,74.9851 L56.1894,74.9301 C56.0094,74.9241 55.8704,74.7711 55.8764,74.5901 L56.1704,66.9571 C56.1774,66.7771 56.3294,66.6371 56.5084,66.6441 L61.0364,66.8191 C61.2174,66.8261 61.3584,66.9771 61.3504,67.1571" id="Fill-30" fill="#084D8A"></path>
                        <path d="M67.0047,70.8241 C67.1037,70.2541 66.7217,69.7091 66.1497,69.6081 L65.1427,69.4331 L64.7807,71.5021 L65.7877,71.6791 C66.3597,71.7781 66.9027,71.3961 67.0047,70.8241 M68.2017,76.0941 C68.1307,76.1921 68.0067,76.2411 67.8847,76.2201 L66.1327,75.9141 C66.0317,75.8981 65.9467,75.8341 65.8987,75.7421 L64.8087,73.6101 L64.4247,73.5441 L64.1307,75.2331 C64.0987,75.4111 63.9307,75.5301 63.7537,75.4981 L62.3537,75.2551 C62.1767,75.2221 62.0567,75.0541 62.0887,74.8781 L63.4007,67.3571 C63.4337,67.1791 63.6017,67.0601 63.7787,67.0911 L66.4367,67.5541 C68.0947,67.8451 69.2847,69.3761 69.0667,71.0451 C68.9197,72.1761 68.1677,73.1371 67.1057,73.5511 L68.2327,75.7511 C68.2867,75.8611 68.2757,75.9921 68.2017,76.0941" id="Fill-32" fill="#084D8A"></path>
                        <path d="M76.3113,74.413 C76.6673,73.323 76.0723,72.15 74.9823,71.792 C73.8923,71.435 72.7193,72.031 72.3633,73.121 C72.0043,74.211 72.6003,75.386 73.6903,75.742 C74.7803,76.096 75.9523,75.503 76.3113,74.413 M78.2843,75.059 C77.5713,77.238 75.2263,78.428 73.0433,77.715 C70.8643,77.002 69.6753,74.657 70.3883,72.475 C71.1013,70.295 73.4463,69.106 75.6283,69.819 C77.8053,70.534 78.9943,72.877 78.2843,75.059" id="Fill-34" fill="#084D8A"></path>
                        <path d="M88.8982,75.871 C88.9232,75.953 88.9172,76.043 88.8762,76.119 L85.3372,82.901 C85.2542,83.062 85.0562,83.124 84.8962,83.042 L83.6352,82.384 C83.4772,82.299 83.4152,82.103 83.4982,81.942 L84.5622,79.901 L82.6332,81.621 C82.5322,81.713 82.3852,81.731 82.2632,81.667 L80.7522,80.878 C80.6332,80.816 80.5642,80.684 80.5812,80.552 L80.8862,77.983 L79.8222,80.022 C79.7392,80.183 79.5422,80.246 79.3802,80.163 L78.1212,79.506 C77.9612,79.421 77.9002,79.225 77.9822,79.064 L81.5212,72.282 C81.6062,72.121 81.8032,72.058 81.9622,72.143 L83.3722,72.88 C83.4942,72.941 83.5622,73.072 83.5462,73.206 L82.9002,78.604 L86.9612,74.988 C87.0612,74.898 87.2092,74.88 87.3282,74.941 L88.7382,75.678 C88.8162,75.719 88.8742,75.788 88.8982,75.871" id="Fill-36" fill="#084D8A"></path>
                        <path d="M35.7918,91.1571 C35.8648,91.2331 35.9068,91.3341 35.9068,91.4401 L35.9068,92.6151 C35.9068,92.8361 35.7298,93.0141 35.5088,93.0141 L34.1348,93.0141 C34.0808,93.0141 34.0308,93.0361 33.9918,93.0721 C33.9548,93.1111 33.9348,93.1621 33.9348,93.2151 L33.9348,100.7911 C33.9348,101.0111 33.7548,101.1901 33.5338,101.1901 L32.3588,101.1901 C32.1388,101.1901 31.9588,101.0111 31.9588,100.7911 L31.9588,93.2151 C31.9588,93.1041 31.8698,93.0141 31.7598,93.0141 L30.3848,93.0141 C30.1638,93.0141 29.9838,92.8361 29.9838,92.6151 L29.9838,91.4401 C29.9838,91.2191 30.1638,91.0401 30.3848,91.0401 L35.5088,91.0401 C35.6148,91.0401 35.7158,91.0841 35.7918,91.1571" id="Fill-38" fill="#084D8A"></path>
                        <path d="M43.7723,91.4403 L43.7723,100.7913 C43.7723,101.0113 43.5923,101.1903 43.3723,101.1903 L42.1973,101.1903 C41.9763,101.1903 41.7963,101.0113 41.7963,100.7913 L41.7963,97.2973 C41.7963,97.1873 41.7073,97.0983 41.5963,97.0983 L40.1273,97.0983 C40.0173,97.0983 39.9303,97.1873 39.9303,97.2973 L39.9303,100.7843 C39.9303,101.0043 39.7513,101.1833 39.5303,101.1833 L38.3533,101.1833 C38.1323,101.1833 37.9533,101.0043 37.9533,100.7843 L37.9533,91.4403 C37.9533,91.2193 38.1323,91.0403 38.3533,91.0403 L39.5303,91.0403 C39.7513,91.0403 39.9303,91.2193 39.9303,91.4403 L39.9303,94.9253 C39.9303,95.0363 40.0173,95.1263 40.1273,95.1263 L41.5993,95.1263 C41.7093,95.1263 41.7963,95.0363 41.7963,94.9253 L41.7963,91.4403 C41.7963,91.2193 41.9763,91.0403 42.1973,91.0403 L43.3723,91.0403 C43.5923,91.0403 43.7723,91.2193 43.7723,91.4403" id="Fill-40" fill="#084D8A"></path>
                        <path d="M48.0184,93.0721 C47.9814,93.1111 47.9604,93.1621 47.9604,93.2151 L47.9604,94.9301 C47.9604,95.0411 48.0504,95.1301 48.1614,95.1301 L49.8534,95.1301 C49.9584,95.1301 50.0604,95.1721 50.1384,95.2471 C50.2114,95.3211 50.2524,95.4251 50.2524,95.5301 L50.2524,96.7051 C50.2524,96.9261 50.0744,97.1051 49.8534,97.1051 L48.1614,97.1051 C48.1104,97.1051 48.0574,97.1261 48.0204,97.1631 C47.9814,97.1991 47.9624,97.2521 47.9624,97.3051 L47.9624,99.0201 C47.9624,99.1311 48.0504,99.2201 48.1614,99.2201 L50.4184,99.2201 C50.6394,99.2201 50.8194,99.3971 50.8194,99.6181 L50.8194,100.7931 C50.8194,101.0131 50.6394,101.1931 50.4184,101.1931 L46.3854,101.1931 C46.2804,101.1931 46.1794,101.1511 46.1054,101.0761 C46.0304,101.0021 45.9864,100.8981 45.9864,100.7931 L45.9864,91.4401 C45.9864,91.2191 46.1644,91.0401 46.3854,91.0401 L50.4184,91.0401 C50.5244,91.0401 50.6254,91.0841 50.7014,91.1571 C50.7774,91.2331 50.8194,91.3341 50.8194,91.4401 L50.8194,92.6151 C50.8194,92.8361 50.6394,93.0141 50.4184,93.0141 L48.1614,93.0141 C48.1084,93.0141 48.0574,93.0361 48.0184,93.0721" id="Fill-42" fill="#084D8A"></path>
                        <path d="M35.3553,110.8143 C35.4033,110.5003 35.4233,110.1803 35.4153,109.8583 C35.4053,109.5863 35.3773,109.3153 35.3363,109.0443 C35.3183,108.9453 35.2303,108.8723 35.1293,108.8743 L34.8173,108.8743 C34.7893,108.8773 34.7613,108.8773 34.7343,108.8773 L33.4283,108.8743 C33.3773,108.8743 33.3253,108.8943 33.2883,108.9333 C33.2493,108.9703 33.2303,109.0213 33.2303,109.0743 L33.2303,110.7923 C33.2303,110.9023 33.3183,110.9923 33.4283,110.9923 L35.1433,110.9923 C35.2473,110.9923 35.3363,110.9183 35.3523,110.8173 L35.3553,110.8143 Z M33.2303,106.6993 C33.2303,106.8093 33.3183,106.8993 33.4283,106.8993 L34.7593,106.8993 C34.8563,106.8853 34.9313,106.8093 34.9463,106.7123 C34.9823,106.4373 34.9963,106.1573 34.9923,105.8783 C34.9963,105.6513 34.9803,105.4233 34.9383,105.1983 C34.9273,105.1283 34.9143,105.0523 34.9023,104.9653 C34.8853,104.8623 34.7983,104.7863 34.6933,104.7863 L33.4283,104.7863 C33.3763,104.7863 33.3253,104.8073 33.2863,104.8433 C33.2493,104.8823 33.2283,104.9333 33.2283,104.9863 L33.2303,106.6993 Z M37.3043,111.1163 C37.1433,112.1823 36.2243,112.9713 35.1433,112.964346 L31.6533,112.964346 C31.5473,112.964346 31.4463,112.9223 31.3733,112.8463 C31.2963,112.7733 31.2533,112.6693 31.2533,112.5643 L31.2533,103.2113 C31.2533,102.9913 31.4323,102.8113 31.6533,102.8113 L34.6933,102.8113 C35.7783,102.8163 36.6983,103.6113 36.8563,104.6823 C36.8683,104.7563 36.8763,104.8163 36.8863,104.8743 C36.9463,105.2053 36.9733,105.5433 36.9663,105.8783 C36.9713,106.2553 36.9483,106.6343 36.8973,107.0073 C36.8763,107.1353 36.8493,107.2623 36.8083,107.3843 C36.7613,107.5153 36.7853,107.6583 36.8683,107.7663 C37.0883,108.0533 37.2353,108.3913 37.2893,108.7483 C37.3413,109.0943 37.3763,109.4443 37.3873,109.7953 C37.4013,110.2373 37.3743,110.6783 37.3043,111.1163 L37.3043,111.1163 Z" id="Fill-44" fill="#084D8A"></path>
                        <path d="M39.8611,102.8114 L41.0381,102.8114 C41.2581,102.8114 41.4381,102.9914 41.4381,103.2114 L41.4381,112.5624 C41.4381,112.7834 41.2581,112.9614 41.0381,112.9614 L39.8611,112.9614 C39.6401,112.9614 39.4611,112.7834 39.4611,112.5624 L39.4611,103.2114 C39.4641,102.9914 39.6401,102.8114 39.8611,102.8114" id="Fill-46" fill="#084D8A"></path>
                        <path d="M45.5926,105.7333 C45.5536,106.4493 45.5326,107.1703 45.5326,107.8873 C45.5326,108.6023 45.5536,109.3293 45.5926,110.0453 C45.6246,110.5783 46.0696,110.9943 46.6026,110.9923 L47.3796,110.9923 C47.4896,110.9923 47.5766,110.9023 47.5766,110.7923 L47.5766,109.0743 C47.5766,108.9633 47.4896,108.8743 47.3796,108.8743 L47.0626,108.8743 C46.8416,108.8743 46.6616,108.6953 46.6616,108.4743 L46.6616,107.2993 C46.6616,107.0793 46.8416,106.8993 47.0626,106.8993 L49.1546,106.8993 C49.3746,106.8993 49.5516,107.0793 49.5516,107.2993 L49.5516,112.5643 C49.5516,112.7853 49.3746,112.964302 49.1546,112.964302 L46.6026,112.964302 C45.0206,112.9663 43.7116,111.7323 43.6226,110.1523 C43.5806,109.4003 43.5586,108.6373 43.5586,107.8853 C43.5586,107.1333 43.5806,106.3733 43.6226,105.6233 C43.7116,104.0443 45.0206,102.8113 46.6026,102.8113 L49.1546,102.8113 C49.2596,102.8113 49.3616,102.8553 49.4346,102.9283 C49.5106,103.0043 49.5546,103.1053 49.5546,103.2123 L49.5546,104.3863 C49.5546,104.6073 49.3746,104.7863 49.1546,104.7863 L46.6026,104.7863 C46.0696,104.7843 45.6226,105.2003 45.5926,105.7333" id="Fill-48" fill="#084D8A"></path>
                        <path d="M63.2498,92.4608 C63.2498,94.0678 64.7078,95.3758 66.4988,95.3758 C68.2898,95.3758 69.7468,94.0678 69.7468,92.4608 C69.7468,90.8538 68.2898,89.5458 66.4988,89.5458 C64.7078,89.5458 63.2498,90.8538 63.2498,92.4608 M72.0828,108.0368 C72.0828,105.2048 69.5768,102.8988 66.4988,102.8988 C63.4198,102.8988 60.9158,105.2048 60.9158,108.0368 C60.9158,110.8698 63.4198,113.1758 66.4988,113.1758 C69.5768,113.1758 72.0828,110.8718 72.0828,108.0368 M79.6048,108.0368 C79.6048,115.0198 73.7248,120.6978 66.4988,120.6978 C59.2708,120.6978 53.3938,115.0198 53.3938,108.0368 C53.4048,104.3938 55.0128,100.9398 57.7938,98.5838 C56.4558,96.8218 55.7288,94.6728 55.7258,92.4608 C55.7258,86.7058 60.5578,82.0228 66.4988,82.0228 C72.4378,82.0228 77.2698,86.7058 77.2698,92.4608 C77.2678,94.6728 76.5408,96.8218 75.2048,98.5838 C77.9848,100.9398 79.5918,104.3938 79.6048,108.0368" id="Fill-50" fill="#084D8A"></path>
                    </g>
                </g>
            </g>
        </g>
    </g>
</svg>