<?xml version="1.0" encoding="UTF-8"?>
<svg width="26px" height="26px" viewBox="0 0 26 26" version="1.1" xmlns="http://www.w3.org/2000/svg" xmlns:xlink="http://www.w3.org/1999/xlink">
    <title>Shape</title>
    <g id="Desktop" stroke="none" stroke-width="1" fill="none" fill-rule="evenodd">
        <g id="WAT_FAQ" transform="translate(-1104.000000, -359.000000)" fill="#084D8A">
            <path d="M1122.58502,368.648734 L1121.40469,368.648734 L1120.9944,369.056029 C1122.4438,370.746155 1123.32533,372.937225 1123.32533,375.337888 C1123.32533,380.674347 1118.99943,385 1113.66266,385 C1108.3259,385 1104,380.674347 1104,375.337888 C1104,370.001429 1108.3259,365.675776 1113.66266,365.675776 C1116.06346,365.675776 1118.25317,366.555772 1119.9434,368.003602 L1120.35369,367.596307 L1120.35369,366.419015 L1127.78353,359 L1130,361.21634 L1122.58502,368.648734 L1122.58502,368.648734 Z M1113.66266,368.648734 C1109.96707,368.648734 1106.97313,371.642502 1106.97313,375.337888 C1106.97313,379.031788 1109.96707,382.027042 1113.66266,382.027042 C1117.35678,382.027042 1120.3522,379.031788 1120.3522,375.337888 C1120.3522,371.642502 1117.35678,368.648734 1113.66266,368.648734 L1113.66266,368.648734 Z" id="Shape" transform="translate(1117.000000, 372.000000) scale(1, -1) translate(-1117.000000, -372.000000) "></path>
        </g>
    </g>
</svg>