<svg xmlns="http://www.w3.org/2000/svg" xmlns:xlink="http://www.w3.org/1999/xlink" width="115" height="105" viewBox="0 0 115 105">
  <defs>
    <rect id="icon_big8_line-a" width="115" height="105" x="0" y="0"/>
  </defs>
  <g fill="none" fill-rule="evenodd">
    <mask id="icon_big8_line-b" fill="#fff">
      <use xlink:href="#icon_big8_line-a"/>
    </mask>
    <g mask="url(#icon_big8_line-b)">
      <g transform="translate(1 -45)">
        <path fill="#FFF" stroke="#084D8A" d="M0.1375,4.239 C0.2355,22.625 1.0725,41.177 0.3715,59.535 C-0.8705,92.082 -1.0235,131.25 34.2855,144.706 C57.3155,153.482 91.1245,147.141 103.2135,124.54 C110.5185,110.881 112.2575,95.114 112.7635,79.571 C113.6195,53.188 111.8955,27.247 111.6595,0.881 L0.1845,0.881 C0.1365,2.003 0.1315,3.129 0.1375,4.239" transform="translate(0 .619)"/>
        <path fill="#084D8A" d="M29.4168 126.7684L30.1678 124.8964 28.4408 125.9404 29.4168 126.7684zM29.8078 130.9944C29.7058 131.0194 29.5988 130.9964 29.5178 130.9264L28.3748 129.9584C28.2698 129.8674 28.2318 129.7194 28.2848 129.5884L28.6028 128.7954 26.5698 127.0714 25.8388 127.5154C25.7198 127.5864 25.5648 127.5754 25.4598 127.4854L24.3168 126.5154C24.2358 126.4484 24.1948 126.3444 24.2018 126.2414 24.2108 126.1354 24.2688 126.0414 24.3578 125.9884L31.2608 121.8154C31.3798 121.7444 31.5308 121.7554 31.6398 121.8454L32.9408 122.9514C33.0488 123.0404 33.0858 123.1904 33.0328 123.3214L30.0298 130.8004C29.9908 130.8974 29.9078 130.9704 29.8078 130.9944L29.8078 130.9944zM37.2029 133.2948L36.5339 134.5458C36.4489 134.7038 36.2519 134.7648 36.0929 134.6798L32.0009 132.4878C31.8419 132.4028 31.7819 132.2048 31.8669 132.0468L35.4699 125.3188C35.5549 125.1608 35.7529 125.1018 35.9109 125.1868L37.1619 125.8558C37.3209 125.9408 37.3809 126.1378 37.2959 126.2968L34.5179 131.4858 37.0699 132.8538C37.2279 132.9388 37.2889 133.1368 37.2029 133.2948M43.8406 135.6307L43.3996 136.9787C43.3416 137.1487 43.1576 137.2427 42.9876 137.1857L38.5776 135.7387C38.4056 135.6837 38.3146 135.4997 38.3686 135.3277L40.7486 128.0777C40.8036 127.9077 40.9876 127.8147 41.1596 127.8717L42.5076 128.3137C42.6796 128.3697 42.7726 128.5547 42.7166 128.7247L40.8816 134.3167 43.6316 135.2197C43.8046 135.2747 43.8966 135.4587 43.8406 135.6307M48.2898 131.9413L48.1238 132.9633 49.8488 133.2423C50.0248 133.2723 50.1468 133.4403 50.1168 133.6173L49.8898 135.0193C49.8618 135.1993 49.6938 135.3203 49.5158 135.2913L47.7908 135.0103 47.6248 136.0333 50.3748 136.4793C50.5518 136.5063 50.6738 136.6743 50.6438 136.8543L50.4188 138.2563C50.3888 138.4353 50.2208 138.5553 50.0438 138.5283L45.5668 137.8013C45.3908 137.7713 45.2688 137.6063 45.2988 137.4263L46.5208 129.8833C46.5518 129.7063 46.7168 129.5853 46.8958 129.6143L51.3708 130.3383C51.5478 130.3683 51.6698 130.5363 51.6418 130.7123L51.4138 132.1183C51.3848 132.2953 51.2168 132.4173 51.0398 132.3863L48.2898 131.9413zM56.4422 133.6786C56.4512 133.0996 55.9892 132.6216 55.4102 132.6106L54.3892 132.5916 54.3502 134.6936 55.3732 134.7116C55.9532 134.7206 56.4302 134.2586 56.4422 133.6786M58.4422 138.6996C58.3842 138.8086 58.2702 138.8776 58.1462 138.8746L56.3692 138.8426C56.2672 138.8406 56.1712 138.7916 56.1112 138.7096L54.7042 136.7716 54.3132 136.7646 54.2832 138.4796C54.2812 138.6586 54.1312 138.8036 53.9522 138.7986L52.5312 138.7746C52.3522 138.7716 52.2072 138.6216 52.2122 138.4436L52.3472 130.8096C52.3492 130.6276 52.4992 130.4856 52.6782 130.488553L55.3762 130.5356C57.0602 130.5666 58.4702 131.8956 58.5132 133.5776 58.5442 134.7186 57.9502 135.7826 56.9632 136.3576L58.4172 138.3576C58.4882 138.4566 58.4982 138.5896 58.4422 138.6996M66.908 133.0516L67.324 136.1506C67.336 136.2336 67.314 136.3166 67.268 136.3826L67.105 136.6136C66.455 137.5346 65.448 138.1436 64.328 138.2956L64.175 138.3166C61.949 138.6146 59.9 137.0546 59.601 134.8256L59.581 134.6796C59.279 132.4506 60.843 130.4036 63.068 130.1046L63.222 130.0826C64.229 129.9476 65.253 130.1966 66.087 130.7756 66.163 130.8276 66.216 130.9086 66.227 131.0006 66.241 131.0926 66.216 131.1846 66.156 131.2556L65.241 132.3526C65.137 132.4766 64.958 132.5036 64.82 132.4186 64.427 132.1726 63.958 132.0726 63.498 132.1366L63.346 132.1566C62.255 132.3046 61.486 133.3086 61.634 134.4016L61.654 134.5506C61.802 135.6426 62.806 136.4076 63.898 136.2606L64.053 136.2396C64.475 136.1856 64.869 135.9966 65.175 135.6976L65.087 135.0586 64.175 135.1806C63.995 135.2056 63.832 135.0786 63.806 134.9006L63.618 133.4926C63.595 133.3166 63.719 133.1506 63.898 133.1266L66.54 132.7716C66.72 132.7456 66.883 132.8716 66.908 133.0516M69.6365 130.7548L69.9565 131.7408 71.6185 131.2028C71.7905 131.1458 71.9755 131.2398 72.0305 131.4118L72.4695 132.7638C72.5245 132.9368 72.4305 133.1198 72.2575 133.1758L70.5955 133.7138 70.9145 134.6998 73.5665 133.8428C73.7365 133.7848 73.9225 133.8788 73.9775 134.0518L74.4135 135.4028C74.4715 135.5758 74.3775 135.7598 74.2045 135.8158L69.8925 137.2128C69.7195 137.2688 69.5355 137.1738 69.4805 137.0038L67.1235 129.7318C67.0695 129.5598 67.1625 129.3748 67.3355 129.3198L71.6485 127.9218C71.8185 127.8668 72.0045 127.9608 72.0605 128.1338L72.4965 129.4848C72.5545 129.6578 72.4595 129.8418 72.2875 129.8978L69.6365 130.7548zM77.9754 124.8202C78.0584 124.8452 78.1294 124.9032 78.1684 124.9792L81.7944 131.7072C81.8794 131.8652 81.8204 132.0652 81.6614 132.1502L80.1894 132.9432C80.0814 133.0012 79.9514 132.9942 79.8494 132.9232L76.4084 130.5152 78.1164 133.6882C78.2014 133.8462 78.1414 134.0452 77.9824 134.1302L76.7324 134.8052C76.5734 134.8902 76.3754 134.8312 76.2904 134.6732L72.6604 127.9332C72.5754 127.7752 72.6344 127.5772 72.7934 127.4922L74.2574 126.7012C74.3684 126.6432 74.4994 126.6502 74.6004 126.7212L78.0514 129.1352 76.3434 125.9642C76.2584 125.8042 76.3184 125.6072 76.4764 125.5192L77.7274 124.8452C77.8034 124.8042 77.8924 124.7962 77.9754 124.8202M86.7557 124.9559L86.7657 124.9659C87.1647 125.4529 87.3537 126.0829 87.2867 126.7109 87.2017 127.4969 86.8087 128.2189 86.1947 128.7179L86.1857 128.7269 85.9257 128.9399C84.8217 129.8529 83.3027 129.8839 82.3757 129.0619 82.3147 129.0049 82.2767 128.9219 82.2787 128.8369 82.2817 128.7519 82.3207 128.6719 82.3857 128.6159L83.5807 127.6189C83.6607 127.5569 83.7647 127.5359 83.8607 127.5649 84.0357 127.6159 84.3297 127.5679 84.6047 127.3429L84.8637 127.1289C85.0547 126.9769 85.1837 126.7589 85.2227 126.5179 85.2357 126.4389 85.2177 126.3609 85.1717 126.2949L85.1647 126.2849C85.0817 126.1859 84.8457 126.1469 84.5677 126.2669L83.0617 126.9129C81.9557 127.3869 80.7457 127.1469 80.0547 126.3169 79.1667 125.2509 79.4217 123.5699 80.6237 122.5649L80.8837 122.3499C81.9867 121.4299 83.5117 121.3949 84.4427 122.2209 84.5047 122.2779 84.5417 122.3579 84.5397 122.4449 84.5367 122.5309 84.4977 122.6109 84.4337 122.6639L83.2377 123.6619C83.1577 123.7269 83.0547 123.7449 82.9577 123.7149 82.7807 123.6639 82.4857 123.7149 82.2127 123.9419L81.9527 124.1579C81.5947 124.4569 81.5317 124.8509 81.6477 124.9879 81.7277 125.0849 81.9647 125.1269 82.2427 125.0069L83.7507 124.3609C84.8547 123.8879 86.0647 124.1259 86.7557 124.9559M28.8689 74.8495L29.5659 76.0865C29.6529 76.2455 29.5979 76.4435 29.4389 76.5335L27.0139 77.8935 27.5189 78.7965 29.0419 77.9425C29.1999 77.8545 29.3979 77.9105 29.4879 78.0665L30.1809 79.3055C30.2689 79.4615 30.2139 79.6615 30.0569 79.7485L28.5329 80.6045 29.8969 83.0305C29.9839 83.1865 29.9299 83.3865 29.7699 83.4735L28.5329 84.1695C28.3749 84.2575 28.1779 84.2025 28.0879 84.0435L24.3509 77.3855C24.2619 77.2295 24.3189 77.0295 24.4749 76.9425L28.4259 74.7235C28.5819 74.6355 28.7819 74.6915 28.8689 74.8495M35.5525 74.9579C35.3315 74.4219 34.7175 74.1649 34.1805 74.3859L33.2355 74.7739 34.0325 76.7169 34.9785 76.3299C35.5155 76.1089 35.7715 75.4959 35.5525 74.9579M39.3785 78.7789C39.3685 78.8999 39.2905 79.0089 39.1755 79.0579L37.5305 79.7299C37.4355 79.7699 37.3275 79.7629 37.2395 79.7099L35.1805 78.4869 34.8195 78.6369 35.4695 80.2229C35.5385 80.3909 35.4585 80.5809 35.2925 80.6499L33.9775 81.1879C33.8125 81.2579 33.6205 81.1769 33.5525 81.0119L30.6535 73.9439C30.5835 73.7759 30.6645 73.5849 30.8295 73.5189L33.3265 72.4929C34.8855 71.8539 36.7085 72.5169 37.4145 74.0449 37.8935 75.0799 37.7715 76.2939 37.0925 77.2109L39.2195 78.4739C39.3245 78.5369 39.3875 78.6549 39.3785 78.7789M40.7898 72.0975L41.0658 73.0955 42.7508 72.6285C42.9238 72.5805 43.1028 72.6815 43.1508 72.8565L43.5298 74.2245C43.5788 74.3995 43.4778 74.5775 43.3028 74.6265L41.6198 75.0935 41.8958 76.0915 44.5788 75.3465C44.7538 75.3005 44.9338 75.4015 44.9808 75.5745L45.3598 76.9445C45.4088 77.1185 45.3078 77.2985 45.1328 77.3465L40.7678 78.5555C40.5928 78.6045 40.4128 78.5005 40.3648 78.3275L38.3248 70.9665C38.2768 70.7915 38.3808 70.6125 38.5528 70.5645L42.9218 69.3545C43.0938 69.3065 43.2748 69.4095 43.3208 69.5825L43.7008 70.9525C43.7488 71.1245 43.6478 71.3065 43.4738 71.3525L40.7898 72.0975zM47.4686 70.5643L47.6346 71.5853 49.3596 71.3063C49.5356 71.2773 49.7036 71.3983 49.7336 71.5763L49.9606 72.9783C49.9896 73.1573 49.8686 73.3253 49.6906 73.3533L47.9656 73.6333 48.1306 74.6563 50.8806 74.2103C51.0606 74.1803 51.2286 74.3023 51.2556 74.4793L51.4836 75.8843C51.5126 76.0613 51.3916 76.2293 51.2136 76.2583L46.7386 76.9833C46.5606 77.0133 46.3936 76.8913 46.3636 76.7143L45.1396 69.1703C45.1126 68.9923 45.2326 68.8263 45.4106 68.7953L49.8856 68.0693C50.0646 68.0423 50.2306 68.1623 50.2596 68.3403L50.4876 69.7433C50.5176 69.9203 50.3956 70.0873 50.2166 70.1183L47.4686 70.5643zM61.3504 68.1571L61.2954 69.5781C61.2884 69.7571 61.1374 69.8971 60.9574 69.8901L58.1754 69.7821 58.1344 70.8171 59.8814 70.8861C60.0614 70.8921 60.2014 71.0451 60.1944 71.2241L60.1394 72.6421C60.1324 72.8241 59.9804 72.9651 59.8014 72.9581L58.0564 72.8901 57.9484 75.6711C57.9414 75.8491 57.7894 75.9921 57.6104 75.9851L56.1894 75.9301C56.0094 75.9241 55.8704 75.7711 55.8764 75.5901L56.1704 67.9571C56.1774 67.7771 56.3294 67.6371 56.5084 67.6441L61.0364 67.8191C61.2174 67.8261 61.3584 67.9771 61.3504 68.1571M67.0047 71.8241C67.1037 71.2541 66.7217 70.7091 66.1497 70.6081L65.1427 70.4331 64.7807 72.5021 65.7877 72.6791C66.3597 72.7781 66.9027 72.3961 67.0047 71.8241M68.2017 77.0941C68.1307 77.1921 68.0067 77.2411 67.8847 77.2201L66.1327 76.9141C66.0317 76.8981 65.9467 76.8341 65.8987 76.7421L64.8087 74.6101 64.4247 74.5441 64.1307 76.2331C64.0987 76.4111 63.9307 76.5301 63.7537 76.4981L62.3537 76.2551C62.1767 76.2221 62.0567 76.0541 62.0887 75.8781L63.4007 68.3571C63.4337 68.1791 63.6017 68.0601 63.7787 68.0911L66.4367 68.5541C68.0947 68.8451 69.2847 70.3761 69.0667 72.0451 68.9197 73.1761 68.1677 74.1371 67.1057 74.5511L68.2327 76.7511C68.2867 76.8611 68.2757 76.9921 68.2017 77.0941M76.3113 75.413C76.6673 74.323 76.0723 73.15 74.9823 72.792 73.8923 72.435 72.7193 73.031 72.3633 74.121 72.0043 75.211 72.6003 76.386 73.6903 76.742 74.7803 77.096 75.9523 76.503 76.3113 75.413M78.2843 76.059C77.5713 78.238 75.2263 79.428 73.0433 78.715 70.8643 78.002 69.6753 75.657 70.3883 73.475 71.1013 71.295 73.4463 70.106 75.6283 70.819 77.8053 71.534 78.9943 73.877 78.2843 76.059M88.8982 76.871C88.9232 76.953 88.9172 77.043 88.8762 77.119L85.3372 83.901C85.2542 84.062 85.0562 84.124 84.8962 84.042L83.6352 83.384C83.4772 83.299 83.4152 83.103 83.4982 82.942L84.5622 80.901 82.6332 82.621C82.5322 82.713 82.3852 82.731 82.2632 82.667L80.7522 81.878C80.6332 81.816 80.5642 81.684 80.5812 81.552L80.8862 78.983 79.8222 81.022C79.7392 81.183 79.5422 81.246 79.3802 81.163L78.1212 80.506C77.9612 80.421 77.9002 80.225 77.9822 80.064L81.5212 73.282C81.6062 73.121 81.8032 73.058 81.9622 73.143L83.3722 73.88C83.4942 73.941 83.5622 74.072 83.5462 74.206L82.9002 79.604 86.9612 75.988C87.0612 75.898 87.2092 75.88 87.3282 75.941L88.7382 76.678C88.8162 76.719 88.8742 76.788 88.8982 76.871M35.7918 92.1571C35.8648 92.2331 35.9068 92.3341 35.9068 92.4401L35.9068 93.6151C35.9068 93.8361 35.7298 94.0141 35.5088 94.0141L34.1348 94.0141C34.0808 94.0141 34.0308 94.0361 33.9918 94.0721 33.9548 94.1111 33.9348 94.1621 33.9348 94.2151L33.9348 101.7911C33.9348 102.0111 33.7548 102.1901 33.5338 102.1901L32.3588 102.1901C32.1388 102.1901 31.9588 102.0111 31.9588 101.7911L31.9588 94.2151C31.9588 94.1041 31.8698 94.0141 31.7598 94.0141L30.3848 94.0141C30.1638 94.0141 29.9838 93.8361 29.9838 93.6151L29.9838 92.4401C29.9838 92.2191 30.1638 92.0401 30.3848 92.0401L35.5088 92.0401C35.6148 92.0401 35.7158 92.0841 35.7918 92.1571M43.7723 92.4403L43.7723 101.7913C43.7723 102.0113 43.5923 102.1903 43.3723 102.1903L42.1973 102.1903C41.9763 102.1903 41.7963 102.0113 41.7963 101.7913L41.7963 98.2973C41.7963 98.1873 41.7073 98.0983 41.5963 98.0983L40.1273 98.0983C40.0173 98.0983 39.9303 98.1873 39.9303 98.2973L39.9303 101.7843C39.9303 102.0043 39.7513 102.1833 39.5303 102.1833L38.3533 102.1833C38.1323 102.1833 37.9533 102.0043 37.9533 101.7843L37.9533 92.4403C37.9533 92.2193 38.1323 92.0403 38.3533 92.0403L39.5303 92.0403C39.7513 92.0403 39.9303 92.2193 39.9303 92.4403L39.9303 95.9253C39.9303 96.0363 40.0173 96.1263 40.1273 96.1263L41.5993 96.1263C41.7093 96.1263 41.7963 96.0363 41.7963 95.9253L41.7963 92.4403C41.7963 92.2193 41.9763 92.0403 42.1973 92.0403L43.3723 92.0403C43.5923 92.0403 43.7723 92.2193 43.7723 92.4403M48.0184 94.0721C47.9814 94.1111 47.9604 94.1621 47.9604 94.2151L47.9604 95.9301C47.9604 96.0411 48.0504 96.1301 48.1614 96.1301L49.8534 96.1301C49.9584 96.1301 50.0604 96.1721 50.1384 96.2471 50.2114 96.3211 50.2524 96.4251 50.2524 96.5301L50.2524 97.7051C50.2524 97.9261 50.0744 98.1051 49.8534 98.1051L48.1614 98.1051C48.1104 98.1051 48.0574 98.1261 48.0204 98.1631 47.9814 98.1991 47.9624 98.2521 47.9624 98.3051L47.9624 100.0201C47.9624 100.1311 48.0504 100.2201 48.1614 100.2201L50.4184 100.2201C50.6394 100.2201 50.8194 100.3971 50.8194 100.6181L50.8194 101.7931C50.8194 102.0131 50.6394 102.1931 50.4184 102.1931L46.3854 102.1931C46.2804 102.1931 46.1794 102.1511 46.1054 102.0761 46.0304 102.0021 45.9864 101.8981 45.9864 101.7931L45.9864 92.4401C45.9864 92.2191 46.1644 92.0401 46.3854 92.0401L50.4184 92.0401C50.5244 92.0401 50.6254 92.0841 50.7014 92.1571 50.7774 92.2331 50.8194 92.3341 50.8194 92.4401L50.8194 93.6151C50.8194 93.8361 50.6394 94.0141 50.4184 94.0141L48.1614 94.0141C48.1084 94.0141 48.0574 94.0361 48.0184 94.0721M35.3553 111.8143C35.4033 111.5003 35.4233 111.1803 35.4153 110.8583 35.4053 110.5863 35.3773 110.3153 35.3363 110.0443 35.3183 109.9453 35.2303 109.8723 35.1293 109.8743L34.8173 109.8743C34.7893 109.8773 34.7613 109.8773 34.7343 109.8773L33.4283 109.8743C33.3773 109.8743 33.3253 109.8943 33.2883 109.9333 33.2493 109.9703 33.2303 110.0213 33.2303 110.0743L33.2303 111.7923C33.2303 111.9023 33.3183 111.9923 33.4283 111.9923L35.1433 111.9923C35.2473 111.9923 35.3363 111.9183 35.3523 111.8173L35.3553 111.8143zM33.2303 107.6993C33.2303 107.8093 33.3183 107.8993 33.4283 107.8993L34.7593 107.8993C34.8563 107.8853 34.9313 107.8093 34.9463 107.7123 34.9823 107.4373 34.9963 107.1573 34.9923 106.8783 34.9963 106.6513 34.9803 106.4233 34.9383 106.1983 34.9273 106.1283 34.9143 106.0523 34.9023 105.9653 34.8853 105.8623 34.7983 105.7863 34.6933 105.7863L33.4283 105.7863C33.3763 105.7863 33.3253 105.8073 33.2863 105.8433 33.2493 105.8823 33.2283 105.9333 33.2283 105.9863L33.2303 107.6993zM37.3043 112.1163C37.1433 113.1823 36.2243 113.9713 35.1433 113.964346L31.6533 113.964346C31.5473 113.964346 31.4463 113.9223 31.3733 113.8463 31.2963 113.7733 31.2533 113.6693 31.2533 113.5643L31.2533 104.2113C31.2533 103.9913 31.4323 103.8113 31.6533 103.8113L34.6933 103.8113C35.7783 103.8163 36.6983 104.6113 36.8563 105.6823 36.8683 105.7563 36.8763 105.8163 36.8863 105.8743 36.9463 106.2053 36.9733 106.5433 36.9663 106.8783 36.9713 107.2553 36.9483 107.6343 36.8973 108.0073 36.8763 108.1353 36.8493 108.2623 36.8083 108.3843 36.7613 108.5153 36.7853 108.6583 36.8683 108.7663 37.0883 109.0533 37.2353 109.3913 37.2893 109.7483 37.3413 110.0943 37.3763 110.4443 37.3873 110.7953 37.4013 111.2373 37.3743 111.6783 37.3043 112.1163L37.3043 112.1163zM39.8611 103.8114L41.0381 103.8114C41.2581 103.8114 41.4381 103.9914 41.4381 104.2114L41.4381 113.5624C41.4381 113.7834 41.2581 113.9614 41.0381 113.9614L39.8611 113.9614C39.6401 113.9614 39.4611 113.7834 39.4611 113.5624L39.4611 104.2114C39.4641 103.9914 39.6401 103.8114 39.8611 103.8114M45.5926 106.7333C45.5536 107.4493 45.5326 108.1703 45.5326 108.8873 45.5326 109.6023 45.5536 110.3293 45.5926 111.0453 45.6246 111.5783 46.0696 111.9943 46.6026 111.9923L47.3796 111.9923C47.4896 111.9923 47.5766 111.9023 47.5766 111.7923L47.5766 110.0743C47.5766 109.9633 47.4896 109.8743 47.3796 109.8743L47.0626 109.8743C46.8416 109.8743 46.6616 109.6953 46.6616 109.4743L46.6616 108.2993C46.6616 108.0793 46.8416 107.8993 47.0626 107.8993L49.1546 107.8993C49.3746 107.8993 49.5516 108.0793 49.5516 108.2993L49.5516 113.5643C49.5516 113.7853 49.3746 113.964302 49.1546 113.964302L46.6026 113.964302C45.0206 113.9663 43.7116 112.7323 43.6226 111.1523 43.5806 110.4003 43.5586 109.6373 43.5586 108.8853 43.5586 108.1333 43.5806 107.3733 43.6226 106.6233 43.7116 105.0443 45.0206 103.8113 46.6026 103.8113L49.1546 103.8113C49.2596 103.8113 49.3616 103.8553 49.4346 103.9283 49.5106 104.0043 49.5546 104.1053 49.5546 104.2123L49.5546 105.3863C49.5546 105.6073 49.3746 105.7863 49.1546 105.7863L46.6026 105.7863C46.0696 105.7843 45.6226 106.2003 45.5926 106.7333M63.2498 93.4608C63.2498 95.0678 64.7078 96.3758 66.4988 96.3758 68.2898 96.3758 69.7468 95.0678 69.7468 93.4608 69.7468 91.8538 68.2898 90.5458 66.4988 90.5458 64.7078 90.5458 63.2498 91.8538 63.2498 93.4608M72.0828 109.0368C72.0828 106.2048 69.5768 103.8988 66.4988 103.8988 63.4198 103.8988 60.9158 106.2048 60.9158 109.0368 60.9158 111.8698 63.4198 114.1758 66.4988 114.1758 69.5768 114.1758 72.0828 111.8718 72.0828 109.0368M79.6048 109.0368C79.6048 116.0198 73.7248 121.6978 66.4988 121.6978 59.2708 121.6978 53.3938 116.0198 53.3938 109.0368 53.4048 105.3938 55.0128 101.9398 57.7938 99.5838 56.4558 97.8218 55.7288 95.6728 55.7258 93.4608 55.7258 87.7058 60.5578 83.0228 66.4988 83.0228 72.4378 83.0228 77.2698 87.7058 77.2698 93.4608 77.2678 95.6728 76.5408 97.8218 75.2048 99.5838 77.9848 101.9398 79.5918 105.3938 79.6048 109.0368"/>
      </g>
    </g>
  </g>
</svg>
