<?xml version="1.0" encoding="UTF-8"?>
<svg width="90px" height="90px" viewBox="0 0 90 90" version="1.1" xmlns="http://www.w3.org/2000/svg" xmlns:xlink="http://www.w3.org/1999/xlink">
    <title>icon_Advice</title>
    <defs>
        <rect id="path-1" x="0" y="0" width="90" height="90"></rect>
        <polygon id="path-3" points="0.000114545455 0.168102564 62.8377887 0.168102564 62.8377887 66 0.000114545455 66"></polygon>
    </defs>
    <g id="Desktop" stroke="none" stroke-width="1" fill="none" fill-rule="evenodd">
        <g id="WAT_TraceTribeRecipes" transform="translate(-964.000000, -362.000000)">
            <g id="icon_Advice" transform="translate(964.000000, 362.000000)">
                <mask id="mask-2" fill="white">
                    <use xlink:href="#path-1"></use>
                </mask>
                <g id="Mask"></g>
                <g mask="url(#mask-2)">
                    <g transform="translate(17.000000, 10.000000)">
                        <g id="Group-3" stroke-width="1" fill="none" transform="translate(0.000000, 1.000000)">
                            <mask id="mask-4" fill="white">
                                <use xlink:href="#path-3"></use>
                            </mask>
                            <g id="Clip-2"></g>
                            <path d="M48.7575327,48.5844051 C48.7575327,48.8106103 48.7477964,48.9820974 48.7363418,49.1157897 C45.2375509,51.3654308 40.7674145,52.1512256 36.6666873,51.2435846 C35.5813691,51.003841 34.5802418,52.1348667 35.1879055,53.1389692 C37.0177691,56.1636872 37.41066,59.8247128 36.3213327,63.147841 C35.93646,63.1647641 35.5481509,63.2019949 35.2090964,63.2019949 L12.2203964,63.2019949 C10.1076055,63.2019949 6.79896,63.7299949 4.87116,62.6204051 C2.41301455,61.2050718 2.72916,58.604559 2.72916,56.2640974 L2.72916,12.2714308 C2.72916,10.5977385 2.63065091,8.89358462 2.72916,7.22214872 C2.94565091,3.53009744 5.84937818,2.83399487 8.85218727,2.83399487 L31.3849964,2.83399487 L42.36246,2.83399487 C45.7409782,2.83399487 48.6143509,3.71512308 48.7575327,7.74225128 C49.0060964,14.7354308 48.7581055,21.7759949 48.7575327,28.7736872 C48.1132145,29.4782513 47.4683236,30.180559 46.81656,30.8710205 C44.1820145,33.6627641 41.0188418,36.3648154 38.7279327,39.4419949 C36.8722964,41.9342 35.8665873,45.3662 34.5699327,48.1884051 C34.04016,49.3408667 35.1357873,50.5869692 36.3608509,49.9529179 C39.0091418,48.583841 42.01596,47.4246103 44.4752509,45.7571231 C46.0176055,44.7112769 47.2535509,42.9732769 48.5209964,41.6301487 C48.6000327,41.5466615 48.6784964,41.4631744 48.7575327,41.3796872 L48.7575327,48.5844051 Z M39.5406327,59.9713795 C39.6173782,57.9840462 39.2851964,55.9809179 38.5629873,54.1131744 C40.7576782,54.2886103 42.9936055,54.0889179 45.1172782,53.5174821 C43.2582055,55.6689692 41.3991327,57.8198923 39.5406327,59.9713795 L39.5406327,59.9713795 Z M40.3733782,41.6944564 L42.6654327,43.8239436 C41.2840145,44.6909692 39.7806055,45.4338923 38.2708964,46.1531231 C38.9146418,44.6294821 39.5818691,43.1114821 40.3733782,41.6944564 L40.3733782,41.6944564 Z M56.3730873,24.5310718 C56.5998873,24.2907641 56.8581873,23.8800974 57.1451236,23.7136872 C58.3862236,22.9938923 61.8220145,22.9002513 59.7464509,25.9492256 L46.99926,39.4560974 L44.56116,42.0402513 C43.7238327,41.2629179 42.8870782,40.4855846 42.0503236,39.7076872 C43.0136509,38.6877897 43.9764055,37.6667641 44.9397327,36.6463026 C47.78046,33.6362513 50.6211873,30.6262 53.4619145,27.6161487 L56.3730873,24.5310718 Z M55.2138873,21.9728667 C53.8926055,23.2347641 52.6291691,24.5677385 51.3806236,25.9165077 C51.3897873,20.0176872 51.4184236,14.1171744 51.3766145,8.21835385 C51.3479782,4.18502051 49.28616,0.627225641 44.8148782,0.279738462 C42.75936,0.120097436 40.6500055,0.254353846 38.5904782,0.254353846 L12.4723964,0.254353846 C10.3578873,0.254353846 8.04464182,0.00558461538 5.94101455,0.351379487 C2.14383273,0.974712821 0.167923636,4.17091795 0.110078182,7.72702051 C-0.13734,22.8827641 0.110078182,38.0616359 0.110078182,53.2202 C0.110078182,55.0885077 0.0339054545,56.9748667 0.110078182,58.8420462 C0.272732727,62.8319436 3.19593273,65.6315846 7.22564182,65.7816359 C14.7375327,66.0603026 22.3124236,65.7816359 29.8288964,65.7816359 C32.1329782,65.7816359 35.0710691,66.2729692 37.33506,65.7816359 C39.4684691,65.3185077 41.4987873,61.6727128 42.82236,60.1411744 C45.4042145,57.1531231 48.1533055,54.2479949 50.5936964,51.1471231 C50.6836145,51.0320462 50.7643691,50.9113282 50.8399691,50.7872256 C51.1738691,50.4905077 51.30846,50.1069179 51.2901327,49.7312256 C51.8594236,47.7602513 51.3766145,45.1986615 51.3766145,43.303841 L51.3766145,39.0386615 C51.3766145,38.9010205 51.3531327,38.7791744 51.3204873,38.6646615 L61.6931509,27.672559 C61.7641691,27.5975333 61.82316,27.5196872 61.8718418,27.4407128 C61.8804327,27.430559 61.8901691,27.4226615 61.8976145,27.4113795 C65.1724691,22.8551231 59.1485236,18.2153795 55.2138873,21.9728667 L55.2138873,21.9728667 Z" id="Fill-1" fill="#084D8A" mask="url(#mask-4)"></path>
                        </g>
                        <path d="M18.2806369,14 L42.7193631,14 C44.4254289,14 44.4283284,11 42.7193631,11 L18.2806369,11 C16.5745711,11 16.5716716,14 18.2806369,14" id="Fill-4" fill="#084D8A"></path>
                        <path d="M12.8125035,8.39144273 C11.7380408,9.50797126 10.6635782,10.6250816 9.58855565,11.742192 C9.10983467,11.1853823 8.63055378,10.6291544 8.1518328,10.0729266 C7.0504946,8.79406792 5.24423275,10.6809371 6.34053179,11.9539775 C7.10536554,12.8412657 7.86907948,13.7291357 8.63279341,14.6164238 C9.09415726,15.1522877 9.97545178,15.1028323 10.4440944,14.6164238 C11.8371445,13.1682532 13.2301945,11.7206643 14.6232446,10.2724937 C15.790092,9.06054529 13.9799108,7.17891253 12.8125035,8.39144273" id="Fill-6" fill="#084D8A"></path>
                        <path d="M18.2806369,25 L42.7193631,25 C44.4254289,25 44.4283284,22 42.7193631,22 L18.2806369,22 C16.5745711,22 16.5716716,25 18.2806369,25" id="Fill-8" fill="#084D8A"></path>
                        <path d="M12.8125035,19.3914363 C11.7380408,20.5079659 10.6635782,21.6250773 9.58855565,22.741607 C9.10983467,22.1853786 8.63055378,21.6291501 8.1518328,21.0729217 C7.0504946,19.7940619 5.24423275,21.6809329 6.34053179,22.9545563 C7.10536554,23.8412635 7.86907948,24.7291344 8.63279341,25.6164235 C9.09415726,26.1522879 9.97545178,26.1028324 10.4440944,25.6164235 L14.6232446,21.2730709 C15.790092,20.0605395 13.9799108,18.1789049 12.8125035,19.3914363" id="Fill-10" fill="#084D8A"></path>
                        <path d="M18.2532811,36 L35.7462932,36 C37.4164832,36 37.4193207,33 35.7462932,33 L18.2532811,33 C16.5836587,33 16.5808211,36 18.2532811,36" id="Fill-12" fill="#084D8A"></path>
                        <path d="M12.8125035,30.3914427 C11.7380408,31.5079713 10.6635782,32.6250816 9.58855565,33.742192 C9.10983467,33.1853823 8.63055378,32.6291544 8.1518328,32.0729266 C7.0504946,30.7940679 5.24423275,32.6809371 6.34053179,33.9539775 C7.10536554,34.8412657 7.86907948,35.7291357 8.63279341,36.6164238 C9.09415726,37.1522877 9.97545178,37.1028323 10.4440944,36.6164238 C11.8371445,35.1682532 13.2301945,33.7206643 14.6232446,32.2724937 C15.790092,31.0605453 13.9799108,29.1789125 12.8125035,30.3914427" id="Fill-14" fill="#084D8A"></path>
                        <path d="M30.7533868,44 L18.2470366,44 C16.5857327,44 16.5829102,47 18.2470366,47 L30.7533868,47 C32.4141262,47 32.4169487,44 30.7533868,44" id="Fill-16" fill="#084D8A"></path>
                        <path d="M12.8125035,41.3914363 C11.7380408,42.5079659 10.6635782,43.6250773 9.58855565,44.741607 C9.10983467,44.1853786 8.63055378,43.6291501 8.1518328,43.0729217 C7.0504946,41.7940619 5.24423275,43.6809329 6.34053179,44.9545563 C7.10536554,45.8412635 7.86907948,46.7291344 8.63279341,47.6164235 C9.09415726,48.1522879 9.97545178,48.1028324 10.4440944,47.6164235 L14.6232446,43.2730709 C15.790092,42.0605395 13.9799108,40.1789049 12.8125035,41.3914363" id="Fill-18" fill="#084D8A"></path>
                    </g>
                </g>
            </g>
        </g>
    </g>
</svg>