<?xml version="1.0" encoding="UTF-8"?>
<svg width="90px" height="90px" viewBox="0 0 90 90" version="1.1" xmlns="http://www.w3.org/2000/svg" xmlns:xlink="http://www.w3.org/1999/xlink">
    <title>icon_Recipes</title>
    <defs>
        <rect id="path-1" x="0" y="0" width="90" height="90"></rect>
        <polygon id="path-3" points="0 0.264781937 57.8338835 0.264781937 57.8338835 72.999829 0 72.999829"></polygon>
    </defs>
    <g id="Desktop" stroke="none" stroke-width="1" fill="none" fill-rule="evenodd">
        <g id="WAT_Article" transform="translate(-123.000000, -257.000000)">
            <g id="icon_Recipes" transform="translate(123.000000, 257.000000)">
                <mask id="mask-2" fill="white">
                    <use xlink:href="#path-1"></use>
                </mask>
                <g id="Mask"></g>
                <g mask="url(#mask-2)">
                    <g transform="translate(16.000000, 6.000000)">
                        <path d="M17.5,3 C19.4983754,3 19.5016239,0 17.5,0 C15.5016246,0 15.4983761,3 17.5,3" id="Fill-1" fill="#084D8A"></path>
                        <path d="M9.50020306,24 C11.4983075,24 11.5015565,21 9.50020306,21 C7.50155712,21 7.49830817,24 9.50020306,24" id="Fill-3" fill="#084D8A"></path>
                        <path d="M25.4997969,11 C27.4984429,11 27.5016918,8 25.4997969,8 C23.5016925,8 23.4984435,11 25.4997969,11" id="Fill-5" fill="#084D8A"></path>
                        <path d="M15.5329204,13.0025686 C15.458523,14.6136354 13.4654273,14.6237942 13.4654273,13.0025686 C13.4654273,11.3777576 15.458523,11.3932946 15.5329204,13.0025686 M14.3759868,16.9973688 C16.3205625,17.0756513 17.7195571,15.3964608 17.965392,13.3933838 C17.9896521,13.2738684 18.0052863,13.145987 17.9982778,13.0025686 C18.0052863,12.8603454 17.9901912,12.7342567 17.9659311,12.6153389 C17.7276438,10.6624583 16.3949599,9 14.4994434,9 C12.5446246,9 11.0119303,10.8835617 11,13.0025686 C10.9882094,15.0761597 12.4890961,16.9208789 14.3759868,16.9973688" id="Fill-7" fill="#084D8A"></path>
                        <path d="M23.532945,21.0025493 C23.4585471,22.6136083 21.4654379,22.623767 21.4654379,21.0025493 C21.4654379,19.3777461 23.4585471,19.3932831 23.532945,21.0025493 M22.3760036,24.9973301 C24.3205925,25.0762099 25.7195967,23.3964299 25.9648941,21.3939601 C25.9896934,21.2738478 26.0053278,21.145967 25.9983193,21.0025493 C26.0047886,20.8603267 25.9902325,20.7342387 25.9659723,20.6153215 C25.7276834,18.6624503 24.3949904,17 22.499461,17 C20.5440899,17 19.0119242,18.8841502 19,21.0025493 C18.9887423,23.0761304 20.488561,24.9208407 22.3760036,24.9973301" id="Fill-9" fill="#084D8A"></path>
                        <g id="Group-13" stroke-width="1" fill="none" transform="translate(0.000000, 3.000000)">
                            <mask id="mask-4" fill="white">
                                <use xlink:href="#path-3"></use>
                            </mask>
                            <g id="Clip-12"></g>
                            <path d="M54.8163631,50.5282047 C53.3353922,58.6996422 47.5359553,65.7139156 39.8512369,68.6219391 C34.3784019,70.6921734 26.6311786,70.8809469 20.9117029,69.5082047 C12.929101,67.5930953 6.29795534,61.4451266 3.79663495,53.5155016 C2.55273204,49.5683687 2.52288738,45.3104156 2.59665437,41.1191891 C2.99814951,41.4625172 3.42104272,41.7779 3.84787767,42.0596344 C7.61900388,44.5496188 12.3513534,45.6354937 16.7278194,46.3552281 C22.7885379,47.3515641 28.9917223,47.5648609 35.1110039,47.0823766 C40.6035476,46.6489391 46.2762854,45.7592516 51.3487515,43.4854156 C52.6861301,42.8860172 54.1113534,42.1189469 55.2826155,41.1226109 C55.3513146,44.2855641 55.3676447,47.4844469 54.8163631,50.5282047 M6.94496505,32.2879 C14.2822466,28.6493063 23.4090816,28.1183453 31.5414699,28.4354391 C26.6852369,32.6660172 22.414635,38.2374 22.0198971,44.5022828 C17.8315087,44.1241656 13.6977417,43.3331422 9.79315922,41.9872047 C7.61337282,41.2361031 3.57533398,39.8559469 2.79430485,37.2872594 C2.0521301,34.8434703 5.20778058,33.1490719 6.94496505,32.2879 M42.9241107,13.1407984 C44.4078971,10.5384625 48.0478194,0.852275 52.2930816,3.32400937 C56.4961107,5.77122031 50.3452951,13.3877438 48.8817806,15.95415 C47.6277417,18.1538453 46.374266,20.3529703 45.1202272,22.5526656 C43.8943437,24.7044547 42.5214893,27.2172516 39.5128097,25.7709391 C35.3232951,23.3208766 41.4453922,15.7345797 42.9241107,13.1407984 M40.1851592,30.0437203 C41.1711592,34.5942437 41.364868,39.7515797 39.5674311,43.9804469 C38.7931592,44.0905172 38.0200136,44.1891812 37.2491204,44.2724469 C38.5532757,39.60615 39.4750816,34.8389078 40.1851592,30.0437203 M37.431567,31.0953766 C36.7102272,35.6253687 35.7850427,40.1228531 34.500033,44.5256656 C33.0669262,44.6363063 31.6214311,44.71615 30.1674893,44.75265 C31.8832757,39.8462516 34.4915864,35.3527594 37.431567,31.0953766 M35.3508874,28.6572906 C35.5530427,28.6738297 35.7551981,28.6932203 35.9584796,28.7109 C32.4475087,33.6788922 29.3577417,38.9445875 27.4431786,44.7691891 C26.4904019,44.7594938 25.5381883,44.7315484 24.5859748,44.6830719 C24.9733922,38.2784625 30.2153534,32.5781891 35.3508874,28.6572906 M55.2032175,36.5555484 C55.0607515,39.1670094 51.4157612,40.6868922 49.4156058,41.4927438 C47.186266,42.3909859 44.8398,43.0251734 42.4634893,43.4922594 C43.8352175,39.1082672 43.6854311,34.2012984 42.7399748,29.67815 C44.5475476,30.052275 46.3325961,30.5233531 48.0742854,31.1244625 C50.3458583,31.9075016 55.0382272,33.5311813 55.2032175,36.5555484 M57.778868,36.5555484 C57.7867515,36.4009937 57.7664796,36.2658297 57.7343825,36.1397906 C57.1087709,30.8797984 50.3278388,28.5232672 44.6460913,27.3575484 C46.2830427,25.9112359 47.4993534,23.5963375 48.6745573,21.5357984 C51.0069456,17.4432359 53.5527515,13.4116969 55.6970621,9.2153375 C58.8358194,3.07592344 50.8695476,-3.06120938 46.2222272,2.348775 C45.1951204,3.54357969 44.5013728,5.15756406 43.727101,6.51490781 C42.2596447,9.08929844 40.7921883,11.6636891 39.3241689,14.2380797 C37.5712175,17.313775 34.3761495,21.7627828 35.6662272,25.22515 C35.3204796,25.4663922 34.9736058,25.7133375 34.6256058,25.9688375 C25.1507709,25.1664078 14.7242854,25.8131422 6.22306214,29.7614156 C3.7594699,30.9054625 0.74403301,32.7230484 0.183741748,35.6664312 C0.140945631,35.892275 0.120673786,36.1129859 0.110537864,36.330275 C0.0992757282,36.4027047 0.088576699,36.4757047 0.088576699,36.5555484 C0.088576699,42.0088766 -0.419345631,47.7872828 0.995741748,53.1043063 C3.16313981,61.2483687 9.21372233,67.9843297 16.9795282,71.0041344 C23.0284214,73.3566734 31.320732,73.5397437 37.6404796,72.0232828 C45.7452757,70.0785172 52.5751981,64.1227437 55.770266,56.3499547 C58.3566155,50.0582672 57.778868,43.2150875 57.778868,36.5555484" id="Fill-11" fill="#084D8A" mask="url(#mask-4)"></path>
                        </g>
                    </g>
                </g>
            </g>
        </g>
    </g>
</svg>