<?xml version="1.0" encoding="UTF-8"?>
<svg width="25px" height="26px" viewBox="0 0 25 26" version="1.1" xmlns="http://www.w3.org/2000/svg" xmlns:xlink="http://www.w3.org/1999/xlink">
    <title>Icon_Account</title>
    <defs>
        <polygon id="path-1" points="0 0.259299724 24.8033582 0.259299724 24.8033582 25.9999141 0 25.9999141"></polygon>
    </defs>
    <g id="Desktop" stroke="none" stroke-width="1" fill="none" fill-rule="evenodd">
        <g id="WAT_Home_Final_MegaShop" transform="translate(-1319.000000, -68.000000)" fill="#084D8A">
            <g id="MegaMenu_Shop">
                <g id="Nav_MegaMenu" transform="translate(57.000000, 68.000000)">
                    <g id="Icon_User" transform="translate(1261.062500, 0.000000)">
                        <g id="Group-28" fill="none">
                            <path d="M7.49808156,9.92455475 C7.51141481,9.86259765 7.52891471,9.80143488 7.55016458,9.7414636 C7.56558115,9.71167653 7.5801644,9.68149231 7.59849762,9.65249957 C7.54599794,9.72518 7.57849774,9.6664002 7.62016415,9.61953522 C7.63058076,9.60484027 7.6405807,9.59014531 7.65141396,9.57584752 L7.65224729,9.5750532 C7.64349735,9.58776235 7.63558073,9.60007434 7.62808077,9.61040052 C7.62974743,9.60881187 7.63141409,9.60682607 7.63266408,9.60523743 C7.64849732,9.58935099 7.66558055,9.57425888 7.68266378,9.55956393 C7.70641363,9.5456633 7.73099682,9.53414564 7.75516334,9.52103933 C7.79016312,9.51031598 7.82599624,9.50118129 7.86182936,9.49363523 C7.91307905,9.4908551 7.96432874,9.49045794 8.01557843,9.49284091 C8.05391153,9.50118129 8.09224463,9.51031598 8.13016107,9.52183365 C8.15224427,9.53414564 8.17516079,9.54407466 8.19641067,9.5567838 C8.20682727,9.56631566 8.21641054,9.5750532 8.22682715,9.5841879 C8.2180772,9.5750532 8.21182724,9.56790431 8.20807726,9.56313838 C8.21099391,9.56512418 8.21474389,9.56631566 8.2180772,9.56830147 C8.22932713,9.58021629 8.24432704,9.59689705 8.25682697,9.61476929 L8.29724339,9.65885414 C8.29724339,9.6592513 8.29724339,9.65964846 8.29724339,9.66004562 C8.28516013,9.64733648 8.27474352,9.63581881 8.26474359,9.62588979 C8.28724345,9.65964846 8.30432668,9.69658442 8.32349323,9.7323289 C8.34307644,9.78832858 8.35932635,9.8459169 8.37182627,9.90390238 C8.37682624,9.97380269 8.37682624,10.0433058 8.37182627,10.1132061 C8.36015967,10.1660285 8.34557643,10.2180566 8.32765987,10.2696875 C8.31015998,10.3022547 8.29557673,10.3356162 8.27516019,10.3661976 C8.27016022,10.3729493 8.26307693,10.3804954 8.25724363,10.3880415 C8.2564103,10.3888358 8.25599364,10.3896301 8.25557697,10.3900273 C8.24182706,10.4035307 8.22724381,10.4158427 8.21266057,10.428949 C8.1901607,10.4424525 8.16557752,10.453573 8.14224433,10.465885 C8.08807799,10.4829629 8.03307832,10.4984522 7.976412,10.5091755 C7.93266226,10.510367 7.88974586,10.5052039 7.84641278,10.5032181 C7.80141306,10.4936862 7.75682999,10.4821686 7.71266359,10.4686651 C7.69183039,10.4575446 7.67058052,10.4480127 7.65016397,10.4360979 L7.6230808,10.4114739 C7.63016409,10.41902 7.63641406,10.4261689 7.6405807,10.4309348 C7.63683072,10.4285519 7.63224741,10.4273604 7.62808077,10.4245802 C7.61808083,10.4130626 7.60724757,10.3999563 7.59808095,10.3864528 C7.58641436,10.374538 7.57516443,10.3618288 7.56474782,10.349914 C7.56433116,10.3491197 7.56433116,10.3487225 7.56391449,10.3483254 C7.57391443,10.3590487 7.58433104,10.3693749 7.59224766,10.3781124 C7.57266444,10.3487225 7.55849786,10.3165525 7.54183129,10.285574 C7.52391474,10.2343402 7.50933149,10.1827093 7.49808156,10.1298869 C7.49308159,10.0615752 7.49308159,9.99326357 7.49808156,9.92455475 M6.57225383,11.5143896 C6.96516812,11.8460189 7.46141511,12.0152094 7.98766193,11.9989258 C8.4818256,11.9750962 8.92682291,11.8194091 9.29640401,11.5020776 C9.58181895,11.2574265 9.78931769,10.8944215 9.8751505,10.5401541 C10.0509828,9.81176107 9.8601506,8.94197882 9.23598771,8.44791073 C8.47682564,7.84660921 7.39391552,7.85256662 6.6376701,8.45466246 C6.02267382,8.94396462 5.84434157,9.7708535 5.98059074,10.4917004 C6.05184031,10.8678118 6.27017233,11.2598095 6.57225383,11.5143896" id="Fill-1" fill="#084D8A"></path>
                            <path d="M8.4815,10.5485 C8.4765,10.5395 8.4695,10.5315 8.4635,10.5245 C8.4545,10.5125 8.4455,10.5005 8.4345,10.4895 C8.4205,10.4755 8.4055,10.4625 8.3915,10.4475 C8.4145,10.4755 8.4455,10.5095 8.4835,10.5525 C8.4825,10.5515 8.4825,10.5495 8.4815,10.5485" id="Fill-3" fill="#084D8A"></path>
                            <path d="M7.4055,10.467 L7.4145,10.479 C7.4225,10.488 7.4295,10.498 7.4385,10.507 C7.4505,10.52 7.4635,10.53 7.4745,10.542 C7.4555,10.519 7.4315,10.492 7.4005,10.458 C7.4025,10.461 7.4035,10.464 7.4055,10.467" id="Fill-5" fill="#FFFFFF"></path>
                            <path d="M7.4535,10.47 C7.4415,10.488 7.4285,10.504 7.4175,10.522 C7.4115,10.532 7.4075,10.543 7.4015,10.553 C7.4205,10.526 7.4435,10.491 7.4735,10.447 C7.4665,10.453 7.4595,10.462 7.4535,10.47" id="Fill-7" fill="#FFFFFF"></path>
                            <path d="M17.4815,10.5485 C17.4765,10.5395 17.4695,10.5315 17.4635,10.5245 C17.4545,10.5125 17.4455,10.5005 17.4345,10.4895 C17.4205,10.4755 17.4055,10.4625 17.3915,10.4475 C17.4145,10.4755 17.4445,10.5095 17.4835,10.5525 C17.4835,10.5515 17.4825,10.5495 17.4815,10.5485" id="Fill-9" fill="#FFFFFF"></path>
                            <path d="M16.453,10.47 C16.44,10.488 16.429,10.504 16.417,10.522 C16.411,10.532 16.407,10.543 16.401,10.553 C16.421,10.526 16.443,10.491 16.474,10.447 C16.466,10.453 16.46,10.462 16.453,10.47" id="Fill-11" fill="#FFFFFF"></path>
                            <path d="M16.4045,10.467 L16.4135,10.479 C16.4215,10.488 16.4285,10.498 16.4375,10.507 C16.4495,10.52 16.4635,10.53 16.4745,10.542 C16.4545,10.519 16.4305,10.492 16.4005,10.458 C16.4015,10.461 16.4025,10.464 16.4045,10.467" id="Fill-13" fill="#084D8A"></path>
                            <path d="M16.4980631,9.92455475 C16.5113962,9.86259765 16.5284792,9.80143488 16.5501455,9.7414636 C16.5659785,9.71167653 16.580145,9.68149231 16.598478,9.65249957 C16.5455622,9.72518 16.578895,9.6664002 16.6201442,9.61953522 C16.6301441,9.60484027 16.6405605,9.59014531 16.6513937,9.57584752 C16.652227,9.57545036 16.6518103,9.57545036 16.652227,9.5750532 C16.6434772,9.58776235 16.6355606,9.60007434 16.6284774,9.61040052 C16.6297274,9.60881187 16.6309774,9.60682607 16.632644,9.60523743 C16.6484771,9.58935099 16.6655601,9.57425888 16.6826431,9.55956393 C16.705976,9.5456633 16.7309756,9.53414564 16.7551418,9.52103933 C16.7905579,9.51031598 16.8263905,9.50118129 16.8622232,9.49363523 C16.9134723,9.4908551 16.9647214,9.49045794 17.0159705,9.49284091 C17.0538865,9.50118129 17.0922191,9.51031598 17.1297185,9.52183365 C17.1522181,9.53414564 17.175551,9.54407466 17.1963839,9.5567838 C17.2068004,9.56631566 17.2168002,9.5750532 17.2268,9.5841879 C17.2176335,9.57465604 17.2118003,9.56750715 17.2080504,9.56313838 C17.210967,9.56512418 17.2147169,9.56631566 17.2180502,9.56830147 C17.2297167,9.58021629 17.2438831,9.59689705 17.2567995,9.61476929 C17.2705493,9.62946424 17.2834657,9.64415919 17.2972155,9.65885414 L17.2972155,9.66004562 C17.2851323,9.64733648 17.2747159,9.63581881 17.264716,9.62588979 C17.2876323,9.65964846 17.3047153,9.69658442 17.323465,9.7323289 C17.343048,9.78832858 17.3592977,9.8459169 17.3722141,9.90390238 C17.377214,9.97380269 17.3767974,10.0433058 17.3722141,10.1132061 C17.360131,10.1660285 17.3455479,10.2180566 17.3276316,10.2696875 C17.3105486,10.3022547 17.2951322,10.3356162 17.2747159,10.3661976 C17.2705493,10.3729493 17.2630494,10.3804954 17.2572162,10.3880415 C17.2567995,10.3888358 17.2559662,10.3896301 17.2555495,10.3900273 C17.2422164,10.4035307 17.2272167,10.4158427 17.2126336,10.428949 C17.190134,10.4424525 17.1655511,10.453573 17.1422182,10.465885 C17.0880525,10.4829629 17.0330535,10.4984522 16.9763879,10.5091755 C16.9326386,10.510367 16.8897227,10.5052039 16.8463902,10.5032181 C16.8009743,10.4936862 16.7568085,10.4821686 16.7126426,10.4686651 C16.6918096,10.4575446 16.6701433,10.4480127 16.6501437,10.4360979 C16.6409772,10.4277575 16.6322274,10.4198143 16.6234775,10.4114739 C16.6301441,10.41902 16.6368106,10.4261689 16.6405605,10.4309348 C16.6368106,10.4285519 16.6322274,10.4273604 16.6280608,10.4245802 C16.6180609,10.4130626 16.6072278,10.3999563 16.5980613,10.3864528 C16.5863948,10.374538 16.5755617,10.3618288 16.5643119,10.349914 L16.5643119,10.3483254 C16.5738951,10.3590487 16.5843115,10.3693749 16.5926447,10.3781124 C16.5730617,10.3487225 16.5584787,10.3165525 16.5418123,10.285574 C16.5243126,10.2343402 16.5093129,10.1827093 16.4980631,10.1298869 C16.4934798,10.0615752 16.4934798,9.99326357 16.4980631,9.92455475 M15.5722463,11.5143896 C15.965156,11.8460189 16.4613971,12.0152094 16.987221,11.9989258 C17.4822121,11.9750962 17.9267875,11.8194091 18.2967809,11.5020776 C18.5817758,11.2574265 18.7892721,10.8944215 18.8751039,10.5401541 C19.0509341,9.81176107 18.8605208,8.94197882 18.235532,8.44791073 C17.4767956,7.84660921 16.3938983,7.85256662 15.6376618,8.45466246 C15.0226728,8.94396462 14.8443427,9.7708535 14.9805902,10.4917004 C15.0522556,10.8678118 15.2701684,11.2598095 15.5722463,11.5143896" id="Fill-15" fill="#084D8A"></path>
                            <g id="Group-19" transform="translate(0.937500, 0.000000)">
                                <mask id="mask-2" fill="white">
                                    <use xlink:href="#path-1"></use>
                                </mask>
                                <g id="Clip-18"></g>
                                <path d="M23.1115299,14.8831429 C22.478694,17.4352286 21.0626493,19.8714286 19.1518284,21.6854857 C17.4033209,23.3454 15.0988433,24.5930286 12.6376493,24.6182857 C10.0824254,24.6442857 7.67421642,23.2510571 5.82384328,21.5944857 C4.04847015,20.0047714 2.59697761,18.0116857 1.8936194,15.7236857 C1.33354478,13.9003429 1.23466418,11.9458857 1.63876866,10.0802 C2.43727612,6.39637143 5.09063433,3.23365714 8.75481343,2.12085714 C12.9048134,0.859857143 17.9984701,2.03022857 20.836903,5.37234286 C21.2171269,5.82028571 21.5451119,6.30722857 21.8443657,6.81162857 C23.2716045,9.28794286 23.8048134,12.0892571 23.1115299,14.8831429 M23.0522015,6.10851429 C21.7245896,3.87065714 19.7447388,2.18622857 17.3216045,1.22348571 C15.0201119,0.309028571 12.375709,0.0494 9.93205224,0.426028571 C5.58205224,1.09645714 2.0566791,4.28405714 0.655932836,8.39057143 C-0.0451865672,10.4468 -0.176902985,12.6731429 0.225335821,14.8036571 C0.697723881,17.3052286 1.97981343,19.5728 3.68914179,21.4451714 C5.55779851,23.4924857 8.11339552,25.3225143 10.8902612,25.8480857 C13.6227239,26.3654857 16.3939925,25.5204857 18.6201119,23.9218571 C23.3544403,20.5229143 26.1969776,13.9738857 24.1070522,8.33931429 C23.8201119,7.56637143 23.4637687,6.82314286 23.0522015,6.10851429 Z" id="Fill-17" fill="#084D8A" mask="url(#mask-2)"></path>
                            </g>
                            <path d="M12.3830035,13.6521745 C12.3833973,13.6525012 12.3833973,13.6528279 12.3833973,13.6528279 C12.3388887,13.6110128 12.3018638,13.567891 12.3830035,13.6521745 M12.2660205,14.9451756 C12.7111072,15.0340327 13.2050353,15.017372 13.6327913,14.8768994 C14.1440502,14.708659 14.6108004,14.4218336 14.8502807,13.9987824 C15.0137418,13.7090169 14.9593861,13.3248407 14.5851981,13.1605205 C14.2578821,13.0174345 13.7497742,13.0706834 13.5744967,13.3803764 C13.5528332,13.4189247 13.529988,13.4564929 13.5035979,13.4930811 C13.4980836,13.4999414 13.4921754,13.5071284 13.4870549,13.5139887 C13.4374258,13.5502502 13.3807067,13.5966388 13.3381675,13.6374739 C13.3314715,13.6413941 13.3251694,13.6453142 13.3180795,13.648581 C13.2775096,13.6701419 13.2357581,13.6894161 13.1932189,13.7077102 C13.202672,13.7054234 13.2105497,13.70379 13.2219723,13.7015032 C13.2066109,13.7047701 13.1912495,13.7103236 13.1754942,13.7145705 C13.1601328,13.7204507 13.1447714,13.7246976 13.1313794,13.7269843 C13.1132608,13.7328646 13.0951422,13.7384181 13.0770237,13.742665 C13.0340905,13.7531188 12.9907635,13.7612858 12.9470426,13.7687994 C12.9572835,13.7691261 12.9604346,13.7684727 12.9726449,13.7691261 C12.9635856,13.7687994 12.9537386,13.7694528 12.9446793,13.7691261 C12.9387711,13.7701061 12.9332567,13.7717395 12.9281362,13.7727196 C12.8714172,13.7815399 12.8383311,13.7736996 12.8698417,13.7694528 C12.811941,13.7707595 12.7536465,13.7714129 12.6957458,13.7701061 C12.6528127,13.7616124 12.6098795,13.7540988 12.5673403,13.7429917 C12.5578871,13.7407049 12.554736,13.7400515 12.5476462,13.7384181 C12.514954,13.7243709 12.4822617,13.7106503 12.4511451,13.694643 C12.4373592,13.6877827 12.4239672,13.6805957 12.4109691,13.6734087 C12.4117568,13.6521745 12.4125446,13.631267 12.4149079,13.609706 C12.4188467,13.5910853 12.4223917,13.5718111 12.4263305,13.552537 C12.4389347,13.4927545 12.4531145,13.4326453 12.4684759,13.3731894 C12.4956537,13.268325 12.5263765,13.1647673 12.561432,13.061863 C12.5964875,12.9592853 12.6358757,12.857361 12.6788089,12.7567435 C12.7028357,12.6992477 12.7304074,12.6424053 12.7560098,12.5852363 C12.7627058,12.5718424 12.7666446,12.5636754 12.7697957,12.5564884 C12.7764916,12.5444012 12.7827938,12.5326407 12.788702,12.5208802 C12.90214,12.3118047 13.0333028,12.1105696 13.179433,11.9161948 C13.3838578,11.6437433 13.2605727,11.2298392 12.9147443,11.0782595 C12.5523727,10.9194928 12.1226474,11.0070432 11.9040429,11.2977887 C11.6086313,11.6914386 11.3730898,12.1200433 11.2013572,12.5610619 C11.122187,12.7642571 11.0587719,12.9720259 11.0119,13.1820814 C10.9504544,13.4555129 10.8976742,13.7276377 10.9792078,14.0030293 C11.1217931,14.4871697 11.7047385,14.8324709 12.2660205,14.9451756" id="Fill-20" fill="#084D8A"></path>
                            <path d="M12.5264737,13.4762757 C12.5334737,13.4732757 12.5394737,13.4682757 12.5464737,13.4652757 C12.2794737,13.5322757 12.2984737,13.5472757 12.3894737,13.5252757 C12.4264737,13.5112757 12.4644737,13.5002757 12.5014737,13.4872757 C12.5094737,13.4842757 12.5174737,13.4812757 12.5264737,13.4762757" id="Fill-22" fill="#FFFFFF"></path>
                            <path d="M12.535,13.5002341 C12.435,13.4962341 12.372,13.4972341 12.34,13.5022341 C12.403,13.5002341 12.467,13.4992341 12.529,13.5012341 C12.531,13.5012341 12.533,13.5002341 12.535,13.5002341" id="Fill-24" fill="#FFFFFF"></path>
                            <path d="M19.9334406,15.5447458 C17.943174,17.1802032 15.4893328,18.3645262 12.962333,18.545438 C10.7732896,18.7026861 8.18098261,17.8897283 7.26382553,15.5268073 C7.12571666,15.1710906 6.8195218,14.9134631 6.44052537,15.0272009 C6.12647937,15.1210918 5.83348872,15.5470358 5.97338194,15.906951 C7.05434257,18.6919994 9.75835004,20.0454024 12.4780598,19.9988386 C15.3936915,19.9484581 18.3157468,18.6649008 20.6089964,16.7805944 C20.8973477,16.5435771 21.0436646,16.1680135 20.8484564,15.80161 C20.687151,15.498182 20.2192938,15.3100186 19.9334406,15.5447458" id="Fill-26" fill="#084D8A"></path>
                        </g>
                    </g>
                </g>
            </g>
        </g>
    </g>
</svg>