<?xml version="1.0" encoding="UTF-8"?>
<svg width="60px" height="60px" viewBox="0 0 60 60" version="1.1" xmlns="http://www.w3.org/2000/svg" xmlns:xlink="http://www.w3.org/1999/xlink">
    <title>icon_NoSesame_Line_W</title>
    <defs>
        <polygon id="path-1" points="4.64025503e-05 0.296571429 59.9339933 0.296571429 59.9339933 59.9999507 4.64025503e-05 59.9999507"></polygon>
    </defs>
    <g id="Desktop" stroke="none" stroke-width="1" fill="none" fill-rule="evenodd">
        <g id="WAT_Crisps_Shop_v2" transform="translate(-1188.000000, -337.000000)">
            <g id="Hero" transform="translate(0.000000, 1.000000)">
                <g id="Icon-Groups" transform="translate(178.000000, 335.000000)">
                    <g id="Group-32" transform="translate(1010.000000, 1.000000)">
                        <g id="Group-3">
                            <mask id="mask-2" fill="white">
                                <use xlink:href="#path-1"></use>
                            </mask>
                            <g id="Clip-2"></g>
                            <path d="M59.7499245,27.3512571 C58.9976604,21.0998286 57.4348302,14.7278286 53.4770943,9.72097143 C47.1097358,1.6644 36.417283,-0.861314286 26.6774717,0.763257143 C16.6801132,2.43125714 7.07841509,8.6604 2.7029434,18.0838286 C-3.32818868,31.0724 0.983320755,47.9078286 13.1486038,55.5958286 C25.1848302,63.2026857 41.6576604,60.6392571 51.3165283,50.3438286 C57.1155849,43.8712571 60.8208679,36.2461143 59.7499245,27.3512571" id="Fill-1" fill="#FFFFFF" mask="url(#mask-2)"></path>
                            <path d="M56.6695472,36.3341143 C55.3976604,40.9666857 52.6444528,44.9706857 49.4859623,48.4964 C48.2616226,49.8004 46.9229434,50.9712571 45.4953962,52.0021143 C45.492566,51.9992571 45.491434,51.9958286 45.4886038,51.9924 C34.3218113,38.0969714 23.1538868,24.2021143 11.9870943,10.3066857 C21.9980377,1.83925714 37.9665283,-0.3476 48.311434,8.13811429 C52.6653962,11.7089714 54.9855849,16.6626857 56.1895472,22.0946857 C57.2355849,26.8141143 57.9736981,31.5838286 56.6695472,36.3341143 M18.5984151,55.4672571 C5.56030189,50.2575429 -0.498,34.6021143 4.10218868,21.4661143 C5.35030189,17.9021143 7.43954717,14.7358286 10.0823774,12.0626857 C21.162,25.8484 32.2410566,39.6335429 43.3201132,53.4186857 C35.9395472,57.7741143 26.7193585,58.7124 18.5984151,55.4672571 M59.7499245,27.3512571 C58.9976604,21.0998286 57.4348302,14.7278286 53.4770943,9.72097143 C47.1097358,1.6644 36.417283,-0.861314286 26.6774717,0.763257143 C16.6801132,2.43125714 7.07841509,8.6604 2.7029434,18.0838286 C-3.32818868,31.0724 0.983320755,47.9078286 13.1486038,55.5958286 C25.1848302,63.2026857 41.6576604,60.6392571 51.3165283,50.3438286 C57.1155849,43.8712571 60.8208679,36.2461143 59.7499245,27.3512571" id="Fill-1" fill="#084D8A" mask="url(#mask-2)"></path>
                        </g>
                        <g id="Group-22" transform="translate(8.042769, 11.237232)" fill="#084D8A">
                            <path d="M36.5327594,26.8939572 C35.4872877,27.3824477 33.9504953,27.0903722 32.9650236,26.622259 C32.8880424,26.5854666 31.9591745,26.1450892 31.9874764,26.0154666 C31.966533,26.112259 33.3244575,25.58641 33.4399292,25.5484855 C34.3354009,25.2507496 35.2755896,25.0181081 36.2208726,25.0271647 C37.2595519,25.3056553 37.7055896,26.3454666 36.5327594,26.8939572 M36.6686085,22.481127 C36.6578537,22.4794289 36.6487971,22.481127 36.6380424,22.4799949 C36.5406839,22.4550892 36.437099,22.4381081 36.3244575,22.4347119 C34.3104953,22.376976 31.1955896,23.0443345 29.9327594,24.7679194 C28.2555896,27.0547119 31.097099,28.8490515 33.0414387,29.4054666 C35.2037028,30.0252779 38.4329481,29.8113156 39.5101179,27.5007496 C40.5578537,25.2507496 39.0414387,22.8162213 36.6686085,22.481127" id="Fill-4"></path>
                            <path d="M28.8724575,3.51065527 C28.9143443,3.42801376 29.359816,2.51839111 29.5024575,2.54895715 C29.3722688,2.5212213 29.8969858,3.94140998 29.9309481,4.0512213 C30.2083066,4.95065527 30.7409481,6.33065527 30.2218915,7.23235338 C29.750382,8.05254206 28.8634009,7.89291942 28.5135896,7.06990055 C28.0601934,6.0012213 28.3720802,4.49952319 28.8724575,3.51065527 M27.8796273,10.0687685 C29.3801934,10.7899005 31.1626462,10.346127 32.1820802,9.03688168 C33.4120802,7.45593828 33.1075519,5.54952319 32.6207594,3.73480621 C32.3026462,2.54839111 31.7615141,1.28159866 30.7505707,0.522542058 C28.4852877,-1.1778353 26.660382,1.65178734 26.0688726,3.57857979 C25.4071745,5.73291942 25.5826462,8.96442885 27.8796273,10.0687685" id="Fill-6"></path>
                            <path d="M15.5495707,29.2695043 C15.4505141,29.399693 14.7152311,30.3478062 14.563533,30.269127 C14.6801368,30.329127 14.4927783,29.0753534 14.4837217,28.979127 C14.3886273,27.9489383 14.3863632,26.8417685 14.6739104,25.8461081 C15.104099,24.7808251 16.303533,25.00441 16.5401368,26.0283722 C16.7857971,27.089127 16.168816,28.4498817 15.5495707,29.2695043 M17.6037217,23.1574289 C16.4184387,22.3706364 14.9461745,22.3423345 13.7625896,23.1455421 C12.5337217,23.9793156 12.0967405,25.2013911 11.8822122,26.5972402 C11.7763632,27.2804477 11.7491934,27.9862968 11.7837217,28.6762968 C11.8454198,29.940259 12.1318349,31.3836553 13.1144764,32.2706364 C15.134099,34.0927119 17.519382,31.3553534 18.359382,29.6232779 C19.3295707,27.6217685 19.7303254,24.569127 17.6037217,23.1574289" id="Fill-8"></path>
                            <path d="M17.5550424,4.15571187 C17.6127783,3.992693 17.7927783,3.38137225 17.9818349,3.16684394 C17.8810802,3.38420244 18.4052311,3.97118357 18.493533,4.142693 C18.9667405,5.06024017 19.3986273,6.1736364 19.4716462,7.20891942 C19.4122122,8.65344772 18.0350424,8.63533451 17.5363632,7.48854206 C17.0925896,6.46627791 17.1905141,5.17967413 17.5550424,4.15571187 M17.2091934,10.7092968 C19.7705141,11.6964666 22.108816,9.54891942 21.9452311,6.98137225 C21.8008915,4.72005149 21.1097594,1.89042885 18.8727783,0.817787341 C16.4971179,-0.321646621 15.1284387,2.62627791 14.7956085,4.4936364 C14.4084387,6.66156093 14.8799481,9.81156093 17.2091934,10.7092968" id="Fill-10"></path>
                            <path d="M25.1959858,15.7487307 C26.202967,15.2800515 27.5025896,15.3564666 28.528816,15.6977873 C28.7478726,15.7713722 28.9776839,15.8234477 29.189382,15.917976 C29.3807028,16.0034477 29.3931556,16.0487307 29.2657971,16.1772213 C29.1401368,16.3040138 28.9227783,16.4364666 28.768816,16.5389194 C28.3844764,16.7947685 27.9520236,16.967976 27.5280613,17.1440138 C26.8986273,17.4049572 26.234099,17.612127 25.5525896,17.672127 C24.1307028,17.6381647 24.0407028,16.2859005 25.1959858,15.7487307 M25.1473066,20.163259 C25.3233443,20.1830704 25.5016462,20.1915609 25.6816462,20.1875987 C27.8371179,20.1394855 30.9152311,19.0849572 31.8995707,16.983259 C33.0214575,14.5877873 30.0644764,13.2660892 28.1857971,12.9559005 C26.0144764,12.5981647 22.8712688,13.1149572 22.0001368,15.4504289 C21.1284387,17.7847685 22.9103254,19.9102402 25.1473066,20.163259" id="Fill-12"></path>
                            <path d="M24.625533,36.7415987 C23.7481745,37.3065043 22.7411934,37.767259 21.715533,37.9795232 C20.1957217,37.9778251 20.1911934,36.5287685 21.535533,35.9632968 C22.5623254,35.531976 23.7430802,35.5212213 24.8010047,35.83141 C24.9521368,35.876127 25.2244009,35.9259383 25.4372311,36.0136741 C25.4032688,36.0646175 25.3676085,36.1302779 25.3279858,36.2185798 C25.1151556,36.4217873 24.880816,36.5955609 24.625533,36.7415987 M24.1744009,33.0799005 C21.9900613,32.846693 18.8066651,33.5774477 18.0628915,35.9548062 C17.6859104,37.1599005 17.9587405,38.4680138 18.8276085,39.3923534 C20.1810047,40.8329194 22.3127028,40.6557496 24.0057217,40.0200892 C25.6047783,39.4189572 27.5842122,38.3474477 28.0959104,36.5785798 C28.7717594,34.241976 25.9591179,33.2700892 24.1744009,33.0799005" id="Fill-14"></path>
                            <path d="M4.29074054,27.3038251 C3.43602356,26.6342024 2.87677828,25.5236364 2.68036318,24.4736364 C2.62602356,24.1787307 2.53206129,23.7292968 2.58130658,23.4049572 C2.84451412,23.492693 3.09130658,23.6138251 3.32055186,23.7700515 C4.25168394,24.3292968 5.24338205,25.2128817 5.83149526,26.1242024 C6.4501745,27.3677873 5.25130658,28.0560892 4.29074054,27.3038251 M8.03451412,24.8342024 C7.5001745,23.7994855 6.59734431,22.9255232 5.69168394,22.1964666 C4.65130658,21.3592968 3.28036318,20.5657119 1.89187262,20.823259 C-0.434542479,21.2551458 -0.181523611,24.2166553 0.387910351,25.9192968 C1.08640092,28.0068439 2.97130658,30.5109949 5.4301745,30.2625043 C7.16224997,30.0870326 8.40300469,28.7308062 8.51394809,27.0077873 C8.56545752,26.2153345 8.37413677,25.4919383 8.03451412,24.8342024" id="Fill-16"></path>
                            <path d="M37.3480802,16.7052779 C36.9377028,15.8188628 37.4080802,14.3109383 37.8224198,13.5184855 C37.9797783,13.2162213 38.1733632,12.641127 38.4444953,12.431693 C39.0286462,11.981127 39.2471368,14.8249005 39.2584575,15.0773534 C39.2816651,15.6179194 39.3722311,16.31641 39.0733632,16.7777307 C38.619967,17.4762213 37.706382,17.4796175 37.3480802,16.7052779 M40.3922311,10.211127 C38.2118537,8.17339111 35.9375141,11.1937685 35.185816,13.1047119 C34.3582688,15.20641 34.2846839,18.2901836 36.5527971,19.5088628 C38.890533,20.7643345 41.2395896,19.0667873 41.6844953,16.7024477 C42.0897783,14.546976 42.1254387,11.832259 40.3922311,10.211127" id="Fill-18"></path>
                            <path d="M8.2695896,16.0369572 C8.26562733,16.0437496 8.26166507,16.0505421 8.25713677,16.0567685 C8.13543865,16.2220515 7.68940092,16.1195987 7.51732545,16.1145043 C6.43789148,16.0828062 5.14845752,15.8105421 4.19128771,15.3112968 C3.07336318,14.5731836 3.69883488,13.3505421 4.94298582,13.5220515 C5.95223111,13.6612968 6.93713677,14.3031836 7.60902356,15.0429949 C7.75845752,15.2065798 8.40713677,15.7748817 8.2695896,16.0369572 M8.86845752,12.6701647 C7.17940092,11.2329949 4.17487262,10.005259 2.24977828,11.6948817 C1.29487262,12.5331836 0.831853747,13.7807307 1.10581601,15.0328062 C1.54506129,17.0422402 3.26355186,17.8907307 5.06977828,18.3939383 C6.68638205,18.8439383 8.86392922,19.1405421 10.2535519,17.955259 C12.099967,16.37941 10.2416651,13.8390326 8.86845752,12.6701647" id="Fill-20"></path>
                        </g>
                    </g>
                </g>
            </g>
        </g>
    </g>
</svg>
