<svg xmlns="http://www.w3.org/2000/svg" xmlns:xlink="http://www.w3.org/1999/xlink" width="60" height="60" viewBox="0 0 60 60">
  <defs>
    <polygon id="icon_no-eggs_solid-a" points="0 0 60 0 60 60 0 60"/>
    <path id="icon_no-eggs_solid-c" d="M30.8604,0 C18.4902,0 6.315,8.3358 1.9116,19.821 L1.9116,19.821 C-3.3948,33.6492 2.7282,50.208 15.5592,56.7282 L15.5592,56.7282 C19.7688,58.8696 24.5658,60 29.4324,60 L29.4324,60 L29.4336,60 C38.2158,60 46.6284,56.445 52.5072,50.2506 L52.5072,50.2506 C57.4308,44.7954 59.9994,37.881 60,30.7698 L60,30.7698 L60,30.7368 C59.9964,26.8776 59.2362,22.9608 57.6858,19.1886 L57.6858,19.1886 C53.3592,8.649 43.8672,1.1694 33.5058,0.132 L33.5058,0.132 C32.6244,0.0426 31.7412,0 30.8604,0 Z"/>
  </defs>
  <g fill="none" fill-rule="evenodd">
    <mask id="icon_no-eggs_solid-b" fill="#fff">
      <use xlink:href="#icon_no-eggs_solid-a"/>
    </mask>
    <path fill="#084D8A" d="M29.43228,59.99988 C24.56568,59.99988 19.76928,58.87008 15.55908,56.72808 C2.72808,50.20788 -3.39492,33.64908 1.91148,19.82088 C6.31488,8.33568 18.49008,-0.00012 30.86028,-0.00012 C31.74168,-0.00012 32.62428,0.04308 33.50568,0.13188 C43.86768,1.16988 53.35908,8.64888 57.68628,19.18848 C62.09628,29.92248 60.11088,41.82648 52.50708,50.25108 C46.62828,56.44488 38.21628,59.99988 29.43408,59.99988 L29.43228,59.99988 Z" mask="url(#icon_no-eggs_solid-b)"/>
    <mask id="icon_no-eggs_solid-d" fill="#fff">
      <use xlink:href="#icon_no-eggs_solid-c"/>
    </mask>
    <polygon fill="#FEFEFE" points="46.255 56.094 7.826 7.515 9.418 6.256 47.846 54.835" mask="url(#icon_no-eggs_solid-d)"/>
    <path fill="#FEFEFE" d="M14.25648,36.222 C15.00588,40.7094 17.74908,43.3914 21.59748,43.3914 C22.28088,43.3914 23.00208,43.3056 23.74368,43.1376 C27.44388,42.2976 29.60928,39.4938 29.68488,35.4444 L29.69988,34.6902 L27.27168,36.5418 C27.16308,36.624 27.04128,36.6666 26.90028,36.6666 C26.58888,36.6666 26.21628,36.453 25.99308,36.1464 L24.52068,34.1268 L22.43628,36.7788 C22.31748,36.9306 22.07268,37.0224 21.79728,37.0224 C21.52008,37.0224 21.27108,36.927 21.15048,36.7758 L19.22448,34.3602 L17.21088,36.8712 C17.04888,37.0722 16.81308,37.1148 16.64328,37.1148 C16.36788,37.1148 16.07688,37.0062 15.88548,36.8316 L14.25648,36.222 Z M30.47388,31.9224 C30.57948,31.9224 30.68328,31.9524 30.78228,32.0082 C31.13568,32.1204 31.29708,32.3244 31.34868,32.6538 C31.94748,36.5484 31.07448,40.08 28.95048,42.3402 L28.58448,42.7326 L29.08068,42.93 C30.05268,43.3158 31.05288,43.5132 32.05488,43.5132 C36.14808,43.5132 39.91608,40.11 40.82208,35.5992 C41.82228,30.621 39.66888,24.819 37.51908,21.363 C36.53808,19.7784 34.89228,17.6694 32.62608,16.6086 C32.13108,16.3782 31.61628,16.2594 31.09608,16.2594 C28.67148,16.2594 26.55408,18.7866 25.20408,20.9052 C23.25828,23.9592 22.36368,27.7218 22.39008,32.7462 L22.39488,33.7872 L23.90028,31.8732 C24.04368,31.692 24.21588,31.6098 24.43488,31.6098 C24.77328,31.6098 25.17408,31.8234 25.38888,32.1204 L27.02748,34.3704 L29.99988,32.1036 C30.16068,31.9818 30.32028,31.9224 30.47388,31.9224 L30.47388,31.9224 Z M32.06148,45.378 C30.42768,45.378 28.82148,44.976 27.29028,44.1852 L27.10188,44.0406 L26.72388,44.0406 C25.77828,44.5446 24.70728,44.9004 23.54088,45.0978 C22.85028,45.2166 22.19028,45.2724 21.55848,45.2724 C19.03308,45.2724 16.82988,44.3502 15.18588,42.6102 C13.06188,40.3632 11.97228,36.8808 12.19668,33.0624 C12.23328,32.4462 12.72348,32.1138 13.16748,32.1138 C13.40808,32.1138 13.63608,32.2056 13.82928,32.3838 L16.46508,34.7988 L18.58428,32.1534 C18.70608,32.0016 18.95388,31.9062 19.22928,31.9062 C19.49508,31.9062 19.73808,31.998 19.85988,32.1432 L20.48388,32.8878 L20.50548,31.9158 C20.65368,25.1682 22.65228,19.9692 26.44848,16.467 C28.11888,14.925 29.44728,14.2662 30.89028,14.2662 C31.54668,14.2662 32.21688,14.4048 32.93808,14.6946 C35.87388,15.8676 37.94688,18.4572 39.16848,20.421 C42.42288,25.6626 44.41968,33.5004 41.54388,39.1938 C39.62028,43.0092 35.98848,45.378 32.06328,45.378 L32.06148,45.378 Z"/>
  </g>
</svg>
