<?xml version="1.0" encoding="UTF-8"?>
<svg width="44px" height="38px" viewBox="0 0 44 38" version="1.1" xmlns="http://www.w3.org/2000/svg" xmlns:xlink="http://www.w3.org/1999/xlink">
    <title>Icon_SMS</title>
    <defs>
        <polygon id="path-1" points="0 0 43.3116778 0 43.3116778 37.956444 0 37.956444"></polygon>
    </defs>
    <g id="Desktop" stroke="none" stroke-width="1" fill="none" fill-rule="evenodd">
        <g id="WAT_QR_FAQ" transform="translate(-731.000000, -637.000000)">
            <g id="Group-2" transform="translate(708.000000, 624.000000)">
                <g id="Icon_SMS" transform="translate(23.000000, 13.000000)">
                    <path d="M14.0639,15.7591556 C14.0639,17.4391556 12.7019,18.8001556 11.0229,18.8001556 C9.3429,18.8001556 7.9809,17.4391556 7.9809,15.7591556 C7.9809,14.0791556 9.3429,12.7181556 11.0229,12.7181556 C12.7019,12.7181556 14.0639,14.0791556 14.0639,15.7591556" id="Fill-1" fill="#084D8A"></path>
                    <path d="M24.8087,15.7591556 C24.8087,17.4391556 23.4467,18.8001556 21.7677,18.8001556 C20.0877,18.8001556 18.7257,17.4391556 18.7257,15.7591556 C18.7257,14.0791556 20.0877,12.7181556 21.7677,12.7181556 C23.4467,12.7181556 24.8087,14.0791556 24.8087,15.7591556" id="Fill-3" fill="#084D8A"></path>
                    <path d="M35.5534,15.7591556 C35.5534,17.4391556 34.1914,18.8001556 32.5124,18.8001556 C30.8324,18.8001556 29.4704,17.4391556 29.4704,15.7591556 C29.4704,14.0791556 30.8324,12.7181556 32.5124,12.7181556 C34.1914,12.7181556 35.5534,14.0791556 35.5534,15.7591556" id="Fill-5" fill="#084D8A"></path>
                    <g id="Group-9">
                        <mask id="mask-2" fill="white">
                            <use xlink:href="#path-1"></use>
                        </mask>
                        <g id="Clip-8"></g>
                        <path d="M36.4769,28.7315556 L36.4769,28.7315556 C35.8009,28.7315556 35.2269,29.3045556 35.2269,29.9815556 C35.2269,31.6455556 35.0539,33.3965556 35.2239,35.0485556 C34.4049,34.4725556 33.5779,33.9065556 32.7549,33.3355556 C30.5129,31.7795556 28.0129,29.2685556 25.3299,28.7315556 C19.0679,27.4775556 4.6169,32.7385556 2.9169,23.5355556 C2.1509,19.3895556 2.9169,14.3915556 2.9169,10.1705556 C2.9169,6.11655556 4.6369,3.14555556 8.9719,2.66755556 C13.2849,2.19255556 17.9199,2.66755556 22.2579,2.66755556 C26.4099,2.66755556 30.6609,2.40055556 34.8049,2.66755556 C40.7599,3.05155556 40.6179,7.90455556 40.6179,12.3195556 C40.6179,15.9785556 42.7239,28.0115556 36.4769,28.7315556 M43.1179,6.87955556 C42.6909,2.14455556 39.4439,0.251555556 35.0479,0.167555556 C29.8109,0.0685555556 24.5629,0.167555556 19.3259,0.167555556 C15.3049,0.167555556 11.0859,-0.209444444 7.0789,0.167555556 C1.8929,0.656555556 0.4169,4.43955556 0.4169,9.05255556 C0.4169,16.8415556 -2.7801,31.0475556 8.5319,31.2315556 C11.6329,31.2815556 14.7399,31.2315556 17.8409,31.2315556 C20.0629,31.2315556 23.1759,30.6795556 25.3789,31.2125556 C25.2529,31.2075556 25.6859,31.4415556 26.3199,31.9035556 C27.6279,32.8575556 28.9849,33.7535556 30.3159,34.6765556 C32.0469,35.8785556 33.9109,37.8185556 36.0949,37.9545556 C36.5319,37.9825556 36.9559,37.6955556 37.1739,37.3355556 C38.2139,35.6185556 37.8779,33.1055556 37.7609,30.9945556 C42.2409,29.8965556 43.1179,26.0845556 43.1179,21.6245556 C43.1179,16.7745556 43.5539,11.7105556 43.1179,6.87955556" id="Fill-7" fill="#084D8A" mask="url(#mask-2)"></path>
                    </g>
                </g>
            </g>
        </g>
    </g>
</svg>