<svg xmlns="http://www.w3.org/2000/svg" xmlns:xlink="http://www.w3.org/1999/xlink" width="60" height="60" viewBox="0 0 60 60">
  <defs>
    <path id="icon_no-wheat_solid-a" d="M31.6152,0 C29.0358,0 26.4288,0.357 23.8668,1.062 L23.8668,1.062 C11.9454,4.338 2.5686,13.8408 0.5316,24.7026 L0.5316,24.7026 C0.1764,26.5992 0.003,28.497 0,30.3738 L0,30.3738 L0,30.4686 C0.0168,42.102 6.5766,52.9098 16.9554,57.4602 L16.9554,57.4602 C20.802,59.1468 24.9366,60 29.2482,60 L29.2482,60 L29.25,60 C37.9788,60 46.347,56.4654 52.1994,50.3052 L52.1994,50.3052 C57.3624,44.5788 59.9838,38.1276 60,31.122 L60,31.122 L60,30.9846 C59.9994,30.876 59.9988,30.7674 59.997,30.6582 L59.997,30.6582 C59.8974,23.4726 58.2288,17.442 55.0356,12.7332 L55.0356,12.7332 C49.5504,4.6392 41.0136,0 31.6152,0 Z"/>
  </defs>
  <g fill="none" fill-rule="evenodd">
    <path fill="#084D8A" d="M29.2482,60 C24.9366,60 20.802,59.1468 16.9554,57.4608 C4.8744,52.1634 -2.0316,38.3886 0.5316,24.7026 C2.5686,13.8408 11.9454,4.338 23.8668,1.0614 C26.4288,0.357 29.0358,0 31.6152,0 C41.0136,0 49.5504,4.6392 55.0356,12.7332 C58.2288,17.442 59.8974,23.4732 59.997,30.6582 C60.0984,37.8432 57.4758,44.4528 52.1994,50.3052 C46.347,56.4654 37.9788,60 29.25,60 L29.2482,60 Z"/>
    <mask id="icon_no-wheat_solid-b" fill="#fff">
      <use xlink:href="#icon_no-wheat_solid-a"/>
    </mask>
    <polygon fill="#FEFEFE" points="46.19 56.184 7.567 7.431 9.157 6.171 47.78 54.924" mask="url(#icon_no-wheat_solid-b)"/>
    <g fill="#FEFEFE" transform="translate(19.8 10.2)">
      <path d="M1.36986,30.74124 C1.08966,30.74124 0.83226,30.84084 0.66126,31.01244 C0.50586,31.16784 0.42786,31.38264 0.429629545,31.64364 C0.48126,36.88824 3.57606,39.94644 9.14286,40.25424 L9.48966,40.27044 L9.48966,40.61784 L9.48966,41.48724 C9.48966,42.20184 10.08846,42.39324 10.44186,42.39324 C10.79706,42.39324 11.39586,42.20184 11.39586,41.48724 L11.39586,40.54824 L11.39586,40.22124 L11.72406,40.18464 C16.77006,39.64884 19.87566,36.69984 20.94846,31.42584 C21.02706,31.04184 20.89206,30.77784 20.76606,30.62544 C20.56026,30.37404 20.22726,30.21864 19.89726,30.21864 C19.65666,30.21864 19.23846,30.30444 19.12266,30.87384 C18.18846,35.45004 15.93366,37.72824 11.81046,38.26344 L11.39586,38.31624 L11.39586,37.89984 L11.39586,32.23224 L11.39586,31.88184 L11.74566,31.86864 C13.52766,31.78644 15.80646,31.47204 17.62986,29.75604 C19.91166,27.60024 20.32026,24.68004 20.26146,22.60704 C20.24346,21.97584 19.75086,21.69144 19.27026,21.69144 C18.99306,21.69144 18.73926,21.79044 18.57306,21.95904 C18.42066,22.11444 18.34746,22.32624 18.35466,22.58724 C18.42066,24.93144 17.82726,26.79324 16.59066,28.11624 C15.18906,29.62704 13.28286,29.90124 11.77926,29.97084 L11.39586,29.99064 L11.39586,29.60724 L11.39586,23.40744 L11.39586,23.07024 L11.73366,23.04384 C16.66206,22.66044 20.07606,19.05924 20.43126,13.87164 C20.44926,13.61664 20.38626,13.41204 20.24526,13.25964 C20.08926,13.09404 19.84206,12.99864 19.56486,12.99864 C19.07766,12.99864 18.56646,13.28304 18.52386,13.92084 C18.24846,17.92164 15.60906,20.75544 11.79906,21.14244 L11.39586,21.18204 L11.39586,20.77884 L11.39586,15.60744 L11.39586,15.28344 L11.71926,15.24384 C13.49046,15.03504 15.89406,14.39064 17.28426,12.50604 C19.34466,9.71184 18.87366,5.06604 18.53046,1.67724 L18.47046,1.07844 C18.40746,0.44064 17.86506,0.14964 17.38566,0.14964 C17.11146,0.14964 16.87146,0.24204 16.72386,0.40404 C16.59066,0.54924 16.53426,0.75444 16.55946,1.00584 L16.61586,1.57764 C16.88286,4.22304 17.18286,7.21884 16.40406,9.84084 C15.83166,11.76504 14.24526,12.96864 11.81526,13.32564 L11.39586,13.38864 L11.39586,12.96564 L11.39586,1.56444 C11.39586,0.85044 10.79526,0.65844 10.44186,0.65844 C10.08846,0.65844 9.48966,0.85044 9.48966,1.56444 L9.48966,12.99504 L9.48966,13.41204 L9.07326,13.35864 C3.93426,12.66804 4.11546,7.47984 4.26126,3.31044 C4.28406,2.66244 4.30626,2.03064 4.30926,1.43544 C4.30926,1.17084 4.23186,0.95964 4.07226,0.80064 C3.90126,0.62844 3.64086,0.53304 3.36006,0.53304 C3.00606,0.53304 2.40546,0.72144 2.40186,1.43544 C2.40006,2.18304 2.36706,2.94684 2.33346,3.72384 C2.22126,6.37224 2.10486,9.11004 3.17646,11.45784 C4.16466,13.62324 6.34626,15.01884 9.15786,15.29004 L9.48966,15.32304 L9.48966,15.65364 L9.48966,20.65344 L9.48966,21.09624 L9.05526,21.01344 C5.67966,20.37204 2.16786,17.89224 2.43306,13.95744 C2.45166,13.69944 2.38866,13.49424 2.24586,13.34244 C2.08986,13.17744 1.84266,13.08084 1.56726,13.08084 C1.08006,13.08084 0.56886,13.36584 0.52566,14.00364 C0.19026,18.94044 4.73226,22.30344 9.17826,22.96464 L9.48966,23.01084 L9.48966,23.32464 L9.48966,29.55384 L9.48966,29.96424 L9.08226,29.91804 C5.26146,29.48484 3.28566,27.05424 3.36546,22.88484 C3.37026,22.62384 3.29406,22.41204 3.14166,22.25664 C2.97246,22.08504 2.71686,21.98904 2.43666,21.98904 C1.95846,21.98904 1.47126,22.26984 1.45746,22.89804 C1.35726,28.20864 4.09026,31.38264 9.15666,31.83564 L9.48966,31.86564 L9.48966,32.19924 L9.48966,37.99584 L9.48966,38.38284 L9.10206,38.35944 C4.77906,38.10144 2.37726,35.71764 2.33706,31.65084 C2.33046,30.93324 1.72506,30.74124 1.36986,30.74124"/>
      <path d="M3.61752,6.13422 C3.15972,6.13422 3.11472,6.49782 3.11172,6.61002 C3.10392,6.82842 3.21132,7.25202 3.67932,7.28802 C5.43732,7.42362 6.99312,8.22702 8.05992,9.54642 C9.27072,11.04102 9.26232,12.78402 9.15132,14.44002 C9.14112,14.59542 9.17652,14.71782 9.25872,14.80362 C9.35052,14.90322 9.49992,14.95902 9.66912,14.95902 C9.89292,14.95902 10.27992,14.84022 10.30752,14.39382 C10.43532,12.47922 10.34412,10.45902 8.82972,8.67702 C7.55412,7.17882 5.75292,6.29922 3.62292,6.13422 L3.61752,6.13422 Z"/>
      <path d="M10.81164 14.19552C10.64604 14.19552 10.50144 14.14272 10.41744 14.04672 10.34244 13.96392 10.31244 13.84812 10.32744 13.69632 10.69104 10.11192 13.22064 6.25992 17.19504 6.18372 17.70204 6.18372 17.73204 6.64032 17.7338611 6.73272 17.73564 6.95112 17.62284 7.32792 17.17944 7.33452 14.00964 7.39392 11.79384 10.57812 11.48544 13.62312 11.43864 14.07612 11.04084 14.19552 10.81164 14.19552M9.90624 21.56592C9.63384 21.56592 9.31224 21.42012 9.29904 21.01332 9.22284 18.48372 6.99024 16.42752 4.32264 16.42752 3.70704 16.42752 3.11004 16.53972 2.54784 16.76112 2.50764 16.76472 2.47344 16.76772 2.43804 16.76772 2.07444 16.76772 1.96404 16.55952 1.92864 16.37772 1.88064 16.11972 1.95204 15.76932 2.31744 15.62712 2.96604 15.36912 3.64884 15.24012 4.34904 15.24012 7.56384 15.24012 10.36044 17.89212 10.45524 21.03312 10.46004 21.19212 10.41744 21.31752 10.32864 21.40692 10.23084 21.50952 10.07664 21.56592 9.90624 21.56592M11.20188 22.68342C11.02728 22.68342 10.86828 22.62342 10.76508 22.52142 10.67208 22.42842 10.62588 22.29942 10.62588 22.14102 10.63128 18.77802 13.26228 16.04382 16.49148 16.04382 17.00748 16.04382 17.53008 16.11642 18.04368 16.25862 18.45708 16.37082 18.45708 16.71822 18.43728 16.86402 18.40248 17.11842 18.22308 17.39322 17.91348 17.39322 17.32068 17.25042 16.89588 17.19462 16.47648 17.19462 13.89348 17.19462 11.78748 19.41282 11.78088 22.14102 11.77908 22.66662 11.26008 22.68342 11.20188 22.68342M10.08228 30.57582C9.85308 30.57582 9.45648 30.45702 9.41388 30.00762L9.37008 29.45502C9.27228 28.09302 9.14988 26.39622 7.78788 25.61982 7.10808 25.23282 6.25548 25.04442 5.17848 25.04442 4.52328 25.04442 3.86628 25.11342 3.26928 25.18002L3.25968 25.18002C2.83968 25.18002 2.78508 24.87882 2.77848 24.74982 2.76348 24.48882 2.90448 24.07542 3.35208 24.02562 3.92628 23.95962 4.53348 23.90982 5.14548 23.90982 6.75468 23.90982 7.96668 24.24702 8.85108 24.94482 10.21608 26.01942 10.37748 27.85122 10.53168 29.61702L10.57308 30.07302C10.58628 30.22542 10.55448 30.34482 10.47828 30.43062 10.39188 30.52302 10.24788 30.57582 10.08228 30.57582"/>
      <path d="M10.74546,30.60912 C10.57446,30.60912 10.42206,30.55272 10.32426,30.45372 C10.23786,30.36072 10.19646,30.23892 10.20306,30.07992 C10.30086,27.37152 11.25126,25.53372 13.02786,24.60792 C13.95546,24.12492 15.03666,23.89032 16.33386,23.89032 C17.15346,23.89032 18.03546,23.98272 19.11366,24.17772 C19.45866,24.24072 19.51026,24.47892 19.49406,24.66372 C19.46586,24.97152 19.22526,25.28532 18.87186,25.28532 C17.98146,25.13352 17.16486,25.02432 16.35426,25.02432 C15.46806,25.02432 14.70786,25.15332 14.02986,25.41432 C12.34446,26.06952 11.44566,27.63012 11.35806,30.05352 C11.34066,30.49332 10.96446,30.60912 10.74546,30.60912 M10.01706,39.36792 C9.79146,39.36792 9.40386,39.24912 9.37206,38.80272 C9.26046,37.24512 8.37546,35.21472 6.89526,34.34532 C6.10086,33.87552 4.94286,33.57492 3.94626,33.57492 C3.38046,33.57492 2.89626,33.67092 2.50506,33.85632 C2.44326,33.86232 2.38326,33.86592 2.32926,33.86592 C1.86606,33.86592 1.66206,33.62772 1.60866,33.39672 C1.55766,33.17172 1.64526,32.99952 1.87086,32.89392 C2.46966,32.60292 3.21426,32.45052 4.02066,32.45052 C5.21166,32.45052 6.50406,32.78772 7.47966,33.34992 C9.38346,34.44792 10.39566,36.97092 10.52826,38.85552 C10.53966,39.00792 10.50546,39.12972 10.42386,39.21612 C10.33266,39.31152 10.18446,39.36792 10.01706,39.36792"/>
      <path d="M17.10348,32.09358 C14.97048,32.09358 13.04928,32.82438 11.83188,34.09758 C10.77528,35.19858 10.26108,36.69618 10.34388,38.42538 C10.36608,38.86518 10.74528,38.98458 10.96728,38.98458 C11.13708,38.98458 11.29008,38.92818 11.38428,38.82918 C11.46828,38.73978 11.50848,38.61438 11.50008,38.45838 C11.42868,37.00038 11.85168,35.74698 12.72108,34.83798 C13.70988,33.80298 15.24108,33.23418 17.03088,33.23418 C17.82168,33.23418 18.61968,33.34338 19.40268,33.56538 C19.46448,33.58158 19.52388,33.59178 19.58028,33.59178 C19.88748,33.59178 20.06508,33.31698 20.09928,33.06258 C20.11428,32.94978 20.13288,32.56938 19.70628,32.45058 C18.85368,32.21238 17.97768,32.09358 17.10348,32.09358"/>
    </g>
  </g>
</svg>
