<svg xmlns="http://www.w3.org/2000/svg" xmlns:xlink="http://www.w3.org/1999/xlink" width="60" height="60" viewBox="0 0 60 60">
  <defs>
    <polygon id="icon_no-tree-nuts_solid-a" points="0 0 60 0 60 60 0 60"/>
    <path id="icon_no-tree-nuts_solid-c" d="M32.0652,0 C29.8602,0 27.6252,0.2358 25.4238,0.705 L25.4238,0.705 C11.8788,3.5838 1.7544,14.088 0.2292,26.8494 L0.2292,26.8494 C0.078,28.113 0.0024,29.3712 0,30.615 L0,30.615 L0,30.7362 C0.0216,42.7584 6.831,53.577 17.46,57.852 L17.46,57.852 C21.0024,59.2788 24.8136,60 28.7892,60 L28.7892,60 C37.368,60 45.7584,56.6352 51.7998,50.7798 L51.7998,50.7798 C57.174,45.276 59.9676,37.6842 60,29.8788 L60,29.8788 L60,29.6088 C59.9766,23.9022 58.479,18.0924 55.4352,12.9108 L55.4352,12.9108 C50.6166,4.7052 42.099,0 32.0652,0 Z"/>
  </defs>
  <g fill="none" fill-rule="evenodd">
    <mask id="icon_no-tree-nuts_solid-b" fill="#fff">
      <use xlink:href="#icon_no-tree-nuts_solid-a"/>
    </mask>
    <path fill="#084D8A" d="M28.78926,60.00012 C24.81366,60.00012 21.00186,59.27832 17.45946,57.85212 C5.69586,53.12052 -1.38954,40.37232 0.22866,26.84952 C1.75446,14.08812 11.87886,3.58452 25.42386,0.70512 C27.62586,0.23592 29.86026,0.00012 32.06526,0.00012 C42.09906,0.00012 50.61666,4.70472 55.43526,12.91092 C62.69226,25.26672 61.16286,41.19012 51.80046,50.77992 C45.75846,56.63532 37.36806,60.00012 28.78926,60.00012" mask="url(#icon_no-tree-nuts_solid-b)"/>
    <mask id="icon_no-tree-nuts_solid-d" fill="#fff">
      <use xlink:href="#icon_no-tree-nuts_solid-c"/>
    </mask>
    <polygon fill="#FEFEFE" points="45.461 56.322 6.973 7.296 8.57 6.043 47.057 55.069" mask="url(#icon_no-tree-nuts_solid-d)"/>
    <g fill="#FEFEFE" transform="translate(7.8 10.8)">
      <path d="M34.10724,2.73294 C33.21684,2.73294 32.57664,3.47754 31.83624,4.34214 C29.62104,6.90894 27.89664,9.40914 26.55504,11.95974 C24.90204,15.10194 20.00544,25.73874 26.38644,30.75594 C28.06104,32.07294 30.03624,32.77074 32.09724,32.77074 C35.91564,32.77074 39.29484,30.41334 40.70244,26.76954 C43.13244,20.49534 41.23524,12.98694 38.65104,8.05314 L38.11944,7.06854 C37.48764,5.87154 36.77184,4.51494 35.81484,3.60414 C35.20344,3.01914 34.64484,2.73294 34.10724,2.73294 M32.04324,34.67274 C28.98144,34.67274 26.10204,33.43914 24.14004,31.29174 C17.17044,23.66394 24.92484,10.71294 26.55144,8.19234 C27.55344,6.63954 28.73664,5.05734 30.06744,3.48774 L30.56964,2.87214 C31.44744,1.77834 32.54064,0.41874 33.84924,0.23934 L33.87384,0.23934 C36.62124,0.23934 38.60484,3.94974 39.79224,6.17094 L40.27944,7.06854 C43.98204,14.13774 45.58044,24.11634 40.79484,30.46014 C38.80704,33.09654 35.53404,34.67274 32.04324,34.67274"/>
      <path d="M10.5045,14.9688 C9.9471,14.9688 9.3921,15.0522 8.8563,15.2148 C6.8283,15.8334 5.4249,17.4096 4.6047,18.6228 C3.5235,20.2188 2.7603,22.1676 2.3979,24.2592 C2.0295,26.3868 2.1219,28.422 2.6643,30.1476 C3.2643,32.0532 4.4511,33.5226 6.0051,34.2906 C6.9555,34.7628 8.0529,35.0022 9.2679,35.0022 C10.3323,35.0022 11.5113,34.8162 12.7719,34.4538 C15.3243,33.7188 17.3793,32.8938 19.0533,31.9332 C21.6981,30.4236 22.4589,28.4316 21.5925,25.2798 C21.1425,23.6406 20.3925,22.0812 19.3647,20.6418 C18.1671,18.9654 16.6251,17.5158 14.9031,16.452 C13.2651,15.441 11.8677,14.9688 10.5045,14.9688 M8.7981,37.0806 C7.9521,37.0806 7.1487,36.9774 6.4119,36.7746 C5.4033,36.4986 4.4595,36.0132 3.6825,35.3682 C2.9355,34.746 2.2953,33.9612 1.7817,33.0306 C1.2909,32.1426 0.9171,31.125 0.6723,30.0114 C0.4329,28.9308 0.3171,27.777 0.3267,26.58 C0.3369,25.4028 0.4671,24.2058 0.7173,23.022 C0.9681,21.8352 1.3323,20.6916 1.7997,19.6242 C2.2827,18.5232 2.8629,17.529 3.5271,16.671 C4.2177,15.7704 4.9947,15.0222 5.8365,14.4402 C6.7203,13.8318 7.6779,13.413 8.6793,13.1934 C9.2217,13.0734 9.7905,13.014 10.3719,13.014 C10.9311,13.014 11.4915,13.0704 12.0417,13.1736 C12.3933,13.2432 12.7425,13.3398 13.0851,13.4592 C13.7985,13.7154 14.4849,14.0682 15.1443,14.4372 C16.0977,14.9688 17.0073,15.594 17.8431,16.2858 C19.5777,17.7156 21.0435,19.4574 22.0839,21.3228 C23.1861,23.3016 23.8143,25.4394 23.8983,27.5046 C24.0801,34.0812 13.9593,36.588 10.0449,37.0104 C9.6315,37.0572 9.2151,37.0806 8.7981,37.0806"/>
      <path d="M6.29394 30.16098C4.85634 30.16098 3.54054 30.76278 2.48874 31.89978 2.27754 32.12958 2.31174 32.36178 2.37834 32.51178 2.47914 32.74818 2.71014 32.91738 2.92734 32.91738 3.05454 32.91738 3.17514 32.85738 3.28374 32.74098 4.13094 31.81998 5.17194 31.33458 6.29274 31.33458 7.30134 31.33458 8.36034 31.72698 9.35394 32.46498 9.40674 32.50518 9.48774 32.52498 9.58194 32.52498 9.79854 32.52498 10.02714 32.40858 10.09254 32.26578 10.86294 30.57678 12.21354 29.61198 13.79574 29.61198 14.56734 29.61198 15.34794 29.84178 16.11594 30.29718 16.21194 30.35358 16.30794 30.38058 16.40214 30.38058 16.68834 30.38058 16.94454 30.10458 16.98354 29.75178 17.15094 28.31238 18.19434 27.45078 19.77774 27.45078 20.56794 27.45078 21.41034 27.67038 22.09494 28.04658 22.18914 28.09938 22.28334 28.12578 22.37634 28.12578 22.66554 28.12578 22.88694 27.86658 22.94814 27.62358 22.99254 27.45078 22.98234 27.21498 22.69374 27.05538 21.80454 26.56638 20.82894 26.30718 19.87194 26.30718 18.13434 26.30718 16.74114 27.16518 16.14294 28.60818L16.00674 28.93398 15.67854 28.81098C15.04494 28.57158 14.40234 28.45158 13.76574 28.45158 12.07794 28.45158 10.55394 29.30958 9.58314 30.80598L9.39894 31.09518 9.10134 30.92898C8.20194 30.42678 7.23114 30.16098 6.29394 30.16098M30.2922 33.9813C30.15 33.9813 29.9484 33.9381 29.7894 33.7287 23.6586 25.6587 28.2552 13.6857 31.6146 4.9407L32.4906 2.6397C32.6262 2.2737 32.9472 2.2377 33.0792 2.2377 33.2976 2.2377 33.501 2.3271 33.6 2.4735 33.6762 2.5833 33.6822 2.7165 33.6216 2.8821L32.6166 5.4993C29.358 13.9017 24.8952 25.4061 30.8328 33.2169 30.9486 33.3693 30.9732 33.5091 30.9084 33.6423 30.813 33.8349 30.5484 33.9813 30.2922 33.9813"/>
      <path d="M34.4412,1.25988 C34.2162,1.25988 33.828,1.37928 33.7932,1.82868 C33.3582,7.39788 32.7024,13.03068 32.0694,18.47988 C31.5102,23.27448 30.9336,28.23228 30.51,33.12048 C30.4974,33.26988 30.5298,33.38928 30.606,33.47568 C30.6942,33.57228 30.8394,33.62568 31.0062,33.62568 C31.2306,33.62568 31.6248,33.50568 31.6644,33.05388 C32.0874,28.16928 32.6628,23.21808 33.2196,18.43368 C33.8544,12.97728 34.512,7.33788 34.944,1.76868 C34.9566,1.61568 34.9224,1.49628 34.8444,1.40988 C34.755,1.31268 34.608,1.25988 34.4412,1.25988"/>
      <path d="M32.34534,33.73872 C32.09034,33.73872 31.82634,33.55212 31.73334,33.30312 C31.66074,33.11352 31.71054,32.94072 31.88094,32.79072 C35.99514,29.10012 36.80814,23.25852 37.05654,18.57972 C37.21134,15.60372 37.08414,12.71772 36.67614,10.00812 L36.62154,9.65532 C36.24114,7.11852 35.76534,3.96312 34.35354,1.73532 C34.24134,1.55892 34.22814,1.38912 34.31214,1.23672 C34.41834,1.04352 34.66434,0.90072 34.89774,0.90072 C35.09094,0.90072 35.24814,0.99372 35.36154,1.17012 C36.92094,3.63372 37.39494,6.99192 37.81494,9.95472 C38.27814,13.24332 38.38074,16.41852 38.14074,19.56072 C37.79514,24.13632 36.86754,29.86512 32.72574,33.57912 C32.60934,33.68532 32.48094,33.73872 32.34534,33.73872"/>
    </g>
  </g>
</svg>
