<?xml version="1.0" encoding="UTF-8"?>
<svg width="40px" height="40px" viewBox="0 0 40 40" version="1.1" xmlns="http://www.w3.org/2000/svg" xmlns:xlink="http://www.w3.org/1999/xlink">
    <title>Icon_Facebook</title>
    <g id="Desktop" stroke="none" stroke-width="1" fill="none" fill-rule="evenodd">
        <g id="WAT_Home_Final_MegaShop" transform="translate(-608.000000, -4447.000000)" fill="#084D8A" fill-rule="nonzero">
            <g id="Newsletter-Subscription" transform="translate(0.000000, 4128.000000)">
                <g id="Social-Icons" transform="translate(608.000000, 319.000000)">
                    <g id="Icon_Facebook">
                        <path d="M0,20 C0,8.95430447 8.95430447,0 20,0 C31.0456955,0 40,8.95430447 40,20 C40,31.0456955 31.0456955,40 20,40 C8.95430447,40 0,31.0456955 0,20 Z M22.0846293,31.7595639 L22.0846293,20.878508 L25.0882765,20.878508 L25.4863247,17.1288359 L22.0846293,17.1288359 L22.0897324,15.2520889 C22.0897324,14.2741167 22.1826529,13.7500968 23.5873034,13.7500968 L25.4650614,13.7500968 L25.4650614,10 L22.4609889,10 C18.8526146,10 17.5825604,11.8189944 17.5825604,14.877971 L17.5825604,17.1292605 L15.3333333,17.1292605 L15.3333333,20.8789327 L17.5825604,20.8789327 L17.5825604,31.7595639 L22.0846293,31.7595639 Z" id="Combined-Shape"></path>
                    </g>
                </g>
            </g>
        </g>
    </g>
</svg>