<svg xmlns="http://www.w3.org/2000/svg" xmlns:xlink="http://www.w3.org/1999/xlink" width="60" height="60" viewBox="0 0 60 60">
  <defs>
    <polygon id="icon_noeggs_line_w-a" points="0 .054 59.827 .054 59.827 60 0 60"/>
  </defs>
  <g fill="none" fill-rule="evenodd">
    <mask id="icon_noeggs_line_w-b" fill="#fff">
      <use xlink:href="#icon_noeggs_line_w-a"/>
    </mask>
    <path fill="#FFF" d="M57.5178462,19.2173077 C53.4165,9.21 44.3663077,1.2825 33.3943846,0.185192308 C20.2474615,-1.12961538 6.58476923,7.59173077 1.89323077,19.8455769 C-3.29215385,33.3905769 2.47419231,50.0901923 15.5143846,56.7317308 C27.6459231,62.9105769 43.0284231,60.0951923 52.3474615,50.2557692 C60.0413077,41.715 61.8632308,29.8194231 57.5178462,19.2173077" mask="url(#icon_noeggs_line_w-b)"/>
    <path fill="#084D8A" d="M50.4816923,48.3905769 C49.2332308,49.7088462 47.8676538,50.8880769 46.4138077,51.9294231 C46.4109231,51.9265385 46.4097692,51.9236538 46.4074615,51.9201923 C35.0241923,37.89 23.6409231,23.8592308 12.2570769,9.82903846 C17.3086154,5.47615385 23.8347692,2.77730769 30.4936154,2.69192308 C40.2297692,2.56730769 48.8397692,8.55865385 53.4897692,16.8905769 C59.1666923,27.0640385 58.3763077,39.6282692 50.4816923,48.3905769 M20.9138077,56.0994231 C7.94803846,52.0644231 0.694961538,38.3965385 3.12611538,25.2242308 C4.07976923,20.0561538 6.70188462,15.3732692 10.3393846,11.6301923 C21.6268846,25.5426923 32.9149615,39.4551923 44.2024615,53.3671154 C37.269,57.4257692 28.7455385,58.5363462 20.9138077,56.0994231 M57.5178462,19.2173077 C53.4165,9.21 44.3663077,1.2825 33.3943846,0.185192308 C20.2474615,-1.12961538 6.58476923,7.59173077 1.89323077,19.8455769 C-3.29215385,33.3905769 2.47419231,50.0901923 15.5143846,56.7317308 C27.6459231,62.9105769 43.0284231,60.0951923 52.3474615,50.2557692 C60.0413077,41.715 61.8632308,29.8194231 57.5178462,19.2173077" mask="url(#icon_noeggs_line_w-b)"/>
    <path fill="#084D8A" d="M40.215566,35.4822453 C39.1768868,40.6626226 34.1917925,44.4731887 29.1331132,42.4541321 C31.4091509,40.0241321 32.175,36.4014906 31.589717,32.5897925 C31.5110377,32.0814906 31.2178302,31.7990377 30.8578302,31.6971509 C30.5261321,31.5046981 30.1095283,31.4950755 29.6878302,31.8160189 L27.0512264,33.8288491 C26.5853774,33.1875283 26.1195283,32.5467736 25.6531132,31.9060189 C25.2217925,31.3128113 24.1842453,30.9250755 23.6210377,31.6439434 C23.3363208,32.0073396 23.0516038,32.3701698 22.7668868,32.733566 C22.7459434,28.742434 23.3034906,24.6652642 25.4838679,21.2379057 C26.8610377,19.0745094 29.4868868,15.7937547 32.340283,17.1313019 C34.3174528,18.0579057 35.8825472,19.8709245 37.0089623,21.6879057 C39.3636792,25.4843208 41.1116038,31.0122453 40.215566,35.4822453 M14.7478302,36.1094151 C15.0840566,36.4173396 15.4191509,36.7252642 15.7548113,37.0326226 C16.2268868,37.4656415 17.1331132,37.5980943 17.5853774,37.0326226 C18.1525472,36.3228113 18.7208491,35.613 19.2885849,34.9037547 C19.8274528,35.5818679 20.3663208,36.2605472 20.9051887,36.9392264 C21.3053774,37.443 22.3383962,37.4458302 22.7351887,36.9392264 C23.3221698,36.1903585 23.9085849,35.4420566 24.495566,34.6937547 C24.885566,35.2297925 25.275566,35.7663962 25.665566,36.302434 C26.0368868,36.813566 26.8366981,37.2245094 27.4361321,36.7671509 C28.0361321,36.3092264 28.635566,35.8513019 29.2361321,35.3939434 C29.1699057,38.8490377 27.5006604,41.7720566 23.6606604,42.6426226 C18.4548113,43.8222453 15.479717,40.503566 14.7478302,36.1094151 M39.2442453,20.3814906 C37.7380189,17.9531887 35.6346226,15.663 32.9340566,14.583 C30.2006604,13.4894151 28.2059434,14.5099811 26.1614151,16.4022453 C21.7921698,20.4431887 20.3153774,26.1760189 20.1914151,31.9099811 C19.7793396,31.4192264 18.7740566,31.428283 18.3766981,31.9252642 L16.5291509,34.2341321 C15.7576415,33.5271509 14.9861321,32.8196038 14.2140566,32.1120566 C13.3638679,31.3326226 12.0710377,31.8986604 12.0048113,33.0279057 C11.5819811,40.2239434 15.7966981,46.6116792 23.6012264,45.2826226 C24.8266981,45.0737547 25.9061321,44.7041321 26.8468868,44.2031887 C26.9131132,44.2552642 26.985,44.3039434 27.0687736,44.3475283 C32.655566,47.2331887 38.8321698,44.763566 41.6012264,39.2639434 C44.5066981,33.4954528 42.4989623,25.6286604 39.2442453,20.3814906"/>
  </g>
</svg>
