<svg xmlns="http://www.w3.org/2000/svg" xmlns:xlink="http://www.w3.org/1999/xlink" width="60" height="60" viewBox="0 0 60 60">
  <defs>
    <polygon id="icon_peanuts_solid-a" points="0 0 60 0 60 60 0 60"/>
    <path id="icon_peanuts_solid-c" d="M32.3502,0 C30.4794,0 28.5852,0.159 26.7198,0.4698 L26.7198,0.4698 C16.041,2.2596 6.8334,8.9328 2.6922,17.8848 L2.6922,17.8848 C0.8748,21.8112 0.009,26.0604 0,30.2928 L0,30.2928 L0,30.4212 C0.0198,40.416 4.8144,50.2962 13.1436,55.5798 L13.1436,55.5798 C17.7042,58.4718 23.0826,60 28.698,60 L28.698,60 L28.6992,60 C37.338,60 45.6,56.4636 51.3624,50.2998 L51.3624,50.2998 C57.0924,43.8822 59.9886,37.1502 60,30.2436 L60,30.2436 L60,30.1584 C59.9982,29.1744 59.9382,28.188 59.8188,27.1974 L59.8188,27.1974 C58.878,19.3338 56.8812,13.6926 53.538,9.4482 L53.538,9.4482 C48.8088,3.4434 41.0868,0 32.3502,0 Z"/>
  </defs>
  <g fill="none" fill-rule="evenodd">
    <mask id="icon_peanuts_solid-b" fill="#fff">
      <use xlink:href="#icon_peanuts_solid-a"/>
    </mask>
    <path fill="#084D8A" d="M28.698,60 C23.0826,60 17.7048,58.4718 13.1436,55.5798 C1.2522,48.0372 -3.4356,31.125 2.6922,17.8848 C6.8334,8.9328 16.041,2.2596 26.7198,0.4698 C28.5858,0.159 30.4794,0 32.3502,0 C41.0868,0 48.8094,3.444 53.5374,9.4488 C56.8818,13.6932 58.878,19.3338 59.8188,27.198 C60.7764,35.1708 57.9318,42.942 51.3618,50.2998 C45.6,56.463 37.3374,60 28.6992,60 L28.698,60 Z" mask="url(#icon_peanuts_solid-b)"/>
    <path fill="#FEFEFE" d="M32.21478,17.10732 C32.03538,17.10732 31.85238,16.93872 31.77018,16.69392 C31.73358,16.58472 31.64298,16.21092 31.98258,15.95292 C33.13818,15.07932 34.45638,14.40432 35.90058,13.94472 L35.97618,13.94472 C36.38478,13.94472 36.53298,14.17932 36.56958,14.41092 C36.58758,14.53032 36.61398,14.92692 36.17838,15.06612 C34.86378,15.48312 33.65718,16.11492 32.49198,16.99812 L32.21478,17.10732 Z M35.85918,20.76672 C35.65458,20.76672 35.42598,20.64072 35.32818,20.47512 C35.14878,20.16792 35.31858,19.84632 35.56578,19.66812 C36.48558,19.00332 37.35558,18.18612 38.15238,17.23272 C38.25738,17.10732 38.41878,17.09112 38.50578,17.09112 C38.67258,17.09112 38.83938,17.15352 38.94138,17.25612 C39.19698,17.51112 39.10938,17.86812 38.92158,18.09312 C38.12598,19.04592 37.19778,19.89972 36.08478,20.70012 L35.85918,20.76672 Z M25.97718,22.93692 C25.72458,22.93692 25.46418,22.75152 25.36998,22.50672 C25.29798,22.31472 25.34718,22.14252 25.51698,21.98712 C25.95858,21.58692 26.37738,21.16332 26.79438,20.73972 C27.52878,19.99572 28.22358,19.29432 29.04558,18.70512 C29.14278,18.68532 29.22738,18.67572 29.30118,18.67572 C29.59638,18.67572 29.73078,18.82752 29.79558,19.02972 C29.83818,19.16172 29.90118,19.49952 29.57118,19.73412 C28.80438,20.28012 28.14918,20.96172 27.51618,21.62292 C27.13698,22.01712 26.75778,22.41372 26.35518,22.77792 C26.23878,22.88352 26.11158,22.93692 25.97718,22.93692 L25.97718,22.93692 Z M29.65098,26.10252 C29.44638,26.10252 29.20878,25.97052 29.11338,25.80492 C28.92378,25.48392 29.12478,25.16652 29.35218,24.99792 L32.28078,22.79472 C32.35518,22.78452 32.42478,22.77792 32.48718,22.77792 C32.77818,22.77792 32.95218,22.89012 33.03078,23.02572 C33.21858,23.35032 33.02898,23.65752 32.79018,23.83992 L29.86278,26.04012 L29.65098,26.10252 Z M18.70038,30.23832 C18.50538,30.23832 18.28578,30.07272 18.18018,29.84772 C18.11838,29.71572 18.04758,29.45052 18.26478,29.18952 C18.98298,28.32252 19.85238,27.56532 20.69418,26.83092 C21.24798,26.34732 21.80178,25.86432 22.32438,25.34832 C22.43598,25.23612 22.56138,25.17972 22.69518,25.17972 C22.92618,25.17972 23.17338,25.35492 23.26878,25.59312 C23.32638,25.73532 23.35158,25.94712 23.13858,26.15592 C22.62738,26.66532 22.08318,27.13812 21.54138,27.61452 C20.67738,28.36572 19.78758,29.14332 19.03278,30.05292 C18.93198,30.17532 18.82038,30.23832 18.70038,30.23832 L18.70038,30.23832 Z M22.83018,32.94792 C22.51758,32.94792 22.24398,32.71332 22.16958,32.49852 C22.11378,32.33292 22.16838,32.18712 22.33638,32.05512 C23.15658,31.41672 23.90238,30.69192 24.64698,29.96772 C25.24038,29.38872 25.83498,28.80972 26.46978,28.27692 C26.58678,28.17792 26.71698,28.12812 26.85378,28.12812 C27.11958,28.12812 27.39618,28.31952 27.48498,28.56792 C27.55158,28.74672 27.49998,28.90572 27.32838,29.04792 C26.67918,29.59392 26.07138,30.18552 25.46298,30.77832 C24.73758,31.48272 24.01218,32.19072 23.21478,32.81232 C23.09778,32.90172 22.96758,32.94792 22.83018,32.94792 L22.83018,32.94792 Z M12.59478,36.20292 C12.40698,36.20292 12.19278,36.04092 12.08718,35.81952 C12.02178,35.68332 11.94558,35.41572 12.16158,35.14452 C13.22298,33.81792 14.46198,32.71932 15.94758,31.78992 C16.03098,31.77312 16.10718,31.76952 16.17498,31.76952 C16.54578,31.76952 16.69758,31.96512 16.75278,32.16012 C16.79658,32.31252 16.82298,32.59692 16.50918,32.79252 C15.14658,33.64932 13.97118,34.70112 12.91998,36.01812 C12.81918,36.14052 12.70998,36.20292 12.59478,36.20292 L12.59478,36.20292 Z M16.20438,39.67332 C15.96378,39.67332 15.71478,39.53172 15.61098,39.33972 C15.53538,39.19392 15.55218,39.03492 15.66378,38.86992 C16.51458,37.61592 17.50038,36.50712 18.59778,35.58132 C18.71298,35.48232 18.84318,35.43252 18.97998,35.43252 C19.24398,35.43252 19.52058,35.62392 19.61118,35.87232 C19.67598,36.05112 19.62498,36.20952 19.45458,36.35172 C18.36018,37.27812 17.42898,38.30412 16.68198,39.40872 C16.56378,39.58392 16.40238,39.67332 16.20438,39.67332 L16.20438,39.67332 Z"/>
    <path fill="#FEFEFE" d="M33.56658,29.48382 C32.53638,30.19182 31.72998,30.83382 31.02858,31.50522 C29.28078,33.17262 28.02198,35.22402 26.80398,37.20882 C26.10378,38.34702 25.40418,39.48822 24.61158,40.55982 L24.32958,40.94382 L24.76998,41.11962 C26.01978,41.61582 27.36258,41.85702 28.87458,41.85702 C31.34298,41.85702 33.81738,41.21202 36.21018,40.58682 C37.71138,40.19622 38.97258,39.93822 40.24998,39.93822 C40.50498,39.93822 40.76238,39.94782 41.02158,39.97122 C41.50578,40.01442 41.97918,40.08402 42.44538,40.15302 C43.21158,40.26582 43.95978,40.37502 44.71638,40.37502 C45.57198,40.37502 46.34178,40.23282 47.06838,39.93822 C49.80138,38.83002 51.20418,35.54802 50.19558,32.62062 C49.50798,30.62202 47.92758,29.65242 45.36618,29.65242 C44.94258,29.65242 44.51238,29.67582 44.08338,29.71542 C42.69438,29.84142 41.36598,29.90382 40.05258,29.90382 C38.01138,29.90382 35.97498,29.74842 33.82698,29.42442 L33.68538,29.40102 L33.56658,29.48382 Z M36.58758,10.90122 C34.49478,10.90122 32.18838,11.66862 30.41718,12.95562 C28.05498,14.67582 26.37738,16.88262 24.75378,19.01622 C23.89158,20.15082 23.02518,21.29262 22.04598,22.38102 C20.62158,23.96202 18.75318,24.78942 16.77498,25.66602 C15.72858,26.12922 14.67978,26.59242 13.69578,27.17442 C9.26898,29.78802 7.69158,33.73482 9.25698,38.28762 C10.82958,41.67162 13.51458,43.75302 16.27998,43.75302 C17.73198,43.75302 19.16478,43.20702 20.53578,42.13182 C22.63878,40.48062 24.01338,38.19822 25.34238,35.99142 C26.09358,34.74402 26.86998,33.45042 27.76518,32.30622 C30.05538,29.37162 33.19758,27.31722 36.21678,25.46082 C39.74598,23.29422 43.24638,20.44542 42.46158,15.74082 C41.94798,12.66402 39.80658,10.90122 36.58758,10.90122 L36.58758,10.90122 Z M16.25238,45.54882 C12.58998,45.54882 9.34158,43.14702 7.56438,39.12462 C5.98878,34.70442 6.79698,30.69462 9.65958,27.83622 C11.15298,26.34762 13.11258,25.46442 15.00798,24.61062 C16.92318,23.75022 18.90438,22.85742 20.41878,21.33522 C21.33858,20.41242 22.08858,19.31382 22.81398,18.25182 C23.36238,17.44782 23.91318,16.64442 24.53598,15.91302 C25.79538,14.43402 27.22818,13.06482 28.79358,11.83722 C30.51738,10.49082 33.23538,8.88282 36.40158,8.88282 C37.47318,8.88282 38.52618,9.07122 39.53118,9.44562 C41.95758,10.34502 43.61058,12.26742 44.18898,14.85762 C44.89158,18.00762 43.88718,21.53082 41.63238,23.83362 C40.25178,25.24602 38.57058,26.33742 37.10418,27.24762 L36.14598,27.83982 L37.26858,27.92202 C38.16498,27.98862 39.04878,28.02162 39.93858,28.02162 C41.30958,28.02162 42.69258,27.94542 44.14998,27.80982 C44.64738,27.76362 45.14838,27.73362 45.64818,27.73362 C47.45418,27.73362 48.84738,28.15062 49.90818,29.00742 C53.05818,31.55142 52.95318,36.50082 50.88738,39.34902 C49.09098,41.83062 46.62018,42.17442 44.21718,42.17442 C43.54338,42.17442 42.85878,42.14502 42.17358,42.11862 C41.47338,42.08862 40.77078,42.05862 40.07718,42.05862 C38.73198,42.05862 37.66758,42.17442 36.72618,42.41982 C34.30998,43.04802 31.50798,43.72002 28.82958,43.72002 C26.75958,43.72002 24.94518,43.33302 23.28318,42.53202 L23.05278,42.42282 L22.86978,42.60162 C20.90358,44.53002 18.61578,45.54882 16.25238,45.54882 L16.25238,45.54882 Z"/>
    <path fill="#FEFEFE" d="M36.0621,33.82764 C35.4273,33.79104 34.7961,33.75804 34.1631,33.75804 C33.8997,33.75804 33.3723,33.77784 33.3705,33.77784 C32.8995,33.77784 32.8563,33.38784 32.8527,33.26844 C32.8467,33.04044 32.9565,32.64984 33.4119,32.62344 C33.6621,32.61024 33.9129,32.60664 34.1631,32.60664 C34.7829,32.60664 35.4009,32.64024 36.0207,32.67324 C36.4755,32.69964 36.5859,33.09684 36.5793,33.32484 C36.5757,33.44364 36.5313,33.82764 36.1047,33.82764 L36.0621,33.82764 Z M40.7643,33.84444 C40.4493,33.84444 40.2495,33.56604 40.2171,33.29184 C40.2003,33.15264 40.2039,32.81844 40.6041,32.71584 C41.1435,32.58024 41.6991,32.57064 42.2199,32.57064 C42.2199,32.57064 43.2087,32.56704 43.4655,32.55084 L43.4691,32.55084 C43.9353,32.55084 43.9797,32.93124 43.9833,33.05064 C43.9899,33.26544 43.8807,33.67584 43.4229,33.70524 L42.1173,33.70224 C41.7879,33.70224 41.3559,33.71544 40.9257,33.82464 L40.7643,33.84444 Z M44.6373,36.91464 C44.1033,36.91104 44.0919,36.38484 44.0919,36.32544 C44.0919,36.26904 44.1099,35.76624 44.6211,35.76624 L45.8247,35.80944 C46.2345,35.80944 46.5711,35.76624 46.8807,35.67384 L46.9449,35.67384 C47.3721,35.67384 47.5317,35.92824 47.5647,36.16344 C47.5809,36.27924 47.6025,36.66324 47.1753,36.78864 C46.8045,36.89784 46.4043,36.94764 45.8781,36.94764 L44.6373,36.91464 Z M36.7539,37.76784 C36.2313,37.76784 36.2151,37.25484 36.2151,37.19904 C36.2151,37.13964 36.2301,36.62004 36.7593,36.62004 C37.4031,36.61644 38.0415,36.54384 38.6805,36.46764 C39.2133,36.40464 39.7443,36.34524 40.2813,36.32844 C40.7787,36.32844 40.8105,36.77244 40.8105,36.86124 C40.8153,37.08624 40.7013,37.46664 40.2579,37.47984 C39.7023,37.50024 39.1503,37.56264 38.5989,37.62564 C37.9869,37.69524 37.3743,37.76784 36.7557,37.76784 L36.7539,37.76784 Z M28.5747,38.65764 C28.1475,38.65764 28.1025,38.27064 28.0995,38.15184 C28.0929,37.92324 28.2033,37.52964 28.6581,37.50324 C29.2455,37.47024 29.8335,37.46664 30.4221,37.46364 C31.1799,37.46004 31.9383,37.45344 32.6949,37.38744 L32.7009,37.38744 C33.1383,37.38744 33.1923,37.71204 33.1977,37.85364 C33.2073,38.07264 33.1017,38.50284 32.6319,38.54184 C31.8939,38.60484 31.1553,38.60844 30.4173,38.61504 C29.8173,38.61804 29.2173,38.62164 28.6191,38.65764 L28.5747,38.65764 Z"/>
    <mask id="icon_peanuts_solid-d" fill="#fff">
      <use xlink:href="#icon_peanuts_solid-c"/>
    </mask>
    <polygon fill="#FEFEFE" points="45.501 56.196 7.126 7.416 8.72 6.161 47.096 54.941" mask="url(#icon_peanuts_solid-d)"/>
  </g>
</svg>
