<svg xmlns="http://www.w3.org/2000/svg" width="108" height="110" viewBox="0 0 108 110">
  <g fill="none" fill-rule="evenodd" transform="translate(0 .786)">
    <g fill-rule="nonzero">
      <path fill="#FFF" d="M51.3318525,108.174739 C48.60647,108.174739 46.2195207,107.986862 44.0331429,107.599118 L43.5339539,107.510676 C40.9957051,107.061472 38.3703594,106.596778 35.8589862,105.903735 C31.3105438,104.648062 26.0922028,103.062107 21.708,100.104055 C21.5099171,99.9706432 21.3058618,99.8417281 21.1028018,99.7123134 C20.5727558,99.3770342 20.0232995,99.0292633 19.5838341,98.6015451 C16.5483871,95.6524878 13.1038341,92.1437992 10.6322765,87.8196478 C9.21832258,85.3447781 8.1960553,82.6890276 7.20862673,80.1212192 C6.53524424,78.371372 5.83896774,76.5615642 5.02274654,74.817713 C3.35098618,71.2455662 2.171447,67.1052936 1.31093088,61.7877966 C1.24274654,61.365075 1.16162212,60.9268637 1.07900461,60.4781593 C0.556921659,57.6505221 -0.0363317972,54.4456333 1.93752995,52.2320915 C3.28728111,50.7190882 5.3641659,50.6946043 7.37236866,50.6716195 C7.81382488,50.6666228 8.24881106,50.6616261 8.66986175,50.6411396 C9.77524424,50.5866754 10.9119816,50.5601929 12.1457696,50.5601929 C14.3197051,50.5601929 16.4757235,50.6441376 18.4819355,50.7350777 C18.8651613,50.7520665 19.2503779,50.7595616 19.6345991,50.7595616 C20.9420461,50.7595616 22.2728848,50.6711198 23.560424,50.5846768 C24.8459724,50.499233 26.1758157,50.4102916 27.4792811,50.4102916 C27.8714654,50.4102916 28.2636498,50.4182864 28.6558341,50.4362745 C29.387447,50.4697525 30.1195576,50.4832436 30.8521659,50.4832436 C30.8521659,50.4832436 30.8521659,50.4832436 30.8531613,50.4832436 C32.2387465,50.4832436 33.6477235,50.4342758 35.0114101,50.3873068 C36.1287373,50.3493318 37.2465622,50.3103575 38.3638894,50.2968664 C39.2642212,50.2863733 40.164553,50.2828756 41.0653825,50.2828756 L45.4137512,50.29137 C47.223871,50.3643219 49.1355207,50.3992989 51.2527189,50.3992989 C54.54647,50.3992989 57.8939724,50.3118565 61.1304885,50.2274121 C63.9240553,50.1539605 66.8111889,50.0785102 69.6505438,50.0595227 C70.4901567,50.0540263 71.2182857,49.9950652 71.8767373,49.8801409 C74.3771613,49.4414299 76.9482581,49.4344345 79.4347465,49.4279388 L81.5185991,49.419944 C83.6477419,49.419944 85.8147097,49.4709105 87.9100092,49.5198782 C90.0092903,49.5693456 92.1782488,49.6198124 94.3133641,49.6198124 C96.9466728,49.6198124 99.1430046,49.5438624 101.223871,49.3824687 C101.546876,49.3574852 101.88929,49.3419954 102.241161,49.3419954 C103.748682,49.3419954 105.766839,49.6402989 106.812498,51.0603634 C107.532664,52.0387189 107.541622,53.5007558 107.549088,54.7904062 C107.552074,55.1416748 107.554065,55.4819506 107.568995,55.8007406 C107.802912,60.638054 107.376885,65.2075438 106.266525,69.7720369 C104.964055,75.1280086 103.231078,80.4899763 101.114876,85.7100375 C100.152332,88.0814753 99.1126452,89.8757933 97.843023,91.3573173 C96.1961475,93.2790513 94.4134009,95.3212061 92.5355945,97.2334463 C89.6370138,100.183503 85.8251613,102.361068 80.8835392,103.891061 C77.1528111,105.0463 73.4265622,105.985181 69.8068203,106.683721 C67.141659,107.196883 64.3650138,107.408743 61.6799447,107.614108 L60.6382673,107.693556 C57.6038157,107.9294 54.4673364,108.174739 51.3318525,108.174739 Z"/>
      <g fill="#084D8A">
        <path d="M33.815447 28.5906656C33.7373088 28.5906656 33.6556866 28.5741764 33.5735668 28.5401988 33.4650691 28.5042225 33.3635392 28.4507577 33.2630046 28.3788051 33.1555023 28.3018558 33.059447 28.2274049 32.9758341 28.1564516L31.8067465 27.2515477C31.4294931 26.9602396 31.0592074 26.6604371 30.6978802 26.3521402 30.4584885 26.1482745 30.2375115 25.9309177 30.0414194 25.7055662 29.8289032 25.4642251 29.5875207 25.2433706 29.3242396 25.0489987 28.978341 24.7846728 28.6284608 24.5408334 28.2765899 24.3149822 27.9277051 24.0941277 27.5832995 23.8677768 27.2428756 23.6374286 27.1662304 23.571472 27.0637051 23.4930237 26.9497327 23.4095787 26.8322765 23.3261336 26.721788 23.2551804 26.6152811 23.1962192 26.5162396 23.1072778 26.3918157 23.009842 26.2688848 22.9204009 26.1499355 22.8349572 26.0419355 22.7490138 25.9404055 22.6625708 25.7184332 22.4736952 25.5118894 22.2828209 25.3212719 22.0909473L24.7414562 21.5078315C24.2303226 21.0131573 23.6908203 20.5389697 23.1363871 20.096761 22.583447 19.6555517 22.0305069 19.2303318 21.4795576 18.8211014 21.1694931 18.6177354 20.8858065 18.4123706 20.62153 18.2030086 20.3647189 17.9991429 20.1188571 17.7682949 19.8904147 17.5164608L19.6808848 17.2496366C19.6231521 17.1766847 19.5838341 17.094239 19.5639263 17.0057972 19.5380461 16.857395 19.543023 16.7154885 19.5813456 16.578079 19.6226544 16.4291771 19.6823779 16.2752785 19.7615115 16.1143845 20.0466912 15.6062192 20.3647189 15.1415253 20.7036498 14.7402897L21.7960922 13.4476412C21.8826912 13.344709 21.9802396 13.2382791 22.0882396 13.1258532 22.1748387 13.0374115 22.2783594 12.9894431 22.4027834 12.9784503 22.4530507 12.9704556 22.4908756 12.9669579 22.5287005 12.9669579 22.634212 12.9669579 22.7357419 12.9919414 22.8392627 13.0434075 23.0030046 13.1238545 23.1587834 13.2132956 23.3070968 13.3107314 23.7301382 13.6115332 24.146212 13.9133344 24.5483502 14.2106386 24.9499908 14.5079427 25.3491429 14.824734 25.7448111 15.1620118 26.5560553 15.8825372 27.4016406 16.579578 28.256682 17.2316485 29.1037604 17.8787222 29.9354101 18.5792607 30.7287373 19.3132772 31.570341 20.0897656 32.4318525 20.8462673 33.2913733 21.5612962 34.155871 22.2828209 35.0318157 23.0203351 35.9152258 23.7738387 36.1187834 23.9462251 36.3103963 24.1395978 36.4935484 24.3524575 36.6592811 24.5473292 36.7433917 24.7591896 36.7490049 25.0005306 36.7518525 25.2168881 36.7065622 25.4227525 36.6139908 25.611628 36.5169401 25.8099974 36.3900276 26.00337 36.2357419 26.1872488 36.0764793 26.3746254 35.9087558 26.5555063 35.7330691 26.7293917 35.5504147 26.9102725 35.3916498 27.079661 35.2567742 27.239056 35.1348387 27.3839605 35.0114101 27.557846 34.8859908 27.7592133 34.7735115 27.9430922 34.645106 28.1039862 34.5032627 28.2388973 34.3678894 28.3678124 34.2121106 28.4702449 34.0414009 28.5436965 33.9662488 28.5751758 33.8920922 28.5906656 33.815447 28.5906656zM39.4722581 22.7959829C39.3075207 22.7959829 39.1671705 22.7345234 39.0427465 22.609106 38.8934378 22.449711 38.7580645 22.2503423 38.6435945 22.0194944 38.282765 21.3974042 37.9294009 20.8012969 37.5795207 20.2231777 37.2306359 19.6475569 36.8887189 19.049451 36.554765 18.4288598 36.2397235 17.8472429 35.936129 17.2726215 35.6419908 16.7059947 35.3478525 16.139368 35.0547097 15.5612488 34.7605714 14.9686392L34.4261198 14.2940836C34.1404424 13.7719276 33.8786544 13.2432758 33.6362765 12.70563L32.8424516 10.9412923 32.7060829 11.0097472C32.337788 11.1936261 31.9675023 11.3859993 31.5962212 11.5848683 31.2244424 11.784237 30.8576406 11.9731126 30.4928295 12.1559921 30.3420276 12.2324417 30.1738065 12.2924022 29.9911521 12.3353739 29.9493456 12.3453673 29.9065438 12.3503641 29.8642396 12.3503641 29.7462857 12.3503641 29.6193733 12.3118894 29.4874839 12.2364391 29.1863779 12.0430665 28.9305622 11.7072877 28.7354654 11.2410948 28.5259355 10.742923 28.323871 10.2977163 28.1297696 9.90747334 27.9889217 9.67812442 27.8435945 9.46376564 27.6888111 9.25640224 27.5479631 9.06602765 27.4429493 8.85516656 27.3777512 8.62981501 27.2881659 8.31152469 27.3225069 8.02921066 27.4842581 7.76838249 27.5330323 7.70492429 27.5912627 7.64246544 27.6539724 7.58750165 27.7226544 7.52904016 27.8032811 7.46458262 27.8933641 7.39312969 28.4418249 6.94392561 29.0962949 6.56617446 29.8413456 6.26837064 30.1847558 6.12246675 30.5117419 5.96606978 30.8262857 5.79418302 31.1348571 5.62679329 31.4618433 5.45790454 31.8067465 5.28501843 32.4910783 4.91626136 33.1709309 4.56349375 33.8522765 4.22271824L35.9127373 3.19039829C36.2213088 3.06198288 36.5403318 2.92057604 36.8628387 2.7721738 37.1714101 2.63026728 37.4949124 2.51184529 37.8243871 2.4209052 37.9124793 2.39592166 37.9941014 2.38342989 38.0687558 2.38342989 38.1717788 2.38342989 38.2623594 2.40641475 38.3459724 2.45438315 38.5067281 2.54682225 38.6490691 2.66874194 38.7695115 2.81764384 38.8426728 2.92057604 38.9173272 3.03200263 38.9860092 3.14642725 39.0551889 3.26035221 39.118894 3.37627584 39.1781198 3.4951975 39.4160184 3.87244898 39.6275392 4.24620276 39.817659 4.62994997 40.0042949 5.00420342 40.171023 5.39094865 40.3133641 5.78019223 40.3606452 5.92509677 40.4029493 6.07150033 40.4382857 6.2159052 40.4661567 6.33432719 40.4596866 6.4592449 40.4183779 6.58666096 40.3740829 6.7195734 40.2755392 6.87247268 40.1267281 7.03986241 39.9609954 7.2147472 39.7798341 7.34715997 39.5907097 7.43010533 39.3712258 7.52704147 39.1537327 7.65595655 38.9432074 7.81435221 38.760553 7.9292765 38.5813825 8.03770507 38.4156498 8.1331422 38.2499171 8.229079 38.0772166 8.3215181 37.896553 8.41295787L37.7611797 8.4809131 37.8328479 8.61482488C38.2185622 9.33984727 38.6107465 10.0638703 39.0064147 10.7848953 39.3961106 11.4934286 39.7579355 12.2339408 40.0814378 12.9859454 40.5442949 14.0212633 41.0340276 15.0595793 41.5381935 16.0749105L43.0681106 19.1543818C43.1870599 19.3932245 43.2880922 19.6465576 43.3722028 19.9148808 43.4478525 20.1597196 43.4418802 20.3875695 43.3522949 20.6119217 43.2861014 20.8077926 43.1751152 20.971185 43.0193364 21.1040974 42.8506175 21.2485023 42.6580092 21.3759184 42.4454931 21.4823483 42.2260092 21.5922758 42.0010507 21.6927097 41.7711152 21.7826504 41.5322212 21.8765885 41.3197051 21.970027 41.1325714 22.0639651 40.9638525 22.1484095 40.7816959 22.2583371 40.5865991 22.3962462 40.4109124 22.5196649 40.2237788 22.6190994 40.0311705 22.6920513 39.8435392 22.7610059 39.6559078 22.7959829 39.4722581 22.7959829zM90.8265069 43.6317571C90.6936221 43.6317571 90.5642212 43.6277597 90.4383041 43.6187656 90.315871 43.6107709 90.1999078 43.5667999 90.0924055 43.4888512 89.9779355 43.4054062 89.86247 43.265998 89.7484977 43.0736248 89.6310415 42.8612646 89.559871 42.6479052 89.53847 42.4430402 89.5135853 42.2081949 89.4558525 41.9608578 89.3682581 41.7065253 89.3130138 41.4981626 89.2642396 41.2942969 89.2229309 41.1064207 89.1821198 40.9195438 89.145788 40.7256715 89.1149309 40.5258032L89.0920369 40.3744029 88.9422304 40.4023845C88.1359631 40.5537847 87.3301935 40.711181 86.5269124 40.8740737 85.7315945 41.0344681 84.9193548 41.1573871 84.1120922 41.2413318 82.9768479 41.3752436 81.8550415 41.5311409 80.7407005 41.7080244L77.3538802 42.2461698C77.0915945 42.2881422 76.8208479 42.3086287 76.5406452 42.3086287 76.2843318 42.3076294 76.0698249 42.2331784 75.884682 42.0802791 75.7179539 41.9593588 75.5970138 41.8034615 75.5168848 41.6130869 75.429788 41.4072225 75.3665806 41.184869 75.3297512 40.9500237 75.2914286 40.705185 75.2635576 40.460846 75.2466359 40.2135089 75.2297143 39.9561784 75.2053272 39.7248308 75.1719816 39.5174674 75.1431152 39.3310902 75.0918525 39.1237268 75.0201843 38.8963766 74.9554839 38.6915115 74.9171613 38.4826491 74.9067097 38.2757854 74.8962581 38.0764167 74.9191521 37.8860421 74.9743963 37.710158 75.0231705 37.552262 75.1242028 37.4363384 75.2814747 37.354892 75.4775668 37.2594549 75.7070046 37.1900007 75.9613272 37.150027 76.6610876 36.9911317 77.3334747 36.8322363 77.9879447 36.6708427 78.6399263 36.5099487 79.3108203 36.3625458 80.0006267 36.2296333 80.6491244 36.1032166 81.2851797 35.9842949 81.9122765 35.873368 82.5378802 35.7619414 83.176424 35.6550118 83.8279078 35.5510803L84.568977 35.4336577C85.1517788 35.317734 85.7375668 35.2242956 86.3158894 35.155341L88.2300276 34.9269914 88.2061382 34.7745918C88.1424332 34.3668604 88.0717604 33.954632 87.9941198 33.5379065 87.916977 33.1236794 87.8468018 32.714449 87.7830968 32.3097156 87.7562212 32.1383285 87.7497512 31.958447 87.7641843 31.7750678 87.776129 31.6131745 87.8567558 31.4657716 88.0110415 31.3233654 88.2857696 31.0920178 88.6814378 30.9486122 89.1816221 30.9021429 89.7181382 30.8506768 90.2014009 30.7917156 90.6309124 30.7232607 90.8917051 30.6573041 91.1375668 30.5828532 91.3824332 30.4979092 91.5909677 30.4239579 91.8079631 30.3869822 92.0284424 30.3869822 92.4012166 30.3969756 92.6580276 30.5153976 92.8566083 30.7492436 92.9018986 30.8142008 92.9456959 30.8896511 92.9770507 30.964102 93.0113917 31.0485464 93.050212 31.1449829 93.0900276 31.2519124 93.351318 31.9124773 93.5135668 32.6529895 93.5732903 33.4574595 93.608129 33.8292146 93.6598894 34.189977 93.7270783 34.5427446 93.7937696 34.8885168 93.8559816 35.2522772 93.9171982 35.6345253 94.0600369 36.4005207 94.1919263 37.1585214 94.3108756 37.9125247L94.6722028 40.1955207C94.7015668 40.5293009 94.738894 40.8770718 94.7826912 41.2308387 94.8259908 41.5751119 94.8409217 41.9203845 94.8264885 42.2566629 94.8220092 42.4740197 94.7607926 42.6334147 94.6398525 42.7463404 94.5034839 42.8717577 94.3437235 42.9716919 94.1665438 43.0426452 94.0470968 43.0811198 93.9186912 43.1195945 93.789788 43.1515734 93.6608848 43.182553 93.5299908 43.2090355 93.3990968 43.2305214 92.9700829 43.344946 92.5515207 43.4343871 92.1299724 43.5018427 91.708424 43.5687986 91.294341 43.6112706 90.8887189 43.6307577L90.8265069 43.6317571zM75.8125161 33.3665194C75.3869862 33.3555267 74.9714101 33.279077 74.5782304 33.1396689 73.9257512 32.9188144 73.4365161 32.5590513 73.1214747 32.0703733 72.787023 31.5527143 72.4575484 31.0070737 72.1335484 30.4339513 71.8095484 29.8603292 71.5129217 29.2922034 71.2441659 28.7285747 70.9818802 28.1789368 70.8081843 27.5538486 70.7265622 26.8702989 70.6688295 26.4275905 70.6807742 25.9813845 70.7609032 25.5416741 70.8395392 25.1114575 71.0082581 24.7132199 71.2615853 24.3584536 71.5273548 24.0221751 71.8065622 23.7363634 72.0862673 23.5150092 73.0005346 22.727528 73.9814931 22.0179954 75.0072442 21.4019013 75.4621382 21.1115925 75.9409217 20.8532627 76.4341382 20.6324082 76.9363134 20.4075563 77.4280369 20.1422311 77.8963687 19.8439276 78.9385438 19.2213377 80.0245161 18.6437182 81.1209401 18.1300566 82.2312995 17.6108986 83.3406636 17.060761 84.4161843 16.4951336 84.6486083 16.3971982 84.9636498 16.2952653 85.3394101 16.1983292 85.4464147 16.1708473 85.5489401 16.1568565 85.6444977 16.1568565 85.8515392 16.1568565 86.0297143 16.2203147 86.1894747 16.3507288 86.2646267 16.4056926 86.3208664 16.4621554 86.3646636 16.5241145 86.4119447 16.5940685 86.462212 16.6780132 86.5124793 16.7734503 86.6647742 17.0162903 86.8329954 17.2771185 87.0226175 17.5659282 87.2077604 17.8492416 87.3844424 18.1510428 87.5506728 18.4698328 87.7114286 18.779129 87.8234101 19.0884253 87.8821382 19.3877281 88.0423963 20.2031909 87.2724608 20.658391 86.4706728 21.05463 85.6449954 21.4633608 84.8322581 21.8586004 84.0220092 22.2453456 83.210765 22.6325905 82.392553 23.0173371 81.5668756 23.3995853 81.1916129 23.5974549 80.8228203 23.7838321 80.4480553 23.9702093 80.0678157 24.1550876 79.6945438 24.3454621 79.329235 24.5383351 78.9519816 24.7357051 78.5632811 24.9265793 78.1661198 25.1114575 77.732129 25.3103265 77.3299908 25.5781501 76.9726452 25.9074332 76.8173641 26.0448427 76.6695484 26.2107334 76.5331797 26.3986096 76.3584885 26.64095 76.2878157 26.9107722 76.3236498 27.2005813 76.3778986 27.5368598 76.5202396 27.7762021 76.7476866 27.9171093 76.9268571 28.0300349 77.128424 28.0879967 77.344424 28.0879967 77.594765 28.0775036 77.7998157 28.0365306 78.0168111 27.9550843 78.2059355 27.8831317 78.3656959 27.8136774 78.4975853 27.7437235 80.0399447 27.0361896 81.5599078 26.2437117 83.0096959 25.3907735 84.451023 24.5428321 85.9162396 23.7018861 87.4043502 22.8694345L87.5855115 22.765503C87.7726452 22.6565747 87.9647558 22.5436491 88.1628387 22.4746945 88.4271152 22.3827551 88.6490876 22.3387841 88.8421935 22.3387841 89.1383226 22.3387841 89.3826912 22.4447143 89.5897327 22.6635701 89.8077235 22.892919 89.9978433 23.1612423 90.1546175 23.4610448 90.3148756 23.7698413 90.4611982 24.087632 90.5935853 24.412418L90.9374931 25.2583608C90.9937327 25.3647907 91.0335484 25.4537321 91.0639078 25.5346787 91.0907834 25.6091297 91.1106912 25.7020685 91.1221382 25.810497 91.135576 26.0858157 91.0146359 26.3401481 90.7503594 26.5819888 90.4671705 26.842817 90.2063779 27.0361896 89.9764424 27.1581093 88.9078894 27.7197393 87.8522765 28.28037 86.809106 28.8415003 85.7659355 29.402131 84.7157972 29.9742541 83.6581935 30.5553713 82.9917788 30.9071396 82.3079447 31.24042 81.6270968 31.5467182 80.9532166 31.8495188 80.2534562 32.1393278 79.5293088 32.4181442 79.124682 32.5790382 78.7200553 32.7339361 78.3124424 32.8843371 77.9103041 33.03174 77.5007005 33.1511613 77.0950783 33.2391034 76.7168295 33.3255464 76.3350968 33.3690178 75.9588387 33.3690178L75.8125161 33.3665194zM56.6611797 19.4536847C56.4148203 19.4536847 56.1694562 19.4411929 55.9235945 19.4192074 55.6687742 19.3962225 55.4363502 19.3837307 55.2283134 19.3837307 54.903318 19.4062159 54.6280922 19.4172087 54.392682 19.4172087 54.1597604 19.4172087 53.8875207 19.3942238 53.5779539 19.3487538 53.3067097 19.3472548 53.2365346 19.0939217 53.1882581 18.5947505L53.1743226 18.4568413C53.1544147 17.9651652 53.1434654 17.4400112 53.1444608 16.9078618L53.1459539 15.3164101C53.1459539 15.1889941 53.1633733 14.9996188 53.1957235 14.7467854 53.2315576 14.4554773 53.2499724 14.1666675 53.2509677 13.8783575 53.2509677 13.5735583 53.2191152 13.2897452 53.1554101 13.0344134 53.0708018 12.6901402 52.8911336 12.4557946 52.6223779 12.3378723 52.4860092 12.2924022 52.3610876 12.2729151 52.2048111 12.2719157L51.6210138 12.2719157C51.476682 12.2719157 51.3442949 12.2859065 51.2168848 12.3143878 51.0665806 12.3468664 50.9222488 12.4143219 50.7888664 12.5137564 50.6002396 12.6966359 50.5061751 12.8855115 50.4857696 13.103368 50.4733272 13.2417768 50.4678525 13.3731903 50.4678525 13.4976083 50.4444608 14.1961481 50.4320184 14.9026827 50.431023 15.6042205L50.4285346 17.6753562C50.4509309 17.8997084 50.4554101 18.0860856 50.4449585 18.2714635 50.4220645 18.6692014 50.2782304 19.2877939 49.9741382 19.3637439 49.7417143 19.4222054 49.5048111 19.451686 49.2713917 19.451686 49.2027097 19.451686 49.1345253 19.4491876 49.0653456 19.4441909 48.8060461 19.4132113 48.5452535 19.3972219 48.2894378 19.3972219 48.1655115 19.3972219 48.0415853 19.4012192 47.9201475 19.4087143 47.7439631 19.4192074 47.5652903 19.4247038 47.384129 19.4247038 47.1964977 19.4247038 47.0058802 19.4187077 46.8127742 19.4072153 46.5833364 19.4067156 46.3628571 19.3902265 46.143871 19.3557492 45.9492719 19.3267683 45.7885161 19.2363278 45.6521475 19.0789315 45.518765 18.9250329 45.4580461 18.7521468 45.468 18.5492804 45.4789493 18.3164338 45.5068203 18.0775912 45.5521106 17.8332521 45.6451797 17.2516353 45.6690691 16.6755148 45.6242765 16.1163831 45.5799816 15.57474 45.5690323 15.0166076 45.592424 14.4554773 45.6158157 13.8553726 45.5939171 13.2312837 45.5257327 12.6011988 45.4585438 11.9771099 45.4137512 11.3700099 45.3928479 10.7788993 45.3495484 10.0134036 45.3385991 9.23941343 45.3614931 8.47641606 45.3848848 7.71291903 45.4202212 6.94392561 45.4660092 6.16893614 45.4898986 5.4089368 45.468 4.65393417 45.4013088 3.91991771 45.3346175 3.2038894 45.3470599 2.46537591 45.4376406 1.72486373 45.4804424 1.48752008 45.5371797 1.23968334 45.6043687.993345622 45.6630968.778487163 45.7865253.617093483 45.9826175.499670836 46.1055484.417225148 46.2344516.368257406 46.3703226.348270573L46.8486083.280315339C47.1825622.258829493 47.5453825.218356155 47.9251244.161893351 48.1839263.122919026 48.4427281.102932192 48.7020276.102932192 48.8080369.102932192 48.9140461.106429888 49.0195576.112425938 49.3759078.134411455 49.7168295.206863726 50.0328664.327284398 50.6410507.558631995 50.8575484 1.39008427 50.8575484 2.09112245 50.856553 2.51134562 50.8341567 2.93256814 50.7893641 3.35329098 50.7405899 3.91691968 50.7117235 4.47205398 50.6997788 5.02818762 50.6873364 5.58482093 50.6928111 6.13895589 50.7152074 6.6955892 50.7152074 6.83999408 50.7276498 6.99489203 50.7540276 7.14029625 50.7868756 7.32717314 50.8699908 7.50455629 50.9998894 7.66644964 51.2756129 7.91678473 51.5408848 8.04520013 51.8260645 8.07717907 52.2192442 8.01621922 52.4760553 7.89579855 52.6741382 7.69742923 52.8488295 7.52354378 52.947871 7.3261738 52.9682765 7.11131534 52.9787281 6.99489203 52.9946544 6.87247268 53.0170507 6.74555629 53.0449217 5.60280908 53.0130691 4.47255365 52.9229862 3.3632844 52.8786912 2.94755826 52.8622673 2.52383739 52.874212 2.10161554 52.9010876 1.08678407 53.1668571.540643845 53.7352258.331781435 54.0642028.211360764 54.4135853.134411455 54.772424.102932192 54.9540829.0859433838 55.1367373.0779486504 55.3208848.0779486504 55.5090138.0779486504 55.6986359.0864430546 55.8892535.103431863 56.2809401.139408163 56.6497327.156896643 56.9946359.156896643 57.1489217.157895984 57.2982304.162892693 57.4430599.174385122 57.5555392.182879526 57.6535853.231347597 57.7431705.320289006 57.8641106.423221198 57.9377696.54364187 57.9760922.697040816 58.0193917.873924292 58.0527373 1.05080777 58.0746359 1.22719157 58.1189309 1.74634957 58.1577512 2.25951152 58.1910968 2.7601817 58.2244424 3.25935286 58.2408664 3.77001646 58.2393733 4.29117314 58.2154839 5.38245425 58.2373825 6.48123041 58.3040737 7.55502304 58.370765 8.6163239 58.3812166 9.70560632 58.3344332 10.7928901 58.2876498 11.9121527 58.262765 13.0613957 58.2612719 14.2076406L58.2567926 17.6503726C58.2567926 17.9166972 58.2338986 18.1875188 58.189106 18.4653357 58.1477972 18.7231659 58.0497512 18.9260323 57.8894931 19.0854273 57.7317235 19.2228367 57.5455853 19.3212719 57.343023 19.371239 57.1290138 19.4267024 56.9000737 19.4536847 56.6611797 19.4536847zM12.8699171 44.7160428C11.9780461 44.7160428 11.112553 44.6435905 10.2988203 44.5006847 10.1624516 44.4672067 10.0937696 44.4347281 10.0624147 44.4147413 9.99124424 44.384761 9.86035023 44.3352936 9.82003687 44.0554779 9.77325346 43.8860895 9.77275576 43.7216978 9.81406452 43.5458137 9.84342857 43.2240257 9.86731797 42.9122311 9.88722581 42.585946 9.90564055 42.2781488 9.9603871 41.9838427 10.0484793 41.7110224 10.1281106 41.4781758 10.2132166 41.2478275 10.3013088 41.0249743 10.3903963 40.8031205 10.4864516 40.5757702 10.5894747 40.3434233 10.6696037 40.190524 10.765659 40.0316287 10.8711705 39.8742324 11.0408848 39.6218986 11.3190968 39.4944826 11.698341 39.4944826 11.8610876 39.4989796 11.9641106 39.4999789 12.068129 39.4999789L13.0376406 39.4869875C13.5139355 39.4869875 13.9991889 39.4949822 14.494894 39.5109717 14.9896037 39.5269612 15.4703779 39.551445 15.9372166 39.584923 16.4080369 39.6179013 16.7902673 39.6473818 17.086894 39.6723654 17.086894 39.6723654 18.2838525 39.7158367 18.3390968 39.7158367 18.5675392 39.7158367 18.8059355 39.703345 19.0517972 39.6768624L19.366341 39.5734305C19.5584516 39.504476 19.6938249 39.3590718 19.741106 39.1731942 19.7515576 38.8973759 19.6803871 38.7099993 19.5345622 38.584582 19.4609032 38.5226228 19.3872442 38.469158 19.3130876 38.4211896 18.4505806 37.9649901 17.5726452 37.5852403 16.6927189 37.2859375 15.8511152 37.0011251 15.0189677 36.6298697 14.2186728 36.1826643 14.2221567 36.1471876 14.0832995 36.06774 13.9802765 36.026767 13.8528664 35.8453864 13.8160369 35.7069776 13.8050876 35.6110408 13.7483502 35.1588387 13.8085714 34.674158 13.9842581 34.1679914 14.1803502 33.6028637 14.3620092 33.0702146 14.5302304 32.5695444L14.6626175 32.2912278C14.6934747 32.2232725 14.7397604 32.1593147 14.8039631 32.0938578 14.8731429 32.0483878 14.9826359 31.997921 15.0911336 31.9694398 15.232977 31.9334635 15.3723318 31.9124773 15.5032258 31.9079803 15.6122212 31.8924905 15.6913548 31.8879934 15.784424 31.8879934 15.9013825 31.8879934 16.0372535 31.8959882 16.1910415 31.9104786 16.5100645 31.9409585 16.8400369 31.9744365 17.1804608 32.0114121 17.5208848 32.0473884 17.8473733 32.0878618 18.1619171 32.1283351 18.4500829 32.1673094 18.6805161 32.1872962 18.8522212 32.1872962 19.2478894 32.1942916 19.5589493 32.2072831 19.855576 32.2212739 19.9501382 32.2262706 20.048682 32.2282693 20.1487189 32.2282693 20.3786544 32.2282693 20.6185438 32.2147781 20.8673917 32.1892949L21.1859171 32.0838644C21.3785253 32.0139105 21.5134009 31.8675069 21.5586912 31.6816294 21.5661567 31.404312 21.4944885 31.2179348 21.3491613 31.0950158 21.2789862 31.035555 21.2063226 30.9825899 21.1311705 30.9346215 20.8435023 30.7817222 20.4985991 30.6293226 20.0656037 30.4634319 19.64953 30.3025379 19.224 30.1336491 18.7895115 29.957765 18.3555207 29.7803818 17.9359631 29.6089947 17.5328295 29.4396063 17.1505991 29.279212 16.8420276 29.125813 16.615576 28.9834068 16.2408111 28.8095214 15.9192995 28.6556228 15.6117235 28.4997255 15.3091244 28.3458269 15.0105069 28.1764384 14.715871 27.9900612L14.6158341 27.9276024C14.283871 27.721738 13.9076129 27.4888914 13.8991521 27.1256307 13.8648111 26.7933496 13.8822304 26.4880507 13.9504147 26.208235 14.0230783 25.9124299 14.1066912 25.6136267 14.2032442 25.3113259L14.3764424 24.6027926C14.4287005 24.3849361 14.4953917 24.1585853 14.575023 23.9247393 14.6198157 23.7428591 14.6775484 23.571472 14.7531982 23.3995853 14.8208848 23.2441876 14.9169401 23.1197696 15.0383779 23.0283298 15.2006267 22.930894 15.340977 22.8919197 15.4997419 22.8919197 15.5679263 22.8919197 15.6381014 22.8994147 15.7112627 22.9139052 15.9750415 22.9668703 16.2223963 23.0438196 16.4473548 23.1437538 16.8156498 23.2816629 17.1675207 23.4380599 17.5019724 23.6114457 17.8423963 23.7888288 18.1863041 23.9777044 18.5327005 24.1785721 19.5221198 24.7506952 20.5214931 25.2748499 21.5039447 25.7370454 22.4844055 26.1992409 23.4728295 26.730391 24.4413456 27.3155056 25.5596682 27.9860639 26.7551336 28.6291402 27.9934009 29.2277459 29.2122581 29.8148591 30.320129 30.5493752 31.2876498 31.4108078 31.706212 31.7161066 31.9416221 32.1038512 32.0167742 32.6050211 32.0426544 32.8443634 32.0207558 33.0657176 31.9490876 33.2740803L31.7087005 33.9741192C31.6425069 34.1500033 31.5882581 34.3503713 31.5454562 34.5717255 31.5071336 34.7810876 31.4588571 34.9809559 31.4006267 35.1728295 31.3458802 35.3522113 31.2637604 35.5156037 31.1542673 35.6585095 31.0487558 35.7979177 30.9064147 35.9053469 30.7192811 35.9857939 30.5555392 36.0517505 30.3838341 36.0907248 30.2106359 36.1012179 30.0170323 36.1142093 29.824424 36.1326972 29.6283318 36.155682 29.3740092 36.1621777 29.1017696 36.192158 28.8235576 36.2456228 28.5582857 36.2970889 28.2950046 36.3370625 28.0337143 36.3650441 27.8331429 36.3755372 27.620129 36.3810336 27.4046267 36.3810336 27.4031336 36.3810336 27.4021382 36.3810336 27.4011429 36.3810336 27.0567373 36.3810336 26.8193364 36.4170099 26.6063226 36.4879631 26.4863779 36.5144457 26.3952995 36.5614147 26.3410507 36.626372 26.2315576 36.8467268 26.2758525 36.9916313 26.329106 37.0795734 26.35847 37.1665161 26.4520369 37.2664503 26.602341 37.3598887 27.0363318 37.7181527 27.5041659 38.0709203 27.9774747 38.3992041 28.4443134 38.7234905 28.9056774 39.071761 29.3466359 39.4340224 29.7477788 39.7752976 29.9836866 40.1775326 30.0638157 40.6607143 30.0891982 40.8985576 30.0672995 41.1204115 29.9956313 41.3282745L29.7562396 42.0278137C29.6905438 42.2031982 29.6348018 42.4040658 29.592 42.6264194 29.5536774 42.8352818 29.5054009 43.0346504 29.4476682 43.2260244 29.3934194 43.4059059 29.3108018 43.5697979 29.2013088 43.7127038 29.0952995 43.8526116 28.9524608 43.9595411 28.7668203 44.0389888 28.6050691 44.105445 28.4333641 44.144919 28.2576774 44.1559118 28.0695484 44.1679039 27.8844055 44.1738999 27.698765 44.1748993 27.4160737 44.2063785 27.1443318 44.2468519 26.8710968 44.298318 26.6043318 44.3507834 26.3410507 44.3897577 26.0802581 44.418239 25.8194654 44.4462205 25.5621567 44.4597117 25.3073364 44.4597117 25.3073364 44.4597117 24.8310415 44.4512172 24.6921843 44.4512172 24.5000737 44.4512172 24.3074654 44.4547149 24.1128664 44.46221 23.481788 44.4717038 22.8382673 44.4906912 22.1842949 44.5201718L20.2487558 44.6106122C19.4574194 44.6620783 18.6715576 44.6880612 17.9100829 44.6880612 17.5746359 44.6880612 17.240682 44.6830645 16.9097143 44.6730711 16.4871705 44.661079 16.0611429 44.6550829 15.6326267 44.6550829 14.9487926 44.6550829 14.2564977 44.6705727 13.5557419 44.702052 13.3228203 44.7115458 13.0953733 44.7160428 12.8699171 44.7160428z"/>
        <g transform="translate(0 48.968)">
          <path d="M42.2782673 16.8244167C40.851871 15.8455616 39.0248295 16.4061922 37.4122949 16.33374 36.5338618 16.294266 35.8226544 16.1913338 34.9616406 16.5615899 33.8965714 17.019788 34.2668571 18.6736985 34.3464885 19.6365642 34.4281106 20.6239138 34.1334747 22.7734977 35.1144332 23.3541152 35.5165714 23.5924582 36.0018249 23.6364292 36.4686636 23.648921 38.3658802 23.6993878 40.454212 23.6089473 41.9687005 22.3172982 42.5096959 21.856102 42.9521475 21.2584957 43.2487742 20.4820072 43.7633917 19.1368934 43.5065806 17.6668618 42.2782673 16.8244167zM57.4933272 26.5535076C57.6510968 26.6529421 57.8481843 26.6584384 58.0343226 26.6604371 58.4688111 26.6654338 58.9032995 26.6704305 59.337788 26.6754273 59.5503041 26.6779256 59.7757604 26.6769263 59.9569217 26.565 60.1420645 26.4505754 60.2480737 26.2362166 60.2819171 26.0203588 60.3978802 25.285343 60.0962765 24.3549559 59.9952442 23.6209394 59.8767926 22.7605063 59.7578433 21.9000731 59.6393917 21.0391402 59.5547834 20.4250448 59.4542488 19.8229414 59.3512258 19.2138427 59.2915023 18.861075 59.17753 18.1445471 58.6972535 18.1405328 58.1263963 18.135553 58.0970323 19.2403252 58.0174009 19.6120803 57.7829862 20.7068591 57.6680184 21.8316182 57.5087558 22.9363904 57.3828387 23.8103147 57.1354839 24.7956656 57.1757972 25.7030678 57.1812719 25.8229888 57.1912258 25.9414108 57.2076498 26.0578341 57.2340276 26.2532054 57.3270968 26.4485767 57.4933272 26.5535076z"/>
          <path d="M107.788977,6.82150625 C107.715318,5.29651086 107.952221,3.2673476 106.989677,1.96020869 C105.711097,0.223852535 103.118599,0.0444707044 101.205954,0.192872943 C94.3561659,0.726021725 87.4874654,0.18537788 80.6292166,0.23284661 C77.6883318,0.253333114 74.7519263,0.181880184 71.8379171,0.69304345 C71.1192442,0.8189605 70.3791705,0.864430546 69.648553,0.869427255 C61.5694562,0.923391705 53.4938433,1.42456155 45.4122581,1.10127452 C43.0616406,1.10127452 40.7105253,1.07878934 38.3604055,1.1067709 C35.127871,1.14524556 31.887871,1.39408163 28.6652903,1.24567939 C25.2700092,1.08828308 21.861788,1.69638249 18.490894,1.54398288 C15.2175484,1.39608032 11.9631152,1.28765174 8.65791705,1.45004477 C6.30182488,1.5659684 3.49133641,1.18671824 1.77179724,3.11544766 C-0.595741935,5.77069849 0.590267281,9.75707242 1.0919447,12.8550316 C1.81808295,17.338578 2.90654378,21.8506057 4.82267281,25.9439092 C6.83485714,30.243077 8.05421198,34.7840856 10.4401659,38.9618334 C12.8131797,43.1155971 16.0487005,46.5088618 19.4290507,49.7931982 C20.053659,50.3997986 20.8534562,50.8285161 21.5840737,51.3216912 C25.8652535,54.2087893 30.8795392,55.7917465 35.7992627,57.1503515 C38.4838341,57.8913634 41.2480369,58.3635523 43.9948203,58.8507314 C49.4435945,59.8165951 55.1576406,59.3763851 60.6531982,58.9471679 C63.7274654,58.7068262 66.8286083,58.5159519 69.8476313,57.9343351 C73.5893088,57.2133101 77.305106,56.2634358 80.9467465,55.1356787 C85.3259724,53.7800718 89.4160369,51.7549059 92.6898802,48.4216017 C94.5418065,46.5363436 96.2882212,44.5421573 98.0092535,42.5344799 C99.4560553,40.8465918 100.478323,38.8948776 101.317438,36.8257406 C103.42518,31.6266656 105.150194,26.3211606 106.479041,20.8577597 C107.609806,16.2143186 108.018415,11.5563871 107.788977,6.82150625 Z M51.067576,29.3421705 L51.1536774,28.6651165 C51.727023,24.0061856 52.3172903,19.2038492 53.1374931,14.5199348 C53.3057143,13.5615662 53.5585438,12.1150191 54.6211244,11.7587538 C55.0322212,11.6213443 55.5508203,11.5568868 56.2540645,11.5568868 C56.6024516,11.5568868 56.9543226,11.5718769 57.2967373,11.5858677 C57.6227281,11.5998585 57.9402581,11.6128499 58.2353917,11.6128499 L58.4075945,11.6108512 C58.7017327,11.6058545 58.995871,11.5918637 59.2910046,11.5778729 C59.6722396,11.5598848 60.05447,11.5418966 60.4357051,11.5418966 C61.0667834,11.5418966 61.5794101,11.5943621 62.0467465,11.7047893 C63.0540829,11.94663 63.4223779,13.0818822 63.6707281,14.2720981 C63.793659,14.8647077 63.931023,15.4533199 64.0678894,16.0409329 C64.3097696,17.0827465 64.5601106,18.1595372 64.7283318,19.2343292 L66.7425069,32.2072831 C66.8395576,32.8453627 66.9376037,33.4829427 67.0406267,34.120023 C67.0864147,34.4003384 67.1889401,34.6996412 67.2869862,34.98995 C67.4651613,35.512106 67.6483134,36.0527498 67.5248848,36.5159447 C67.4278341,36.876707 67.1127926,37.309422 66.5613456,37.8410718 C65.8680553,38.5111303 64.8875945,38.8643976 63.7279631,38.8643976 C63.5960737,38.8643976 63.4636866,38.8604003 63.3317972,38.8514062 C62.9684793,38.8284213 62.7465069,38.7429776 62.6305438,38.5830829 C62.5245346,38.4351804 62.515576,38.2253186 62.515576,37.986476 C62.5165714,36.7457933 62.3996129,35.5865569 62.2756866,34.3593654 C62.2254194,33.8631922 62.1746544,33.3640211 62.1328479,32.8558558 C62.127871,32.7893996 62.1189124,32.6799717 62.0397788,32.594528 C61.9427281,32.4900968 61.7978986,32.4900968 61.7197604,32.4900968 C61.2175853,32.4940941 60.7183963,32.4970922 60.2192074,32.4970922 C59.6861751,32.4970922 59.1526452,32.4930948 58.6176221,32.4831014 C58.2214562,32.4741073 57.8282765,32.4681113 57.4350968,32.4681113 C57.0170323,32.4681113 56.5994654,32.4751066 56.1814009,32.4930948 C55.9370323,32.5030882 55.8001659,32.8203792 55.8190783,34.4168275 C55.8170876,34.8455451 55.8330138,35.2033094 55.8489401,35.5680691 C55.886765,36.4180092 55.9260829,37.2959309 55.7369585,38.0499342 C55.6568295,38.3682245 55.4796498,38.6145622 55.2487189,38.7239901 C55.1347465,38.7784542 55.0013641,38.8044371 54.8406083,38.8044371 C54.716682,38.8044371 54.5912627,38.789447 54.4693272,38.7694602 C53.3858433,38.5885793 52.4795392,38.1073963 51.8459724,37.3793759 C50.2573272,35.5495813 50.7445714,31.8140421 51.067576,29.3421705 Z M68.205235,44.0834595 C66.9137143,45.7478631 64.3052903,46.7412087 62.3453641,47.2828519 C60.8064885,47.7065727 59.0705253,47.9124371 57.0379355,47.9124371 C57.0369401,47.9124371 57.0379355,47.9124371 57.0369401,47.9124371 C56.4347281,47.9124371 55.8335115,47.894449 55.2342857,47.8664674 C48.1988571,47.5291896 43.8455115,43.8296267 41.9273917,36.5569177 C41.7855484,36.0187722 41.6914839,35.5061099 41.6014009,35.0149335 C41.3291613,33.5294121 41.0942488,32.2467571 39.727576,31.0535431 C38.8670599,30.3020382 37.6795576,30.2850494 36.6319078,30.2700592 C36.6319078,30.2700592 36.2949677,30.2650625 36.292977,30.2650625 C35.7554654,30.2650625 35.4095668,30.3834845 35.1701751,30.6288229 C34.7580829,31.0495458 34.7371797,31.7445879 34.753106,32.6115168 L34.9511889,44.0974503 C34.9631336,44.8254707 34.8202949,45.3331363 34.5127189,45.6484286 C34.1767742,45.9922021 33.6293088,46.1475997 32.7369401,46.1515971 C32.4875945,46.1515971 32.2437235,46.1625899 32.0013456,46.1725833 C31.7549862,46.183576 31.5121106,46.1945688 31.2667465,46.1945688 C30.933788,46.1945688 30.6545806,46.174582 30.3863226,46.1311106 C29.7497696,46.0306768 29.3625622,45.8358051 29.1689585,45.5185142 C28.7339724,44.8094812 28.7708018,43.7266945 28.8046452,42.7723232 C28.8136037,42.5000026 28.8225622,42.2411731 28.819576,42.0058282 C28.8026544,40.5592811 28.7837419,39.112734 28.762341,37.6666866 C28.7225253,34.8795227 28.6742488,32.0518855 28.6254747,29.2892054 C28.5906359,27.201081 28.5274286,25.0554944 28.438341,22.9129059 C28.4174378,22.3927485 28.3870783,21.8780876 28.3572166,21.3639263 C28.3183963,20.6928683 28.2790783,20.0238091 28.2581751,19.3457558 C28.2402581,18.7341587 28.1501751,17.8522396 27.5718525,17.2526346 C27.3777512,17.0507676 27.1284055,16.8868756 26.8516866,16.7794463 C26.4624885,16.6275464 26.0110783,16.5575925 25.4327558,16.5575925 C25.0793917,16.5575925 24.720553,16.5835754 24.3681843,16.6090586 C24.0461751,16.6320434 23.7296406,16.6550283 23.4315207,16.657027 C22.9651797,16.6580263 22.5889217,16.8049296 22.3131982,17.0917406 C21.6676866,17.7647972 21.7109862,19.0624424 21.7428387,20.0108176 L21.7517972,20.2791409 C21.7786728,21.368923 21.7756866,22.4607038 21.7727005,23.5514852 C21.7697143,24.9125885 21.7657327,26.320661 21.8249585,27.7047492 C21.8901567,29.2347413 21.9458986,30.6168308 21.9588387,32.0318986 C21.9687926,33.0202475 21.969788,34.0085964 21.946894,34.9969454 C21.9429124,35.1373529 21.951871,35.316235 21.9628203,35.5141047 C21.9936774,36.1227038 22.036977,36.955655 21.7134747,37.2459638 C21.4885161,37.4478308 21.2361843,37.5452666 20.9410507,37.5452666 C20.0725714,37.5452666 19.1050507,36.6713423 18.729788,36.2955899 C17.7712258,35.3342232 17.0097512,34.1649934 16.5254931,32.9143173 C15.8570876,31.1824582 15.9362212,29.5200533 16.0203318,27.7592133 C16.0511889,27.0961501 16.0835392,26.4260915 16.0745806,25.7430415 L16.023318,21.4758525 C16.0133641,20.6399032 15.9173088,19.7954595 15.825235,18.9774984 C15.7923871,18.6821929 15.7580461,18.3878868 15.7291797,18.0935806 C15.7003134,17.8062699 15.66,17.4125293 15.4131429,17.13821 C15.1667834,16.8658894 14.7979908,16.7874411 14.5038525,16.7504654 C14.0146175,16.6870072 13.5124424,16.6560276 12.9669677,16.6560276 C12.1527373,16.6560276 11.374341,16.7234832 10.5506544,16.7944365 C9.99423041,16.8424049 9.43133641,16.8918723 8.84903226,16.9188545 C8.74401843,16.9238512 8.63800922,16.9278486 8.532,16.9278486 C8.24084793,16.9278486 8.0278341,16.8948703 7.84169585,16.8214187 C7.51271889,16.6910046 7.21957604,16.3996965 7.01651613,15.9999598 C6.36602765,14.7223015 6.19133641,13.3681935 6.52429493,12.1869717 C6.68853456,11.6033562 6.9956129,11.5993588 7.60678341,11.5913641 C7.73469124,11.5893654 7.8720553,11.5873667 8.0158894,11.579372 C9.91061751,11.4759401 11.9048848,11.4154799 13.9429493,11.4004898 L15.1055668,11.3964924 C16.2209032,11.3964924 17.3357419,11.4074852 18.4510783,11.4234747 C19.3877419,11.4374654 20.3219171,11.4384648 21.2565899,11.4394641 C22.6670599,11.4414628 24.0780276,11.4434615 25.4894931,11.4874325 C25.857788,11.4994246 26.2260829,11.5044213 26.5938802,11.5044213 C28.0023594,11.5044213 29.4282581,11.4269724 30.807871,11.3515221 C32.1835023,11.2760718 33.6064147,11.1986228 35.0069309,11.1986228 C35.4269862,11.1986228 35.8485346,11.2056182 36.2695853,11.2206083 L39.8515023,11.3540204 C40.095871,11.3630145 40.3437235,11.3660125 40.5940645,11.3660125 L41.4446267,11.3630145 C41.9990599,11.3630145 42.5883318,11.3740072 43.1412719,11.4534549 C45.2524977,11.7567551 47.1472258,12.9239862 48.2098065,14.5763976 C49.3783963,16.3927011 49.6755207,19.4331982 48.9021014,21.6477393 C48.0455668,24.0996241 45.9836129,25.7880118 43.3871336,26.1637643 C43.2940645,26.1767558 43.0472074,26.2132317 42.9879816,26.4300889 C42.9367189,26.6189645 43.0701014,26.7978466 43.3353733,26.8952824 C45.0544147,27.5413568 46.3160737,28.7345708 46.9839816,30.3455095 C47.2900645,31.084023 47.4752074,31.9134766 47.5672811,32.9552903 C47.8002028,35.6260309 48.3625991,38.6615313 50.7709493,40.9165458 C52.5218433,42.5569651 54.9590599,43.4158993 58.012424,43.4698637 C58.2324055,43.4738611 58.4528848,43.4758598 58.6728664,43.4758598 C60.8288848,43.4758598 63.623447,43.2959783 66.1114286,41.8919032 L66.3115023,41.7774786 C66.7868018,41.50216 67.279023,41.2188466 67.8060829,41.1968611 C67.8150415,41.1968611 67.824,41.1968611 67.8329585,41.1968611 C68.1270968,41.1968611 68.3062673,41.2298394 68.4520922,41.2922982 C68.7233364,41.4077222 68.8870783,41.5916011 68.9542673,41.8549276 C69.1329401,42.5489704 68.5894562,43.5892851 68.205235,44.0834595 Z M83.7831152,32.793397 C83.5800553,34.2219559 82.9887926,35.4731317 82.0252535,36.5149454 C80.857659,37.7766142 79.1107465,38.470657 77.107023,38.470657 C76.9557235,38.470657 76.8049217,38.467659 76.6536221,38.4596643 C75.4009217,38.3952067 74.2183963,38.3342469 73.0980829,37.7726169 C71.9513917,37.1999941 71.3023963,36.0812311 70.6837604,34.8880171 C69.9974378,33.5608914 69.7042949,32.0903601 69.5261198,30.9576063 C69.2548756,29.2327426 69.0866544,27.4129414 69.012,25.3937716 C68.9920922,24.8261455 68.9458065,24.2675135 68.9010138,23.7113799 C68.8139171,22.6365879 68.7238341,21.5248203 68.8268571,20.3945648 C68.8666728,19.9598512 68.8900645,19.5246379 68.9139539,19.0899243 C68.954765,18.3384194 68.9980645,17.5619309 69.1269677,16.8039302 C69.7082765,13.4086669 72.4416221,11.1216735 75.9274839,11.1136787 C78.0655853,11.1136787 79.5741014,11.4974259 80.7098433,12.3208835 C82.3985253,13.546576 82.7459171,15.1695069 82.7588571,17.3915431 C82.7628387,17.9881501 82.539871,18.3309243 82.0556129,18.4693331 C81.6912995,18.5747637 81.2150046,18.6027452 80.7959447,18.6272291 L80.4296406,18.650214 C80.2036866,18.6672028 79.9802212,18.6831922 79.7642212,18.6831922 C79.0156866,18.6831922 78.5966267,18.4763285 78.3174194,17.9711613 C78.2253456,17.8032719 78.1571613,17.6213917 78.09047,17.4420099 C77.9132903,16.9668229 77.7291429,16.4756465 77.1378802,16.2587893 C76.8407558,16.1503608 76.5306912,16.0918993 76.2405346,16.0918993 C75.7373641,16.0918993 75.3018802,16.2627867 74.9808664,16.584075 C74.1213456,17.4420099 74.071576,18.9155392 74.0302673,20.1007584 C74.0232995,20.3256103 74.0153364,20.5429671 74.0033917,20.7458334 C73.8282028,23.5594799 74.0242949,26.3961113 74.2134194,29.1383048 C74.2915576,30.2610652 74.5414009,31.8260342 75.8090323,32.4531211 C76.1683687,32.6310039 76.560553,32.7244424 76.9447742,32.7244424 C77.6141751,32.7244424 78.2143963,32.4481244 78.635447,31.9479539 C79.0097143,31.5027472 78.9868203,30.9001442 78.9654194,30.3679947 C78.9455115,29.8358453 78.9275945,29.3756485 79.2486083,29.1173186 C79.6228756,28.8170165 80.1230599,28.7790415 80.517235,28.7790415 C80.7033733,28.7790415 80.8905069,28.7880355 81.0756498,28.7970296 C81.2597972,28.8060237 81.4409585,28.8150178 81.6151521,28.8150178 L81.9242212,28.8110204 C82.2253272,28.8110204 82.4786544,28.8350046 82.6996313,28.8864707 C82.9469862,28.9429335 83.1540276,29.0308756 83.3307097,29.1557933 C84.2146175,29.7738861 83.9120184,31.8904918 83.7831152,32.793397 Z M98.5517419,12.9119941 C98.5308387,13.0898769 98.5169032,13.303736 98.5004793,13.537582 C98.4382673,14.4689684 98.3531613,15.7436287 97.7380092,16.2013272 C97.5827281,16.3177505 97.3806636,16.3712153 97.1875576,16.4151863 C96.2389493,16.6380395 95.2684424,16.6685194 94.4442581,16.6685194 C94.1541014,16.6685194 92.4524793,16.6535293 92.4524793,16.6535293 C92.1971613,16.6545286 91.8811244,16.6575267 91.6088848,16.8004325 C91.0584332,17.0887426 91.0026912,17.9426801 90.9693456,18.452844 C90.9041475,19.4721725 90.9603871,20.169713 91.1385622,20.617418 C91.3784516,21.2230191 92.0289401,21.5173252 93.1253641,21.5173252 C93.2766636,21.5173252 93.4204977,21.5123285 93.5503963,21.5053331 C93.6593917,21.5003364 93.7673917,21.4983377 93.8743963,21.4983377 C94.1386728,21.4983377 94.39847,21.5113292 94.6577696,21.5243206 C94.9210507,21.537312 95.1828387,21.5513028 95.449106,21.5513028 C95.6023963,21.5513028 95.7571797,21.5463061 95.9124608,21.5353134 C95.9826359,21.5303167 96.0503226,21.528318 96.1165161,21.528318 C96.5136774,21.528318 96.8018433,21.6237551 96.9720553,21.8126307 C97.1472442,22.006503 97.2139355,22.3157992 97.172129,22.7315253 C97.0790599,23.6759032 97.0422304,24.603792 97.0178433,25.3862765 L97.0138618,25.5961382 C97.006894,26.0673278 97.0009217,26.601476 96.6336221,26.8558084 C96.3364977,27.0616728 95.9472995,27.085657 95.5401843,27.0926524 L95.0818065,27.0956504 C94.4124055,27.0956504 93.7350415,27.0726656 93.0676313,27.0261962 C92.9183226,27.0162028 92.7854378,27.0072087 92.6535484,27.0072087 C92.3813088,27.0072087 92.1682949,27.046183 91.9831521,27.1306274 C91.1908203,27.4903904 91.2988203,28.7720461 91.3640184,29.5375418 L91.3799447,29.7334128 C91.395871,29.9552666 91.395871,30.1826169 91.395871,30.4094674 C91.3968664,30.8696643 91.3968664,31.3448512 91.5257696,31.8015504 C91.772129,32.6784727 92.2862488,32.8573548 92.98153,32.8573548 C93.0855484,32.8573548 93.1945438,32.8533575 93.3105069,32.8473614 C94.0117604,32.8103858 94.7130138,32.791898 95.414765,32.791898 C95.6407189,32.791898 95.8671705,32.7938966 96.092129,32.7968947 C96.4071705,32.8028907 96.6873733,32.8148828 96.9407005,32.9103199 C97.1666544,32.996763 97.3189493,33.1381698 97.4050507,33.3430349 C97.4722396,33.5039289 97.501106,33.7077946 97.4941382,33.9646254 L97.4881659,34.2319493 C97.4702488,35.3277275 97.4493456,36.5684101 96.3623779,37.0555892 C94.5985438,37.8470678 92.6784332,38.2478038 90.6543041,38.2478038 C90.1381935,38.2478038 89.6116313,38.2208216 89.0905438,38.1673568 C88.7162765,38.1293818 88.2862673,38.072919 87.912,37.8950362 C86.7344516,37.3284095 86.5294009,35.7754325 86.3651613,34.5282541 L86.3482396,34.3998387 C86.241235,33.5923706 86.2432258,32.7594194 86.2452166,31.9549493 C86.246212,31.4083094 86.2472074,30.8601705 86.2163502,30.31453 C86.0745069,27.8031843 85.984424,25.2388736 85.9500829,22.6915517 C85.9341567,21.4598631 85.8420829,20.2066886 85.7539908,18.9939875 C85.6519631,17.6039032 85.5469493,16.1653509 85.5539171,14.7492837 L85.5499355,14.3335576 C85.536,13.5600671 85.5170876,12.5012646 85.9461014,11.9930994 C86.2561659,11.626341 86.7887005,11.5249078 87.3157604,11.469944 C88.0409032,11.3924951 88.7545991,11.3825016 89.2955945,11.3825016 C89.6106359,11.3825016 90.8742857,11.3974918 91.1903226,11.3974918 C91.379447,11.3974918 91.567576,11.3964924 91.7567005,11.3924951 C92.3529401,11.3825016 92.9511705,11.3605161 93.5503963,11.3380309 C94.4009585,11.3070513 95.2530138,11.2765714 96.1025806,11.2765714 C96.4599263,11.2765714 96.8167742,11.2815681 97.1731244,11.2945596 C97.4383963,11.304553 97.7176037,11.3215418 97.9594839,11.4209763 C98.4974931,11.6433298 98.6174378,12.3363733 98.5517419,12.9119941 Z"/>
        </g>
        <path d="M22.7680922 37.834576L22.5087926 37.2864371C21.9394286 36.0817307 21.3506544 34.8355517 20.724553 33.6353423 19.8804608 32.0189072 19.1548203 30.3180276 18.4530691 28.6731113 18.0494378 27.7267347 17.6458065 26.7803581 17.2182857 25.8449743 16.9649585 25.291339 16.7086452 24.7397024 16.4513364 24.1880658 16.1223594 23.4815313 15.8919263 22.7954832 15.6490507 22.0689618L15.5087005 21.6522363C15.3369954 21.1480685 15.01847 20.209187 14.4351705 19.8624154 14.1066912 19.6665444 13.693106 19.650555 13.2630968 19.650555L13.0306728 19.6510546C12.8350783 19.6510546 12.6434654 19.6475569 12.4632995 19.6255714 12.2343594 19.5970902 12.0064147 19.5895951 11.7789677 19.5895951L10.9851429 19.5995885C10.8482765 19.5995885 10.7099171 19.5970902 10.5715576 19.5890955 10.3525714 19.5771034 10.1375668 19.5661106 9.92604608 19.5661106 9.39052535 19.5661106 8.76890323 19.6310678 8.22094009 20.1122508 7.34897696 20.8782462 6.87417512 21.9910132 6.41529954 23.0678038L6.27246083 23.4015839C5.97135484 24.0996241 5.69811982 24.8106557 5.42488479 25.522187 4.99089401 26.6534417 4.54147465 27.8226715 3.98256221 28.9174503 2.89609217 31.0470474 2.10624885 33.3315425 1.34178802 35.5405872.984442396 36.5749059.627096774 37.6082251.239391705 38.631551.156774194 38.8489078.178672811 39.1167314.302101382 39.3865537.470820276 39.7568097.804774194 40.0780981 1.15266359 40.2045148 1.51299539 40.3354286 1.89721659 40.3968881 2.36057143 40.3968881 2.70099539 40.3968881 3.04141935 40.3644095 3.38234101 40.3319309 3.60082949 40.3114444 3.81931797 40.2909579 4.03133641 40.2784661 4.1522765 40.264975 4.28516129 40.2604779 4.42451613 40.2604779 4.42451613 40.2604779 5.05658986 40.2739691 5.18798157 40.2739691 5.61699539 40.2739691 6.09329032 40.2384924 6.36503226 39.9731672 6.61736406 39.7273292 6.72486636 39.3200974 6.82888479 38.9263568 6.88462673 38.7159954 6.93937327 38.5111303 7.01253456 38.3327479 7.0677788 38.1998354 7.12053456 38.0479355 7.17677419 37.8885405 7.38282028 37.3019269 7.61623963 36.636865 8.08705991 36.312079 8.46481106 36.0512508 8.93911521 36.0472535 9.32035023 36.0437558 9.85338249 36.0382594 10.3864147 36.0347617 10.919447 36.0347617L11.8824885 36.0392587 12.6807926 36.0507512C12.9376037 36.0507512 13.1934194 36.0422567 13.4631705 36.0102778 13.5816221 35.996287 13.7005714 35.9892916 13.8205161 35.9892916 14.1689032 35.9892916 14.5103226 36.0482528 14.8368111 36.1636768 15.336 36.3405602 15.4808295 36.6773384 15.6301382 37.1345372 15.8436498 37.789106 16.087023 38.3997038 16.3522949 38.9493417 16.632 39.5284602 16.9470415 39.9516814 17.2172903 40.1110764 17.38153 40.2075128 17.6000184 40.2145082 17.8926636 40.2220033 18.052424 40.2220033 18.2106912 40.2120099 18.3694562 40.2015168 18.5282212 40.1915234 18.6869862 40.18153 18.9253825 40.18153 18.9363318 40.18153 18.9467834 40.18153 18.9582304 40.18153 19.3772903 40.1910237 19.7963502 40.2140086 20.2154101 40.2379928 20.7514286 40.267973 21.287447 40.2984529 21.8244608 40.2984529L21.8249585 40.2984529C22.0315023 40.2984529 22.2375484 40.2939559 22.4440922 40.2829631 22.6362028 40.2739691 22.8198525 40.2579796 22.9641843 40.1725359 23.3275023 39.9556787 23.3971797 39.511971 23.1786912 38.8174286 23.0642212 38.4536682 22.8930138 38.0954042 22.7680922 37.834576zM13.5154286 30.7977117C13.5024885 30.8137011 13.488553 30.8276919 13.4726267 30.839684 13.3924977 30.9011435 13.27753 30.914135 13.1730138 30.92163 12.4259724 30.9760941 11.6729585 31.0175668 10.9239263 30.9436155 10.5426912 30.9061402 10.1654378 30.9256274 9.77922581 30.9366201 9.65778802 30.9401178 9.53635023 30.92163 9.41441475 30.9111369 9.25515207 30.8976458 9.10683871 30.7112686 9.15810138 30.5703614 9.36812903 29.9962396 9.57069124 29.4191198 9.80510599 28.8544918 10.0235945 28.327339 10.2699539 27.8111791 10.5227834 27.2995161 10.5919631 27.1596083 10.7208664 27.046183 10.8328479 26.9312587 10.9801659 26.7798585 11.2967005 26.7908512 11.4818433 26.8483134 11.77847 26.9402528 12.0178618 27.3709691 12.1462673 27.6337959 12.3781935 28.1079835 12.624553 28.5756754 12.8709124 29.042368 12.9968295 29.280711 13.1232442 29.519054 13.2481659 29.7578966 13.3571613 29.9667591 13.4104147 30.1811178 13.5099539 30.396476 13.5701751 30.5243917 13.6025253 30.6872844 13.5154286 30.7977117zM35.8823779 5.50387426C35.8047373 4.86829296 35.6280553 4.27068664 35.3588018 3.73054246 35.0362949 3.1079526 34.6251982 2.59479065 34.1389493 2.20704608 33.6442396 1.81380513 33.0898065 1.46253654 32.4900829 1.16323371 31.9112627.874923634 31.2941198.65756682 30.6550783.515660303 30.2658802.429217248 29.8697143.385246215 29.4780276.385246215 29.2321659.385246215 28.9868018.402235023 28.7409401.43621264 28.2118894.510663594 27.7092166.663063199 27.2488479.889913759 26.7820092 1.118763 26.3296037 1.40357538 25.903576 1.73635616 25.476553 2.07063594 25.0664516 2.43739434 24.6847189 2.82563858 24.2990046 3.21788018 23.9197604 3.62161422 23.5464885 4.03684068 23.049788 4.57948321 22.599871 5.17209282 22.2096774 5.79818038 21.8164977 6.43026399 21.4521843 7.07933641 21.1271889 7.72740948 20.770341 8.42844766 20.474212 9.15297038 20.246765 9.88099078 20.0188203 10.6090112 19.8630415 11.3610158 19.7849032 12.1095227 19.7500645 12.6596603 19.7679816 13.2008038 19.8391521 13.7184628 19.9088295 14.2301257 20.0631152 14.7277979 20.29753 15.1954898 20.6135668 15.7900981 21.0595023 16.3377373 21.6642028 16.8513989 22.0454378 17.255133 22.5192442 17.6238901 23.0721843 17.9471771 23.4658618 18.1785247 23.8913917 18.3953818 24.3368295 18.5917525 24.766341 18.7786294 25.2142673 18.92953 25.6641843 19.0394575 26.0658249 19.1283989 26.4545253 19.1728697 26.8198341 19.1728697 27.0900829 19.1728697 27.3533641 19.1483858 27.6032074 19.0999177 28.1919816 18.9839941 28.7513917 18.7671369 29.2650138 18.4538433 29.7831152 18.137052 30.2589124 17.7438111 30.67847 17.2846136 31.1020092 16.8219184 31.5101198 16.3027604 31.8888664 15.7406307L33.1425622 13.857871C33.5531613 13.2402778 33.9428571 12.5927044 34.3007005 11.9336386 34.6560553 11.2775708 34.9725899 10.5965194 35.2433364 9.90947202 35.5135853 9.2194266 35.7151521 8.48840816 35.8415668 7.75389203 35.844553 7.69842857 35.8749124 7.46408295 35.878894 7.40811982 35.9595207 6.78053325 35.9600184 6.13995523 35.8823779 5.50387426zM30.5505622 7.82934233L30.4455484 8.14863199C29.9518341 9.32185912 29.3491244 10.4266313 28.6473733 11.4504569 28.4393364 11.7157821 28.2347834 11.9766103 28.0247558 12.2489309 27.7918341 12.549233 27.5101382 12.780081 27.1866359 12.937977 27.1040184 12.9944398 26.9915392 13.0454062 26.8770691 13.0743871L26.8501935 13.0813825 26.7352258 13.0883779C26.5804424 13.0883779 26.4167005 13.0444068 26.2469862 12.9569645 26.0464147 12.8555313 25.8926267 12.742106 25.7786544 12.6101929 25.6557235 12.4697854 25.579576 12.3038947 25.5522028 12.1170178 25.5278157 11.945131 25.5332903 11.7742436 25.5671336 11.6108512 25.6298433 11.3515221 25.7472995 11.0757038 25.9180092 10.782397L27.0706728 8.80070244C27.2294378 8.48241211 27.3996498 8.16711982 27.5738433 7.86731731 27.7515207 7.56101909 27.9560737 7.25671955 28.1820276 6.96041475 28.2736037 6.85598354 28.3472627 6.77753522 28.4114654 6.71757472 28.4706912 6.65911323 28.5562949 6.58516195 28.6628018 6.5037156 28.8713364 6.38029691 29.0803687 6.31484003 29.3068203 6.29385385 29.3555945 6.28885714 29.4028756 6.28685846 29.449659 6.28685846 29.6268387 6.28685846 29.7930691 6.31883739 29.943871 6.38329493 30.1389677 6.46574062 30.302212 6.59415602 30.428129 6.76604279 30.5565346 6.93992824 30.6272074 7.16078275 30.6361659 7.42310994 30.6137696 7.59649572 30.5854009 7.71891508 30.5505622 7.82934233z" transform="translate(40.811 3.997)"/>
      </g>
    </g>
    <path fill="#084D8A" fill-rule="nonzero" d="M99.4470968,40.5832653 L98.5019724,40.5832653 L98.5019724,39.9836603 L101.088995,39.9836603 L101.088995,40.5832653 L100.143871,40.5832653 L100.143871,43.2560046 L99.4475945,43.2560046 L99.4475945,40.5832653 L99.4470968,40.5832653 Z M101.462267,39.9836603 L102.519871,39.9836603 L103.290802,41.6945332 L104.049788,39.9836603 L105.069567,39.9836603 L105.069567,43.2555049 L104.37329,43.2555049 L104.37329,40.670208 L103.440608,42.705867 L102.992682,42.705867 L102.06,40.670208 L102.06,43.2555049 L101.462765,43.2555049 L101.462765,39.9836603 L101.462267,39.9836603 Z"/>
  </g>
</svg>
