<?xml version="1.0" encoding="UTF-8"?>
<svg width="60px" height="60px" viewBox="0 0 60 60" version="1.1" xmlns="http://www.w3.org/2000/svg" xmlns:xlink="http://www.w3.org/1999/xlink">
    <title>No Fish_Line</title>
    <defs>
        <polygon id="path-1" points="5.98896069e-05 0.494857143 59.6564151 0.494857143 59.6564151 60 5.98896069e-05 60"></polygon>
    </defs>
    <g id="Desktop" stroke="none" stroke-width="1" fill="none" fill-rule="evenodd">
        <g id="WAT_Home_Final_MegaShop" transform="translate(-1094.000000, -1193.000000)">
            <g id="Icon-Groups" transform="translate(137.000000, 1035.000000)">
                <g id="No-Fish_Line" transform="translate(957.000000, 158.000000)">
                    <g id="Group-10">
                        <g id="Group-3">
                            <mask id="mask-2" fill="white">
                                <use xlink:href="#path-1"></use>
                            </mask>
                            <g id="Clip-2"></g>
                            <path d="M46.3028491,52.8209714 C34.9147358,38.6638286 23.4258679,24.5895429 12.0405849,10.4306857 C14.7954906,8.02668571 18.0519057,6.10954286 21.6762453,4.83411429 C31.9407736,1.22382857 43.332283,3.3524 50.5458679,11.8798286 C59.5339811,22.5038286 59.0086981,38.7026857 50.2996415,49.2598286 C49.0951132,50.6301143 47.7502075,51.8118286 46.3028491,52.8209714 M23.7671887,56.6055429 C12.972283,54.2032571 4.78228302,46.5912571 2.95907547,35.3546857 C1.5224717,26.5049714 4.4624717,18.1986857 10.167,12.2249714 C21.4351132,26.2386857 32.8039811,40.1689714 44.0771887,54.1786857 C37.9945472,57.4764 30.5500189,58.1152571 23.7671887,56.6055429 M55.1788868,13.9186857 C49.062283,3.79697143 37.5932264,-1.10017143 26.1066226,0.956971429 C12.6394528,3.36954286 1.33001887,14.0706857 0.118132075,28.1112571 C-1.00658491,41.1484 5.97662264,52.7729714 17.9602075,57.5489714 C29.2328491,62.0421143 43.7686981,60.6186857 52.1302075,51.1072571 C60.7243585,40.6901143 62.2577547,25.6324 55.1788868,13.9186857" id="Fill-1" fill="#084D8A" mask="url(#mask-2)"></path>
                        </g>
                        <path d="M49.7189529,31.5784985 C48.6625043,34.8819601 44.9626912,36.9017678 41.9643735,37.9269601 C34.5333454,40.4677293 24.1174576,39.0052293 19.3382053,32.1259985 C19.0740931,31.702537 18.8206352,31.2629216 18.5722239,30.8146524 C20.3105417,28.7417678 22.1481118,26.782537 24.3563361,25.1694601 C30.5727847,20.6261909 38.245495,19.4423447 45.1516632,23.1427293 C48.1488595,24.7488832 50.9172707,27.8331139 49.7189529,31.5784985 M10.932037,35.070037 C11.0357753,34.8790755 11.1339062,34.6846524 11.2180183,34.4821524 C11.7479249,33.1973447 11.949794,31.7417678 11.8864296,30.352537 C11.7950277,28.3252293 11.1086725,26.3954216 10.3135324,24.5359985 C10.3253081,24.5383062 10.3404482,24.540037 10.3494202,24.5423447 C11.7249342,24.8884985 12.6350277,25.9771524 13.4621305,27.1223447 C14.2331585,28.1896524 14.8651211,29.355037 15.487551,30.5261909 C14.1193268,32.2604216 12.7213828,33.9317678 10.932037,35.070037 M46.4464296,20.865037 C40.8154015,17.8102293 34.0959623,17.3919601 28.2383922,19.9442678 C24.4471772,21.5965755 21.1286725,24.112537 18.2778314,27.1529216 C17.9200744,27.5336909 17.5768968,27.9311909 17.2393268,28.3356139 C16.1324109,26.2944601 14.9183922,24.3104216 13.0853081,22.9638832 C11.7568968,21.9883062 9.20661647,21.2065755 7.62642955,21.9571524 C6.95577535,22.2756139 6.90026133,23.167537 7.16605572,23.7623447 C8.20119591,26.0746524 9.49091554,28.6465755 9.3305417,31.2813832 C9.18642955,33.6404216 7.52493423,35.0833062 6.95801834,37.2519601 C6.6905417,38.2759985 7.59334544,39.0669601 8.53540152,38.8742678 C11.8129716,38.2056139 14.1568968,36.3063832 16.2383922,33.6923447 C16.4340931,33.4465755 16.6292333,33.2019601 16.8249342,32.9573447 C16.9241866,33.1246524 17.0211959,33.2931139 17.1243735,33.457537 C21.3053081,39.4759985 27.8772707,41.4692678 34.8529716,41.5915755 C40.6853081,41.6942678 48.0428782,39.6917678 51.3114763,34.2156139 C54.4247473,29.0002293 51.1735324,23.4294601 46.4464296,20.865037" id="Fill-4" fill="#084D8A"></path>
                        <path d="M42.3109155,25.4087101 C41.2752146,25.1202485 40.0516632,25.8771716 39.7797006,26.9404409 C39.5234389,27.9465947 40.1767099,28.791787 41.0464296,29.1252485 C41.1243735,29.1644793 41.2079249,29.1944793 41.2976445,29.2129409 C42.441009,29.4454409 43.9589529,29.0940947 43.9281118,27.5981332 C43.9073641,26.5937101 43.2636258,25.6740947 42.3109155,25.4087101" id="Fill-6" fill="#084D8A"></path>
                        <path d="M34.1570838,27.5772485 C34.2989529,27.4780178 34.4486725,27.3920562 34.5922239,27.296287 C34.3645604,28.7524409 34.2955884,30.2299409 34.4150277,31.6664793 C32.5763361,29.8780178 32.487738,28.5147485 34.1570838,27.5772485 M29.0744669,34.3110947 C29.2107286,34.0093639 29.2191398,33.6470562 29.0772707,33.3724409 C29.2056819,32.4118639 29.7266165,31.4807101 30.6518501,30.8034024 C30.8290464,32.1441716 31.63428,33.0153255 32.7417567,33.4007101 C31.9797006,34.5459024 31.3993268,35.8739793 31.287738,37.1270562 C29.9778314,36.5634024 29.2309155,35.4822485 29.0744669,34.3110947 M27.1017567,27.0222485 C27.5015697,28.008787 28.1834389,28.8972485 29.1462426,29.5670562 C28.1750277,30.3897485 27.5800744,31.4582101 27.3400744,32.5889793 C25.227738,31.4680178 24.9053081,28.5210947 27.1017567,27.0222485 M39.8324109,38.7078255 C34.4352146,34.3722485 35.767551,25.6509024 39.0557753,20.4291716 C39.7000744,19.4068639 38.1131585,18.4595562 37.4722239,19.4766716 C36.4802613,21.0522485 35.6649342,22.9145562 35.1170838,24.888787 C33.7208221,24.0776332 32.961009,22.7397485 33.2284856,20.9957101 C33.4107286,19.8078255 31.6438127,19.2960947 31.4593268,20.4943639 C31.1296071,22.6503255 31.7671772,24.6274409 33.3058688,25.9209024 C32.3531585,26.6114793 31.4868034,27.4284024 31.0068034,28.4634024 C28.2047473,27.2934024 27.5509155,23.6755178 30.0731585,21.6707101 C30.9939062,20.9391716 30.0815697,19.2984024 29.1473641,20.0409024 C27.4740931,21.3707101 26.6767099,23.1816716 26.6868034,24.941287 C26.0284856,24.5535947 25.3707286,24.1664793 24.7124109,23.7793639 C24.0154015,22.8170562 22.4223174,23.756287 23.1288595,24.7324409 C23.6879249,25.5043639 24.2817567,26.0414793 24.9815697,26.4055178 C24.1017567,27.4151332 23.6828782,28.6607101 23.6974576,29.8855178 C22.5608221,29.7880178 21.3748408,28.2851332 22.0208221,27.1134024 C22.6034389,26.0553255 21.0198875,25.1028255 20.4367099,26.1609024 C19.4178314,28.0099409 20.3066165,30.1670562 21.923252,31.188787 C20.4552146,33.0014793 19.8462426,36.0280178 21.6944669,37.5366716 C22.6101679,38.283787 23.9167099,36.9568639 22.992037,36.2022485 C21.7729716,35.2076332 22.8563361,32.2249409 23.9890464,31.7455178 C24.0131585,31.7357101 24.0288595,31.7178255 24.0518501,31.706287 C24.4679249,32.7672485 25.2451211,33.6914793 26.3576445,34.2649409 C25.1481118,35.3991716 24.3989529,36.7295562 24.7213828,38.6726332 C24.9193268,39.8674409 26.6879249,39.3609024 26.489981,38.1707101 C26.5903548,37.1305178 26.9374576,36.2864793 27.5268034,35.6351332 C28.1139062,37.3359024 29.5191398,38.7701332 31.6488595,39.2264793 C32.0346539,39.9770562 32.7327847,40.6145562 33.8481118,41.0478255 C34.9544669,41.4770562 35.4316632,39.6534024 34.3359623,39.2276332 C31.5484856,38.1447485 33.498766,35.2422485 34.7430651,33.7826332 C35.303252,36.2085947 36.5038127,38.4107101 38.5354015,40.0422485 C39.4544669,40.781287 40.7621305,39.4549409 39.8324109,38.7078255" id="Fill-8" fill="#084D8A"></path>
                    </g>
                </g>
            </g>
        </g>
    </g>
</svg>