<?xml version="1.0" encoding="UTF-8"?>
<svg width="62px" height="60px" viewBox="0 0 62 60" version="1.1" xmlns="http://www.w3.org/2000/svg" xmlns:xlink="http://www.w3.org/1999/xlink">
    <title>No Milk_Line</title>
    <defs>
        <polygon id="path-1" points="7.90042267e-05 0.213834097 61.6642436 0.213834097 61.6642436 60 7.90042267e-05 60"></polygon>
    </defs>
    <g id="Desktop" stroke="none" stroke-width="1" fill="none" fill-rule="evenodd">
        <g id="WAT_Home_Final_MegaShop" transform="translate(-421.000000, -1192.000000)">
            <g id="Icon-Groups" transform="translate(137.000000, 1035.000000)">
                <g id="No-Milk_Line" transform="translate(284.000000, 157.000000)">
                    <g id="Group-10">
                        <g id="Group-3">
                            <mask id="mask-2" fill="white">
                                <use xlink:href="#path-1"></use>
                            </mask>
                            <g id="Clip-2"></g>
                            <path d="M48.138108,51.9219429 C36.3491175,38.0722286 24.5601271,24.2219429 12.7711366,10.3716571 C15.3585397,8.21622857 18.3080354,6.43165714 21.4505673,5.10594286 C32.4638164,0.461371429 43.5520019,3.25508571 51.6109594,11.6253714 C61.0757233,21.4562286 61.4857751,38.3116571 52.3081674,48.3813714 C51.0258562,49.6985143 49.6278432,50.8808 48.138108,51.9219429 M19.9134723,55.4905143 C8.04355057,51.0373714 1.50250429,39.1842286 2.98204807,27.2819429 C3.70503422,21.4653714 6.61915996,16.2790857 10.7886199,12.1682286 C22.4768958,25.8996571 34.1651718,39.6316571 45.8534478,53.3630857 C38.146991,57.7688 28.5419463,58.7276571 19.9134723,55.4905143 M57.4134327,14.8705143 C51.1283691,4.13965714 38.2668892,-2.0432 25.6404098,0.9808 C14.7074925,3.59908571 4.4388112,11.8499429 1.2285369,22.3339429 C-2.56863908,34.7299429 2.61815704,48.9602286 14.2824534,55.7259429 C27.0977725,63.1596571 44.1251153,60.6259429 54.2469213,50.2293714 C63.0618369,40.5573714 63.8945299,25.9379429 57.4134327,14.8705143" id="Fill-1" fill="#084D8A" mask="url(#mask-2)"></path>
                        </g>
                        <path d="M37.8018058,46.6575849 C36.4969515,50.3673962 29.129767,50.349283 25.9258835,49.3202264 C21.5027767,47.8989057 23.0278252,41.0413585 23.105301,37.5511698 C23.2089903,32.9549434 22.2239417,27.0047547 24.677534,22.8907925 C26.5276311,20.3832453 28.7173398,18.263434 27.0478252,14.949283 C26.7833592,14.424 26.1658835,13.9479623 25.9887961,13.419283 C25.3870485,11.6283396 27.749767,11.5570189 29.0138447,11.5921132 C30.0612233,11.6215472 34.6957864,11.0390943 35.3150097,12.4751321 C35.6144272,13.1685283 33.2965631,15.8277736 33.2214175,16.929283 C33.1235534,18.3596604 33.6274369,19.8426792 34.578699,20.9238113 C35.5538447,22.0315472 36.400835,22.0909811 37.0381165,23.709283 C37.4738447,24.8124906 37.4691845,26.1664528 37.5460777,27.3279623 C37.7167573,29.9158868 37.6352039,32.5156981 37.7674369,35.1053208 C37.8752039,37.2143774 38.0365631,39.2996604 38.0260777,41.4132453 C38.0167573,43.0547547 38.3552039,45.084 37.8018058,46.6575849 M40.1715146,26.7743774 C40.0468544,24.9755094 39.9012233,23.0838113 38.897534,21.5141887 C38.4227767,20.7726792 37.7994757,20.3481509 37.1965631,19.7368302 C35.4489903,17.963434 36.2761748,16.7226792 37.3421942,14.9758868 C38.7489903,12.6726792 37.8629709,9.804 35.1006408,9.25041509 C32.8887961,8.80720755 30.2948155,8.98098113 28.0550097,8.97701887 C26.4082136,8.97418868 24.6152039,9.18362264 23.6814175,10.6972075 C22.9247184,11.9226792 23.0115146,13.4996604 23.6878252,14.7256981 C24.5860777,16.3541887 25.6486019,17.1404151 24.2779223,19.2902264 C23.8188932,20.0107925 23.1647184,20.6215472 22.6153981,21.2923019 C22.5286019,21.3743774 22.4470485,21.4672075 22.3771456,21.5843774 C22.3014175,21.6868302 22.2507379,21.788717 22.2105437,21.8894717 C20.1099612,25.6819245 20.5637476,30.1360755 20.489767,34.3207925 C20.4122913,38.664 19.4377282,43.7838113 20.9418058,47.9843774 C21.9804466,50.8847547 24.6414175,51.9375849 27.6012233,52.1973962 C30.8639417,52.4838113 34.8047184,52.569283 37.650932,50.7596604 C40.9486019,48.6624906 40.6468544,45.3262642 40.6800583,41.9141887 C40.7295728,36.9019245 40.5210291,31.7741887 40.1715146,26.7743774" id="Fill-4" fill="#084D8A"></path>
                        <path d="M24.3900583,23.2878113 C26.7626796,23.5119623 28.3250097,25.5604528 30.8391845,25.5893208 C31.7595728,25.5995094 32.723068,25.4591321 33.6189903,25.2519623 C34.8020971,24.977434 36.3521942,23.9851698 37.5591845,24.0281887 C38.7859806,24.0712075 38.784233,22.2191321 37.5591845,22.1761132 C35.2285049,22.0940377 33.288699,23.8498868 30.8391845,23.7372453 C28.4269515,23.6268679 26.7888932,21.6621509 24.3900583,21.4363019 C23.1702524,21.3208302 23.1784078,23.1734717 24.3900583,23.2878113" id="Fill-6" fill="#084D8A"></path>
                        <path d="M26.0574175,15.0849623 C29.0842136,14.9576038 32.0999417,15.0068491 35.1244078,15.1681698 C36.3500388,15.2338302 36.3459612,13.3823208 35.1244078,13.3166604 C32.0999417,13.1547736 29.0842136,13.1055283 26.0574175,13.2334528 C24.8352816,13.2843962 24.8288738,15.1364717 26.0574175,15.0849623" id="Fill-8" fill="#084D8A"></path>
                    </g>
                </g>
            </g>
        </g>
    </g>
</svg>