<?xml version="1.0" encoding="UTF-8"?>
<svg width="60px" height="60px" viewBox="0 0 60 60" version="1.1" xmlns="http://www.w3.org/2000/svg" xmlns:xlink="http://www.w3.org/1999/xlink">
    <title>No Sesame_Line</title>
    <defs>
        <polygon id="path-1" points="5.98896069e-05 0.494857143 59.6564151 0.494857143 59.6564151 60 5.98896069e-05 60"></polygon>
    </defs>
    <g id="Desktop" stroke="none" stroke-width="1" fill="none" fill-rule="evenodd">
        <g id="WAT_Home_Final_MegaShop" transform="translate(-1231.000000, -1192.000000)">
            <g id="Icon-Groups" transform="translate(137.000000, 1035.000000)">
                <g id="No-Sesame_Line" transform="translate(1094.000000, 157.000000)">
                    <g id="Group-22">
                        <g id="Group-3">
                            <mask id="mask-2" fill="white">
                                <use xlink:href="#path-1"></use>
                            </mask>
                            <g id="Clip-2"></g>
                            <path d="M46.3028491,52.8209714 C34.9147358,38.6638286 23.4258679,24.5895429 12.0405849,10.4306857 C14.7954906,8.02668571 18.0519057,6.10954286 21.6762453,4.83411429 C31.9407736,1.22382857 43.332283,3.3524 50.5458679,11.8798286 C59.5339811,22.5038286 59.0086981,38.7026857 50.2996415,49.2598286 C49.0951132,50.6301143 47.7502075,51.8118286 46.3028491,52.8209714 M23.7671887,56.6055429 C12.972283,54.2032571 4.78228302,46.5912571 2.95907547,35.3546857 C1.5224717,26.5049714 4.4624717,18.1986857 10.167,12.2249714 C21.4351132,26.2386857 32.8039811,40.1689714 44.0771887,54.1786857 C37.9945472,57.4764 30.5500189,58.1152571 23.7671887,56.6055429 M55.1788868,13.9186857 C49.062283,3.79697143 37.5932264,-1.10017143 26.1066226,0.956971429 C12.6394528,3.36954286 1.33001887,14.0706857 0.118132075,28.1112571 C-1.00658491,41.1484 5.97662264,52.7729714 17.9602075,57.5489714 C29.2328491,62.0421143 43.7686981,60.6186857 52.1302075,51.1072571 C60.7243585,40.6901143 62.2577547,25.6324 55.1788868,13.9186857" id="Fill-1" fill="#084D8A" mask="url(#mask-2)"></path>
                        </g>
                        <path d="M44.5755283,38.1311887 C43.5300566,38.6196792 41.9932642,38.3276038 41.0077925,37.8594906 C40.9308113,37.8226981 40.0019434,37.3823208 40.0302453,37.2526981 C40.0093019,37.3494906 41.3672264,36.8236415 41.4826981,36.785717 C42.3781698,36.4879811 43.3183585,36.2553396 44.2636415,36.2643962 C45.3023208,36.5428868 45.7483585,37.5826981 44.5755283,38.1311887 M44.7113774,33.7183585 C44.7006226,33.7166604 44.691566,33.7183585 44.6808113,33.7172264 C44.5834528,33.6923208 44.4798679,33.6753396 44.3672264,33.6719434 C42.3532642,33.6142075 39.2383585,34.281566 37.9755283,36.0051509 C36.2983585,38.2919434 39.1398679,40.086283 41.0842075,40.6426981 C43.2464717,41.2625094 46.475717,41.0485472 47.5528868,38.7379811 C48.6006226,36.4879811 47.0842075,34.0534528 44.7113774,33.7183585" id="Fill-4" fill="#084D8A"></path>
                        <path d="M36.9152264,14.7478868 C36.9571132,14.6652453 37.4025849,13.7556226 37.5452264,13.7861887 C37.4150377,13.7584528 37.9397547,15.1786415 37.973717,15.2884528 C38.2510755,16.1878868 38.783717,17.5678868 38.2646604,18.4695849 C37.7931509,19.2897736 36.9061698,19.1301509 36.5563585,18.3071321 C36.1029623,17.2384528 36.4148491,15.7367547 36.9152264,14.7478868 M35.9223962,21.306 C37.4229623,22.0271321 39.2054151,21.5833585 40.2248491,20.2741132 C41.4548491,18.6931698 41.1503208,16.7867547 40.6635283,14.9720377 C40.3454151,13.7856226 39.804283,12.5188302 38.7933396,11.7597736 C36.5280566,10.0593962 34.7031509,12.8890189 34.1116415,14.8158113 C33.4499434,16.9701509 33.6254151,20.2016604 35.9223962,21.306" id="Fill-6" fill="#084D8A"></path>
                        <path d="M23.5923396,40.5067358 C23.493283,40.6369245 22.758,41.5850377 22.6063019,41.5063585 C22.7229057,41.5663585 22.5355472,40.3125849 22.5264906,40.2163585 C22.4313962,39.1861698 22.4291321,38.079 22.7166792,37.0833396 C23.1468679,36.0180566 24.3463019,36.2416415 24.5829057,37.2656038 C24.828566,38.3263585 24.2115849,39.6871132 23.5923396,40.5067358 M25.6464906,34.3946604 C24.4612075,33.6078679 22.9889434,33.579566 21.8053585,34.3827736 C20.5764906,35.2165472 20.1395094,36.4386226 19.9249811,37.8344717 C19.8191321,38.5176792 19.7919623,39.2235283 19.8264906,39.9135283 C19.8881887,41.1774906 20.1746038,42.6208868 21.1572453,43.5078679 C23.1768679,45.3299434 25.5621509,42.5925849 26.4021509,40.8605094 C27.3723396,38.859 27.7730943,35.8063585 25.6464906,34.3946604" id="Fill-8" fill="#084D8A"></path>
                        <path d="M25.5978113,15.3929434 C25.6555472,15.2299245 25.8355472,14.6186038 26.0246038,14.4040755 C25.9238491,14.621434 26.448,15.2084151 26.5363019,15.3799245 C27.0095094,16.2974717 27.4413962,17.4108679 27.5144151,18.4461509 C27.4549811,19.8906792 26.0778113,19.872566 25.5791321,18.7257736 C25.1353585,17.7035094 25.233283,16.4169057 25.5978113,15.3929434 M25.2519623,21.9465283 C27.813283,22.9336981 30.1515849,20.7861509 29.988,18.2186038 C29.8436604,15.957283 29.1525283,13.1276604 26.9155472,12.0550189 C24.5398868,10.9155849 23.1712075,13.8635094 22.8383774,15.7308679 C22.4512075,17.8987925 22.922717,21.0487925 25.2519623,21.9465283" id="Fill-10" fill="#084D8A"></path>
                        <path d="M33.2387547,26.9859623 C34.2457358,26.517283 35.5453585,26.5936981 36.5715849,26.9350189 C36.7906415,27.0086038 37.0204528,27.0606792 37.2321509,27.1552075 C37.4234717,27.2406792 37.4359245,27.2859623 37.308566,27.4144528 C37.1829057,27.5412453 36.9655472,27.6736981 36.8115849,27.7761509 C36.4272453,28.032 35.9947925,28.2052075 35.5708302,28.3812453 C34.9413962,28.6421887 34.2768679,28.8493585 33.5953585,28.9093585 C32.1734717,28.8753962 32.0834717,27.5231321 33.2387547,26.9859623 M33.1900755,31.4004906 C33.3661132,31.4203019 33.5444151,31.4287925 33.7244151,31.4248302 C35.8798868,31.376717 38.958,30.3221887 39.9423396,28.2204906 C41.0642264,25.8250189 38.1072453,24.5033208 36.228566,24.1931321 C34.0572453,23.8353962 30.9140377,24.3521887 30.0429057,26.6876604 C29.1712075,29.022 30.9530943,31.1474717 33.1900755,31.4004906" id="Fill-12" fill="#084D8A"></path>
                        <path d="M32.6683019,47.9788302 C31.7909434,48.5437358 30.7839623,49.0044906 29.7583019,49.2167547 C28.2384906,49.2150566 28.2339623,47.766 29.5783019,47.2005283 C30.6050943,46.7692075 31.7858491,46.7584528 32.8437736,47.0686415 C32.9949057,47.1133585 33.2671698,47.1631698 33.48,47.2509057 C33.4460377,47.3018491 33.4103774,47.3675094 33.3707547,47.4558113 C33.1579245,47.6590189 32.9235849,47.8327925 32.6683019,47.9788302 M32.2171698,44.3171321 C30.0328302,44.0839245 26.849434,44.8146792 26.1056604,47.1920377 C25.7286792,48.3971321 26.0015094,49.7052453 26.8703774,50.6295849 C28.2237736,52.0701509 30.3554717,51.8929811 32.0484906,51.2573208 C33.6475472,50.6561887 35.6269811,49.5846792 36.1386792,47.8158113 C36.8145283,45.4792075 34.0018868,44.5073208 32.2171698,44.3171321" id="Fill-14" fill="#084D8A"></path>
                        <path d="M12.3335094,38.5410566 C11.4787925,37.871434 10.9195472,36.7608679 10.7231321,35.7108679 C10.6687925,35.4159623 10.5748302,34.9665283 10.6240755,34.6421887 C10.887283,34.7299245 11.1340755,34.8510566 11.3633208,35.007283 C12.2944528,35.5665283 13.2861509,36.4501132 13.8742642,37.361434 C14.4929434,38.6050189 13.2940755,39.2933208 12.3335094,38.5410566 M16.077283,36.071434 C15.5429434,35.036717 14.6401132,34.1627547 13.7344528,33.4336981 C12.6940755,32.5965283 11.3231321,31.8029434 9.93464151,32.0604906 C7.60822642,32.4923774 7.86124528,35.4538868 8.43067925,37.1565283 C9.12916981,39.2440755 11.0140755,41.7482264 13.4729434,41.4997358 C15.2050189,41.3242642 16.4457736,39.9680377 16.556717,38.2450189 C16.6082264,37.452566 16.4169057,36.7291698 16.077283,36.071434" id="Fill-16" fill="#084D8A"></path>
                        <path d="M45.3908491,27.9425094 C44.9804717,27.0560943 45.4508491,25.5481698 45.8651887,24.755717 C46.0225472,24.4534528 46.2161321,23.8783585 46.4872642,23.6689245 C47.0714151,23.2183585 47.2899057,26.0621321 47.3012264,26.3145849 C47.324434,26.8551509 47.415,27.5536415 47.1161321,28.0149623 C46.6627358,28.7134528 45.7491509,28.7168491 45.3908491,27.9425094 M48.435,21.4483585 C46.2546226,19.4106226 43.980283,22.431 43.2285849,24.3419434 C42.4010377,26.4436415 42.3274528,29.5274151 44.595566,30.7460943 C46.9333019,32.001566 49.2823585,30.3040189 49.7272642,27.9396792 C50.1325472,25.7842075 50.1682075,23.0694906 48.435,21.4483585" id="Fill-18" fill="#084D8A"></path>
                        <path d="M16.3123585,27.2741887 C16.3083962,27.2809811 16.304434,27.2877736 16.2999057,27.294 C16.1782075,27.459283 15.7321698,27.3568302 15.5600943,27.3517358 C14.4806604,27.3200377 13.1912264,27.0477736 12.2340566,26.5485283 C11.1161321,25.8104151 11.7416038,24.5877736 12.9857547,24.759283 C13.995,24.8985283 14.9799057,25.5404151 15.6517925,26.2802264 C15.8012264,26.4438113 16.4499057,27.0121132 16.3123585,27.2741887 M16.9112264,23.9073962 C15.2221698,22.4702264 12.2176415,21.2424906 10.2925472,22.9321132 C9.33764151,23.7704151 8.87462264,25.0179623 9.14858491,26.2700377 C9.58783019,28.2794717 11.3063208,29.1279623 13.1125472,29.6311698 C14.7291509,30.0811698 16.9066981,30.3777736 18.2963208,29.1924906 C20.1427358,27.6166415 18.284434,25.0762642 16.9112264,23.9073962" id="Fill-20" fill="#084D8A"></path>
                    </g>
                </g>
            </g>
        </g>
    </g>
</svg>