<?xml version="1.0" encoding="UTF-8"?>
<svg width="60px" height="60px" viewBox="0 0 60 60" version="1.1" xmlns="http://www.w3.org/2000/svg" xmlns:xlink="http://www.w3.org/1999/xlink">
    <title>No Tree Nuts_Line</title>
    <defs>
        <polygon id="path-1" points="0.000117035532 0.0222857143 59.694879 0.0222857143 59.694879 59.4285714 0.000117035532 59.4285714"></polygon>
    </defs>
    <g id="Desktop" stroke="none" stroke-width="1" fill="none" fill-rule="evenodd">
        <g id="WAT_Home_Final_MegaShop" transform="translate(-286.000000, -1193.000000)">
            <g id="Icon-Groups" transform="translate(137.000000, 1035.000000)">
                <g id="No-Tree-Nuts_Line" transform="translate(149.000000, 158.000000)">
                    <g id="Group-16">
                        <g id="Group-3" transform="translate(0.000000, -0.000000)">
                            <mask id="mask-2" fill="white">
                                <use xlink:href="#path-1"></use>
                            </mask>
                            <g id="Clip-2"></g>
                            <path d="M23.1760755,56.2815429 C11.7585283,54.0466857 3.72928302,44.6312571 2.69626415,32.9541143 C1.97173585,24.7655429 4.88626415,17.3078286 10.1453208,11.8318286 C21.204566,25.5918286 32.2632453,39.3518286 43.3219245,53.1118286 C37.2177736,56.4066857 29.9894717,57.6152571 23.1760755,56.2815429 M50.2926792,10.4426857 C59.4743774,20.8695429 59.4958868,38.5232571 49.7424906,48.4535429 C48.4530566,49.6964 47.049283,50.8101143 45.5589057,51.7901143 C45.5356981,51.7558286 45.518717,51.7204 45.4915472,51.6861143 C34.3360755,37.8055429 23.1800377,23.9249714 12.024566,10.0444 C14.6266415,7.78725714 17.6736226,5.95982857 21.053434,4.68211429 C31.0513585,0.902114286 42.9200377,2.06954286 50.2926792,10.4426857 M55.1996604,12.8278286 C48.9704151,2.27925714 36.8956981,-1.73331429 25.2919245,0.719828571 C12.6041887,3.40154286 1.82343396,13.2992571 0.222679245,26.6038286 C-1.32543396,39.4661143 5.28815094,52.4626857 17.3990943,57.3032571 C28.8647547,61.8861143 42.7207925,58.8335429 51.5724906,50.3015429 C61.1832453,40.5169714 62.0990943,24.5095429 55.1996604,12.8278286" id="Fill-1" fill="#084D8A" mask="url(#mask-2)"></path>
                        </g>
                        <path d="M47.736283,37.0009245 C45.5972264,42.4988491 38.9213774,44.4313019 34.2085472,40.7469623 C28.836283,36.5469623 31.8725094,27.723 34.4694906,22.8154528 C35.8426981,20.2207358 37.5436415,17.8207358 39.4670377,15.6052642 C40.6308113,14.2648868 41.4085472,13.2046981 43.0155283,14.7318679 C44.1696792,15.8294151 44.9587358,17.6209245 45.7336415,18.992434 C48.4987358,24.2396038 49.9636415,31.278283 47.736283,37.0009245 M47.9683585,17.6854528 C46.7474151,15.5243208 44.4419434,10.3909245 41.2794906,10.8228113 C39.5870377,11.0543208 38.3411887,12.9397925 37.3347736,14.1222453 C36.081566,15.5945094 34.9002453,17.1420566 33.8474151,18.7643208 C29.8653396,24.903 25.6777925,35.447717 31.5113774,41.7963962 C36.0589245,46.7458302 44.4679811,46.2063962 48.4489245,40.9580943 C53.3751509,34.4628113 51.4743962,24.3392264 47.9683585,17.6854528" id="Fill-4" fill="#084D8A"></path>
                        <path d="M26.594434,41.8708302 C24.7106604,42.9434717 22.5687736,43.7081887 20.4948113,44.3013962 C5.05896226,48.7187547 9.68462264,23.3710189 20.0261321,26.1463019 C24.2419811,27.6757358 27.7253774,31.4246038 28.9242453,35.7678113 C29.7195283,38.6489434 29.115,40.4370566 26.594434,41.8708302 M21.0206604,23.7746038 C20.9283962,23.7242264 20.8287736,23.6812075 20.714434,23.6506415 C20.6068868,23.6110189 20.5038679,23.5895094 20.4042453,23.5776226 C6.47349057,20.2810189 2.40764151,49.1783774 17.9504717,47.5051698 C22.8127358,46.9821509 32.0759434,44.1961132 31.905,37.998 C31.7306604,31.6912075 26.7019811,25.9725283 21.0206604,23.7746038" id="Fill-6" fill="#084D8A"></path>
                        <path d="M39.6558679,13.4006038 C36.3015283,22.2936226 30.3507736,35.3911698 37.0486981,44.154 C37.7624717,45.0879623 39.371717,44.1670189 38.6477547,43.2194717 C32.3149245,34.9343774 38.2577547,22.3343774 41.4411509,13.8930566 C41.862283,12.7762642 40.0724717,12.294 39.6558679,13.4006038" id="Fill-8" fill="#084D8A"></path>
                        <path d="M40.9139434,12.7066415 C40.113,22.9360755 38.5756415,33.0879623 37.6858302,43.3083396 C37.5822453,44.4958868 39.4348868,44.4885283 39.5373396,43.3083396 C40.427717,33.0879623 41.9639434,22.9360755 42.7654528,12.7066415 C42.8588491,11.5185283 41.0062075,11.5247547 40.9139434,12.7066415" id="Fill-10" fill="#084D8A"></path>
                        <path d="M41.5209057,12.834566 C42.9326038,15.0500377 43.3639245,18.2266415 43.7527925,20.7913585 C44.1705283,23.5372075 44.270717,26.3277736 44.1235472,29.0990943 C43.8626038,34.0072075 42.9993962,39.3211698 39.1537358,42.7507925 C38.2622264,43.5449434 39.575434,44.8513585 40.4629811,44.0600377 C44.4297736,40.523434 45.5233585,35.1953208 45.9105283,30.1060755 C46.146566,26.9985283 46.0469434,23.8830566 45.6093962,20.7981509 C45.1950566,17.8836226 44.7258113,14.4206038 43.1193962,11.9000377 C42.4809057,10.8981509 40.8773208,11.8253208 41.5209057,12.834566" id="Fill-12" fill="#084D8A"></path>
                        <path d="M30.5257358,37.0943208 C27.9287547,35.6696038 24.6649811,36.1869623 23.5776226,38.7890377 C21.1306415,37.878283 18.6021509,38.6650755 17.1564906,40.8839434 C14.8272453,39.5922453 12.137434,39.8328113 10.2140377,41.9062075 C9.40460377,42.7790377 10.7110189,44.0916792 11.5238491,43.2154528 C13.1455472,41.4669623 15.2489434,41.6848868 17.0183774,42.9896038 C17.3942264,43.2669623 18.0915849,43.0779057 18.2851698,42.6573396 C19.3221509,40.398283 21.4963019,39.5922453 23.7021509,40.8901698 C24.3621509,41.2779057 25.0176226,40.7616792 25.0951698,40.0903585 C25.3657358,37.7622453 28.0889434,37.8692264 29.5912075,38.6933774 C30.6361132,39.2667736 31.5717736,37.668283 30.5257358,37.0943208" id="Fill-14" fill="#084D8A"></path>
                    </g>
                </g>
            </g>
        </g>
    </g>
</svg>