<?xml version="1.0" encoding="UTF-8"?>
<svg width="60px" height="60px" viewBox="0 0 60 60" version="1.1" xmlns="http://www.w3.org/2000/svg" xmlns:xlink="http://www.w3.org/1999/xlink">
    <title>No Wheat or Gluten_Line</title>
    <defs>
        <polygon id="path-1" points="0 0.263428571 59.5355538 0.263428571 59.5355538 60 0 60"></polygon>
    </defs>
    <g id="Desktop" stroke="none" stroke-width="1" fill="none" fill-rule="evenodd">
        <g id="WAT_Home_Final_MegaShop" transform="translate(-691.000000, -1193.000000)">
            <g id="Icon-Groups" transform="translate(137.000000, 1035.000000)">
                <g id="No-Wheat-or-Gluten_Line" transform="translate(554.000000, 158.000000)">
                    <g id="Group-22">
                        <g id="Group-3" transform="translate(0.000000, 0.000000)">
                            <mask id="mask-2" fill="white">
                                <use xlink:href="#path-1"></use>
                            </mask>
                            <g id="Clip-2"></g>
                            <path d="M45.9208,52.0015429 C45.9179429,51.9981143 45.9168,51.9946857 45.9139429,51.9912571 C34.6550857,38.1146857 23.3956571,24.2369714 12.1368,10.3598286 C14.3882286,8.41011429 16.9585143,6.76668571 19.7625143,5.49411429 C29.8642286,0.909542857 40.8168,2.3284 48.8385143,10.1186857 C53.6293714,14.7712571 56.1756571,20.8049714 56.7533714,27.4146857 C57.4562286,35.4592571 55.3842286,42.4472571 49.9499429,48.4952571 C48.7139429,49.7998286 47.3613714,50.9689714 45.9208,52.0015429 M22.2756571,56.5792571 C10.4688,53.6472571 2.67622857,42.9712571 2.59394286,30.8821143 C2.5448,23.5906857 5.46251429,17.0906857 10.2436571,12.1524 C21.4059429,25.9095429 32.5676571,39.6672571 43.7293714,53.4244 C37.3465143,57.1655429 29.5945143,58.3964 22.2756571,56.5792571 M54.6065143,12.9455429 C47.6362286,2.6284 35.6550857,-1.98817143 23.6579429,1.3204 C12.5813714,4.37582857 2.68594286,13.2872571 0.5248,24.8552571 C-1.93462857,38.0198286 4.37394286,51.9895429 16.8328,57.4695429 C28.6265143,62.6569714 42.9653714,59.6684 51.7968,50.3432571 C56.7585143,44.8221143 59.6373714,38.2558286 59.5328,30.7712571 C59.4453714,24.5158286 58.1528,18.1952571 54.6065143,12.9455429" id="Fill-1" fill="#084D8A" mask="url(#mask-2)"></path>
                        </g>
                        <path d="M38.1600566,40.9510755 C37.3376038,44.9993774 35.3960943,47.3999434 31.2979811,47.9348491 L31.2979811,42.3605094 C33.5043962,42.2586226 35.5879811,41.799566 37.296283,40.1840943 C39.3130755,38.2759811 40.0647736,35.5901321 39.9894906,32.8810755 C39.9430755,31.2191887 37.3545849,31.2123962 37.401,32.8810755 C37.4530755,34.748434 37.0840189,36.6508868 35.7679811,38.0682453 C34.5606226,39.3701321 32.9519434,39.699566 31.2979811,39.7759811 L31.2979811,33.6797547 C36.3340189,33.2852264 39.7964717,29.5573019 40.1542075,24.3271132 C40.2685472,22.6640943 37.6789245,22.6714528 37.565717,24.3271132 C37.3076038,28.0969245 34.8521321,30.7340943 31.2979811,31.0940943 L31.2979811,26.0076792 C33.4766604,25.7518302 35.7045849,24.9333396 37.0002453,23.169566 C39.2253396,20.1423962 38.570434,15.1363585 38.2308113,11.6806981 C38.0700566,10.0380566 35.480434,10.0210755 35.6428868,11.6806981 C35.9123208,14.4322075 36.3006226,17.5425849 35.5025094,20.2352264 C34.911,22.2299434 33.1930755,23.1288113 31.2979811,23.4101321 L31.2979811,12.1940943 C31.2979811,10.5282453 28.7094906,10.5259811 28.7094906,12.1940943 L28.7094906,23.439566 C23.2523208,22.704283 24.3345849,16.4059811 24.351,12.069566 C24.3566604,10.403717 21.7681698,10.4014528 21.7619434,12.069566 C21.7506226,15.3259811 21.1545849,19.0012642 22.5532642,22.074283 C23.6785472,24.5478679 26.1170377,25.8022075 28.7094906,26.0523962 L28.7094906,30.969566 C25.4394906,30.3486226 22.2668491,28.029 22.5113774,24.4074906 C22.6240189,22.7444717 20.0349623,22.7518302 19.9228868,24.4074906 C19.5832642,29.439566 24.0940189,32.9122075 28.7094906,33.5965472 L28.7094906,39.7244717 C25.1213774,39.3197547 23.3502453,37.0810755 23.4255283,33.173717 C23.4577925,31.5073019 20.8693019,31.5073019 20.8370377,33.173717 C20.7317547,38.6014528 23.6440189,41.8731509 28.7094906,42.3276792 L28.7094906,48.0271132 C25.0879811,47.8091887 22.4581698,45.9905094 22.4174151,41.7831509 C22.401,40.118434 19.8125094,40.1144717 19.828286,41.7831509 C19.8838302,47.4503208 23.4153396,50.3150377 28.7094906,50.6065472 L28.7094906,51.4640943 C28.7094906,53.1299434 31.2979811,53.1327736 31.2979811,51.4640943 L31.2979811,50.5386226 C36.3894906,49.9969245 39.5819434,46.9256038 40.655717,41.6393774 C40.986283,40.0131509 38.4917547,39.3174906 38.1600566,40.9510755" id="Fill-4" fill="#084D8A"></path>
                        <path d="M23.3452642,18.1829434 C24.9245094,18.3063396 26.3860189,19.0286038 27.3879057,20.2704906 C28.4741321,21.6165283 28.4888491,23.1861509 28.3790377,24.8378491 C28.2997925,26.0270943 30.1518679,26.022566 30.2305472,24.8378491 C30.3760189,22.6484151 30.1546981,20.6808679 28.6971509,18.9606792 C27.333,17.351434 25.427717,16.4944528 23.3452642,16.331434 C22.1571509,16.2380377 22.1633774,18.0901132 23.3452642,18.1829434" id="Fill-6" fill="#084D8A"></path>
                        <path d="M31.3841887,24.0931698 C31.6615472,21.3484528 33.6658868,18.2873208 36.6166415,18.2295849 C37.8070189,18.2063774 37.8109811,16.3548679 36.6166415,16.3780755 C32.5632453,16.4567547 29.9141887,20.3171321 29.5326792,24.0931698 C29.4126792,25.2778868 31.2653208,25.2693962 31.3841887,24.0931698" id="Fill-8" fill="#084D8A"></path>
                        <path d="M22.3966981,27.4783585 C25.1221698,26.3972264 28.4329245,28.310434 28.5240566,31.3342075 C28.560283,32.5234528 30.4117925,32.5285472 30.3761321,31.3342075 C30.2516038,27.2145849 25.7963208,24.1494906 21.9042453,25.6930755 C20.8095283,26.1272264 21.2866981,27.9187358 22.3966981,27.4783585" id="Fill-10" fill="#084D8A"></path>
                        <path d="M31.6749623,32.4325472 C31.6806226,29.5768868 34.2074151,27.2951887 37.0596792,28.0853774 C38.2098679,28.4034906 38.7006226,26.6176415 37.5521321,26.2995283 C33.5428868,25.1889623 29.8308113,28.379717 29.8234496,32.4325472 C29.8206226,33.6240566 31.6721321,33.6257547 31.6749623,32.4325472" id="Fill-12" fill="#084D8A"></path>
                        <path d="M23.0119245,35.780717 C24.3506038,35.6278868 26.0011698,35.4688302 27.2221132,36.1661887 C28.5653208,36.9337358 28.5121132,38.8543019 28.6372075,40.2043019 C28.7475849,41.3810943 30.6002264,41.3929811 30.489283,40.2043019 C30.3166415,38.3516604 30.2538113,36.1639245 28.6660755,34.9101509 C27.1123019,33.6841132 24.8753208,33.7163774 23.0119245,33.9292075 C21.8413585,34.0622264 21.8277736,35.915434 23.0119245,35.780717" id="Fill-14" fill="#084D8A"></path>
                        <path d="M31.2603962,40.2305094 C31.3254906,38.439566 31.842283,36.6927736 33.6507736,35.9897547 C35.0336038,35.4525849 36.6547358,35.6093774 38.0777547,35.8686226 C39.2426604,36.0808868 39.7419057,34.2967358 38.5696415,34.0833396 C36.5336038,33.7120189 34.2694528,33.549 32.3715283,34.5406981 C30.2160566,35.6665472 29.4920943,37.9374906 29.4088868,40.2305094 C29.3647358,41.4220189 31.2168113,41.4203208 31.2603962,40.2305094" id="Fill-16" fill="#084D8A"></path>
                        <path d="M22.3784717,44.2834528 C23.4613019,43.761 25.3405472,44.1549623 26.3441321,44.7470377 C27.6471509,45.515717 28.4922453,47.391 28.5946981,48.8479811 C28.6784717,50.0298679 30.5305472,50.0394906 30.4467736,48.8479811 C30.2979057,46.7383585 29.1794151,44.2460943 27.2786604,43.1479811 C25.6462075,42.2043962 23.1692264,41.8523208 21.4439434,42.6843962 C20.3707358,43.2023208 21.3086604,44.7996792 22.3784717,44.2834528" id="Fill-18" fill="#084D8A"></path>
                        <path d="M31.3991321,48.4673774 C31.1987547,44.2854906 35.2402642,43.046434 38.6902642,44.0160566 C39.8393208,44.3392642 40.3300755,42.5528491 39.182717,42.2302075 C34.5859245,40.9385094 29.2883774,43.0634151 29.5476226,48.4673774 C29.6042264,49.6537925 31.4563019,49.6605849 31.3991321,48.4673774" id="Fill-20" fill="#084D8A"></path>
                    </g>
                </g>
            </g>
        </g>
    </g>
</svg>
